<svg width="20" height="20" viewBox="0 0 20 20" fill="none" xmlns="http://www.w3.org/2000/svg">
<path d="M13.8151 1.0097L13.8151 1.00974C13.7917 1.02751 13.7309 1.08446 13.6464 1.16519C13.5582 1.24959 13.4361 1.36787 13.2843 1.51608C12.9805 1.81256 12.5567 2.22965 12.0439 2.73681C11.0183 3.75118 9.63631 5.12636 8.14593 6.6187L8.14592 6.61871L2.73186 12.0406L2.71091 12.0616L2.70162 12.0897L1.60399 15.4138C1.30115 16.3282 1.02659 17.1724 0.827689 17.796C0.728259 18.1077 0.647629 18.3647 0.591798 18.5478C0.563913 18.6392 0.542027 18.7129 0.527035 18.766C0.519572 18.7924 0.513557 18.8147 0.509315 18.8319C0.507215 18.8404 0.505281 18.8487 0.503793 18.8563L0.503715 18.8567C0.502781 18.8614 0.5 18.8754 0.5 18.8906C0.5 19.0489 0.588498 19.2001 0.697693 19.3071C0.807266 19.4144 0.960958 19.5 1.12109 19.5C1.13935 19.5 1.1569 19.4954 1.15767 19.4952L1.15769 19.4952C1.16405 19.4937 1.17132 19.4918 1.17886 19.4897C1.19415 19.4855 1.21467 19.4795 1.23963 19.472C1.28978 19.4569 1.36078 19.4347 1.45 19.4064C1.62859 19.3498 1.8819 19.268 2.19111 19.1672C2.80961 18.9654 3.65267 18.687 4.57085 18.3803L7.91062 17.267L7.93866 17.2577L7.95954 17.2368L13.4712 11.7173C13.4712 11.7173 13.4712 11.7173 13.4713 11.7172C13.7188 11.4697 13.9557 11.2329 14.1822 11.0063C16.7032 8.48571 17.9525 7.23657 18.5906 6.55046C18.9372 6.17764 19.1109 5.96335 19.2098 5.79692C19.2912 5.65979 19.3218 5.55341 19.3554 5.43662C19.3635 5.40854 19.3718 5.37986 19.381 5.35001C19.381 5.34976 19.3811 5.34951 19.3812 5.34926L19.2617 5.3125C19.3359 5.08203 19.3516 4.92578 19.3516 4.58984C19.3516 4.25391 19.3359 4.09766 19.2617 3.86719L13.8151 1.0097ZM13.8151 1.0097L13.8178 1.00775C14.1186 0.792343 14.4623 0.631943 14.7979 0.561386C15.1324 0.487238 15.6343 0.487488 15.9791 0.561321M13.8151 1.0097L19.381 3.82989C19.291 3.53396 19.2153 3.33986 19.0189 3.08159C18.8286 2.83115 18.5237 2.51881 17.9831 1.9782C17.5043 1.49742 17.2474 1.24143 17.0699 1.08687C16.8856 0.926474 16.7815 0.870996 16.6129 0.789738L16.6126 0.789616C16.4194 0.697056 16.1403 0.595303 15.9791 0.561321M15.9791 0.561321C15.9792 0.561337 15.9792 0.561354 15.9793 0.561369L15.9531 0.683594L15.9789 0.561275C15.9789 0.561291 15.979 0.561306 15.9791 0.561321ZM13.9244 2.63823L15.6313 4.34511L15.6314 4.34521L17.3437 6.05379L17.6069 5.79052L17.6073 5.79019C17.8647 5.53468 18.0247 5.31516 18.1136 5.09526C18.2015 4.87762 18.2235 4.64997 18.1885 4.37125C18.1631 4.17175 18.1257 4.04367 17.9996 3.86307C17.8666 3.6727 17.6376 3.42767 17.2196 3.00182C16.321 2.0954 16.1785 1.9764 15.9057 1.87498C15.4933 1.72316 15.0372 1.75706 14.6815 1.96656C14.6037 2.01418 14.3787 2.20041 14.1844 2.38689C14.1843 2.38695 14.1843 2.387 14.1842 2.38705L13.9244 2.63823ZM5.00536 15.0064L5.00516 15.0062C4.5776 14.5766 4.18717 14.1872 3.90272 13.9052C3.76404 13.7677 3.65068 13.6559 3.57053 13.5774C3.56241 13.6012 3.55319 13.6283 3.54272 13.6592C3.47379 13.8629 3.35286 14.2252 3.13781 14.8697C3.05311 15.1235 2.9538 15.4212 2.83732 15.7701C2.62847 16.3966 2.44315 16.9653 2.31304 17.377C2.25512 17.5603 2.20831 17.712 2.17529 17.8236C2.29596 17.7852 2.46385 17.7309 2.66779 17.6644C3.09281 17.5258 3.67363 17.3345 4.30824 17.1236L4.30825 17.1236L6.42078 16.4218L5.00536 15.0064ZM8.59229 7.9712L4.20021 12.3633L5.9087 14.0718L7.61719 15.7803L12.021 11.3765L16.4248 6.97266L14.728 5.27589C14.2359 4.78379 13.7869 4.33669 13.4594 4.01268C13.2957 3.85064 13.1625 3.71956 13.0697 3.62908C13.0469 3.60685 13.0266 3.58715 13.0089 3.5701C13.0059 3.57306 13.0028 3.5761 12.9996 3.57922C12.9386 3.6389 12.8491 3.72707 12.7342 3.8408C12.5044 4.0682 12.1734 4.39719 11.7654 4.80342C10.9496 5.61584 9.82663 6.73686 8.59229 7.9712Z" stroke="#989898" stroke-width="1"/>
</svg>
