<svg width="122" height="105" viewBox="0 0 122 105" fill="none" xmlns="http://www.w3.org/2000/svg">
<path d="M113.468 52.2461C112.908 54.2147 110.704 56.8131 109.755 58.4694C104.091 68.3541 98.4273 78.2396 92.775 88.1273C91.4001 90.518 90.1727 93.6994 88.3849 95.783C88.2021 96.6634 87.8243 97.3049 87.2598 97.7107C86.2501 83.6329 83.1553 69.9389 78.0123 56.8049C80.113 56.6348 82.2258 56.4575 84.3244 56.2518C94.089 55.2937 103.797 53.922 113.468 52.2461Z" fill="#F6F6F6"/>
<path d="M85.9372 98.1882C85.7302 98.217 85.5041 98.2283 85.2721 98.2144C84.0281 97.444 82.7947 96.6765 81.5613 95.9088C76.6084 92.822 71.6903 89.6967 66.8041 86.5321C47.6435 74.1289 28.907 61.085 10.5768 47.4772C23.8873 47.4777 37.1896 47.101 50.4852 46.3453C51.0566 46.3174 51.247 45.7212 51.0658 45.334L51.1432 45.3066C52.0692 47.8852 52.995 50.4648 53.9326 53.0464C54.4799 54.5519 54.8815 56.7119 56.4119 57.5569C59.1164 59.0362 64.2058 57.7183 67.2325 57.5558C70.3523 57.3928 73.4765 57.173 76.5949 56.928C81.8124 70.1766 84.9511 83.976 85.9372 98.1882ZM39.6409 59.4762C40.386 59.9523 41.0706 58.7676 40.3256 58.2915C36.5632 55.8671 32.7979 53.4533 29.0367 51.0281C28.3023 50.5547 27.6177 51.7394 28.3627 52.2156C32.116 54.6273 35.8785 57.0518 39.6409 59.4762ZM37.3259 61.8225C37.9815 62.4159 38.951 61.447 38.2926 60.8642C33.4158 56.4931 27.9063 53.1548 21.7802 50.831C20.9564 50.5224 20.6233 51.8451 21.4364 52.1509C27.3514 54.3847 32.619 57.6124 37.3259 61.8225Z" fill="#F6F6F6"/>
<path d="M48.0163 36.6106C49.0572 39.5136 50.0995 42.416 51.1435 45.3074L51.066 45.3348C50.9687 45.1214 50.772 44.9761 50.4626 44.9896C37.2386 45.7401 23.9973 46.109 10.7447 46.1122C16.9919 36.9199 23.2278 27.7236 29.4751 18.5314C31.0754 16.1756 32.5307 13.4762 34.3744 11.3131C35.1343 9.79561 36.2368 8.67323 37.6702 7.90674C41.1221 17.4755 44.5634 27.0415 48.0163 36.6106Z" fill="#F6F6F6"/>
<path d="M106.915 44.655C109.723 46.2326 113.594 47.1579 113.643 50.8476C104.623 52.4219 95.5543 53.7257 86.4376 54.6757C83.4672 54.9831 80.4872 55.2404 77.4984 55.484C77.4418 55.3401 77.3959 55.199 77.3403 55.0553C77.0088 54.2529 75.6931 54.615 76.0215 55.429C76.0428 55.4821 76.0616 55.5449 76.083 55.598C75.2689 55.6567 74.4493 55.7367 73.6238 55.7915C69.4353 56.0864 63.8087 57.3006 59.7104 56.5268C54.9658 55.6198 53.4041 47.5425 51.9134 43.4301C50.4343 39.3207 48.9552 35.2113 47.4758 31.1028C44.6249 23.1941 41.7768 15.2747 38.9259 7.36597C39.3518 7.21854 39.7866 7.08477 40.256 6.99622C41.5696 7.7258 42.8694 8.46424 44.1802 9.20446C49.4121 12.1645 54.6361 15.1112 59.8689 18.0715C70.3248 23.9782 80.7817 29.8852 91.2376 35.7919C96.4621 38.7366 101.695 41.697 106.915 44.655ZM94.2062 50.0616C95.0761 49.971 95.0669 48.6056 94.1863 48.6935C89.3012 49.1832 84.4853 48.9985 79.6548 48.1043C78.7937 47.9389 78.4499 49.2589 79.311 49.4242C84.2547 50.3366 89.2022 50.5555 94.2062 50.0616ZM91.2286 52.2933C92.1064 52.216 92.0863 50.8488 91.2088 50.9251C84.9131 51.5063 78.6119 51.839 72.2886 51.9428C71.4146 51.9621 71.4347 53.3293 72.3085 53.3109C78.6318 53.2071 84.9357 52.8638 91.2286 52.2933Z" fill="#F6F6F6"/>
<path d="M115.49 50.882C114.723 54.641 111.181 58.7231 109.287 62.0243C106.74 66.4834 104.179 70.95 101.617 75.4167C96.8735 83.7088 92.1297 92.0009 87.3742 100.29C87.1974 100.608 86.752 100.739 86.4398 100.541C59.7764 84.1044 33.8604 66.5123 8.73087 47.7972C8.26854 47.4536 8.42024 46.8235 8.77522 46.5873C14.0544 38.8107 19.3337 31.0342 24.6129 23.2576C27.4718 19.0452 30.3319 14.832 33.188 10.6301C34.08 9.32378 35.289 6.71321 36.8769 5.57568C36.8432 5.02646 37.5405 4.7854 37.9678 5.08476C39.7118 4.70502 41.5693 6.18696 42.9051 6.92234C46.857 9.06754 50.7504 11.3504 54.6611 13.5665C63.1622 18.3648 71.6527 23.1604 80.1529 27.9584C88.651 32.7684 97.1415 37.5639 105.642 42.3619C108.727 44.1038 116.458 46.1759 115.49 50.882ZM109.755 58.4695C110.703 56.813 112.907 54.2155 113.467 52.2462C103.797 53.9221 94.0887 55.2938 84.3231 56.2516C82.2255 56.4576 80.1116 56.6346 78.011 56.8047C83.1549 69.939 86.25 83.632 87.2585 97.7106C87.8217 97.3054 88.2006 96.6642 88.3836 95.7829C90.1714 93.6992 91.3998 90.5181 92.7737 88.1272C98.4279 78.24 104.092 68.3544 109.755 58.4695ZM113.643 50.8474C113.594 47.1578 109.723 46.2315 106.915 44.6548C101.694 41.6975 96.4618 38.7375 91.2378 35.7908C80.7819 29.8841 70.325 23.9771 59.8691 18.0704C54.6373 15.1103 49.4133 12.1637 44.1804 9.20336C42.8699 8.46216 41.5698 7.72473 40.2563 6.99515C39.7865 7.08466 39.352 7.21744 38.9261 7.36486C41.777 15.2736 44.6251 23.193 47.476 31.1018C48.9551 35.2112 50.4342 39.3205 51.9136 43.429C53.4033 47.5411 54.9651 55.6185 59.7106 56.5257C63.8089 57.2995 69.4353 56.0863 73.624 55.7904C74.4485 55.7354 75.2684 55.6544 76.0832 55.5969C76.0619 55.5438 76.043 55.481 76.0217 55.4279C75.6933 54.6139 77.009 54.2518 77.3405 55.0542C77.3971 55.1981 77.443 55.3393 77.4986 55.4829C80.4874 55.2393 83.4677 54.981 86.4378 54.6746C95.5542 53.7255 104.623 52.4218 113.643 50.8474ZM85.2722 98.2153C85.5034 98.228 85.7296 98.2166 85.9373 98.1891C84.9514 83.9759 81.8135 70.1776 76.5938 56.9296C73.4754 57.1746 70.3519 57.3955 67.2314 57.5573C64.2045 57.7208 59.1151 59.0387 56.4109 57.5584C54.8804 56.7134 54.48 54.5528 53.9315 53.048C52.9948 50.4666 52.0681 47.8868 51.1421 45.3082C50.0981 42.4167 49.0561 39.5134 48.0149 36.6114C44.562 27.0423 41.1207 17.4763 37.6688 7.90751C36.2353 8.674 35.1329 9.79638 34.373 11.3138C32.5293 13.477 31.0743 16.1754 29.4737 18.5321C23.2264 27.7244 16.9905 36.9207 10.7433 46.113C23.9956 46.1107 37.2372 45.7409 50.4612 44.9903C50.7706 44.9769 50.9673 45.1222 51.0647 45.3356C51.2457 45.7237 51.0553 46.32 50.484 46.3469C37.1887 47.1016 23.8862 47.4793 10.5757 47.4788C28.9059 61.0866 47.6424 74.1305 66.803 86.5337C71.6885 89.697 76.6075 92.8226 81.5602 95.9104C82.7948 96.6773 84.0282 97.4449 85.2722 98.2153Z" fill="#1D1D1B"/>
<path d="M94.1863 48.6934C95.0669 48.6055 95.0752 49.9706 94.2062 50.0616C89.2022 50.5554 84.2547 50.3365 79.3118 49.4254C78.4506 49.26 78.7944 47.9401 79.6555 48.1054C84.4853 48.9985 89.301 49.1841 94.1863 48.6934Z" fill="#1D1D1B"/>
<path d="M91.2086 50.9259C92.0864 50.8487 92.1062 52.2168 91.2284 52.2941C84.9358 52.8636 78.6315 53.208 72.3083 53.3117C71.4342 53.3311 71.4143 51.9629 72.2884 51.9436C78.6119 51.8388 84.9132 51.5061 91.2086 50.9259Z" fill="#1D1D1B"/>
<path d="M40.326 58.2924C41.0711 58.7685 40.3874 59.9534 39.6414 59.4771C35.8789 57.0526 32.1167 54.6272 28.3631 52.2164C27.6181 51.7403 28.3027 50.5556 29.0372 51.0289C32.7986 53.4531 36.5638 55.8669 40.326 58.2924Z" fill="#1D1D1B"/>
<path d="M38.2928 60.8642C38.9512 61.4469 37.9827 62.4161 37.3261 61.8225C32.6192 57.6124 27.3506 54.3844 21.4357 52.1506C20.6225 51.8448 20.9556 50.5221 21.7794 50.8307C27.9064 53.1548 33.416 56.4931 38.2928 60.8642Z" fill="#1D1D1B"/>
</svg>
