<svg width="89" height="55" viewBox="0 0 89 55" fill="none" xmlns="http://www.w3.org/2000/svg">
<path d="M27.0253 29.7246C27.4553 29.9113 27.8853 30.0987 28.3055 30.2952C25.2773 34.4548 22.2861 38.6423 19.3787 42.8956C17.939 45.0079 14.7801 48.1866 13.7704 51.103C11.4806 42.7279 8.68506 34.5017 5.31071 26.4917C4.68418 25.0051 3.52569 23.2012 3.18858 21.6308C2.25373 20.7338 2.21672 19.9107 3.06689 19.1724L27.0253 29.7246Z" fill="#F6F6F6"/>
<path d="M86.4104 38.2122C77.5305 31.5942 68.6506 24.9672 59.7798 18.3492C59.705 18.3023 59.6392 18.2744 59.5742 18.2555C63.5652 12.7968 67.8185 7.57165 72.7724 2.91629C72.8842 2.80447 72.931 2.69183 72.931 2.57014C73.2583 2.46737 73.5855 2.3646 73.9128 2.25195C77.343 14.498 81.5215 26.4809 86.4104 38.2122Z" fill="#F6F6F6"/>
<path d="M86.5965 39.7449C62.5921 44.119 38.5884 48.494 14.584 52.869C14.6309 50.8965 16.8368 48.6626 17.8366 47.1768C19.1637 45.1854 20.5097 43.2138 21.8745 41.2504C24.314 37.7173 26.8193 34.2213 29.3525 30.7532C32.4375 32.1082 35.5216 33.4731 38.6065 34.8289C40.6259 35.7169 42.8689 37.0349 45.1406 36.5111C47.3466 36.0153 48.4591 34.0338 49.6924 32.3146C51.9264 29.2017 54.0575 26.0329 56.2545 22.892C57.1614 21.602 58.0773 20.3119 59.0122 19.0317C59.0401 19.1345 59.096 19.2373 59.2087 19.3211C68.341 26.1258 77.4642 32.9312 86.5965 39.7449ZM76.6601 38.9885C77.3705 38.8388 77.0712 37.7543 76.3608 37.904C73.4535 38.5305 70.547 39.1562 67.6396 39.7737C66.9383 39.9323 67.2376 41.0078 67.9389 40.8581C70.8463 40.2316 73.7536 39.6142 76.6601 38.9885Z" fill="#F6F6F6"/>
<path d="M70.827 3.26245C66.901 7.10382 63.3589 11.2732 60.0586 15.6762C56.0577 21.023 52.768 27.5193 48.2524 32.4082C43.616 37.4188 38.1663 33.4179 33.3811 31.3056C32.2596 30.8197 31.1381 30.3239 30.0256 29.8289C30.0815 29.745 30.1375 29.6604 30.2032 29.5765C30.6333 28.9968 29.6614 28.4361 29.2314 29.0157C29.1475 29.1276 29.0628 29.2493 28.979 29.3709C27.1372 28.5578 25.2963 27.7446 23.4545 26.9314L5.03125 18.8178C5.555 18.734 6.08778 18.6592 6.62057 18.5843C11.2381 17.874 15.8557 17.0887 20.4551 16.2197C37.5135 13.0023 54.3294 8.63725 70.827 3.26245ZM33.298 25.7894C33.9336 26.1257 34.5042 25.1628 33.8687 24.8175C30.9153 23.2471 27.952 21.6767 24.9978 20.1063C24.3623 19.7601 23.7925 20.7328 24.4371 21.0691C27.3905 22.6485 30.3438 24.219 33.298 25.7894ZM30.0446 27.3129C30.69 27.6303 31.2598 26.6683 30.6053 26.3411C26.2772 24.2009 21.9499 22.0598 17.6218 19.9196C16.9771 19.6014 16.4065 20.5741 17.052 20.8915C21.3801 23.0317 25.7074 25.1727 30.0446 27.3129Z" fill="#F6F6F6"/>
<path d="M88.251 39.5862C88.8217 40.0072 88.2601 40.9791 87.6813 40.549C87.6533 40.5301 87.6254 40.5112 87.5974 40.4931C87.5415 40.6238 87.4288 40.7266 87.2422 40.7645C62.5463 45.2603 37.8503 49.766 13.1643 54.2619C12.4539 54.3926 12.1546 53.3081 12.865 53.1873C13.0056 53.1593 13.1454 53.1313 13.295 53.1034C13.1922 53.0376 13.1174 52.9447 13.0804 52.8041C9.9774 41.1945 5.88279 29.9499 0.779324 19.0786C0.638726 18.7983 0.723411 18.3123 1.11561 18.2564C1.39598 18.2194 1.68621 18.1726 1.97563 18.1347C2.10636 17.8634 2.42456 17.6669 2.76989 17.8165C2.88171 17.8634 2.98532 17.9193 3.09714 17.9662C27.3441 14.4233 51.1891 8.72205 74.4083 0.916801C74.988 0.720292 75.2774 1.44962 74.96 1.82372C78.521 14.5828 82.887 27.0705 88.0463 39.2689C88.0743 39.3346 88.0743 39.3996 88.0833 39.4555C88.1392 39.5024 88.1951 39.5394 88.251 39.5862ZM14.5851 52.869C38.5887 48.4949 62.5931 44.1199 86.5976 39.7449C77.4653 32.9304 68.342 26.1258 59.2097 19.3212C59.0979 19.2373 59.0412 19.1345 59.0132 19.0318C58.0784 20.312 57.1624 21.602 56.2555 22.8921C54.0586 26.0329 51.9274 29.2017 49.6935 32.3146C48.4594 34.0347 47.3477 36.0162 45.1417 36.5112C42.8699 37.0349 40.627 35.7169 38.6076 34.8289C35.5227 33.4739 32.4386 32.109 29.3536 30.7532C26.8204 34.2213 24.3151 37.7174 21.8756 41.2504C20.5107 43.213 19.1648 45.1855 17.8377 47.1769C16.8379 48.6626 14.6319 50.8966 14.5851 52.869ZM59.7795 18.3493C68.6504 24.9673 77.5303 31.5943 86.4102 38.2123C81.5213 26.481 77.3428 14.4981 73.9125 2.25289C73.5853 2.36554 73.258 2.46833 72.9308 2.57111C72.9308 2.6928 72.8839 2.80461 72.7721 2.91725C67.8183 7.57261 63.565 12.7978 59.574 18.2564C59.6389 18.2745 59.7047 18.3025 59.7795 18.3493ZM60.0599 15.6755C63.3594 11.2726 66.9024 7.10396 70.8284 3.26176C54.3299 8.63656 37.5141 13.0017 20.4557 16.2173C15.857 17.0864 11.2395 17.8716 6.62112 18.582C6.08833 18.6568 5.55555 18.7317 5.0318 18.8155L23.4551 26.9291C25.2968 27.7423 27.1378 28.5554 28.9795 29.3686C29.0634 29.2469 29.1481 29.1252 29.2319 29.0134C29.6619 28.4338 30.6338 28.9945 30.2038 29.5742C30.138 29.658 30.0821 29.7427 30.0262 29.8266C31.1386 30.3224 32.2601 30.8173 33.3816 31.3033C38.1677 33.4155 43.6173 37.4164 48.253 32.4058C52.7685 27.5186 56.059 21.0223 60.0599 15.6755ZM28.3069 30.2952C27.886 30.0987 27.4559 29.9121 27.0268 29.7246L3.06916 19.1716C2.21817 19.9099 2.256 20.7321 3.19086 21.63C3.52714 23.2004 4.68645 25.0043 5.31298 26.4909C8.68733 34.5017 11.482 42.7271 13.7727 51.1021C14.7824 48.1857 17.9413 45.0079 19.381 42.8948C22.2867 38.6423 25.2779 34.4548 28.3069 30.2952Z" fill="#1D1D1B"/>
<path d="M76.3617 37.9038C77.0721 37.7541 77.3714 38.8386 76.661 38.9883C73.7536 39.6148 70.8471 40.2315 67.9398 40.858C67.2384 41.0076 66.94 39.933 67.6405 39.7735C70.547 39.156 73.4543 38.5295 76.3617 37.9038Z" fill="#1D1D1B"/>
<path d="M33.8685 24.8178C34.5041 25.164 33.9343 26.1268 33.2979 25.7897C30.3445 24.2193 27.3903 22.6488 24.4369 21.0694C23.7923 20.7331 24.3621 19.7604 24.9977 20.1066C27.9519 21.677 30.9151 23.2474 33.8685 24.8178Z" fill="#1D1D1B"/>
<path d="M30.6052 26.3411C31.2597 26.6683 30.6891 27.6311 30.0445 27.3129C25.7073 25.1727 21.3792 23.0317 17.0519 20.8914C16.4073 20.5732 16.9771 19.6014 17.6217 19.9196C21.9498 22.0598 26.2779 24.2 30.6052 26.3411Z" fill="#1D1D1B"/>
</svg>
