<svg width="178" height="44" viewBox="0 0 178 44" fill="none" xmlns="http://www.w3.org/2000/svg">
	<g clip-path="url(#clip0_876_5180)">
		<path
			d="M24.7351 22.3087V24.8324H19.6575V16.7538H5.09082V16.2063C6.62345 14.0431 8.74247 11.0787 9.00902 10.9185C9.40883 10.6915 12.3408 8.78198 12.5407 8.78198C12.7406 8.78198 18.4314 9.74341 18.6979 10.0105C18.9644 10.2775 24.5219 15.3651 24.5219 15.3651C24.5219 15.3651 25.0816 16.3532 25.5214 17.1944C24.2154 17.3947 23.2158 18.5164 23.2158 19.8918C23.2158 20.9333 23.8422 21.8547 24.7351 22.3087Z"
			fill="#0E1079" />
		<path
			d="M34.091 32.6573V35.6884C34.091 36.6632 33.2913 37.451 32.3184 37.451H29.3198L26.1613 40.6157H33.0781C35.2771 40.6157 37.1029 38.8798 37.2229 36.6899C37.2362 36.6098 37.2362 36.5297 37.2362 36.4362V32.6573H34.091ZM12.5009 21.3071C13.3938 21.7611 14.0202 22.6825 14.0202 23.7507C14.0202 25.3264 12.7008 26.5549 11.1282 26.4614C9.74216 26.3813 8.62267 25.2062 8.58269 23.8175C8.55604 22.7225 9.18242 21.7745 10.102 21.3071V18.77H5.07764V34.4199C5.21091 35.0074 5.744 35.4614 6.3837 35.4614H8.98251L17.5786 26.8487V18.77H12.5009V21.3071Z"
			fill="#0E1079" />
		<path d="M12.048 34.0728H10.542V35.4615H12.048V34.0728Z" fill="#0E1079" />
		<path
			d="M32.1451 9.19576V24.8456H27.134V22.3085C28.0536 21.8545 28.6666 20.9064 28.6533 19.7981C28.6133 18.4094 27.5072 17.2477 26.1078 17.1542C25.4015 17.1142 24.7351 17.3412 24.2287 17.7551C24.2154 17.7418 24.202 17.7284 24.202 17.7284L12.3408 9.47618L13.6869 8.14087H30.839C31.492 8.14087 32.0251 8.59487 32.1451 9.19576Z"
			fill="#5BA1DF" />
		<path d="M12.3408 9.47618L13.6869 8.14087L12.3408 9.48953V9.47618Z" fill="#5BA1DF" />
		<path
			d="M33.9844 3.01335L32.7183 6.17804H27.1475V8.1543H24.7486V6.16469H12.5142V8.14095H13.6737L5.07766 16.7537V9.48961C5.07766 8.75519 5.67739 8.14095 6.42371 8.14095H10.102V6.16469H4.91774C3.94485 6.16469 3.14522 6.96587 3.14522 7.9273V10.9585H0V7.17952C0 7.08605 -2.03556e-07 7.00593 0.013327 6.92582C0.146599 4.7359 1.9591 3 4.15809 3H33.9844V3.01335Z"
			fill="#A2D5E8" />
		<path
			d="M17.5786 26.8621L8.98254 35.4748H10.0754V37.4511H4.43796L3.17188 40.6158H26.1746L29.3332 37.4511H27.1209V35.4748H30.7992C31.5455 35.4748 32.1452 34.8606 32.1452 34.1262V26.8621H17.5786ZM24.7086 37.4511H12.4743V35.4748H24.7086V37.4511Z"
			fill="#A2D5E8" />
		<path
			d="M48.2363 19.8448L51.928 13.8359L48.3963 8.06738H51.3815L53.7005 11.9531L56.1394 8.06738H59.0447L55.4064 13.876L59.138 19.8315H56.126L53.6072 15.7054L51.1683 19.8315H48.2363V19.8448Z"
			fill="#0E1079" />
		<path
			d="M69.5598 9.81664C69.1733 9.24246 68.6536 8.82851 67.9739 8.52139C67.3075 8.21427 66.5345 8.06738 65.6816 8.06738H61.1104V19.8315H63.5892V15.652H65.6149C66.5745 15.652 67.3741 15.5051 68.0405 15.2247C68.7202 14.9309 69.2266 14.4902 69.5865 13.9294C69.9463 13.3686 70.1195 12.6742 70.1195 11.873C70.1195 11.0718 69.933 10.3908 69.5598 9.81664ZM67.0943 13.1683C66.7211 13.4353 66.2147 13.5555 65.575 13.5555H63.6159V10.2172H65.6149C66.228 10.2172 66.7211 10.3508 67.0809 10.6445C67.4541 10.9249 67.6407 11.3522 67.6407 11.9398C67.6407 12.4873 67.4541 12.9012 67.0943 13.1683Z"
			fill="#0E1079" />
		<path d="M98.1867 19.8448V10.3241H95.0015V8.06738H103.891V10.3374H100.706V19.8448H98.1867Z" fill="#0E1079" />
		<path
			d="M111.394 8.06738H108.568L104.117 19.8315H106.823L107.716 17.3077H112.18L113.1 19.8315H115.898L111.394 8.06738ZM108.315 15.2247L109.928 10.7914L111.594 15.2247H108.315Z"
			fill="#0E1079" />
		<path
			d="M139.648 13.9962C139.261 13.422 138.741 12.9947 138.062 12.6876C137.395 12.3938 136.636 12.2336 135.783 12.2336H133.704V8.06738H131.211V19.8448H135.716C136.436 19.8448 137.062 19.7647 137.622 19.5911C138.168 19.4309 138.635 19.1905 139.021 18.8567C139.408 18.5229 139.701 18.1223 139.901 17.6549C140.101 17.1876 140.207 16.6534 140.207 16.0392C140.221 15.238 140.021 14.557 139.648 13.9962ZM137.195 17.3612C136.822 17.6282 136.316 17.7484 135.676 17.7484H133.717V14.3834H135.716C136.329 14.3834 136.822 14.5169 137.195 14.7974C137.555 15.0778 137.742 15.5051 137.742 16.0926C137.728 16.6668 137.569 17.0807 137.195 17.3612Z"
			fill="#0E1079" />
		<path
			d="M142.18 19.8448V8.06738H144.659V12.5407H149.656V8.06738H152.135V19.8448H149.656V14.8241H144.659V19.8448H142.18Z"
			fill="#0E1079" />
		<path
			d="M164.596 8.06738V19.8315H167.075V8.06738H164.596ZM162.437 13.9962C162.051 13.422 161.531 12.9947 160.864 12.6876C160.198 12.3938 159.438 12.2336 158.586 12.2336H156.586V8.06738H154.094V19.8448H158.519C159.239 19.8448 159.865 19.7647 160.411 19.5911C160.971 19.4309 161.438 19.1905 161.824 18.8567C162.211 18.5229 162.504 18.1223 162.704 17.6549C162.904 17.1876 162.997 16.6534 162.997 16.0392C163.023 15.238 162.824 14.557 162.437 13.9962ZM159.998 17.3612C159.625 17.6282 159.119 17.7484 158.479 17.7484H156.586V14.3834H158.492C159.119 14.3834 159.612 14.5169 159.972 14.7974C160.345 15.0778 160.531 15.5051 160.531 16.0926C160.545 16.6668 160.358 17.0807 159.998 17.3612Z"
			fill="#0E1079" />
		<path
			d="M169.061 19.8448V8.06738H177.097V10.2439H171.539V12.7677H176.244V14.7573H171.539V17.6416H177.163V19.8448H169.061Z"
			fill="#0E1079" />
		<path d="M48.2363 35.3746V23.5972H58.1918V35.3746H55.7129V25.8806H50.7152V35.388L48.2363 35.3746Z" fill="#0E1079" />
		<path
			d="M67.5872 23.5972H64.7618L60.3105 35.3746H63.016L63.9089 32.8375H68.3868L69.3064 35.3746H72.1051L67.5872 23.5972ZM64.5086 30.7544L66.1212 26.3346L67.7738 30.7544H64.5086Z"
			fill="#0E1079" />
		<path
			d="M78.0893 35.6282C77.1564 35.6282 76.3035 35.508 75.5438 35.281C74.7708 35.054 74.1045 34.7069 73.5181 34.2662L74.6109 32.3033C75.0107 32.6505 75.4905 32.9175 76.0636 33.1178C76.6366 33.3181 77.2097 33.425 77.8228 33.425C78.3292 33.425 78.7557 33.3582 79.1288 33.2247C79.4887 33.0911 79.7819 32.8908 79.9818 32.6505C80.1817 32.4101 80.2883 32.1164 80.2883 31.7959C80.2883 31.2885 80.115 30.9279 79.7552 30.6609C79.4087 30.4072 78.8623 30.2736 78.1293 30.2736H75.7837V28.3374H77.9294C78.3425 28.3374 78.7023 28.284 78.9955 28.1772C79.3021 28.057 79.5286 27.8968 79.6886 27.6831C79.8485 27.4695 79.9284 27.2158 79.9284 26.9086C79.9284 26.6149 79.8485 26.3612 79.6886 26.1742C79.5286 25.9739 79.3021 25.827 78.9822 25.7202C78.6624 25.6134 78.2759 25.5733 77.8228 25.5733C77.2897 25.5733 76.7699 25.6668 76.2768 25.8404C75.7704 26.014 75.3439 26.2677 74.9974 26.5882L73.8646 24.7588C74.3843 24.3048 75.024 23.9442 75.7704 23.6905C76.5167 23.4368 77.3163 23.3167 78.1693 23.3167C79.0489 23.3167 79.8085 23.4368 80.4349 23.6905C81.0613 23.9442 81.5544 24.2914 81.9009 24.7588C82.2474 25.2261 82.4206 25.787 82.4206 26.4413C82.4206 26.7885 82.3407 27.1356 82.1941 27.4695C82.0475 27.8033 81.8476 28.0837 81.581 28.3508C81.3278 28.6178 81.0346 28.8181 80.7414 28.965C81.3944 29.192 81.9142 29.5526 82.3007 30.0333C82.6872 30.5273 82.8871 31.1416 82.8871 31.876C82.8871 32.5837 82.6872 33.2247 82.3007 33.7855C81.9009 34.3463 81.3411 34.787 80.6215 35.1075C79.8618 35.468 79.0355 35.6282 78.0893 35.6282Z"
			fill="#0E1079" />
		<path
			d="M108.062 23.5972V35.3746H110.554V23.5972H108.062ZM105.89 29.526C105.503 28.9518 104.983 28.5378 104.317 28.2307C103.651 27.9236 102.891 27.7767 102.038 27.7767H100.039V23.5972H97.5469V35.388H101.972C102.691 35.388 103.318 35.2945 103.864 35.1343C104.424 34.9607 104.89 34.7337 105.277 34.3998C105.663 34.066 105.956 33.6654 106.156 33.1981C106.356 32.7307 106.449 32.1832 106.449 31.5823C106.476 30.7678 106.276 30.1001 105.89 29.526ZM103.451 32.8909C103.091 33.158 102.585 33.2782 101.945 33.2782H100.066V29.9132H101.958C102.585 29.9132 103.078 30.0467 103.438 30.3405C103.811 30.6209 103.997 31.0482 103.997 31.6357C103.997 32.2099 103.811 32.6239 103.451 32.8909Z"
			fill="#0E1079" />
		<path
			d="M76.53 13.8225H76.69L79.0222 8.1875H81.8476L77.4363 17.508C77.0898 18.2557 76.6766 18.8032 76.2102 19.1638C75.7704 19.5109 75.2106 19.7112 74.5976 19.7112C73.8246 19.7112 73.1316 19.5777 72.5452 19.324L73.1183 17.1875C73.2649 17.2543 73.4381 17.3077 73.6247 17.3344C73.7846 17.3744 73.9712 17.3878 74.1178 17.3878C74.6776 17.3878 75.0374 17.1875 75.184 16.7736L75.3173 16.4264L70.7061 8.1875H73.758L76.53 13.8225Z"
			fill="#0E1079" />
		<path
			d="M90.0303 10.6311C89.5239 10.4308 88.9641 10.3373 88.3244 10.3373C87.7647 10.3373 87.2716 10.4308 86.8184 10.591C86.3786 10.778 86.0055 11.005 85.699 11.3388C85.3791 11.686 85.1392 12.0465 84.9793 12.4872C84.8194 12.9278 84.7261 13.3952 84.7261 13.916C84.7261 14.4635 84.8194 14.9442 84.9793 15.3848C85.1659 15.8255 85.3924 16.1994 85.7256 16.4931C86.0455 16.8136 86.4186 17.054 86.8451 17.2409C87.2849 17.4011 87.7647 17.4946 88.2978 17.4946C88.9375 17.4946 89.5239 17.3744 90.0969 17.1741C90.6434 16.9338 91.1498 16.6267 91.5763 16.2127L93.0023 17.9753C91.7229 19.1905 90.1103 19.7913 88.1645 19.7913C87.2982 19.7913 86.4853 19.6578 85.7656 19.3907C85.0459 19.097 84.4195 18.7231 83.8865 18.2157C83.38 17.6949 82.9669 17.094 82.6737 16.3596C82.3805 15.6385 82.2339 14.8373 82.2339 13.956C82.2339 13.1415 82.3672 12.3937 82.6737 11.6726C82.9402 10.9516 83.3667 10.324 83.8998 9.78986C84.4462 9.24238 85.0992 8.82844 85.8456 8.52131C86.6052 8.20084 87.4715 8.05396 88.431 8.05396C89.2973 8.05396 90.1103 8.18749 90.8299 8.45455C91.5496 8.70826 92.2026 9.0955 92.7757 9.60292L91.3763 11.4323C90.9899 11.0718 90.5367 10.8047 90.0303 10.6311Z"
			fill="#0E1079" />
		<path
			d="M129.239 8.00066V19.8315H126.72C126.72 16.7069 126.707 13.3953 126.707 10.2707C125.574 10.2707 124.428 10.2707 123.295 10.284C123.295 11.2054 123.282 12.2336 123.255 13.3152C123.242 14.1297 123.242 14.7573 123.122 15.5719C123.015 16.2395 122.908 16.8538 122.722 17.3879C122.562 17.9087 122.322 18.3627 122.016 18.7499C121.722 19.0971 121.363 19.3909 120.949 19.5645C120.536 19.7247 120.03 19.8315 119.443 19.8315C119.097 19.8315 118.777 19.7915 118.484 19.738C118.217 19.6846 117.937 19.5912 117.671 19.471L118.244 17.2944C118.377 17.3478 118.511 17.4013 118.657 17.428C118.804 17.4413 118.95 17.468 119.057 17.468C119.27 17.468 119.47 17.428 119.643 17.3345C119.79 17.2677 119.95 17.1208 120.056 16.8938C120.203 16.6401 120.35 16.333 120.416 15.9858C120.51 15.6386 120.563 15.1846 120.63 14.6772C120.749 13.7559 120.723 13.0081 120.723 12.8745C120.736 11.3523 120.736 10.4443 120.736 10.4443C120.736 9.93686 120.736 9.08226 120.736 7.9873H129.239V8.00066Z"
			fill="#0E1079" />
		<path
			d="M95.4811 23.5837V35.4145H92.9623C92.9623 32.2899 92.9489 28.9783 92.9489 25.8537C91.8161 25.8537 90.67 25.8537 89.5372 25.867C89.5372 26.7884 89.5238 27.8166 89.4972 28.8982C89.4839 29.7127 89.4839 30.3403 89.3639 31.1549C89.2573 31.8225 89.1507 32.4368 88.9641 32.9709C88.8042 33.4917 88.5643 33.9457 88.2578 34.3329C87.9646 34.6801 87.6047 34.9739 87.1916 35.1475C86.7784 35.3077 86.272 35.4145 85.6856 35.4145C85.3391 35.4145 85.0192 35.3745 84.726 35.3211C84.4595 35.2676 84.1796 35.1742 83.9131 35.054L84.4862 32.8774C84.6194 32.9308 84.7527 32.9843 84.8993 33.011C85.0459 33.0243 85.1925 33.051 85.2991 33.051C85.5124 33.051 85.7123 33.011 85.8855 32.9175C86.0321 32.8507 86.192 32.7038 86.2987 32.4768C86.4453 32.2231 86.5919 31.916 86.6585 31.5688C86.7518 31.2216 86.8051 30.7676 86.8717 30.2602C86.9917 29.3389 86.965 28.5911 86.965 28.4576C86.9783 26.9353 86.9783 26.0273 86.9783 26.0273C86.9783 25.5199 86.9783 24.6653 86.9783 23.5703L95.4811 23.5837Z"
			fill="#0E1079" />
	</g>
	<defs>
		<clipPath id="clip0_876_5180">
			<rect width="177.164" height="43.6157" fill="white" />
		</clipPath>
	</defs>
</svg>