<svg width="18" height="18" viewBox="0 0 18 18" fill="#2b2d91" xmlns="http://www.w3.org/2000/svg">
<path d="M15.9999 10.1666H10.1666V15.9999C10.1666 16.6416 9.64159 17.1666 8.99992 17.1666C8.35825 17.1666 7.83325 16.6416 7.83325 15.9999V10.1666H1.99992C1.35825 10.1666 0.833252 9.64159 0.833252 8.99992C0.833252 8.35825 1.35825 7.83325 1.99992 7.83325H7.83325V1.99992C7.83325 1.35825 8.35825 0.833252 8.99992 0.833252C9.64159 0.833252 10.1666 1.35825 10.1666 1.99992V7.83325H15.9999C16.6416 7.83325 17.1666 8.35825 17.1666 8.99992C17.1666 9.64159 16.6416 10.1666 15.9999 10.1666Z" fill="inherit"/>
</svg>
