<svg width="57" height="64" viewBox="0 0 57 64" fill="none" xmlns="http://www.w3.org/2000/svg">
<path d="M28.6706 28.6221C28.1164 28.6221 27.667 28.1727 27.667 27.6185V1.22725C27.667 0.673075 28.1164 0.223633 28.6706 0.223633C29.2248 0.223633 29.6742 0.672844 29.6742 1.22725V27.6187C29.674 28.1727 29.2248 28.6221 28.6706 28.6221Z" fill="#0E1079"/>
<path d="M28.5886 20.1232C28.3317 20.1232 28.0751 20.0252 27.879 19.8291L19.1246 11.075C18.7325 10.6831 18.7325 10.0478 19.1246 9.6559C19.5161 9.26379 20.1516 9.26379 20.5437 9.6559L28.5886 17.7003L36.4617 9.82744C36.8531 9.43534 37.4893 9.43534 37.8807 9.82744C38.2728 10.2193 38.2728 10.8549 37.8807 11.2465L29.2981 19.8291C29.1023 20.0252 28.8452 20.1232 28.5886 20.1232Z" fill="#0E1079"/>
<path d="M28.5504 11.0477C28.2936 11.0477 28.0367 10.9497 27.8409 10.7536L23.4933 6.40602C23.1012 6.01438 23.1012 5.37883 23.4933 4.98695C23.8847 4.59485 24.521 4.59485 24.9124 4.98695L28.5504 8.62479L32.3117 4.86373C32.7031 4.47186 33.3394 4.47186 33.7308 4.86373C34.1227 5.2556 34.1227 5.89116 33.7308 6.2828L29.26 10.7536C29.0641 10.9497 28.8071 11.0477 28.5504 11.0477Z" fill="#0E1079"/>
<path d="M24.9025 30.5993C24.7323 30.5993 24.5596 30.5559 24.4017 30.4645L1.54609 17.2689C1.06613 16.9917 0.901751 16.3781 1.17872 15.8982C1.45546 15.418 2.06951 15.2534 2.54947 15.5308L25.4051 28.7264C25.885 29.0036 26.0494 29.6172 25.7725 30.0972C25.5868 30.4192 25.2495 30.5993 24.9025 30.5993Z" fill="#0E1079"/>
<path d="M5.54448 29.6282C5.10151 29.6282 4.69599 29.3325 4.576 28.8842C4.43243 28.3487 4.75009 27.7985 5.28554 27.6552L16.2744 24.7107L13.3928 13.9558C13.2492 13.4203 13.5669 12.8701 14.1024 12.7267C14.6369 12.5822 15.1878 12.9006 15.3314 13.4363L18.4729 25.1603C18.542 25.4174 18.5057 25.6912 18.3727 25.9219C18.2398 26.1524 18.0204 26.3205 17.7633 26.3894L5.80503 29.5935C5.71787 29.6173 5.63025 29.6282 5.54448 29.6282Z" fill="#0E1079"/>
<path d="M3.6851 23.5099C3.24213 23.5099 2.83662 23.2142 2.71663 22.7659C2.57305 22.2305 2.89072 21.6802 3.42616 21.5369L8.39568 20.2052L7.01892 15.0671C6.87535 14.5317 7.19324 13.9815 7.72845 13.8381C8.26344 13.6934 8.81414 14.0122 8.95748 14.5477L10.5941 20.6549C10.6632 20.912 10.6269 21.1857 10.494 21.4164C10.3608 21.6469 10.1417 21.815 9.88457 21.8839L3.94566 23.4752C3.8585 23.4988 3.77111 23.5099 3.6851 23.5099Z" fill="#0E1079"/>
<path d="M1.88162 48.0446C1.5346 48.0446 1.19729 47.8645 1.01164 47.5427C0.734437 47.0627 0.898817 46.4489 1.37901 46.1719L24.2344 32.9763C24.7144 32.6984 25.3284 32.8635 25.6051 33.3437C25.8823 33.8236 25.718 34.4375 25.2378 34.7144L2.38239 47.9101C2.22425 48.0014 2.05178 48.0446 1.88162 48.0446Z" fill="#0E1079"/>
<path d="M14.2172 51.1296C14.1312 51.1296 14.0438 51.1185 13.9569 51.0952C13.4214 50.9518 13.1037 50.4016 13.2473 49.8661L16.1916 38.8768L5.43689 35.995C4.90167 35.8516 4.58378 35.3014 4.72735 34.7659C4.87046 34.2303 5.42094 33.9117 5.95638 34.0564L17.6805 37.1979C18.2157 37.3412 18.5336 37.8914 18.39 38.4269L15.1859 50.3854C15.0657 50.8339 14.6601 51.1296 14.2172 51.1296Z" fill="#0E1079"/>
<path d="M7.99024 49.6794C7.90424 49.6794 7.81685 49.6683 7.72992 49.6448C7.19447 49.5014 6.87681 48.9512 7.02038 48.4157L8.35183 43.446L3.214 42.069C2.67856 41.9256 2.3609 41.3754 2.50447 40.84C2.64758 40.3045 3.19828 39.9848 3.73349 40.1304L9.84072 41.767C10.3762 41.9104 10.6938 42.4606 10.5503 42.9961L8.95894 48.935C8.83872 49.3837 8.43321 49.6794 7.99024 49.6794Z" fill="#0E1079"/>
<path d="M28.3295 63.5105C27.7754 63.5105 27.3259 63.0611 27.3259 62.5069V36.1154C27.3259 35.5613 27.7754 35.1118 28.3295 35.1118C28.8837 35.1118 29.3332 35.5613 29.3332 36.1154V62.5069C29.3332 63.0611 28.8837 63.5105 28.3295 63.5105Z" fill="#0E1079"/>
<path d="M37.1712 54.3715C36.9143 54.3715 36.6575 54.2735 36.4617 54.0774L28.4168 46.0328L20.5437 53.9056C20.1523 54.2977 19.5161 54.2977 19.1246 53.9056C18.7325 53.514 18.7325 52.8784 19.1246 52.4866L27.7073 43.9039C28.0989 43.5118 28.7349 43.5118 29.1263 43.9039L37.8807 52.6583C38.2728 53.0502 38.2728 53.6858 37.8807 54.0774C37.6849 54.2735 37.4278 54.3715 37.1712 54.3715Z" fill="#0E1079"/>
<path d="M23.9838 59.1608C23.727 59.1608 23.4704 59.0628 23.2743 58.8668C22.8822 58.4751 22.8822 57.8393 23.2743 57.4477L27.7451 52.9766C28.1215 52.6002 28.7878 52.6002 29.1642 52.9766L33.5118 57.3242C33.9039 57.7159 33.9039 58.3514 33.5118 58.7433C33.1202 59.1354 32.4842 59.1354 32.0927 58.7433L28.4547 55.1055L24.6934 58.8668C24.4976 59.0628 24.2407 59.1608 23.9838 59.1608Z" fill="#0E1079"/>
<path d="M54.9459 48.3391C54.7756 48.3391 54.6031 48.2957 54.4452 48.2044L31.5898 35.0085C31.1098 34.7313 30.9455 34.1177 31.2224 33.6377C31.4994 33.1578 32.1134 32.9932 32.5932 33.2704L55.4486 46.4662C55.9285 46.7434 56.0929 47.357 55.8159 47.837C55.6303 48.159 55.293 48.3391 54.9459 48.3391Z" fill="#0E1079"/>
<path d="M42.6362 51.0413C42.1932 51.0413 41.7877 50.7456 41.6677 50.297L38.5263 38.573C38.4571 38.3159 38.4934 38.0419 38.6264 37.8114C38.7595 37.5809 38.9787 37.4128 39.2358 37.3439L51.1943 34.1398C51.7291 33.9953 52.2798 34.3137 52.4233 34.8493C52.5669 35.3846 52.249 35.935 51.7138 36.0784L40.7247 39.0229L43.6063 49.7778C43.7499 50.313 43.4322 50.8635 42.8967 51.0068C42.8096 51.0302 42.7222 51.0413 42.6362 51.0413Z" fill="#0E1079"/>
<path d="M49.0131 49.9292C48.5702 49.9292 48.1646 49.6335 48.0447 49.1852L46.4083 43.078C46.2647 42.5425 46.5826 41.9923 47.1178 41.8489L53.0567 40.2574C53.5919 40.1131 54.1424 40.4315 54.2857 40.9669C54.4293 41.5021 54.1116 42.0526 53.5762 42.196L48.6067 43.5279L49.9832 48.6659C50.1268 49.2014 49.8091 49.7516 49.2737 49.895C49.1865 49.9181 49.0991 49.9292 49.0131 49.9292Z" fill="#0E1079"/>
<path d="M32.2656 30.8959C31.9186 30.8959 31.5813 30.7158 31.3956 30.394C31.1184 29.914 31.283 29.3002 31.763 29.0232L54.6186 15.8274C55.0986 15.5495 55.7126 15.7146 55.9894 16.1947C56.2666 16.6747 56.1019 17.2885 55.622 17.5655L32.7661 30.7614C32.6085 30.8527 32.436 30.8959 32.2656 30.8959Z" fill="#0E1079"/>
<path d="M51.3061 29.7157C51.2201 29.7157 51.1327 29.7046 51.0458 29.6812L39.3219 26.5397C38.7865 26.3964 38.4688 25.8462 38.6124 25.3107L41.8165 13.3524C41.9596 12.8168 42.5103 12.4979 43.0455 12.6429C43.5807 12.7862 43.8986 13.3365 43.7551 13.8719L40.8108 24.861L51.565 27.7429C52.1005 27.8862 52.4181 28.4365 52.2746 28.9719C52.1546 29.42 51.7491 29.7157 51.3061 29.7157Z" fill="#0E1079"/>
<path d="M53.5276 23.6373C53.4416 23.6373 53.3542 23.6262 53.2673 23.6029L47.1599 21.9665C46.9028 21.8976 46.6836 21.7295 46.5504 21.499C46.4175 21.2685 46.3812 20.9946 46.4503 20.7375L48.0416 14.7986C48.1847 14.2629 48.7343 13.9431 49.2707 14.089C49.8059 14.2324 50.1238 14.7826 49.9802 15.318L48.6488 20.2878L53.7868 21.6646C54.322 21.8079 54.6399 22.3581 54.4963 22.8936C54.3761 23.3414 53.9708 23.6373 53.5276 23.6373Z" fill="#0E1079"/>
<path d="M28.5025 37.1183C25.6066 37.1183 23.2505 34.7625 23.2505 31.8663C23.2505 28.9704 25.6066 26.6143 28.5025 26.6143C31.3985 26.6143 33.7546 28.9701 33.7546 31.8663C33.7546 34.7622 31.3985 37.1183 28.5025 37.1183ZM28.5025 28.6215C26.7133 28.6215 25.2577 30.0771 25.2577 31.8663C25.2577 33.6555 26.7133 35.1111 28.5025 35.1111C30.2917 35.1111 31.7473 33.6555 31.7473 31.8663C31.7473 30.0771 30.2917 28.6215 28.5025 28.6215Z" fill="#0E1079"/>
<path d="M24.7039 20.2455L21.1719 16.7688C20.8533 16.4551 20.3653 16.3901 19.9752 16.6097C19.5854 16.8291 19.3882 17.2807 19.4916 17.7158L20.6956 22.7863C20.7583 23.0506 20.9257 23.2783 21.1592 23.4172L23.5107 24.815C23.6688 24.9089 23.8461 24.9558 24.0234 24.9558C24.1959 24.9558 24.3684 24.9114 24.5231 24.8227C24.8375 24.6423 25.0296 24.3066 25.0271 23.9446L25.0035 20.9527C25.0014 20.6866 24.8939 20.4323 24.7039 20.2455Z" fill="#0E1079"/>
<path d="M20.409 31.7929C20.4097 31.4307 20.2155 31.0961 19.9004 30.9176L17.2976 29.4422C17.0664 29.3104 16.7908 29.2771 16.5353 29.3478L11.7586 30.6684C11.3274 30.7877 11.0271 31.178 11.0223 31.6251C11.0176 32.0724 11.3096 32.4689 11.7385 32.597L16.7318 34.0898C16.8259 34.1181 16.9228 34.1319 17.0192 34.1319C17.1896 34.1319 17.3588 34.0885 17.51 34.0038L19.8962 32.6659C20.2122 32.4886 20.4083 32.155 20.409 31.7929Z" fill="#0E1079"/>
<path d="M24.3919 38.8395C24.0787 38.6573 23.6919 38.6584 23.3795 38.8422L20.8003 40.3584C20.571 40.4932 20.4043 40.714 20.3375 40.9715L19.093 45.7688C18.9808 46.2021 19.1683 46.6571 19.5535 46.8848C19.7123 46.9787 19.8887 47.0244 20.064 47.0244C20.3141 47.0244 20.5622 46.931 20.7532 46.7505L24.5427 43.1723C24.7403 42.9859 24.8539 42.727 24.8573 42.4551L24.8915 39.7199C24.8962 39.3576 24.7054 39.0212 24.3919 38.8395Z" fill="#0E1079"/>
<path d="M36.3092 40.9486C36.2466 40.6844 36.0792 40.4564 35.8454 40.3177L33.4935 38.9201C33.1825 38.7352 32.7955 38.7322 32.4811 38.9125C32.1669 39.0928 31.9748 39.4285 31.9773 39.7906L32.0009 42.7825C32.003 43.0488 32.1107 43.3031 32.3005 43.4897L35.8325 46.9664C36.0251 47.1559 36.2794 47.2547 36.5367 47.2547C36.7052 47.2547 36.8747 47.2124 37.0291 47.1254C37.4189 46.9058 37.6161 46.4547 37.5128 46.0194L36.3092 40.9486Z" fill="#0E1079"/>
<path d="M45.264 31.1385L40.2706 29.6457C40.0103 29.5678 39.7296 29.5985 39.4924 29.7317L37.1061 31.0694C36.7902 31.2465 36.5942 31.5803 36.5933 31.9424C36.5923 32.3044 36.7868 32.6392 37.1019 32.8177L39.7047 34.2934C39.8568 34.3799 40.0277 34.424 40.1997 34.424C40.2894 34.424 40.3793 34.412 40.4669 34.3877L45.2439 33.0672C45.675 32.9479 45.9754 32.5578 45.9802 32.1105C45.9848 31.6629 45.6928 31.2666 45.264 31.1385Z" fill="#0E1079"/>
<path d="M32.6093 24.8936C32.7651 24.9842 32.939 25.0293 33.1131 25.0293C33.289 25.0293 33.4647 24.9833 33.6217 24.8908L36.2009 23.3744C36.4303 23.2394 36.5969 23.0189 36.6638 22.7613L37.9087 17.9643C38.0209 17.531 37.8334 17.076 37.4482 16.8483C37.0628 16.6203 36.5734 16.6754 36.2483 16.9826L32.4588 20.5603C32.2614 20.7469 32.1476 21.0056 32.1442 21.2773L32.1097 24.0128C32.1051 24.3753 32.296 24.7117 32.6093 24.8936Z" fill="#0E1079"/>
</svg>
