<svg width="59" height="67" viewBox="0 0 59 67" fill="none" xmlns="http://www.w3.org/2000/svg">
<path d="M29.6802 30.0951C29.0986 30.0951 28.627 29.6234 28.627 29.0419V1.34595C28.627 0.764385 29.0986 0.292725 29.6802 0.292725C30.2617 0.292725 30.7334 0.764142 30.7334 1.34595V29.0421C30.7332 29.6234 30.2617 30.0951 29.6802 30.0951Z" fill="white"/>
<path d="M29.59 21.1784C29.3205 21.1784 29.0511 21.0755 28.8454 20.8698L19.6582 11.6828C19.2467 11.2716 19.2467 10.6049 19.6582 10.1936C20.069 9.78214 20.736 9.78214 21.1474 10.1936L29.59 18.6357L37.8523 10.3737C38.2631 9.96217 38.9308 9.96217 39.3415 10.3737C39.753 10.7849 39.753 11.4519 39.3415 11.8629L30.3346 20.8698C30.1291 21.0755 29.8593 21.1784 29.59 21.1784Z" fill="white"/>
<path d="M29.5508 11.6536C29.2813 11.6536 29.0117 11.5507 28.8062 11.345L24.2437 6.78244C23.8322 6.37144 23.8322 5.70447 24.2437 5.29322C24.6544 4.88173 25.3221 4.88173 25.7329 5.29322L29.5508 9.1109L33.4981 5.1639C33.9088 4.75266 34.5765 4.75266 34.9873 5.1639C35.3985 5.57515 35.3985 6.24212 34.9873 6.65313L30.2954 11.345C30.0899 11.5507 29.8201 11.6536 29.5508 11.6536Z" fill="white"/>
<path d="M25.7282 32.1685C25.5496 32.1685 25.3683 32.1229 25.2026 32.0271L1.21714 18.1791C0.713456 17.8882 0.54095 17.2443 0.831612 16.7406C1.12203 16.2367 1.76644 16.0639 2.27013 16.3551L26.2556 30.203C26.7593 30.4939 26.9318 31.1379 26.6411 31.6415C26.4463 31.9795 26.0923 32.1685 25.7282 32.1685Z" fill="white"/>
<path d="M5.41193 31.1507C4.94706 31.1507 4.5215 30.8404 4.39558 30.37C4.24491 29.808 4.57827 29.2306 5.14019 29.0802L16.6723 25.9901L13.6483 14.7035C13.4976 14.1416 13.831 13.5642 14.3929 13.4137C14.9538 13.2621 15.532 13.5962 15.6827 14.1584L18.9794 26.462C19.052 26.7318 19.0139 27.0191 18.8744 27.2612C18.7349 27.5031 18.5046 27.6795 18.2348 27.7518L5.68537 31.1143C5.5939 31.1393 5.50194 31.1507 5.41193 31.1507Z" fill="white"/>
<path d="M3.46027 24.7295C2.9954 24.7295 2.56984 24.4192 2.44392 23.9487C2.29325 23.3868 2.62661 22.8094 3.18853 22.6589L8.40372 21.2614L6.9589 15.8694C6.80823 15.3075 7.14183 14.73 7.70351 14.5796C8.26494 14.4277 8.84286 14.7623 8.99329 15.3242L10.7108 21.7333C10.7834 22.0031 10.7453 22.2904 10.6058 22.5325C10.466 22.7744 10.236 22.9508 9.96621 23.0231L3.73371 24.6931C3.64224 24.7178 3.55052 24.7295 3.46027 24.7295Z" fill="white"/>
<path d="M1.56459 50.4744C1.20041 50.4744 0.846424 50.2854 0.651597 49.9477C0.360692 49.444 0.533198 48.7998 1.03713 48.5092L25.0224 34.6612C25.5261 34.3696 26.1705 34.5428 26.4609 35.0467C26.7518 35.5504 26.5793 36.1946 26.0754 36.4852L2.09011 50.3332C1.92416 50.429 1.74316 50.4744 1.56459 50.4744Z" fill="white"/>
<path d="M14.5098 53.7129C14.4195 53.7129 14.3278 53.7013 14.2366 53.6768C13.6747 53.5263 13.3413 52.9489 13.492 52.387L16.5818 40.8544L5.29545 37.8301C4.73377 37.6796 4.40017 37.1022 4.55084 36.5403C4.70102 35.9781 5.27871 35.6438 5.84062 35.7957L18.1443 39.0924C18.706 39.2429 19.0396 39.8203 18.8889 40.3822L15.5264 52.9319C15.4002 53.4026 14.9747 53.7129 14.5098 53.7129Z" fill="white"/>
<path d="M7.97334 52.192C7.88309 52.192 7.79138 52.1804 7.70015 52.1557C7.13823 52.0052 6.80487 51.4278 6.95554 50.8659L8.35281 45.6504L2.96099 44.2054C2.39907 44.0549 2.06571 43.4775 2.21638 42.9156C2.36656 42.3537 2.94449 42.0181 3.50616 42.171L9.9153 43.8885C10.4772 44.0389 10.8106 44.6164 10.6599 45.1783L8.98993 51.4108C8.86377 51.8817 8.43821 52.192 7.97334 52.192Z" fill="white"/>
<path d="M29.3198 66.7077C28.7383 66.7077 28.2666 66.236 28.2666 65.6544V37.9583C28.2666 37.3767 28.7383 36.905 29.3198 36.905C29.9014 36.905 30.3731 37.3767 30.3731 37.9583V65.6544C30.3731 66.236 29.9014 66.7077 29.3198 66.7077Z" fill="white"/>
<path d="M38.5969 57.1154C38.3274 57.1154 38.0578 57.0125 37.8523 56.8068L29.4097 48.3645L21.1474 56.6265C20.7367 57.038 20.069 57.038 19.6582 56.6265C19.2467 56.2155 19.2467 55.5485 19.6582 55.1373L28.6651 46.1304C29.0761 45.7189 29.7436 45.7189 30.1543 46.1304L39.3415 55.3176C39.753 55.7288 39.753 56.3958 39.3415 56.8068C39.136 57.0125 38.8662 57.1154 38.5969 57.1154Z" fill="white"/>
<path d="M24.7573 62.1451C24.4878 62.1451 24.2185 62.0422 24.0127 61.8364C23.6012 61.4254 23.6012 60.7582 24.0127 60.3472L28.7046 55.6551C29.0996 55.2601 29.7988 55.2601 30.1938 55.6551L34.7563 60.2177C35.1678 60.6287 35.1678 61.2956 34.7563 61.7069C34.3453 62.1184 33.6779 62.1184 33.2671 61.7069L29.4492 57.8892L25.5019 61.8364C25.2964 62.0422 25.0269 62.1451 24.7573 62.1451Z" fill="white"/>
<path d="M57.2553 50.7865C57.0764 50.7865 56.8954 50.7409 56.7297 50.6451L32.7445 36.7969C32.2408 36.506 32.0683 35.862 32.359 35.3584C32.6496 34.8547 33.294 34.6819 33.7975 34.9728L57.7827 48.821C58.2864 49.1119 58.4589 49.7559 58.1682 50.2595C57.9734 50.5975 57.6194 50.7865 57.2553 50.7865Z" fill="white"/>
<path d="M44.334 53.6224C43.8691 53.6224 43.4436 53.3121 43.3176 52.8414L40.0209 40.5377C39.9483 40.2679 39.9864 39.9804 40.1259 39.7385C40.2657 39.4966 40.4957 39.3202 40.7655 39.2479L53.3152 35.8854C53.8764 35.7338 54.4543 36.0679 54.605 36.63C54.7556 37.1917 54.422 37.7694 53.8603 37.9198L42.328 41.0099L45.352 52.2965C45.5027 52.8581 45.1693 53.4358 44.6074 53.5862C44.516 53.6108 44.4242 53.6224 44.334 53.6224Z" fill="white"/>
<path d="M51.0228 52.4566C50.5579 52.4566 50.1323 52.1463 50.0064 51.6759L48.2891 45.2667C48.1384 44.7048 48.4721 44.1274 49.0337 43.9769L55.2662 42.3067C55.8279 42.1553 56.4056 42.4894 56.556 43.0513C56.7067 43.613 56.3733 44.1907 55.8114 44.3411L50.5962 45.7389L52.0408 51.1309C52.1915 51.6928 51.8581 52.2703 51.2962 52.4207C51.2047 52.445 51.113 52.4566 51.0228 52.4566Z" fill="white"/>
<path d="M33.4522 32.4805C33.0881 32.4805 32.7341 32.2915 32.5392 31.9538C32.2483 31.4501 32.4211 30.8059 32.9248 30.5153L56.9103 16.6671C57.4139 16.3754 58.0584 16.5487 58.3488 17.0526C58.6397 17.5563 58.4669 18.2004 57.9632 18.4911L33.9775 32.3393C33.812 32.4351 33.631 32.4805 33.4522 32.4805Z" fill="white"/>
<path d="M53.4326 31.2408C53.3424 31.2408 53.2507 31.2292 53.1594 31.2047L40.856 27.9079C40.2941 27.7575 39.9607 27.18 40.1114 26.6181L43.4739 14.0687C43.6241 13.5065 44.202 13.1719 44.7637 13.3241C45.3254 13.4745 45.659 14.0519 45.5083 14.6139L42.4185 26.1462L53.7044 29.1705C54.2663 29.3209 54.5997 29.8984 54.449 30.4603C54.3231 30.9305 53.8975 31.2408 53.4326 31.2408Z" fill="white"/>
<path d="M55.7674 24.8652C55.6771 24.8652 55.5854 24.8536 55.4942 24.8291L49.0848 23.1118C48.815 23.0395 48.585 22.8631 48.4453 22.6212C48.3058 22.3793 48.2677 22.0918 48.3402 21.822L50.0102 15.5895C50.1604 15.0274 50.7371 14.6918 51.3 14.8449C51.8616 14.9953 52.1952 15.5728 52.0446 16.1347L50.6473 21.3501L56.0394 22.7949C56.601 22.9454 56.9347 23.5228 56.784 24.0847C56.6578 24.5547 56.2325 24.8652 55.7674 24.8652Z" fill="white"/>
<path d="M29.5 39.0114C26.4609 39.0114 23.9883 36.539 23.9883 33.4997C23.9883 30.4606 26.4609 27.988 29.5 27.988C32.5391 27.988 35.0116 30.4604 35.0116 33.4997C35.0116 36.5388 32.5391 39.0114 29.5 39.0114ZM29.5 30.0945C27.6223 30.0945 26.0947 31.622 26.0947 33.4997C26.0947 35.3774 27.6223 36.9049 29.5 36.9049C31.3776 36.9049 32.9052 35.3774 32.9052 33.4997C32.9052 31.622 31.3776 30.0945 29.5 30.0945Z" fill="white"/>
<path d="M25.5122 21.303L21.8056 17.6544C21.4713 17.3251 20.9591 17.257 20.5498 17.4875C20.1407 17.7177 19.9338 18.1915 20.0422 18.6482L21.3058 23.9694C21.3716 24.2467 21.5472 24.4857 21.7923 24.6315L24.26 26.0984C24.426 26.1969 24.6121 26.2462 24.7981 26.2462C24.9791 26.2462 25.1601 26.1996 25.3225 26.1064C25.6524 25.9172 25.854 25.5649 25.8514 25.1849L25.8266 22.0451C25.8244 21.7659 25.7116 21.499 25.5122 21.303Z" fill="white"/>
<path d="M21.0085 33.4205C21.0092 33.0403 20.8054 32.6892 20.4747 32.5019L17.7433 30.9535C17.5007 30.8152 17.2115 30.7803 16.9434 30.8545L11.9305 32.2404C11.478 32.3656 11.1629 32.7751 11.1578 33.2443C11.1529 33.7138 11.4594 34.1299 11.9094 34.2643L17.1496 35.8309C17.2483 35.8605 17.35 35.8751 17.4512 35.8751C17.63 35.8751 17.8076 35.8295 17.9663 35.7407L20.4704 34.3366C20.802 34.1505 21.0078 33.8004 21.0085 33.4205Z" fill="white"/>
<path d="M25.1855 40.8147C24.8568 40.6235 24.4508 40.6247 24.1231 40.8176L21.4164 42.4087C21.1757 42.5502 21.0007 42.7819 20.9306 43.0522L19.6246 48.0866C19.5069 48.5413 19.7037 49.0188 20.1079 49.2577C20.2746 49.3562 20.4597 49.4043 20.6436 49.4043C20.9061 49.4043 21.1665 49.3063 21.3669 49.1168L25.3437 45.3617C25.5511 45.1661 25.6703 44.8944 25.6739 44.6091L25.7098 41.7386C25.7147 41.3584 25.5145 41.0054 25.1855 40.8147Z" fill="white"/>
<path d="M37.6945 43.0302C37.6287 42.7529 37.4531 42.5137 37.2078 42.3681L34.7396 40.9015C34.4133 40.7074 34.0071 40.7042 33.6771 40.8934C33.3474 41.0827 33.1458 41.435 33.1485 41.8149L33.1732 44.9547C33.1754 45.2342 33.2885 45.5011 33.4876 45.6969L37.1942 49.3455C37.3963 49.5444 37.6632 49.648 37.9332 49.648C38.1101 49.648 38.2879 49.6036 38.45 49.5124C38.8591 49.2819 39.066 48.8085 38.9576 48.3517L37.6945 43.0302Z" fill="white"/>
<path d="M47.091 32.7352L41.8509 31.1685C41.5777 31.0868 41.2831 31.1191 41.0342 31.2588L38.5298 32.6626C38.1984 32.8485 37.9927 33.1988 37.9917 33.5788C37.9907 33.9587 38.1948 34.31 38.5255 34.4973L41.2569 36.046C41.4166 36.1367 41.5959 36.1831 41.7764 36.1831C41.8705 36.1831 41.9649 36.1705 42.0568 36.145L47.0699 34.7591C47.5224 34.6339 47.8376 34.2246 47.8427 33.7552C47.8475 33.2854 47.5411 32.8696 47.091 32.7352Z" fill="white"/>
<path d="M33.8144 26.1857C33.978 26.2808 34.1604 26.3281 34.3431 26.3281C34.5277 26.3281 34.7121 26.2798 34.8769 26.1828L37.5836 24.5914C37.8243 24.4497 37.9992 24.2183 38.0693 23.948L39.3758 18.9138C39.4935 18.4591 39.2967 17.9816 38.8925 17.7427C38.4881 17.5034 37.9745 17.5612 37.6333 17.8836L33.6565 21.6382C33.4493 21.834 33.3299 22.1055 33.3263 22.3906L33.2901 25.2613C33.2853 25.6417 33.4857 25.9948 33.8144 26.1857Z" fill="white"/>
</svg>
