<svg width="21" height="19" viewBox="0 0 21 19" fill="null" xmlns="http://www.w3.org/2000/svg">
<path d="M10.2697 0.570191C10.172 0.597535 10.0431 0.656129 9.97672 0.699098C9.91422 0.745973 8.79703 1.85144 7.49625 3.16004C5.55875 5.10144 5.11734 5.56238 5.07438 5.69129C4.92984 6.1366 5.11344 6.578 5.51578 6.74597C5.63688 6.79285 5.85563 6.80457 6.75406 6.80457H7.84781L7.85953 9.94128L7.87125 13.078L7.98844 13.3085C8.12125 13.5663 8.38297 13.7968 8.63297 13.871C8.83609 13.9296 12.1017 13.9296 12.3048 13.871C12.5548 13.7968 12.8166 13.5663 12.9494 13.3085L13.0666 13.078L13.0783 9.94128L13.09 6.80457H14.1838C15.0822 6.80457 15.3009 6.79285 15.422 6.74597C15.8517 6.56628 16.0353 6.05457 15.8283 5.62879C15.7033 5.37097 10.9689 0.656129 10.7814 0.601441C10.5275 0.527223 10.4494 0.523316 10.2697 0.570191Z"/>
<path d="M1.07438 9.16394C0.847816 9.26941 0.68766 9.41785 0.570473 9.6366C0.488441 9.78894 0.488441 9.8241 0.476723 12.1366C0.46891 14.1014 0.476723 14.5428 0.527504 14.8671C0.804848 16.6444 2.14079 18.0311 3.92985 18.3944C4.25797 18.4608 4.6525 18.4647 10.4689 18.4647C16.2853 18.4647 16.6798 18.4608 17.008 18.3944C18.797 18.0311 20.133 16.6444 20.4103 14.8671C20.4611 14.5428 20.4689 14.1014 20.4611 12.1366C20.4494 9.8241 20.4494 9.78894 20.3673 9.6366C19.9689 8.8905 18.9845 8.8905 18.5822 9.6366C18.4963 9.78894 18.4963 9.8241 18.4767 12.2343C18.4572 14.3046 18.4455 14.703 18.3947 14.8514C18.133 15.6093 17.5822 16.1561 16.8556 16.3866L16.5822 16.4725H10.4689H4.35563L4.08219 16.3866C3.35563 16.1561 2.80485 15.6093 2.54313 14.8514C2.49235 14.703 2.48063 14.3046 2.4611 12.2343C2.44157 9.8241 2.44157 9.78894 2.35563 9.6366C2.09391 9.14832 1.53922 8.94519 1.07438 9.16394Z"/>
</svg>
