<svg width="32" height="31" viewBox="0 0 32 31" fill="none" xmlns="http://www.w3.org/2000/svg">
<path d="M1.13077 15.4996C0.775475 15.665 0.524321 15.8978 0.34055 16.2409C0.21191 16.4798 0.21191 16.5349 0.193533 20.1613C0.181281 23.2425 0.193533 23.9347 0.273167 24.4432C0.708092 27.2304 2.80309 29.405 5.60866 29.9747C6.12322 30.0788 6.74192 30.085 15.8631 30.085C24.9843 30.085 25.603 30.0788 26.1175 29.9747C28.9231 29.405 31.0181 27.2304 31.453 24.4432C31.5327 23.9347 31.5449 23.2425 31.5327 20.1613C31.5143 16.5349 31.5143 16.4798 31.3857 16.2409C30.7608 15.0708 29.2171 15.0708 28.5862 16.2409C28.4514 16.4798 28.4514 16.5349 28.4208 20.3145C28.3902 23.5611 28.3718 24.1859 28.2922 24.4187C27.8817 25.6071 27.018 26.4647 25.8786 26.8261L25.4498 26.9608H15.8631H6.27636L5.84756 26.8261C4.70818 26.4647 3.84446 25.6071 3.43403 24.4187C3.3544 24.1859 3.33602 23.5611 3.30539 20.3145C3.27477 16.5349 3.27477 16.4798 3.14 16.2409C2.72958 15.4751 1.85973 15.1566 1.13077 15.4996Z" fill="#252525"/>
<path d="M15.5502 0.707811C15.397 0.75069 15.1949 0.842577 15.0908 0.90996C14.9927 0.983467 13.2408 2.71704 11.2009 4.76916C8.16258 7.81363 7.47037 8.53647 7.40299 8.73862C7.17634 9.43695 7.46425 10.1292 8.09519 10.3926C8.28509 10.4661 8.62813 10.4844 10.037 10.4844H11.7522L11.7706 15.4034L11.789 20.3223L11.9728 20.6837C12.181 21.088 12.5915 21.4495 12.9835 21.5659C13.302 21.6577 18.4231 21.6577 18.7417 21.5659C19.1337 21.4495 19.5441 21.088 19.7524 20.6837L19.9362 20.3223L19.9546 15.4034L19.9729 10.4844H21.6881C23.0971 10.4844 23.4401 10.4661 23.63 10.3926C24.3038 10.1108 24.5917 9.30831 24.2671 8.6406C24.071 8.23631 16.6467 0.842577 16.3527 0.756817C15.9545 0.640429 15.832 0.634302 15.5502 0.707811Z" fill="#252525"/>
</svg>
