<svg width="99" height="156" viewBox="0 0 99 156" fill="none" xmlns="http://www.w3.org/2000/svg">
<path d="M22.6065 59.593C1.63154 48.838 -6.07642 21.076 7.65658 0.431023C8.13358 -0.296974 9.31654 0.385018 8.82754 1.12402C-4.21246 20.735 2.12054 47.678 23.3905 58.433C23.4135 58.444 23.4246 58.444 23.4366 58.456C28.8476 51.635 41.9215 43.654 49.2315 51.294C52.4715 54.67 50.7205 59.729 47.1505 62.106C42.9215 64.937 36.8966 64.118 32.2126 63.072C29.2796 62.413 26.5286 61.446 23.9586 60.241C21.0146 64.675 19.2746 70.052 18.8546 75.395C17.4226 93.767 28.5066 111.081 44.0476 120.176C48.5036 122.779 53.3466 124.701 58.3716 125.837C58.6106 119.152 61.9526 113.127 69.8656 111.263C77.0396 109.569 88.8626 116.708 81.5526 124.291C76.4596 129.577 67.3986 129.407 59.4176 127.599C59.8386 134.193 63.7036 141.105 68.0686 145.368C75.6856 152.815 87.0996 156.668 97.1946 152.144C97.9906 151.792 98.6836 152.962 97.8766 153.326C85.0186 159.079 70.1035 152.28 62.7135 140.98C60.1325 137.035 58.5186 132.101 58.3706 127.36C54.8346 126.485 51.5605 125.325 49.0025 124.211C26.4015 114.377 6.99558 83.364 22.4566 59.808C22.5036 59.741 22.5605 59.673 22.6065 59.593ZM38.6476 50.305C32.7246 51.317 28.0745 54.625 24.7545 59.093C29.1545 61.128 34.0995 62.526 38.9315 62.595C40.3866 62.618 42.1486 62.606 43.5586 62.186C46.9916 61.163 54.2106 56.195 46.8556 51.158C44.6276 49.635 41.1026 49.885 38.6476 50.305ZM63.9536 115.766C60.7816 118.631 59.4516 122.257 59.3836 126.077C62.6356 126.736 65.9436 127.043 69.2856 126.975C72.4006 126.895 75.6976 126.475 78.4596 124.894C82.3476 122.643 82.5066 116.447 78.8916 113.923C74.4246 110.798 67.8196 112.275 63.9536 115.766Z" fill="#1D1D1B"/>
</svg>
