<svg width="100" height="148" viewBox="0 0 100 148" fill="none" xmlns="http://www.w3.org/2000/svg">
<path d="M7.69141 138.871C9.678 140.469 15.3642 143.032 17.9917 143.893C29.634 147.709 42.7553 148.782 54.4596 145.161C56.0674 144.663 57.3997 143.407 58.6512 142.281C61.1371 140.045 59.978 136.26 59.8944 133.229C59.7941 129.585 59.6516 125.942 59.4507 122.301C59.0783 115.552 59.3109 107.357 56.6527 101.009C53.6716 93.8909 51.6786 93.542 51.6786 93.542L10.7313 95.2684C10.7313 95.2684 8.49919 104.583 8.84079 107.673C9.18239 110.764 7.08684 124.28 6.84961 127.04C6.59537 129.994 5.97608 134.421 6.76961 137.286C6.92592 137.849 7.17419 138.455 7.69141 138.871Z" fill="white"/>
<path d="M55.9939 47.8197C58.3718 44.3895 59.2614 39.9635 58.3929 35.8809C58.5088 36.4257 55.9241 38.2311 55.5112 38.5759C54.6032 39.335 53.1402 40.3101 52.6603 41.4347C52.1449 42.6424 53.6846 43.3408 54.3646 44.172C55.2174 45.2147 55.7967 46.4855 55.9939 47.8197Z" fill="black"/>
<path d="M2.09997 42.3913C2.82362 44.8138 3.73991 47.2045 5.14813 49.3042C5.45846 48.5286 5.76879 47.7525 6.07912 46.9769C6.39313 46.1926 6.79036 45.3236 7.58573 45.0381C8.03997 44.8754 8.70845 44.7774 8.69834 44.2952C8.69558 44.1568 8.62524 44.0299 8.55582 43.9099C7.20599 41.579 5.498 39.4563 3.51325 37.6352C3.25947 37.4026 2.36342 36.364 1.99378 36.4449C1.52483 36.5474 1.48069 37.7143 1.44851 38.1074C1.33081 39.5561 1.6885 41.0139 2.09997 42.3913Z" fill="black"/>
<path d="M11.953 41.9211C11.2726 41.0752 10.5306 40.2784 9.73474 39.5405C8.08239 38.0081 6.20982 36.7365 4.33955 35.4804C3.9345 35.2083 3.50188 34.9273 3.01408 34.9053C2.52675 34.8832 1.98746 35.2349 1.9962 35.7227C2.00447 36.188 2.45917 36.4979 2.84858 36.7526C4.69218 37.9594 6.10085 39.6931 7.3077 41.5119C7.68607 42.082 8.29754 43.6971 9.0497 43.7799C9.47451 43.8263 11.9057 41.8622 11.953 41.9211Z" fill="white"/>
<path d="M51.7155 41.9926C53.4148 39.5633 55.6151 37.4861 58.1378 35.929C59.0113 35.3897 57.758 35.0219 57.2656 34.8053C57.0413 34.7065 56.782 34.7607 56.5429 34.8164C55.3646 35.0908 54.1678 35.3722 53.1145 35.9667C52.5238 36.3 51.9909 36.7253 51.4608 37.1487C50.5344 37.8884 49.597 38.6167 48.6807 39.3688C47.8334 40.0644 47.9368 40.2773 48.8338 40.7674C49.7547 41.2708 50.7836 41.5278 51.7155 41.9926Z" fill="white"/>
<path d="M29.1923 93.6575C28.899 90.7872 28.1611 88.1027 27.403 85.3295C26.6857 82.7071 26.472 79.9794 25.7101 77.3735C25.0021 74.9515 24.0909 72.5866 23.3001 70.1904C21.8271 65.7248 20.3025 61.1829 16.6043 58.0359C13.033 54.9969 7.76788 52.8467 3.39426 55.2167C3.01266 57.8506 1.74237 63.6738 1.52399 66.5946C1.28354 69.8032 0.147961 74.0426 2.2242 76.8053C1.55342 77.1059 9.91769 85.5755 14.8025 89.3436C19.6879 93.1117 26.3336 96.3732 28.7946 96.6854C29.0484 96.7176 29.3592 96.6987 29.7118 96.6417C29.5854 95.5902 29.2769 94.4864 29.1923 93.6575Z" fill="white"/>
<path d="M60.5172 64.3186C59.4565 61.1316 58.1278 56.9529 57.1932 53.7112C56.4286 53.73 55.5868 53.5438 54.9652 53.4707C52.7303 53.2073 50.8238 53.3388 48.7383 54.3539C44.4585 56.4375 40.4499 60.321 39.0063 64.9029C38.3001 67.1442 38.0321 69.4728 37.6293 71.779C37.119 74.7025 36.4239 77.5902 35.8846 80.5087C35.3628 83.3339 35.0685 86.1549 34.3752 88.9493C33.8309 91.1423 33.2484 93.3238 33.0254 95.5624C36.1811 94.2291 40.0555 92.0397 42.2365 90.7557C45.6506 88.7461 54.3156 82.7767 55.9859 80.2752C57.6561 77.7737 59.6625 75.3103 60.5172 73.3476C61.3723 71.3845 61.7447 68.0071 60.5172 64.3186Z" fill="white"/>
<path d="M33.6403 89.3309C34.3865 86.3563 34.7313 83.3532 35.2871 80.3442C35.826 77.4257 36.5211 74.5384 37.0319 71.6144C37.4719 69.095 37.7551 66.5429 38.6143 64.1181C40.0814 59.9785 43.5079 56.7731 47.1901 54.5057C48.9445 53.4252 51.0299 52.5977 53.1218 52.6529C53.9746 52.6754 54.8307 52.845 55.6785 52.9333C55.9929 52.9659 56.5189 53.0662 57.015 53.0892C56.9341 52.8032 56.8554 52.5227 56.7823 52.2561C55.8633 48.9017 57.0329 46.0545 54.0703 44.4008C51.1076 42.747 48.5891 40.8018 46.0485 40.1849C43.5079 39.5679 18.6211 40.1559 16.1693 40.7977C13.7174 41.4395 10.5318 41.8119 8.85922 44.1038C7.20089 46.3759 3.74907 52.2915 3.49023 54.4749C6.76091 52.9011 10.5148 53.599 13.7082 55.3116C17.2221 57.1961 19.8652 60.1004 21.5479 63.7002C23.3198 67.49 24.4627 71.6346 25.7933 75.594C26.6001 77.9953 26.9219 80.4159 27.4295 82.8861C27.9357 85.3476 28.7941 87.7246 29.3205 90.1824C29.7195 92.0458 29.8496 93.9505 30.1066 95.8359C30.137 96.0598 30.1738 96.298 30.2082 96.5412C30.8418 96.3913 31.582 96.1398 32.381 95.8235C32.5658 93.6259 33.1005 91.4816 33.6403 89.3309Z" fill="white"/>
<path d="M28.0603 93.7547C28.0286 93.545 28.0245 93.3165 28.1385 93.1382C28.3054 92.877 28.6543 92.8159 28.9628 92.7855C30.2593 92.6563 31.5659 92.6274 32.867 92.6986C33.1112 92.712 33.3686 92.7336 33.5695 92.8729C34.0256 93.1897 33.9318 93.8958 33.684 94.3933C33.1539 95.4558 31.7577 96.772 30.4441 96.5095C29.3568 96.2916 28.2176 94.7845 28.0603 93.7547Z" fill="black"/>
<path d="M97.9447 82.5457C97.2349 83.5553 96.1586 84.301 94.9641 84.6109C94.3917 81.485 93.612 78.3973 92.6323 75.3745C91.3519 77.6636 89.7579 79.777 87.9097 81.6381C88.0104 79.1109 87.9626 75.9827 86.9911 73.6104C85.9535 74.4752 85.1535 76.0921 84.3568 77.2089C83.5035 78.4047 82.6502 79.6005 81.7969 80.7963C83.0276 78.0819 83.2152 74.9097 82.3132 72.0688C80.6263 73.1598 78.7892 73.4601 77.1842 74.7097C75.7571 75.8209 74.4657 77.1036 73.3333 78.5132C71.0681 81.3342 69.4369 84.6674 68.6167 88.1923C67.4135 93.3636 69.1459 98.5059 70.0888 103.562C70.8566 107.679 70.7155 111.75 69.0438 115.633C67.6512 118.868 63.433 122.333 60.3665 123.983C60.2888 125.847 60.2111 127.712 60.1329 129.577C60.1035 130.281 67.4448 129.795 68.122 129.684C70.9568 129.224 73.7751 128.251 76.2334 126.753C81.0659 123.807 85.2358 120.848 89.0122 116.517C90.8199 114.443 92.5863 112.302 93.8672 109.868C95.171 107.389 95.211 104.803 96.1071 102.247C96.9848 99.7427 97.6891 97.3529 98.1562 94.7111C98.8711 90.6686 99.3718 86.3956 97.9447 82.5457Z" fill="white"/>
<path d="M88.2247 65.0062C87.1489 66.9381 85.5315 68.5137 83.8166 69.9095C83.3362 70.3007 82.8304 70.6984 82.5537 71.2528C82.2493 71.8629 82.264 72.5769 82.2852 73.2583C82.356 75.5244 82.4268 77.7905 82.4981 80.0566C84.4869 77.3767 86.1246 74.4371 87.3567 71.3356C88.3047 74.038 88.8091 76.8949 88.8435 79.7587C90.8094 77.6866 92.4246 75.2826 93.5992 72.679C94.9959 75.8655 95.6175 79.3886 95.3964 82.8607C96.2667 82.9659 97.0873 82.3039 97.4391 81.5007C97.7908 80.6975 97.7738 79.7863 97.7149 78.9114C97.4184 74.4794 96.1904 70.1168 94.1712 66.1625C93.4751 64.7989 92.0921 61.4316 90.6375 60.7664C88.9176 59.9797 88.9755 63.6573 88.2247 65.0062Z" fill="white"/>
<path d="M20.6034 115.552C19.7915 115.57 19.0366 116.014 18.2251 116.043C17.4145 116.072 16.6017 115.652 16.158 114.973C15.8109 114.441 15.6923 113.797 15.4666 113.204C15.2408 112.61 14.8413 112.012 14.2252 111.858C13.5899 111.7 12.9554 112.06 12.3761 112.365C11.7969 112.67 11.0778 112.931 10.5137 112.599C10.9325 111.934 11.3509 111.27 11.7697 110.606C11.8506 110.478 11.9329 110.348 12.0483 110.25C12.1688 110.147 12.3177 110.086 12.4649 110.028C13.6032 109.578 14.8004 109.213 16.0243 109.225C16.8941 109.235 17.8752 109.525 18.2435 110.313C18.3524 110.546 18.398 110.806 18.5092 111.038C18.7805 111.604 19.4195 111.929 20.0462 111.971C20.6733 112.012 21.2916 111.815 21.87 111.569C22.2617 111.403 22.6631 111.209 23.0883 111.227C23.6194 111.249 24.0906 111.606 24.3858 112.048C24.6809 112.49 24.8299 113.011 24.9747 113.522C25.045 113.771 25.1163 114.028 25.0924 114.285C25.0644 114.585 24.9113 114.856 24.76 115.116C24.3908 115.751 23.6506 117.816 22.8153 117.041C22.0764 116.355 21.8318 115.523 20.6034 115.552Z" fill="#99D1CA"/>
<path opacity="0.5" d="M42.0827 79.109C41.931 79.5435 41.8197 80.0083 41.8997 80.4611C42.0367 81.2363 42.7291 81.8289 43.4882 82.0386C44.2472 82.2482 45.0587 82.136 45.82 81.9351C48.31 81.2772 50.5297 79.6488 51.9048 77.4718C52.2956 76.853 52.6257 76.1758 52.7103 75.4485C52.7949 74.7216 52.6037 73.935 52.0786 73.4251C48.9776 70.4179 43.0289 76.3979 42.0827 79.109Z" fill="#FFC1A7"/>
<path opacity="0.5" d="M12.2375 80.2358C13.3427 81.1507 14.6668 81.8459 16.0916 82.0141C16.3269 82.0417 16.5881 82.0482 16.7738 81.901C16.8998 81.8013 16.9688 81.6468 17.0244 81.496C17.4418 80.365 17.372 79.063 16.8354 77.983C16.3863 77.0787 15.6424 76.3537 14.8465 75.7321C13.7404 74.8673 9.6233 72.5796 8.57047 74.6572C7.75533 76.2649 11.2136 79.389 12.2375 80.2358Z" fill="#FFC1A7"/>
<path d="M31.4808 96.9938C36.1385 94.2766 40.9245 91.7894 45.5253 88.9725C50.097 86.173 54.6468 83.1511 57.9547 78.8644C59.9684 76.2544 61.5104 73.3667 61.778 70.0312C62.0543 66.5853 61.1026 63.1689 60.0539 59.9231C59.4962 58.1972 58.8926 56.4864 58.3643 54.7509C57.8692 53.1243 57.5106 51.4687 57.0949 49.8219C56.3566 46.8942 55.152 44.2331 52.6505 42.4148C50.3485 40.7418 47.4824 39.985 44.7037 39.5892C41.3553 39.1129 37.9325 39.054 34.5556 39.048C30.7066 39.0411 26.8575 39.2209 23.026 39.5873C19.6348 39.9115 16.0598 40.1901 12.8356 41.3643C9.90648 42.4309 7.64727 44.3733 6.1209 47.0859C4.49108 49.9823 3.58215 53.3059 2.78586 56.5108C1.87555 60.175 1.26592 63.9151 0.960648 67.6782C0.684797 71.0771 0.407556 74.7445 2.1422 77.8281C3.6226 80.4597 6.06481 82.5281 8.20541 84.6113C10.0246 86.3818 11.8848 88.1187 13.8889 89.68C17.7213 92.6652 22.0412 94.701 26.7187 95.9851C28.1977 96.391 29.6942 96.7303 31.198 97.031C31.6596 97.1234 31.8573 96.4154 31.3934 96.3225C26.3849 95.3212 21.4605 93.8362 17.1214 91.0763C12.9753 88.4392 9.49455 84.8871 6.03676 81.4335C4.91588 80.314 3.81156 79.1637 2.98079 77.8051C2.0668 76.3105 1.64016 74.6494 1.53534 72.9101C1.32155 69.3696 1.79234 65.6925 2.36335 62.2048C2.94126 58.6739 3.78398 55.1761 4.91589 51.7809C5.87999 48.8895 7.1866 45.9342 9.6026 43.9605C12.0324 41.9753 15.2428 41.3063 18.2726 40.8751C21.9138 40.357 25.5914 40.048 29.2653 39.8908C33.0306 39.7294 36.8038 39.7478 40.5669 39.9459C43.3649 40.0931 46.1947 40.3818 48.8566 41.3054C51.508 42.2249 53.8468 43.8662 55.1387 46.4133C55.8734 47.8624 56.2614 49.4582 56.6324 51.0306C57.0195 52.67 57.4402 54.2897 57.9528 55.8952C58.9886 59.1387 60.2378 62.3455 60.8129 65.715C61.3886 69.0882 61.0373 72.4232 59.3666 75.4438C56.7046 80.2565 52.4427 83.6292 47.922 86.5896C43.4031 89.5485 38.6483 92.1199 33.9368 94.7529C32.9911 95.2816 32.0467 95.8136 31.1107 96.3598C30.702 96.5975 31.0712 97.2324 31.4808 96.9938Z" fill="black"/>
<path d="M3.63689 55.4038C9.06794 52.2747 15.7877 55.6539 19.1204 60.2794C21.0748 62.992 22.2931 66.1413 23.2393 69.326C24.2774 72.8215 25.0834 76.3896 25.9657 79.9265C27.0479 84.2652 28.1297 88.6043 29.212 92.943C29.3264 93.4013 30.0349 93.2073 29.9204 92.7476C28.9071 88.6847 27.8939 84.6219 26.8806 80.5596C25.9381 76.7799 25.0797 72.9654 23.9768 69.2285C23.0104 65.9546 21.7635 62.6964 19.7553 59.9084C17.9692 57.4299 15.5918 55.4806 12.7345 54.3652C9.66837 53.168 6.17059 53.0963 3.2668 54.7693C2.85624 55.0052 3.22587 55.6401 3.63689 55.4038Z" fill="black"/>
<path d="M57.5664 53.3284C52.1432 50.5418 45.5821 53.5504 42.145 58.0808C40.0434 60.8513 38.781 64.1491 37.8858 67.4823C36.9001 71.1529 36.2583 74.9188 35.5176 78.6437C34.5977 83.2688 33.6782 87.8939 32.7582 92.519C32.6663 92.9806 33.3743 93.1783 33.4667 92.7144C34.2437 88.8069 35.0207 84.8995 35.7976 80.9921C36.5277 77.3219 37.1962 73.6328 38.026 69.9838C39.4246 63.8328 41.8167 57.3029 47.8151 54.3026C50.729 52.8452 54.2245 52.4369 57.1954 53.9633C57.6151 54.1785 57.9875 53.5449 57.5664 53.3284Z" fill="black"/>
<path d="M29.7241 96.048C29.239 95.6967 28.84 95.248 28.5636 94.7152C28.3678 94.3377 27.9903 93.4748 28.4731 93.158C28.6947 93.0127 29.1673 93.0775 29.4192 93.0711C29.7783 93.0619 30.1374 93.0523 30.4964 93.0431C31.1746 93.0251 31.8527 93.0067 32.5308 92.9897C33.0807 92.9759 34.3105 92.9414 34.0682 93.8508C33.9358 94.3478 33.1759 94.9129 32.815 95.277C32.4086 95.6871 31.9497 96.1344 31.3778 96.2976C30.6463 96.5064 29.8997 96.2232 29.2156 95.9749C28.7705 95.8135 28.5788 96.5229 29.0202 96.6834C29.919 97.0093 30.8583 97.2907 31.7916 96.9275C32.6118 96.6084 33.2186 95.9188 33.814 95.3009C34.3455 94.7492 34.9942 94.1938 34.7813 93.3456C34.5896 92.581 33.8866 92.284 33.1625 92.2481C32.083 92.1948 30.9787 92.2964 29.8983 92.3245C29.2165 92.3424 28.2184 92.1921 27.7605 92.8385C26.8492 94.1244 28.3701 95.9717 29.3535 96.6834C29.7365 96.9601 30.1038 96.3229 29.7241 96.048Z" fill="black"/>
<path d="M11.8738 41.7143C10.6923 40.187 9.34886 38.7935 7.85329 37.571C7.14803 36.9945 6.41381 36.4529 5.65154 35.9536C4.90812 35.4663 4.02447 34.7836 3.14589 34.5822C1.40205 34.1822 1.19792 36.9476 1.09677 38.0598C0.924368 39.9567 1.1924 41.8858 1.74456 43.7027C2.38914 45.825 3.41669 47.8148 4.67319 49.6368C4.93985 50.0234 5.57659 49.6565 5.30764 49.2662C2.86958 45.7325 1.14552 41.2927 1.98962 36.949C2.07284 36.5196 2.14731 35.7394 2.50591 35.4336C2.96291 35.0438 3.73621 35.6488 4.15872 35.8948C5.12558 36.4575 6.05658 37.0846 6.93746 37.7742C8.59165 39.0684 10.0693 40.5741 11.3538 42.2348C11.6435 42.6072 12.1598 42.084 11.8738 41.7143Z" fill="black"/>
<path d="M1.50064 36.3923C4.58374 38.3186 6.99928 41.1406 8.45118 44.4715C8.63967 44.9037 9.27275 44.5303 9.08563 44.1009C7.58546 40.6588 5.05453 37.7467 1.87167 35.7578C1.46938 35.5068 1.1002 36.1422 1.50064 36.3923Z" fill="black"/>
<path d="M47.6953 40.5984C49.0369 39.1038 50.6419 37.8859 52.4483 37.0055C53.3618 36.56 54.3208 36.2096 55.3047 35.9545C55.8118 35.823 56.3253 35.7168 56.8435 35.6386C57.3083 35.5683 58.0287 35.3821 58.437 35.6832C58.8337 35.9761 58.8443 36.725 58.9018 37.1852C58.9625 37.6721 58.9928 38.1631 58.9983 38.6537C59.0089 39.6697 58.9045 40.683 58.6852 41.6752C58.2379 43.6976 57.3359 45.5996 56.0297 47.2092C55.7341 47.5729 56.2509 48.0961 56.5492 47.7287C58.8264 44.9238 59.9919 41.2844 59.687 37.6739C59.6259 36.9526 59.6103 35.9591 59.173 35.3527C58.7225 34.7279 57.9184 34.7706 57.2333 34.852C55.4412 35.0649 53.7002 35.5802 52.0782 36.3715C50.2221 37.2772 48.5555 38.5433 47.1763 40.0794C46.8609 40.4297 47.379 40.9511 47.6953 40.5984Z" fill="black"/>
<path d="M58.2979 35.3831C55.4488 36.9362 53.0976 39.2786 51.5331 42.1208C51.305 42.535 51.939 42.906 52.1675 42.4913C53.6755 39.7521 55.9233 37.5136 58.6689 36.0171C59.0836 35.7909 58.7135 35.1565 58.2979 35.3831Z" fill="black"/>
<path d="M10.9875 78.5604C11.4601 78.5604 11.461 77.8257 10.9875 77.8257C10.5148 77.8257 10.5144 78.5604 10.9875 78.5604Z" fill="black"/>
<path d="M16.6208 78.6821C16.5799 78.6821 16.5394 78.6821 16.4985 78.6821C16.3063 78.6821 16.1224 78.8509 16.1312 79.0495C16.1399 79.2485 16.2925 79.4168 16.4985 79.4168C16.5394 79.4168 16.5799 79.4168 16.6208 79.4168C16.813 79.4168 16.9969 79.2481 16.9881 79.0495C16.9794 78.8504 16.8268 78.6821 16.6208 78.6821Z" fill="black"/>
<path d="M15.0273 82.8442C15.0273 82.8851 15.0273 82.926 15.0273 82.9665C15.0273 83.1587 15.1961 83.3426 15.3947 83.3338C15.5938 83.3251 15.762 83.1725 15.762 82.9665C15.762 82.9256 15.762 82.8847 15.762 82.8442C15.762 82.652 15.5933 82.4681 15.3947 82.4769C15.1956 82.4856 15.0273 82.6382 15.0273 82.8442Z" fill="black"/>
<path d="M13.4355 77.9467C13.4355 78.0281 13.4355 78.11 13.4355 78.1918C13.4355 78.384 13.6047 78.5679 13.8029 78.5591C14.002 78.5504 14.1702 78.3978 14.1702 78.1918C14.1702 78.11 14.1702 78.0286 14.1702 77.9467C14.1702 77.7546 14.0015 77.5707 13.8029 77.5794C13.6038 77.5886 13.4355 77.7408 13.4355 77.9467Z" fill="black"/>
<path d="M10.4993 81.2528C10.972 81.2528 10.9729 80.5181 10.4993 80.5181C10.0267 80.5181 10.0258 81.2528 10.4993 81.2528Z" fill="black"/>
<path d="M48.3255 75.7425C48.7981 75.7425 48.7991 75.0078 48.3255 75.0078C47.8529 75.0078 47.852 75.7425 48.3255 75.7425Z" fill="black"/>
<path d="M45.388 80.6414C45.8606 80.6414 45.8616 79.9067 45.388 79.9067C44.9154 79.9067 44.9145 80.6414 45.388 80.6414Z" fill="black"/>
<path d="M48.2044 83.4554C48.677 83.4554 48.678 82.7207 48.2044 82.7207C47.7318 82.7207 47.7309 83.4554 48.2044 83.4554Z" fill="black"/>
<path d="M50.2866 79.5384C50.7593 79.5384 50.7602 78.8037 50.2866 78.8037C49.8135 78.8037 49.8131 79.5384 50.2866 79.5384Z" fill="black"/>
<path d="M56.6497 75.7425C57.1224 75.7425 57.1233 75.0078 56.6497 75.0078C56.1771 75.0078 56.1762 75.7425 56.6497 75.7425Z" fill="black"/>
<path d="M43.796 84.68C44.2687 84.68 44.2696 83.9453 43.796 83.9453C43.3234 83.9453 43.323 84.68 43.796 84.68Z" fill="black"/>
<path d="M13.9968 89.5422C10.9707 94.9226 9.70918 101.039 8.91381 107.101C8.04488 113.721 7.4495 120.388 6.8486 127.037C6.52402 130.632 6.17047 134.27 6.77964 137.856C6.85872 138.321 7.58558 138.213 7.50604 137.745C6.9617 134.541 7.20583 131.3 7.49225 128.083C7.78925 124.745 8.10694 121.41 8.44394 118.076C9.0692 111.891 9.55148 105.611 10.9923 99.5486C11.7974 96.1612 12.9679 92.8588 14.6777 89.8185C14.9085 89.4074 14.2253 89.1353 13.9968 89.5422Z" fill="black"/>
<path d="M51.6982 84.4185C56.1481 97.8841 58.8556 111.914 59.7098 126.071C59.9484 130.024 60.0413 133.986 59.9948 137.946C59.9893 138.419 60.724 138.419 60.7295 137.946C60.895 123.779 59.2316 109.597 55.7858 95.8539C54.8038 91.9368 53.6737 88.0574 52.4066 84.2231C52.2591 83.7767 51.5492 83.9679 51.6982 84.4185Z" fill="black"/>
<path d="M60.4067 130.286C67.7246 131.595 74.9942 129.038 80.9861 124.914C85.859 121.56 89.9218 117.129 92.8909 112.016C95.8489 106.923 97.7201 101.236 98.6088 95.424C99.5164 89.4877 99.4332 83.4259 98.4852 77.5002C97.4029 70.7322 95.1796 64.0409 90.7475 58.7005C90.166 57.9993 89.5481 57.3313 88.8998 56.6913C88.6506 56.4449 88.1628 56.6909 88.286 57.0486C89.9655 61.9224 87.852 67.176 83.9694 70.3464C82.0353 71.9257 79.7484 72.9886 77.5858 74.2074C75.4847 75.3917 73.5643 76.7751 71.9556 78.5856C70.3433 80.4003 69.0496 82.5165 68.3126 84.8369C67.4652 87.5053 67.5319 90.3038 67.8685 93.0531C68.5894 98.9462 69.7544 104.844 68.6119 110.772C67.6202 115.919 64.7173 120.968 59.8187 123.242C59.3902 123.44 59.7631 124.074 60.1892 123.876C64.4268 121.91 67.2809 117.859 68.6785 113.497C70.4523 107.963 69.8776 102 69.0679 96.3495C68.6243 93.2517 68.0312 90.0684 68.5572 86.9412C68.9834 84.4065 70.1387 82.0356 71.7134 80.0173C73.3335 77.9411 75.344 76.3411 77.6175 75.0345C79.7457 73.8116 81.9916 72.7716 83.9566 71.2834C88.3297 67.9713 90.8427 62.2176 88.994 56.8532C88.7894 56.9722 88.5849 57.0913 88.3803 57.2104C93.3718 62.1385 96.048 68.7382 97.3882 75.5205C98.5229 81.2628 98.8217 87.183 98.19 93.0053C97.5707 98.7136 96.0232 104.356 93.427 109.487C90.845 114.591 87.2268 119.133 82.7483 122.701C77.3173 127.027 70.5543 130.171 63.488 129.893C62.5183 129.855 61.5561 129.748 60.6012 129.577C60.1396 129.495 59.9414 130.202 60.4067 130.286Z" fill="black"/>
<path d="M81.394 72.4014C82.4767 73.4114 82.4541 74.9443 82.1558 76.289C81.8348 77.7368 81.3825 79.1629 80.9871 80.5918C80.897 80.9183 81.2478 81.1431 81.5268 81.0065C85.266 79.1749 86.8411 75.1226 88.173 71.4455C87.9371 71.4455 87.7008 71.4455 87.4645 71.4455C88.1734 74.1668 88.4764 76.9589 88.3721 79.7689C88.3656 79.9399 88.4925 80.0687 88.6419 80.1229C89.1537 80.3091 89.561 79.9762 89.8824 79.6034C90.3564 79.054 90.7982 78.4715 91.2266 77.8857C92.1351 76.643 92.9457 75.3337 93.668 73.9746C93.4758 73.9995 93.2831 74.0243 93.091 74.0491C94.1599 75.1875 94.2063 76.8288 94.3111 78.3014C94.4325 80.0103 94.7222 81.6884 95.2127 83.331C95.2803 83.5572 95.5442 83.6726 95.7525 83.5503C97.123 82.7472 98.1271 81.5123 98.6526 80.0149C98.8093 79.568 98.0999 79.3758 97.9441 79.8195C97.483 81.1348 96.5828 82.212 95.3819 82.9159C95.5617 82.989 95.7414 83.0621 95.9212 83.1352C95.3718 81.2948 95.1447 79.4517 94.992 77.5446C94.8757 76.0941 94.644 74.6289 93.6109 73.5287C93.4532 73.3609 93.1429 73.3977 93.0339 73.6032C92.4841 74.6385 91.8841 75.6458 91.2257 76.6159C90.8966 77.1005 90.5545 77.5768 90.1987 78.0421C90.012 78.2862 89.2336 79.5574 88.8383 79.413C88.9279 79.5312 89.018 79.6494 89.1077 79.7671C89.2143 76.895 88.8989 74.0294 88.1739 71.2483C88.0769 70.8764 87.5831 70.9237 87.4654 71.2483C86.197 74.7502 84.7207 78.6241 81.1572 80.3702C81.3369 80.5086 81.5167 80.6466 81.6969 80.7849C82.1617 79.1059 82.7783 77.3984 83.0123 75.6688C83.1971 74.3034 82.9603 72.8547 81.9149 71.8796C81.5677 71.5596 81.0473 72.0782 81.394 72.4014Z" fill="black"/>
<path d="M9.71348 69.9128C10.3024 68.2783 12.8734 68.8935 13.7303 69.8976C14.065 70.2902 14.6291 69.7215 14.2963 69.3316C12.9952 67.8066 9.73094 67.5087 8.94155 69.6999C8.76684 70.1854 9.53969 70.3946 9.71348 69.9128Z" fill="black"/>
<path d="M48.2017 66.1005C48.9157 64.2049 51.1215 65.4463 51.9528 66.4582C52.2801 66.8563 52.8433 66.2872 52.5187 65.8922C51.7859 64.9999 50.7473 64.2367 49.534 64.3254C48.564 64.3962 47.7704 64.9838 47.4297 65.8876C47.2481 66.3704 48.0219 66.5786 48.2017 66.1005Z" fill="black"/>
<path d="M18.7621 38.4399C17.3185 38.6996 16.0023 39.2702 15.0161 40.4264C10.8517 45.3099 19.723 48.5277 23.0806 49.1819C26.3995 49.8288 29.8104 49.7663 33.191 49.7015C35.3964 49.6592 37.6142 49.6155 39.7824 49.2095C41.1723 48.9493 42.5708 48.5217 43.6811 47.6464C46.2272 45.6386 47.0929 41.1841 43.7317 39.5653C42.3262 38.8886 40.7125 38.8366 39.153 38.7975C34.7289 38.6867 30.3042 38.5759 25.88 38.4651C23.7454 38.4118 21.0885 38.0215 18.7621 38.4399Z" fill="#C1A067"/>
<path d="M18.6573 38.0532C15.3361 38.7874 11.7882 42.1523 14.5711 45.4524C17.1314 48.4881 22.0692 49.6182 25.8157 49.9662C29.5879 50.317 33.5505 50.2568 37.3269 49.9313C39.7645 49.7212 42.524 49.3355 44.374 47.5714C47.3045 44.7766 46.9077 39.9496 42.7479 38.7878C39.0009 37.741 34.4742 38.2789 30.6224 38.1823C26.6929 38.0844 22.5574 37.5024 18.6573 38.0532C18.1493 38.1249 18.3654 38.8963 18.8702 38.8251C22.0968 38.3695 25.4805 38.8545 28.7264 38.9359C32.0444 39.0191 35.3629 39.0968 38.6809 39.1851C41.9369 39.272 46.516 40.0204 45.3551 44.3973C44.3929 48.0261 40.5756 48.8307 37.3274 49.1313C32.0196 49.6233 25.9499 49.8545 20.8412 48.1626C18.958 47.5392 16.8372 46.6712 15.4363 45.2092C12.7054 42.3592 15.9237 39.4765 18.8702 38.8251C19.3727 38.7143 19.1603 37.9419 18.6573 38.0532Z" fill="black"/>
<path d="M27.6837 12.9101C24.968 20.8243 22.2522 28.738 19.5369 36.6522C18.8666 38.6061 18.1894 40.5945 18.1094 42.6588C25.9095 44.5406 34.1777 44.4486 41.9337 42.3926C42.2716 42.303 42.6422 42.1848 42.8155 41.8809C43.01 41.5407 42.8762 41.1145 42.7369 40.7476C38.761 30.263 33.5281 20.3084 28.309 10.3838L27.6837 12.9101Z" fill="#99D1CA"/>
<path d="M27.2989 12.8038C25.5385 17.9332 23.7786 23.0627 22.0182 28.1921C20.4237 32.8384 18.0965 37.7251 17.7098 42.6591C17.6965 42.8265 17.8427 43.0076 18.0036 43.0449C23.2646 44.2623 28.6597 44.6963 34.0439 44.1938C36.6144 43.9538 39.6377 43.7487 42.0408 42.7787C43.0095 42.3874 43.3796 42.0113 43.2058 40.93C42.8261 38.5687 41.2965 36.0171 40.3411 33.8144C39.1959 31.1741 37.9849 28.5631 36.7325 25.972C34.1593 20.6485 31.4072 15.4147 28.6556 10.1818C28.4956 9.87792 28.0051 9.9501 27.9241 10.2774C27.7159 11.1202 27.5076 11.962 27.2989 12.8038C27.1752 13.304 27.9467 13.5173 28.0708 13.0166C28.2795 12.1748 28.4878 11.333 28.6965 10.4912C28.4528 10.523 28.2087 10.5551 27.965 10.5869C31.2803 16.8919 34.5979 23.2001 37.6005 29.662C38.3665 31.3102 39.1122 32.9671 39.8303 34.6365C40.5121 36.2199 41.7277 38.2864 42.0275 40.0064C42.2707 41.4022 42.2394 41.7038 40.9645 42.2279C40.2197 42.5341 39.1398 42.6444 38.3508 42.792C36.3413 43.1676 34.3073 43.4104 32.2665 43.5276C28.5954 43.7386 24.8953 43.5322 21.272 42.9042C20.0785 42.6973 19.3603 42.8458 18.8909 41.7447C18.5342 40.9075 18.8794 40.1144 19.1052 39.2942C19.5865 37.5458 20.2403 35.836 20.8288 34.1215C23.2425 27.0869 25.6566 20.0522 28.0708 13.0176C28.2381 12.5284 27.4653 12.3187 27.2989 12.8038Z" fill="black"/>
<path d="M27.3145 13.9615C26.6272 15.281 24.7762 15.704 23.4305 15.0695C22.0848 14.435 21.2573 12.9841 21.0453 11.5115C20.9322 10.7271 20.98 9.88672 21.3819 9.20353C21.7837 8.52034 22.6016 8.0445 23.3744 8.2192C22.2439 6.97465 21.848 5.07818 22.482 3.521C23.1156 1.96382 24.7923 0.866855 26.4676 1.00662C28.143 1.14638 29.6459 2.57897 29.7737 4.25522C31.113 3.27457 33.0632 3.2217 34.4535 4.12879C35.3418 4.70854 35.9785 5.61931 36.3725 6.6041C36.8493 7.79669 36.9803 9.18882 36.4254 10.3474C35.8709 11.506 34.5147 12.3179 33.2743 11.9846C33.7032 12.2429 33.8655 12.8153 33.7616 13.3054C33.6572 13.7951 33.3368 14.2116 32.9809 14.5638C32.146 15.3904 31.032 15.9706 29.8578 16.0161C28.6841 16.0616 27.4671 15.5201 26.8391 14.527L27.3145 13.9615Z" fill="#C1A067"/>
<path d="M26.9661 13.7595C25.6963 15.6192 23.5208 15.0891 22.3392 13.5949C21.4855 12.5149 20.2519 8.53396 23.3713 8.61947C23.6486 8.62729 23.9056 8.26224 23.7171 8.0172C22.3079 6.18509 22.0822 3.40037 24.2835 1.97284C26.3749 0.616115 28.967 2.02249 29.3854 4.36171C29.4313 4.61825 29.7679 4.72354 29.9734 4.60078C31.9526 3.41784 34.4003 3.8638 35.5966 5.95153C36.0807 6.7961 36.2279 7.51331 36.2577 8.4843C36.306 10.0378 34.9681 11.7881 33.2717 11.5849C32.9098 11.5417 32.7673 12.0414 32.9884 12.2681C32.8905 12.9393 32.7926 13.6105 32.6951 14.2813C32.1696 14.8735 31.5227 15.2284 30.755 15.3452C29.3187 15.69 28.116 15.4624 27.1197 14.2445C26.7933 13.8455 26.2301 14.4146 26.5537 14.8105C28.0535 16.6431 30.3973 16.8444 32.3531 15.5695C33.7043 14.6887 34.9029 13.0827 33.5549 11.7021C33.4606 11.9297 33.3664 12.1577 33.2717 12.3853C36.666 12.7917 37.7956 9.11922 36.7354 6.4499C35.5401 3.44129 32.3751 2.23214 29.5693 3.90932C29.7651 3.98885 29.9614 4.06885 30.1573 4.14839C29.6814 1.48872 26.9868 -0.158107 24.4329 0.983916C21.4073 2.33696 21.176 6.01498 23.0265 8.4204C23.1415 8.21949 23.2569 8.01904 23.3723 7.81812C20.0051 7.72525 20.1655 12.0451 21.6459 14.0675C23.1727 16.1534 26.1653 16.3488 27.6581 14.1627C27.9486 13.737 27.2553 13.3361 26.9661 13.7595Z" fill="black"/>
<path d="M21.0681 46.5534C21.8405 46.5534 21.8418 45.3525 21.0681 45.3525C20.2957 45.3525 20.2943 46.5534 21.0681 46.5534Z" fill="black"/>
<path d="M27.74 47.4875C28.5123 47.4875 28.5137 46.2871 27.74 46.2871C26.9676 46.2866 26.9662 47.4875 27.74 47.4875Z" fill="black"/>
<path d="M35.8763 46.0205C35.8317 46.0205 35.7876 46.0205 35.743 46.0205C35.589 46.0205 35.4276 46.0876 35.3186 46.1966C35.2143 46.3005 35.1361 46.4715 35.143 46.6209C35.1499 46.7763 35.2009 46.9373 35.3186 47.0453C35.4359 47.1533 35.5802 47.2209 35.743 47.2209C35.7876 47.2209 35.8317 47.2209 35.8763 47.2209C36.0303 47.2209 36.1922 47.1538 36.3007 47.0453C36.405 46.9414 36.4832 46.7704 36.4767 46.6209C36.4698 46.4655 36.4188 46.3046 36.3007 46.1966C36.1834 46.0885 36.0391 46.0205 35.8763 46.0205Z" fill="black"/>
<path d="M41.8786 45.8874C42.651 45.8874 42.6524 44.687 41.8786 44.687C41.1062 44.6866 41.1049 45.8874 41.8786 45.8874Z" fill="black"/>
<path d="M10.194 86.3742C8.16049 89.2146 7.1472 92.7698 7.378 96.2552C7.43225 97.0772 7.5596 97.914 7.94671 98.6413C8.56232 99.7971 9.75032 100.53 10.9452 101.065C13.4113 102.169 16.1032 102.661 18.7771 103.048C24.501 103.876 30.2833 104.245 36.0656 104.151C40.3477 104.082 44.7296 103.78 48.7037 102.164C52.5279 100.609 55.9655 97.6662 57.2468 93.7422C58.5281 89.8182 57.1673 84.9458 53.5729 82.915L43.4432 90.221L30.7472 97.0975L20.914 93.8024C20.395 93.6286 19.9049 93.3771 19.4607 93.0567L10.194 86.3742Z" fill="#FFC1A7"/>
<path d="M9.84655 86.1718C7.85628 89.1179 6.68299 92.6663 6.97631 96.2546C7.22044 99.2398 8.90865 100.706 11.5839 101.763C15.2661 103.219 19.3947 103.607 23.3058 104.005C27.9686 104.48 32.6668 104.663 37.3521 104.521C44.0893 104.316 51.5924 103.053 55.8599 97.2509C59.2367 92.6594 58.8671 85.7571 53.7744 82.5683C53.6627 82.4984 53.4811 82.4888 53.3703 82.5683C50.5212 84.6229 47.6726 86.678 44.8235 88.7326C42.6484 90.3013 40.2835 91.476 37.9231 92.7545C36.0253 93.7826 34.1274 94.8106 32.2296 95.8381C31.7744 96.0845 31.2052 96.5374 30.6995 96.667C30.3478 96.7572 30.9298 96.6891 30.7878 96.6886C30.5974 96.6882 30.2958 96.542 30.1202 96.4647C26.7525 94.9903 22.7035 94.6524 19.5795 92.6506C16.4164 90.6236 13.4427 88.2255 10.3946 86.0279C9.97619 85.7263 9.57621 86.4201 9.99044 86.7189C13.9986 89.6089 17.877 93.2056 22.6019 94.789C24.2961 95.3567 25.9903 95.9245 27.6849 96.4923C28.4761 96.7576 29.7993 97.5281 30.6402 97.4826C31.1165 97.4569 31.5473 97.1181 31.967 96.8905C33.4681 96.0772 34.9697 95.2643 36.4707 94.451C38.8394 93.1679 41.3469 92.0098 43.6268 90.5749C45.6446 89.305 47.5333 87.7603 49.4665 86.3663C50.6017 85.5475 51.872 84.2588 53.1588 83.7034C53.9454 83.3637 53.3114 83.3935 53.9192 83.6032C55.4373 84.1278 56.5642 86.7093 56.9463 88.0357C59.0289 95.2726 52.4444 100.858 46.1674 102.598C38.4353 104.741 29.3593 103.941 21.4916 103.005C17.7915 102.564 13.2027 102.19 9.97435 100.11C5.57177 97.2711 8.25351 89.9579 10.538 86.5759C10.8267 86.1475 10.1339 85.7466 9.84655 86.1718Z" fill="black"/>
<path d="M14.9175 102.663C13.1116 108.772 9.6152 114.372 4.91838 118.676C4.59839 118.969 4.24164 119.395 4.43611 119.783C4.51657 119.944 4.6761 120.048 4.82828 120.144C8.04746 122.176 11.2666 124.209 14.4858 126.241C22.3181 121.719 27.694 113.196 28.4011 104.18L21.606 103.785L14.9175 102.663Z" fill="#FFC1A7"/>
<path d="M14.5301 102.556C12.6511 108.664 9.32714 113.584 4.91306 118.131C3.83679 119.24 3.75081 119.834 5.02754 120.743C7.98236 122.849 11.2135 124.648 14.2823 126.586C14.4014 126.662 14.5669 126.658 14.6865 126.586C22.6995 121.814 27.9448 113.462 28.7999 104.179C28.8206 103.955 28.5995 103.791 28.3999 103.779C23.7826 103.511 19.5847 103.042 15.0225 102.277C14.5187 102.192 14.3021 102.963 14.8097 103.049C17.4753 103.496 20.1442 104.101 22.8452 104.258C23.8695 104.317 24.8943 104.377 25.9187 104.436C26.3209 104.459 28.0606 104.292 28.359 104.578C28.0252 104.258 27.6979 106.581 27.6381 106.9C27.4634 107.834 27.2381 108.759 26.9673 109.67C26.435 111.46 25.7205 113.194 24.8433 114.843C23.1822 117.964 20.9483 120.77 18.2661 123.074C17.4537 123.772 16.4974 124.712 15.4984 125.149C14.2681 125.687 13.7899 125.329 12.6746 124.625C10.7206 123.392 8.41223 122.291 6.63897 120.815C6.0275 120.63 5.65372 120.236 5.51718 119.633C5.01651 119.122 5.09697 118.724 5.75809 118.436C6.20773 117.653 7.26424 116.919 7.87019 116.227C8.89957 115.052 9.85447 113.808 10.7234 112.511C12.7376 109.504 14.2391 106.223 15.3021 102.769C15.4538 102.275 14.6814 102.064 14.5301 102.556Z" fill="black"/>
<path d="M3.37368 123.796C4.64306 123.495 5.71245 122.642 6.2761 121.464C6.49724 121.001 5.80715 120.595 5.58509 121.059C5.10419 122.065 4.24676 122.767 3.16083 123.024C2.66016 123.143 2.87209 123.915 3.37368 123.796Z" fill="black"/>
<path d="M5.90908 125.659C7.29569 125.242 8.36186 124.196 8.81747 122.825C8.98023 122.335 8.20738 122.124 8.04554 122.612C7.67958 123.713 6.80606 124.553 5.69622 124.887C5.20429 125.035 5.41392 125.807 5.90908 125.659Z" fill="black"/>
<path d="M9.19778 127.726C10.2387 126.691 10.983 125.447 11.4078 124.042C11.5572 123.548 10.7848 123.337 10.6359 123.829C10.2497 125.106 9.57754 126.22 8.63183 127.16C8.26633 127.524 8.83228 128.09 9.19778 127.726Z" fill="black"/>
<path d="M11.3216 128.517C12.413 127.828 13.2102 126.846 13.6829 125.648C13.8718 125.169 13.098 124.961 12.9109 125.435C12.5178 126.431 11.8204 127.256 10.9174 127.826C10.483 128.101 10.8843 128.794 11.3216 128.517Z" fill="black"/>
<path d="M12.3533 109.767C13.8489 109.254 16.3738 107.776 17.8837 108.801C18.6868 109.346 19.0836 111.096 20.119 111.305C20.8127 111.446 21.5998 110.643 22.1915 110.468C24.5101 109.784 24.9496 111.173 25.7877 113.096C25.9932 113.567 26.6828 113.16 26.4787 112.692C26.0544 111.718 25.2857 109.342 24.1436 108.945C23.0729 108.572 22.0256 110.088 21.0353 110.14C19.0238 110.248 19.0211 107.878 17.4037 107.471C15.9081 107.095 13.5271 108.52 12.1409 108.996C11.6559 109.162 11.8641 109.935 12.3533 109.767Z" fill="black"/>
<path d="M8.99935 114.946C10.1032 114.667 13.0309 113.279 14.0369 113.679C15.4276 114.231 15.4947 116.879 16.5361 117.904C17.0234 118.383 16.8754 118.261 17.6261 118.282C18.1126 118.296 18.7576 117.791 19.2219 117.694C21.0618 117.31 21.5087 117.599 22.1754 119.252C22.3657 119.724 23.1399 119.518 22.9473 119.039C22.5376 118.023 22.3188 116.092 20.9253 116.09C19.5888 116.088 18.9939 117.626 17.4592 116.937C16.1278 116.339 15.3435 113.923 14.6754 112.639C14.6005 112.495 14.3812 112.395 14.2235 112.455C12.4388 113.136 10.6384 113.705 8.78694 114.174C8.28765 114.301 8.49914 115.073 8.99935 114.946Z" fill="black"/>
<path d="M48.6449 45.9829C49.4729 45.7213 50.3004 45.4597 51.1285 45.1981C51.5064 45.0786 51.345 44.4823 50.9643 44.6023C50.1363 44.8639 49.3088 45.1255 48.4808 45.3871C48.1028 45.5066 48.2642 46.1029 48.6449 45.9829Z" fill="black"/>
<path d="M18.3073 52.8832C19.5844 53.965 20.5168 55.3235 21.0469 56.912C21.1715 57.2853 21.765 57.1253 21.6395 56.7488C21.0768 55.062 20.0998 53.5986 18.7417 52.4487C18.4415 52.1949 18.0047 52.6271 18.3073 52.8832Z" fill="black"/>
<path d="M24.8869 51.4001C25.2373 52.435 25.4207 53.4887 25.4345 54.5811C25.4396 54.976 26.0538 54.9774 26.0487 54.5811C26.034 53.4349 25.8469 52.3228 25.4791 51.2368C25.3536 50.864 24.7596 51.024 24.8869 51.4001Z" fill="black"/>
<path d="M29.9743 51.212C29.8005 52.4708 29.7536 53.7218 29.8502 54.9893C29.8801 55.381 30.4947 55.3842 30.4644 54.9893C30.3729 53.7802 30.401 52.577 30.5669 51.3752C30.6203 50.9885 30.0286 50.8212 29.9743 51.212Z" fill="black"/>
<path d="M37.1217 51.3861C36.5718 52.7433 36.2633 54.1433 36.1764 55.6039C36.153 55.9988 36.7672 55.9974 36.7907 55.6039C36.8743 54.1975 37.1856 52.8541 37.7139 51.5493C37.8624 51.1834 37.2683 51.0239 37.1217 51.3861Z" fill="black"/>
<path d="M25.8066 61.8602C26.0369 62.9475 26.3105 64.0229 26.6277 65.0881C26.7403 65.4661 27.3334 65.3051 27.2203 64.9249C26.9031 63.8597 26.6295 62.7843 26.3992 61.697C26.3169 61.3104 25.7247 61.4736 25.8066 61.8602Z" fill="black"/>
<path d="M30.8535 62.9774C30.8535 63.6601 30.8535 64.3428 30.8535 65.0256C30.8535 65.421 31.4677 65.4214 31.4677 65.0256C31.4677 64.3428 31.4677 63.6601 31.4677 62.9774C31.4677 62.582 30.8535 62.5815 30.8535 62.9774Z" fill="black"/>
<path d="M34.7159 63.092C34.526 63.9145 34.3356 64.7374 34.1458 65.5599C34.057 65.9447 34.6492 66.1088 34.7384 65.7231C34.9282 64.9006 35.1186 64.0781 35.3089 63.2552C35.3972 62.8708 34.805 62.7062 34.7159 63.092Z" fill="black"/>
<path d="M29.9499 71.5696C29.8295 72.6317 29.8828 73.6776 30.0961 74.7245C30.1752 75.1116 30.7674 74.9479 30.6888 74.5612C30.4865 73.5682 30.4506 72.5756 30.5646 71.5696C30.6087 71.177 29.9941 71.1802 29.9499 71.5696Z" fill="black"/>
<path d="M30.4135 79.6779C30.2107 80.4498 30.1546 81.2305 30.2571 82.0227C30.3073 82.4093 30.9224 82.4144 30.8714 82.0227C30.7757 81.2838 30.8162 80.5625 31.0061 79.8411C31.1063 79.4586 30.5141 79.2954 30.4135 79.6779Z" fill="black"/>
<path d="M44.3678 50.8274C45.3149 50.4775 46.2137 50.032 47.0601 49.4808C47.3902 49.2661 47.0826 48.7337 46.7502 48.9502C45.9479 49.4725 45.1034 49.9028 44.205 50.2348C43.8368 50.3709 43.9958 50.9649 44.3678 50.8274Z" fill="black"/>
<path d="M10.8866 49.5488C11.8157 49.5281 12.658 49.8555 13.3242 50.5051C13.6074 50.7814 14.0423 50.3474 13.7586 50.0706C12.9826 49.3139 11.9716 48.9107 10.8866 48.9346C10.4916 48.9433 10.4903 49.5576 10.8866 49.5488Z" fill="black"/>
<path d="M10.9706 45.1649C11.4409 45.4499 11.9117 45.7354 12.382 46.0205C12.7209 46.226 13.0303 45.695 12.6919 45.4899C12.2216 45.2049 11.7508 44.9194 11.2805 44.6343C10.9416 44.4288 10.6322 44.9598 10.9706 45.1649Z" fill="black"/>
<path d="M17.9355 127.902C18.083 129.351 18.4177 130.738 18.9644 132.088C19.1106 132.45 19.7055 132.292 19.557 131.925C19.0324 130.629 18.6918 129.294 18.5502 127.902C18.5102 127.512 17.8955 127.508 17.9355 127.902Z" fill="black"/>
<path d="M30.0317 128.192C30.3752 129.352 30.7191 130.512 31.0625 131.672C31.1747 132.05 31.7677 131.889 31.6551 131.509C31.3117 130.349 30.9678 129.189 30.6239 128.029C30.5122 127.651 29.9191 127.812 30.0317 128.192Z" fill="black"/>
<path d="M47.9333 126.267C47.9614 127.362 47.828 128.426 47.5287 129.479C47.4207 129.86 48.0133 130.023 48.1213 129.643C48.4354 128.538 48.5774 127.415 48.548 126.267C48.5374 125.873 47.9232 125.871 47.9333 126.267Z" fill="black"/>
<path d="M44.5516 114.09C44.3479 115.069 44.2895 116.05 44.3897 117.046C44.4288 117.435 45.0435 117.439 45.0039 117.046C44.9092 116.105 44.9511 115.179 45.1442 114.253C45.2246 113.868 44.6325 113.703 44.5516 114.09Z" fill="black"/>
<path d="M32.3735 113.344C32.2122 114.641 32.1616 115.938 32.2218 117.244C32.2398 117.637 32.8544 117.64 32.836 117.244C32.7758 115.938 32.8264 114.641 32.9878 113.344C33.0365 112.952 32.4218 112.956 32.3735 113.344Z" fill="black"/>
<path d="M26.1383 116.962C26.0693 117.303 25.9999 117.644 25.9309 117.985C25.8528 118.371 26.4449 118.536 26.5235 118.148C26.5925 117.807 26.6619 117.466 26.7309 117.125C26.809 116.739 26.2169 116.574 26.1383 116.962Z" fill="black"/>
<path d="M48.567 105.769C48.4677 106.757 48.6774 107.712 49.1629 108.577C49.3565 108.921 49.8875 108.612 49.6934 108.267C49.2571 107.49 49.0925 106.654 49.1813 105.769C49.2208 105.376 48.6061 105.378 48.567 105.769Z" fill="black"/>
</svg>
