<svg width="113" height="164" viewBox="0 0 113 164" fill="none" xmlns="http://www.w3.org/2000/svg">
<path d="M51.4035 162.6C65.6242 163.875 80.7177 164.355 93.3235 157.65C96.2932 156.071 99.2289 153.904 100.327 150.725C101.327 147.832 100.621 144.653 99.8006 141.704C96.2767 129.035 90.7612 116.922 88.226 104.019C86.7723 96.6203 86.2944 88.956 83.572 81.9246C81.796 77.3383 79.1171 73.1662 76.4564 69.0299C74.6209 66.1765 72.6395 63.1895 69.5943 61.6937C67.6596 60.7435 65.4676 60.489 63.3242 60.2597C50.9696 58.9397 37.6635 58.1895 26.9622 64.5032C25.7355 65.2268 24.5477 66.0461 23.5842 67.0956C22.7764 67.9754 22.1425 68.9983 21.514 70.014C17.6793 76.2119 13.8441 82.4098 10.0094 88.6081C9.58329 89.297 9.14389 90.0288 9.12375 90.8385C9.10361 91.6619 9.52104 92.425 9.92657 93.1422C13.7526 99.9118 17.5786 106.681 21.4046 113.451C21.8784 114.289 22.4876 115.222 23.4437 115.336C24.0355 115.407 24.6081 115.134 25.1405 114.867C32.7568 111.051 40.1964 106.881 47.4269 102.377C47.7816 112.019 48.1368 121.661 48.2677 131.309C48.3547 137.725 48.3314 144.195 47.2228 150.534C46.9436 152.13 46.5971 153.715 46.1646 155.277C45.797 156.604 44.7763 158.309 44.6926 159.655C44.5301 162.291 49.4042 162.421 51.4035 162.6Z" fill="white"/>
<path opacity="0.5" d="M26.4646 95.9229C26.1667 96.5037 25.9492 97.1587 26.0541 97.8027C26.1891 98.6303 26.839 99.294 27.5746 99.6963C28.8845 100.413 30.4843 100.443 31.9329 100.083C33.3816 99.7219 34.7117 99.0015 36.0111 98.2659C36.9856 97.7144 37.9628 97.1423 38.773 96.3692C39.2233 95.9394 39.6371 95.4025 39.665 94.7805C39.6957 94.0916 39.2284 93.4549 38.6375 93.1007C38.0461 92.7464 37.3467 92.6251 36.6625 92.5418C32.8195 92.0717 28.4818 91.9902 26.4646 95.9229Z" fill="#FFC1A7"/>
<path d="M8.29103 90.3574C7.54908 91.1072 6.76502 91.8056 5.9297 92.435C4.3007 93.6626 3.02505 95.3103 2.25289 97.3133C0.704448 101.331 1.44915 105.864 3.66082 109.396C5.93748 113.032 9.56026 115.314 13.4453 116.243C15.3645 116.702 17.3601 116.838 19.3132 116.581C19.6336 116.539 19.954 116.484 20.2735 116.419C21.4782 116.099 22.6348 115.577 23.6715 114.874C18.8994 106.442 13.7662 98.2603 8.29103 90.3574Z" fill="white"/>
<path d="M34.3319 15.4464C34.2596 14.9342 33.7973 14.2687 33.5845 13.8014C33.1991 12.955 32.8114 12.1106 32.4237 11.2656C32.0081 12.1151 31.4813 12.8745 30.9311 13.6238C30.451 14.2778 29.5287 15.1406 29.5552 15.9943C29.5891 17.085 30.0299 18.3226 30.2478 19.3905C30.4167 20.2203 30.586 21.0497 30.7554 21.8795C31.983 20.3247 33.2861 18.9222 33.9941 16.9298C34.1511 16.4886 34.3988 15.9192 34.3319 15.4464Z" fill="#C1A067"/>
<path d="M30.8366 10.7683C31.043 10.3706 31.4467 9.69269 31.4307 9.22857C31.4156 8.79421 31.0678 8.31865 30.8906 7.93555C30.6457 7.40597 30.4004 6.87685 30.1546 6.34773C29.7006 5.37006 29.2676 4.37317 28.7755 3.41747C28.5499 2.97944 27.6441 1.18841 27.2001 2.0457C26.8879 2.64851 27.1269 3.87243 27.2257 4.50178C27.3937 5.57512 27.6459 6.63655 27.8629 7.6989C28.2542 9.61808 28.6456 11.5368 29.0369 13.456C29.3211 13.0459 29.6132 12.6417 29.9093 12.2403C30.2475 11.7725 30.567 11.2883 30.8366 10.7683Z" fill="#C1A067"/>
<path d="M35.3809 17.7793C35.1602 18.3665 34.9058 18.9369 34.6041 19.4879C33.8214 20.8139 32.7705 21.8804 31.8249 23.0595C31.5979 23.3423 31.255 23.6627 31.1923 24.0367C31.1305 24.407 31.4139 25.1219 31.4898 25.4945C31.6226 26.1453 31.7553 26.7958 31.8881 27.4466C33.6425 25.6597 35.7397 24.3667 37.5838 22.6928C36.8547 21.0524 36.1187 19.4156 35.3809 17.7793Z" fill="#C1A067"/>
<path d="M36.6608 33.8115C38.2605 32.6388 39.5512 31.1746 40.5225 29.363C39.7856 27.6754 39.0436 25.9901 38.2989 24.3066C38.0971 24.4865 37.8925 24.6623 37.6828 24.833C35.836 26.2826 33.8541 27.5573 32.2832 29.3767C32.7606 31.7179 33.238 34.0586 33.7154 36.3998C34.5324 35.3544 35.6241 34.5713 36.6608 33.8115Z" fill="#C1A067"/>
<path d="M45.9827 42.0899C45.4994 40.9433 45.0128 39.7986 44.5263 38.6543C43.0048 40.655 41.185 42.2734 39.4205 44.026C38.5499 44.8906 37.6935 45.8015 36.9987 46.845C36.7209 47.262 36.2133 47.9307 36.179 48.4525C36.1474 48.9299 36.271 49.5034 36.2792 49.9918C36.2907 50.6797 36.3319 51.4318 37.0271 51.6725C37.4789 51.8291 37.9993 51.7572 38.4625 51.721C39.6155 51.6309 40.7369 51.5316 41.8551 51.1832C43.0213 50.8194 44.1285 50.261 45.1451 49.5369C46.0221 48.9125 47.6094 47.8451 47.6012 46.5452C47.5957 45.7273 47.1709 44.9208 46.8684 44.1981C46.5741 43.4946 46.2788 42.792 45.9827 42.0899Z" fill="#C1A067"/>
<path d="M43.8135 36.9815C42.9873 35.0485 42.1538 33.1193 41.3171 31.1914C40.8127 31.9956 40.2452 32.7449 39.6112 33.4401C38.7823 34.2965 37.8271 34.951 36.886 35.6459C35.9495 36.3365 34.6432 37.2996 34.2839 38.5509C34.1136 39.1446 34.4656 40.0733 34.591 40.6862C34.7361 41.3965 34.8808 42.1069 35.0259 42.8177C35.2437 43.8847 35.4616 44.9521 35.6795 46.0194C37.8742 42.5083 41.454 40.3745 43.8135 36.9815Z" fill="#C1A067"/>
<path d="M45.1812 37.5368C45.1707 37.4393 45.13 37.351 45.0672 37.2777C45.0265 37.1963 44.9766 37.1363 44.9199 37.0956C44.9222 36.982 44.8956 36.8658 44.8535 36.7674C43.8534 34.4239 42.8441 32.0859 41.8285 29.7507C41.7694 29.6156 41.6674 29.5364 41.552 29.5007C41.5918 29.1959 41.4751 28.9373 41.2591 28.4425C40.4837 26.667 39.7024 24.8943 38.9179 23.1239C38.8749 23.0259 38.8085 22.96 38.7325 22.9156C38.7417 22.7939 38.7165 22.6666 38.6694 22.5604C37.704 20.3872 36.73 18.2186 35.751 16.0522C35.6787 15.892 35.5537 15.8106 35.4178 15.7872C35.432 15.6847 35.4416 15.5845 35.4384 15.492C35.4214 14.9936 34.9683 14.3258 34.7706 13.8909C34.1224 12.4661 33.4716 11.0431 32.818 9.6214C32.7365 9.44472 32.5974 9.36188 32.4495 9.34952C32.5131 8.90737 32.3831 8.67897 32.1447 8.16176C31.8023 7.41981 31.4595 6.67877 31.1153 5.93773C30.512 4.63874 29.9733 3.24501 29.2098 2.04672C28.7668 1.351 28.1127 0.503313 27.2462 0.642C25.5472 0.914338 26.0809 3.99337 26.2992 5.188C26.8956 8.45469 27.6252 11.6994 28.288 14.951C28.3214 15.1144 28.4111 15.2211 28.5214 15.2842C28.477 15.4188 28.4445 15.5529 28.4436 15.6833C28.4404 16.2124 28.6757 16.85 28.7809 17.3668C28.9146 18.0222 29.0482 18.6777 29.1819 19.3331C29.4492 20.6436 29.7165 21.9549 29.9843 23.2653C30.0136 23.41 30.1083 23.5276 30.2273 23.6008C30.079 24.1084 30.2493 24.5652 30.3884 25.2472C30.6237 26.4016 30.8594 27.5555 31.0947 28.7098C31.1185 28.827 31.1798 28.919 31.2585 28.9881C31.2334 29.0577 31.2141 29.1286 31.2073 29.2019C31.1789 29.4998 31.3336 29.8816 31.3931 30.1731C31.551 30.9476 31.7089 31.722 31.8668 32.496C32.2358 34.3049 32.6047 36.1138 32.9736 37.9231C33.0102 38.103 33.1265 38.2247 33.2674 38.2847C33.0541 38.8907 33.2894 39.4711 33.4166 40.0945C33.5865 40.9266 33.7558 41.7587 33.9256 42.5909C34.2694 44.2761 34.6163 45.961 34.9582 47.6467C34.9921 47.8143 35.0974 47.9305 35.226 47.9946C35.123 48.4189 35.2132 48.7269 35.242 49.3128C35.2772 50.0236 35.2013 50.7578 35.4278 51.4412C35.8 52.5621 36.8243 52.8976 37.8208 52.8862C39.079 52.8711 40.3821 52.7369 41.6069 52.4179C42.954 52.0673 44.258 51.4663 45.4348 50.6681C46.4532 49.9774 47.7124 49.0615 48.317 47.8944C49.0992 46.3857 48.2003 44.6899 47.6195 43.3035C46.813 41.3779 45.9987 39.4564 45.1812 37.5368ZM29.0368 13.4561C28.6455 11.5369 28.2541 9.61819 27.8628 7.699C27.6458 6.63665 27.3941 5.57523 27.2256 4.50189C27.1268 3.87254 26.8878 2.64862 27.2 2.04581C27.6435 1.18806 28.5498 2.97907 28.7755 3.41756C29.2675 4.37327 29.7 5.37017 30.1545 6.34784C30.4003 6.87695 30.6457 7.40607 30.8905 7.93564C31.0677 8.31874 31.4155 8.79431 31.4306 9.22868C31.4471 9.6928 31.043 10.3707 30.8365 10.7684C30.5669 11.2884 30.2474 11.7726 29.9092 12.2404C29.6131 12.6418 29.321 13.0455 29.0368 13.4561ZM30.7546 21.8794C30.5852 21.0496 30.4163 20.2202 30.247 19.3903C30.0291 18.3225 29.5879 17.0849 29.5545 15.9941C29.5279 15.1405 30.4502 14.2777 30.9304 13.6236C31.4805 12.8744 32.0069 12.115 32.423 11.2655C32.8102 12.1104 33.1983 12.9549 33.5837 13.8012C33.7966 14.2685 34.2593 14.9341 34.3312 15.4462C34.398 15.919 34.1504 16.4884 33.9934 16.9301C33.2853 18.9226 31.9822 20.3245 30.7546 21.8794ZM31.492 25.4944C31.416 25.1213 31.1327 24.4069 31.1945 24.0366C31.2572 23.6626 31.6 23.3422 31.827 23.0594C32.7726 21.8803 33.8236 20.8138 34.6063 19.4878C34.9079 18.9368 35.1624 18.3664 35.383 17.7792C36.1204 19.4151 36.8564 21.0523 37.5859 22.6927C35.7423 24.3666 33.6446 25.6596 31.8902 27.4465C31.757 26.7957 31.6247 26.1448 31.492 25.4944ZM33.716 36.3994C33.2386 34.0582 32.7612 31.7174 32.2838 29.3762C33.8547 27.5568 35.8366 26.2821 37.6834 24.8325C37.8931 24.6618 38.0981 24.4861 38.2995 24.3062C39.0442 25.9896 39.7866 27.6749 40.5231 29.3625C39.5523 31.1741 38.2611 32.6384 36.6614 33.811C35.6251 34.5708 34.5335 35.354 33.716 36.3994ZM35.6787 46.0191C35.4608 44.9522 35.2429 43.8848 35.025 42.8174C34.88 42.107 34.7349 41.3967 34.5902 40.6858C34.4653 40.0725 34.1128 39.1438 34.2831 38.5506C34.6424 37.2992 35.9487 36.3362 36.8852 35.6455C37.8262 34.9512 38.7815 34.2962 39.6104 33.4398C40.2443 32.7445 40.8114 31.9953 41.3163 31.1911C42.153 33.1185 42.9865 35.0478 43.8127 36.9811C41.4536 40.3746 37.8738 42.5085 35.6787 46.0191ZM45.1441 49.5352C44.1276 50.2593 43.0204 50.8178 41.8541 51.1817C40.7359 51.53 39.6145 51.6293 38.4615 51.7195C37.9983 51.7556 37.4784 51.8275 37.0262 51.6709C36.3309 51.4306 36.2902 50.6782 36.2783 49.9902C36.27 49.5018 36.1464 48.9283 36.178 48.4509C36.2124 47.9291 36.72 47.2604 36.9978 46.8434C37.6926 45.8003 38.5485 44.8895 39.4195 44.0244C41.184 42.2718 43.0039 40.6534 44.5253 38.6527C45.0119 39.7974 45.4984 40.9422 45.9818 42.0883C46.2779 42.7904 46.5731 43.4935 46.8674 44.1965C47.17 44.9192 47.5947 45.7262 47.6002 46.5436C47.6089 47.8435 46.0211 48.9114 45.1441 49.5352Z" fill="black"/>
<path d="M99.5729 130.877C96.3786 122.022 93.3018 113.078 90.9533 103.903C88.8959 95.8649 87.5337 87.6371 85.0355 79.7324C82.59 71.9938 79.083 64.2558 73.2211 58.9463C66.993 53.305 58.8755 51.638 50.9877 51.7071C48.9889 51.7245 46.9919 51.8454 45.0004 52.0303C42.9645 52.2193 40.8759 52.3662 38.8899 52.9164C34.5714 54.1133 30.5655 56.7676 27.2865 60.032C20.6629 66.6267 17.4182 76.1572 12.295 84.0129C10.9787 86.0309 9.55791 87.9836 7.91427 89.6954C6.4203 91.2512 4.5478 92.3259 3.21082 94.0592C0.769385 97.2243 -0.0105551 101.579 0.965744 105.56C2.93208 113.577 10.6193 118.188 17.8828 117.909C17.9482 117.96 18.0338 117.988 18.1396 117.982C19.0724 117.922 20.0006 117.762 20.9014 117.501C21.3138 117.403 21.723 117.288 22.1262 117.148C23.1703 116.789 24.077 116.15 25.0725 115.671C27.2109 114.643 29.3425 113.617 31.4361 112.481C35.7404 110.146 39.9111 107.522 43.9746 104.718C45.9675 103.343 47.8551 101.982 49.8054 100.532C50.2673 100.189 49.8315 99.3604 49.3656 99.7069C42.0509 105.142 34.4336 110.145 26.3312 114.042C27.9007 112.183 28.8564 109.744 28.9109 107.197C28.9242 106.582 28.0522 106.582 28.0389 107.197C27.9717 110.351 26.5056 112.884 24.3919 114.593C19.5923 106.116 14.4284 97.8925 8.91895 89.9512C9.45859 89.3658 9.9758 88.7539 10.4724 88.1222C13.2169 84.6322 15.4702 80.6876 17.5706 76.7096C19.7621 72.5591 21.8557 68.3019 24.6116 64.5555C27.3803 60.7922 30.8493 57.6716 34.8314 55.5707C36.9195 54.469 39.1389 53.6684 41.4467 53.3782C43.3759 53.1352 45.3102 52.9338 47.2491 52.8066C54.9689 52.2999 63.1651 52.9434 69.9027 57.5063C76.355 61.8766 80.4236 69.2924 83.1411 76.8602C85.8246 84.3342 87.3712 92.2009 89.1082 99.9806C91.0494 108.675 93.8158 117.14 96.7282 125.492C98.6625 131.039 100.697 136.543 102.747 142.04C102.999 141.877 103.251 141.714 103.503 141.552C102.18 138 100.86 134.445 99.5729 130.877ZM23.6705 115.128C22.6338 115.83 21.4767 116.352 20.2725 116.672C19.953 116.737 19.6326 116.792 19.3122 116.834C17.3596 117.091 15.3635 116.956 13.4443 116.497C9.55929 115.567 5.93649 113.286 3.65983 109.649C1.44862 106.117 0.703474 101.584 2.25191 97.5667C3.02407 95.5637 4.29971 93.9155 5.92871 92.6884C6.76403 92.059 7.54811 91.3606 8.29006 90.6108C13.7648 98.5132 18.898 106.695 23.6705 115.128Z" fill="black"/>
<path d="M6.82963 97.8572C6.70056 97.7753 6.53349 97.7776 6.40167 97.8513C6.30876 97.8604 6.21722 97.8893 6.13528 97.9419C5.75218 98.1863 5.74439 98.7521 6.03001 99.0848C6.0625 99.1228 6.09775 99.1549 6.13436 99.1832C6.18197 99.2341 6.24055 99.272 6.31149 99.2853C6.32019 99.2871 6.32843 99.2876 6.33713 99.289C6.60031 99.3686 6.89417 99.261 7.06444 98.991C7.2933 98.6248 7.17658 98.0779 6.82963 97.8572Z" fill="black"/>
<path d="M13.2419 107.244C13.3971 107.308 13.5738 107.238 13.6969 107.127C13.8589 106.982 13.9427 106.762 13.9569 106.535C13.9578 106.53 13.9578 106.524 13.9587 106.519C13.9592 106.509 13.9614 106.5 13.9614 106.49C13.9798 106.308 13.9454 106.121 13.8411 105.965C13.8196 105.933 13.7944 105.904 13.7678 105.877C13.7573 105.864 13.7495 105.848 13.7376 105.835C13.349 105.407 12.6515 105.631 12.4995 106.202C12.3572 106.734 12.7641 107.247 13.2419 107.244Z" fill="black"/>
<path d="M27.5462 97.6578C28.1074 97.6578 28.1083 96.7021 27.5462 96.7021C26.9851 96.7021 26.9841 97.6578 27.5462 97.6578Z" fill="black"/>
<path d="M30.6416 93.9411C31.2027 93.9411 31.2036 92.9854 30.6416 92.9854C30.0809 92.9854 30.08 93.9411 30.6416 93.9411Z" fill="black"/>
<path d="M36.3607 93.3037C35.7995 93.3037 35.7986 94.2594 36.3607 94.2594C36.9214 94.2594 36.9223 93.3037 36.3607 93.3037Z" fill="black"/>
<path d="M35.7786 97.8698C36.3398 97.8698 36.3407 96.9141 35.7786 96.9141C35.2175 96.9141 35.2166 97.8698 35.7786 97.8698Z" fill="black"/>
<path d="M32.3402 99.0643C32.3086 99.171 32.277 99.2772 32.2459 99.3838C32.1754 99.6218 32.3278 99.9161 32.5503 99.9715C32.7892 100.031 33.0112 99.8923 33.0867 99.6379C33.1183 99.5312 33.1499 99.425 33.181 99.3184C33.2515 99.0804 33.0991 98.7861 32.8766 98.7307C32.6372 98.6707 32.4152 98.8094 32.3402 99.0643Z" fill="black"/>
<path d="M38.6943 84.2786C39.2088 84.0383 38.7653 83.2149 38.2544 83.4534C34.5566 85.1785 30.3333 83.8864 27.8909 80.4334C27.5477 79.9482 26.9348 80.6288 27.2744 81.109C27.8168 81.8761 28.4402 82.537 29.1213 83.0909C28.1376 83.8694 26.7265 83.8172 25.8161 82.8821C25.4069 82.4619 24.789 83.1362 25.1996 83.5577C26.4995 84.8924 28.5523 84.9222 29.8797 83.6483C30.5882 84.1157 31.3448 84.4773 32.1312 84.7276C32.0872 84.7784 32.0506 84.8425 32.0282 84.924C31.7504 85.9415 30.8752 86.5919 29.9149 86.5438C29.3542 86.5159 29.3552 87.4716 29.9149 87.4995C31.2634 87.5673 32.4841 86.5873 32.8686 85.178C32.8937 85.086 32.8923 85.0032 32.8749 84.9295C33.8389 85.1464 34.8353 85.2009 35.8299 85.0883C35.5636 85.8362 35.0335 86.4354 34.3126 86.7081C33.7853 86.9073 34.0119 87.8309 34.5442 87.6295C35.6652 87.2057 36.5298 86.1969 36.7879 84.929C37.4328 84.7849 38.0714 84.5688 38.6943 84.2786Z" fill="black"/>
<path d="M92.3746 135.641C94.437 141.976 92.527 149.62 87.8066 153.919C91.5764 152.881 95.2788 151.046 97.9152 147.915C100.552 144.784 101.949 140.194 100.793 136.126C97.9555 136.696 95.006 136.59 92.2085 135.818L92.3746 135.641Z" fill="#FFC1A7"/>
<path d="M91.9634 135.764C93.9517 142.025 92.1254 149.314 87.5053 153.589C87.1656 153.903 87.5327 154.478 87.9195 154.369C91.8942 153.256 95.8901 151.287 98.5874 147.783C101.064 144.565 102.322 140.121 101.204 136.002C101.134 135.743 100.911 135.631 100.68 135.676C97.8976 136.213 95.0653 136.103 92.3218 135.368C91.7894 135.225 91.562 136.125 92.0952 136.268C94.993 137.045 97.9695 137.144 100.907 136.576C100.732 136.468 100.557 136.359 100.383 136.251C101.455 140.203 100.164 144.5 97.6893 147.494C95.0753 150.657 91.4031 152.431 87.6934 153.47C87.8316 153.73 87.9698 153.99 88.1081 154.25C92.941 149.778 94.8643 142.063 92.7854 135.517C92.606 134.952 91.7826 135.195 91.9634 135.764Z" fill="black"/>
<path d="M91.3504 138.655C94.9361 142.031 99.6203 143.702 104.289 144.507C106.291 144.852 108.442 145.029 110.25 144.026C106.758 143.378 104.38 139.767 103.041 136.173C101.702 132.579 100.965 128.638 98.8729 125.505C97.2457 123.067 94.9105 121.567 92.7437 119.795C90.175 117.694 87.5363 115.695 84.8358 113.803C84.7763 114.39 85.0743 114.939 85.3182 115.466C87.2397 119.611 85.7947 123.789 86.1948 128.106C86.5765 132.214 88.5021 135.973 91.3504 138.655Z" fill="white"/>
<path d="M91.0488 138.985C93.7319 141.476 96.9519 143.083 100.332 144.075C103.477 144.999 107.38 146.049 110.465 144.43C110.786 144.261 110.716 143.648 110.364 143.576C105.267 142.537 103.498 136.337 102.025 131.695C101.224 129.169 100.315 126.623 98.7279 124.551C97.1442 122.483 95.0149 121.059 93.055 119.47C90.4447 117.354 87.7858 115.32 85.0514 113.4C84.7718 113.204 84.417 113.463 84.4106 113.803C84.3891 114.936 85.1082 115.901 85.4222 116.943C85.781 118.134 85.9083 119.378 85.9183 120.627C85.9376 123.076 85.5526 125.516 85.7577 127.966C86.117 132.253 88.1053 136.172 91.0488 138.985C91.4603 139.378 92.0654 138.72 91.6512 138.325C88.6751 135.481 86.7139 131.486 86.5601 127.123C86.4804 124.862 86.8132 122.613 86.766 120.353C86.744 119.305 86.6397 118.25 86.3912 117.236C86.2685 116.735 86.1087 116.246 85.9183 115.771C85.6629 115.133 85.2483 114.524 85.262 113.803C85.0482 113.937 84.8345 114.071 84.6212 114.206C87.0887 115.939 89.5068 117.755 91.8668 119.66C93.9178 121.316 96.1825 122.815 97.8898 124.915C101.345 129.162 101.494 135.35 104.402 139.964C105.782 142.153 107.693 143.979 110.137 144.477C110.103 144.192 110.069 143.908 110.035 143.624C108.485 144.437 106.741 144.399 105.072 144.162C103.471 143.935 101.877 143.575 100.321 143.104C97.1739 142.153 94.1553 140.65 91.6512 138.325C91.2356 137.939 90.63 138.596 91.0488 138.985Z" fill="black"/>
<path d="M99.3146 124.389C98.3337 120.083 98.6569 115.631 98.5292 111.245C98.3983 106.747 96.2493 104.053 94.4459 100.123C91.0296 92.6765 92.0077 83.9017 90.8831 75.6995C90.2707 71.2331 89.007 66.8702 87.1605 62.8085C85.446 59.037 82.685 56.2586 79.4165 53.9055C72.6708 49.0492 62.7778 48.5036 56.7891 54.3816C67.8698 61.3118 75.9123 73.2846 78.3326 86.6919C78.9698 90.2218 79.5236 93.7755 79.7978 97.3607C80.0596 100.784 79.8761 104.114 80.4436 107.503C81.4726 113.648 83.1913 119.948 87.1605 124.71C89.0056 126.923 91.2607 128.706 93.6033 130.297C97.444 132.905 103.604 135.283 108.089 134.45C104.578 132.395 100.26 128.539 99.3146 124.389Z" fill="#FFC1A7"/>
<path d="M99.7208 124.267C98.8534 120.339 99.0347 116.3 98.9729 112.293C98.9468 110.595 98.804 108.957 98.2937 107.342C97.8213 105.849 97.1288 104.458 96.4175 103.089C95.6165 101.548 94.789 100.014 94.1788 98.3665C93.5696 96.7215 93.1426 95.0009 92.835 93.2598C92.1919 89.6196 92.0784 85.8988 91.8711 82.2074C91.6655 78.5452 91.3374 74.9019 90.5066 71.3381C89.6992 67.8741 88.5526 64.2994 86.849 61.2337C83.9403 55.9997 78.704 52.0108 73.3305 50.4573C67.5844 48.7963 61.0611 49.638 56.4936 54.0549C56.2899 54.2522 56.3553 54.6376 56.5787 54.7781C67.0406 61.3595 74.9755 72.5799 77.6783 85.524C78.5091 89.5033 79.1197 93.5998 79.4021 97.6707C79.544 99.7176 79.5366 101.772 79.6465 103.821C79.7499 105.748 80.0172 107.634 80.3811 109.521C81.7304 116.522 84.29 123.137 89.4951 127.713C92.1809 130.074 95.1643 132.018 98.3912 133.343C101.477 134.61 104.904 135.469 108.203 134.894C108.565 134.831 108.602 134.229 108.303 134.052C104.802 131.982 100.791 128.694 99.7208 124.267C99.5826 123.694 98.772 123.937 98.9107 124.511C100.037 129.173 104.186 132.664 107.879 134.848C107.912 134.567 107.946 134.287 107.979 134.006C104.99 134.528 101.86 133.728 99.0507 132.63C96.0797 131.469 93.3412 129.749 90.8192 127.681C88.0835 125.438 85.8663 122.666 84.284 119.342C82.8015 116.228 81.8824 112.827 81.2155 109.404C80.8356 107.454 80.5679 105.508 80.4713 103.516C80.3715 101.464 80.3729 99.4087 80.2195 97.3604C79.9248 93.4264 79.3343 89.4846 78.5603 85.6306C77.3149 79.4295 74.8579 73.526 71.4942 68.3625C67.6704 62.4933 62.7088 57.5733 57.0025 53.9835C57.0309 54.2247 57.0593 54.4655 57.0877 54.7067C65.711 46.3676 80.1156 51.4972 85.8782 61.2703C87.6537 64.2816 88.8035 67.8536 89.6301 71.3043C90.4645 74.7874 90.8091 78.3434 91.0147 81.9286C91.2106 85.3432 91.3268 88.7705 91.8102 92.1553C92.2967 95.5639 93.2478 98.7564 94.772 101.777C95.5378 103.295 96.3845 104.771 97.035 106.355C97.7572 108.115 98.0849 109.92 98.1252 111.844C98.2136 116.084 97.992 120.354 98.9107 124.511C99.0374 125.087 99.8485 124.843 99.7208 124.267Z" fill="black"/>
<path d="M73.2133 82.7601C74.7823 84.7027 76.393 86.6205 77.8366 88.655C81.7706 94.2002 84.1347 100.869 88.1141 106.383C93.8259 114.296 102.831 119.232 112.034 119.494C106.563 117.218 102.778 111.663 100.215 105.897C97.6528 100.131 95.9908 93.8917 93.0606 88.3401C92.2284 86.7637 91.2796 85.2277 90.0049 84.0596C88.6249 82.7945 86.9336 82.0223 85.2676 81.2785C78.9566 78.4604 72.5944 75.78 66.1855 73.2393C67.7267 73.8503 70.5388 79.3465 71.7737 80.9448C72.2456 81.555 72.7276 82.1587 73.2133 82.7601Z" fill="white"/>
<path d="M72.9123 83.0912C75.5322 86.3304 78.0982 89.5266 80.1748 93.2259C82.115 96.6816 83.7889 100.312 85.8303 103.701C89.5524 109.88 94.7648 114.666 101.044 117.441C104.538 118.985 108.269 119.839 112.035 119.962C112.546 119.979 112.571 119.225 112.148 119.045C104.374 115.738 100.77 106.661 97.8741 98.782C96.2794 94.4434 94.7493 89.8402 92.2154 86.032C91.002 84.2085 89.481 82.8697 87.6282 81.8938C85.66 80.8571 83.5898 80.0282 81.5621 79.1435C76.5058 76.9373 71.4169 74.8203 66.2993 72.7899C65.777 72.5826 65.5752 73.4701 66.0727 73.6903C66.6911 73.964 67.1868 74.7251 67.5896 75.2717C68.2212 76.1285 68.7874 77.0425 69.3499 77.9543C70.4663 79.765 71.589 81.4499 72.9123 83.0912C73.2762 83.5425 73.8767 82.8797 73.5146 82.4307C72.764 81.4997 72.0097 80.5811 71.3639 79.559C70.7908 78.6523 70.2429 77.7264 69.6722 76.8178C68.8103 75.4456 67.7818 73.4454 66.2993 72.789C66.2237 73.0893 66.1482 73.3896 66.0727 73.6894C70.567 75.4726 75.0397 77.3217 79.4873 79.2409C81.7264 80.2072 83.9775 81.1578 86.1887 82.1987C88.2484 83.1681 90.0449 84.3998 91.4052 86.3922C94.0371 90.2471 95.5713 95.0059 97.1999 99.4292C98.7158 103.547 100.286 107.674 102.599 111.345C104.953 115.079 108.015 118.283 111.921 119.944C111.959 119.639 111.997 119.333 112.034 119.027C105.37 118.81 98.8298 116.177 93.5807 111.675C90.8843 109.362 88.6045 106.575 86.705 103.458C84.7172 100.197 83.0845 96.6999 81.2381 93.344C79.0397 89.3495 76.3287 85.9093 73.5142 82.4303C73.1503 81.9803 72.5498 82.6427 72.9123 83.0912Z" fill="black"/>
<path d="M59.8084 76.6842C64.2743 80.2434 69.5265 82.6056 74.8896 84.3921C78.6936 85.659 82.7082 86.6619 86.6592 86.0458C90.6102 85.4297 94.4979 82.8693 95.7415 78.932C92.7197 79.2602 89.8677 77.2458 87.9939 74.7655C86.12 72.2851 84.946 69.3224 83.3124 66.6658C78.5069 58.8508 69.4748 54.0485 60.5504 54.563C58.2485 54.6957 55.8625 55.2038 54.0692 56.7055C52.5294 57.9949 51.376 59.8528 50.819 61.8177C50.2171 63.9429 51.0208 65.4245 51.9893 67.3148C53.8737 70.993 56.6346 74.1549 59.8084 76.6842Z" fill="#99D1CA"/>
<path d="M59.5891 77.0988C64.2257 80.7646 69.5855 83.1507 75.0346 84.9408C80.2337 86.6494 86.108 87.8303 91.1643 84.9765C93.4163 83.7054 95.2952 81.6997 96.1662 79.0596C96.2582 78.7804 96.0147 78.428 95.7437 78.4518C89.7862 78.9818 86.9753 72.248 84.3874 67.6127C81.9501 63.2471 78.4436 59.7492 74.2967 57.4039C70.1178 55.0408 65.3709 53.8283 60.6656 54.0768C58.2901 54.2022 55.7942 54.6901 53.8507 56.2908C52.078 57.7509 50.5007 60.158 50.2169 62.6186C50.0517 64.0531 50.5232 65.359 51.1301 66.6021C51.8185 68.0132 52.5879 69.3681 53.4745 70.6401C55.2046 73.1236 57.2936 75.2551 59.5891 77.0988C60.044 77.4645 60.4816 76.6315 60.0312 76.2699C58.0255 74.6588 56.1823 72.8009 54.6119 70.6844C53.8233 69.6216 53.1133 68.4888 52.4881 67.3029C51.8913 66.1705 51.174 64.9438 51.0646 63.6101C50.8532 61.0304 52.8158 58.1866 54.6709 56.824C56.7027 55.3319 59.2906 55.0261 61.6771 55.0069C66.192 54.9703 70.6991 56.2839 74.6368 58.6947C78.7237 61.1965 81.8787 64.7745 84.2227 69.19C85.5981 71.7811 86.8934 74.5242 88.9554 76.5564C90.8142 78.3891 93.1993 79.6387 95.7433 79.4121C95.6027 79.2093 95.4618 79.007 95.3208 78.8043C93.6589 83.8418 88.3105 85.837 83.8249 85.7482C80.9537 85.691 78.1365 84.9522 75.3971 84.0574C72.8266 83.218 70.2826 82.2527 67.8238 81.0745C65.0853 79.7627 62.4566 78.1872 60.0312 76.2694C59.5735 75.9078 59.1355 76.74 59.5891 77.0988Z" fill="black"/>
<path d="M66.1228 54.9174C65.7933 57.5373 64.2673 60.0328 61.9201 61.7794C57.608 64.9889 52.1873 66.8206 47.0953 67.8313C38.9801 69.442 30.4506 68.4547 22.6073 65.8695C18.5574 64.5348 14.7538 62.6839 14.3945 57.6907C19.1424 58.2463 24.0641 58.677 28.5882 57.0032C34.2826 54.8959 38.5933 49.743 43.9874 46.8365C46.9324 45.2496 50.1862 44.3552 53.4657 44.2312C56.9938 44.0975 60.715 44.9461 63.3596 47.5093C65.6354 49.7159 66.4423 52.3753 66.1228 54.9174Z" fill="#FFC1A7"/>
<path d="M65.7127 54.7922C65.1012 59.1922 61.6784 61.7174 58.2863 63.5327C54.7322 65.4345 50.865 66.6131 46.9827 67.3802C38.629 69.0303 29.7979 67.978 21.7632 65.0898C18.4265 63.8902 15.1749 61.917 14.8211 57.69C14.6792 57.8456 14.5373 58.0012 14.395 58.1569C18.5478 58.6407 22.8109 59.0371 26.9235 58.0017C30.5641 57.0849 33.7035 54.8879 36.7116 52.5472C39.8836 50.0787 43.0148 47.4968 46.7287 46.0838C50.411 44.6827 54.5976 44.1582 58.4076 45.243C62.4424 46.3918 66.256 49.9638 65.6967 54.9163C65.6294 55.5113 66.4821 55.5058 66.5485 54.9163C67.003 50.8916 64.6581 47.3727 61.5091 45.5506C58.0946 43.5751 53.9976 43.4291 50.2613 44.1257C46.1588 44.8901 42.5507 46.9223 39.1627 49.497C35.9436 51.9434 32.8325 54.7469 29.1338 56.2921C24.4271 58.258 19.2957 57.7939 14.3941 57.2227C14.1789 57.1975 13.9487 57.4575 13.9679 57.6895C14.2769 61.3805 16.5023 63.7446 19.4953 65.153C23.3304 66.9577 27.6215 67.9148 31.7391 68.5282C40.4543 69.8258 49.6173 68.8106 57.6968 64.8591C61.6162 62.9422 65.8303 60.0939 66.5329 55.0399C66.6158 54.4526 65.7951 54.199 65.7127 54.7922Z" fill="black"/>
<path d="M55.7219 56.3933C55.6743 56.4395 55.6267 56.4852 55.5787 56.5306C52.3898 59.562 48.2484 61.6501 43.8713 62.4346C39.4938 63.2186 34.8992 62.695 30.8828 60.9543C28.9279 60.1071 27.06 58.9331 25.875 57.2167C22.6225 52.5068 24.4684 43.0752 31.6417 42.8967C30.7341 44.4021 30.2905 46.2792 30.9735 47.862C31.6564 49.4447 33.7211 50.4773 35.3414 49.7088C36.0357 49.3793 36.5552 48.7911 37.077 48.2382C39.0859 46.1089 41.4962 44.2396 44.3148 43.3196C46.7943 42.5104 49.1762 42.9841 51.6478 43.5535C53.9954 44.0941 56.474 45.0333 57.6251 47.0664C58.2796 48.2222 58.4142 49.5967 58.3428 50.9236C58.2924 51.8559 58.1441 52.7961 57.7665 53.6621C57.3129 54.7016 56.5504 55.59 55.7219 56.3933Z" fill="#99D1CA"/>
<path d="M55.4266 56.0719C49.5615 61.7027 41.1611 63.6205 33.6619 61.472C30.5275 60.574 26.8686 58.9848 25.4423 55.5322C24.4994 53.2492 24.5173 50.4901 25.3485 48.1727C26.398 45.2456 28.7845 43.4532 31.6393 43.3498C31.5203 43.1223 31.4008 42.8944 31.2818 42.6669C29.9663 44.9298 29.6675 48.1146 31.9967 49.7216C32.9488 50.3784 34.1892 50.632 35.2676 50.2232C36.469 49.7683 37.3025 48.5791 38.228 47.688C40.5761 45.4255 43.5636 43.4587 46.7667 43.3475C48.4849 43.2875 50.1977 43.6588 51.8665 44.0698C53.2378 44.4076 54.6329 44.8634 55.8156 45.7207C57.3901 46.8623 58.0003 48.6341 57.938 50.6572C57.8666 52.9544 56.9535 54.5683 55.4266 56.0719C55.0293 56.4628 55.6165 57.1031 56.012 56.7136C57.1361 55.6068 58.1252 54.3495 58.5138 52.7127C58.8654 51.2321 58.9084 49.5042 58.4763 48.0381C57.6295 45.1632 54.8828 43.9297 52.4167 43.2789C49.2841 42.4522 46.1227 41.9881 43.0505 43.3182C41.6764 43.9132 40.3884 44.7151 39.1984 45.6736C38.0427 46.6041 37.0828 47.7493 35.9779 48.7362C34.7256 49.8543 32.9639 49.7028 31.8375 48.4281C30.511 46.9263 31.0896 44.6845 31.9958 43.1255C32.1624 42.839 31.9464 42.4316 31.6384 42.4426C28.926 42.541 26.5033 43.9796 25.1334 46.5821C23.898 48.9293 23.5941 51.8646 24.2275 54.4749C25.1109 58.1165 27.9378 60.2064 31.0067 61.4926C35.0295 63.1788 39.4712 63.6264 43.7206 62.9165C48.2396 62.1613 52.5691 60.0187 56.012 56.7141C56.4134 56.3278 55.8257 55.6883 55.4266 56.0719Z" fill="black"/>
<path d="M47.1249 102.021C47.3991 111.789 47.3895 121.561 47.0691 131.327C46.7555 140.885 46.7331 150.828 43.9502 160.054C43.7584 160.69 44.7521 160.962 44.9435 160.328C47.6701 151.288 47.7438 141.592 48.0687 132.229C48.418 122.163 48.4376 112.089 48.1552 102.022C48.1365 101.36 47.1062 101.357 47.1249 102.021Z" fill="black"/>
<path d="M81.8806 114.37C81.5195 117.726 83.2597 121.217 86.1561 122.949C78.895 134.462 66.6406 141.939 54.0256 147.049C50.5978 148.438 46.8629 149.702 43.2644 148.849C42.7096 148.718 42.1073 148.487 41.8706 147.968C41.639 147.46 41.8432 146.871 42.0382 146.349C43.0817 143.545 43.8223 140.628 44.2439 137.666C44.7469 134.129 44.8705 130.319 46.9641 127.425L47.0918 127.467C47.3851 128.07 48.0978 128.33 48.7533 128.474C52.8026 129.363 56.9674 127.982 60.8826 126.619C68.4642 123.98 76.4856 121.033 81.3744 114.665L81.8806 114.37Z" fill="#C1A067"/>
<path d="M86.4151 122.506C83.6263 120.678 82.1753 117.684 82.3946 114.371C82.4115 114.114 82.2655 113.96 82.0792 113.903C81.9474 113.837 81.7863 113.829 81.6197 113.926C80.615 114.51 79.9765 115.589 79.159 116.412C77.8778 117.702 76.4434 118.829 74.9229 119.822C72.1771 121.616 69.1713 122.981 66.1224 124.169C63.0585 125.363 59.9301 126.533 56.759 127.408C54.6952 127.977 52.5257 128.385 50.3762 128.2C48.3339 128.024 49.0956 127.934 47.5348 127.208C47.3828 127.137 47.2885 126.992 47.0995 126.93C46.8743 126.855 46.6404 126.982 46.5182 127.166C44.7647 129.8 44.3477 132.805 43.9582 135.881C43.6827 138.057 43.3353 140.203 42.7741 142.326C42.3603 143.89 41.3035 145.696 41.2701 147.303C41.2252 149.46 44.009 149.619 45.5909 149.641C49.0498 149.69 52.3783 148.304 55.5113 146.99C67.6956 141.882 79.3334 134.52 86.5996 123.211C86.7561 122.968 86.6403 122.653 86.4151 122.506ZM77.8124 118.997C79.04 118.01 80.1133 116.423 81.3519 115.381C81.4045 117.129 81.8961 118.769 82.7703 120.197C82.7191 120.219 82.6683 120.247 82.6202 120.29C82.0714 120.772 81.5071 121.261 80.9322 121.754C80.9244 121.751 80.9184 121.748 80.9102 121.746C79.4117 121.354 77.9072 120.988 76.3926 120.662C76.22 120.625 75.998 120.558 75.7628 120.498C76.4667 120.027 77.1519 119.528 77.8124 118.997ZM75.0272 122.609C75.068 122.12 74.9796 121.71 75.5504 121.535C75.8301 121.449 76.9643 121.841 77.2526 121.907C78.1626 122.114 79.0675 122.338 79.9714 122.57C78.4592 123.844 76.919 125.085 75.3394 126.274C74.8313 126.657 74.3118 127.023 73.7951 127.394C73.7992 127.201 73.7763 126.982 73.8216 126.84C73.9644 126.389 74.2281 125.96 74.3896 125.511C74.7265 124.576 74.9444 123.6 75.0272 122.609ZM63.3698 126.288C66.8832 125.028 70.3897 123.66 73.6404 121.808C73.7658 121.737 73.8884 121.66 74.0129 121.588C74.0111 121.865 74.0322 122.141 74.0189 122.36C73.9543 123.391 73.7205 124.407 73.3484 125.371C73.1621 125.853 72.8563 126.308 72.6915 126.792C72.5231 127.289 72.4682 127.785 72.2256 128.266C72.3304 128.302 72.4384 128.296 72.5455 128.275C72.2269 128.475 71.896 128.673 71.6232 128.912C71.4461 129.068 71.3568 129.29 71.1985 129.434C71.1106 129.279 70.998 129.281 70.8341 129.322C70.2986 129.455 69.4862 128.945 68.985 128.776C68.2682 128.533 67.551 128.29 66.8337 128.048C65.3997 127.562 63.9657 127.076 62.5317 126.591C62.8114 126.489 63.091 126.388 63.3698 126.288ZM69.743 130.118C66.6795 132.005 63.4622 133.605 60.1594 134.644C61.0112 132.331 61.6964 129.979 62.2264 127.573C64.7319 128.421 67.2374 129.27 69.743 130.118ZM52.4176 129.233C55.466 129.04 58.4146 128.07 61.294 127.037C60.7343 129.64 59.9946 132.178 59.06 134.672C59.0174 134.785 59.0169 134.886 59.0439 134.973C58.2297 135.196 57.4104 135.382 56.5883 135.53C54.7085 133.441 52.8291 131.353 50.9493 129.265C51.4459 129.276 51.9398 129.263 52.4176 129.233ZM55.3731 135.718C52.3687 136.111 49.3249 135.954 46.2916 135.053C47.9119 133.632 49.2512 131.966 50.2801 130.059C51.9782 131.945 53.6754 133.831 55.3731 135.718ZM46.1603 130.051C46.2687 129.761 46.9512 128.178 46.9773 128.171C47.0789 128.145 47.4867 128.57 47.6487 128.64C48.2602 128.904 48.9207 129.064 49.5954 129.159C48.5056 131.299 47.0189 133.165 45.156 134.676C45.1322 134.668 45.1084 134.66 45.0846 134.652C45.3089 133.08 45.6083 131.529 46.1603 130.051ZM69.7265 138.399C63.6275 142.408 56.462 146.329 49.3464 148.113C47.7398 148.516 42.3027 149.59 42.4427 146.756C42.4812 145.981 43.0931 144.907 43.3192 144.168C43.6383 143.128 43.9166 142.075 44.1536 141.014C44.5258 139.347 44.7052 137.62 44.9194 135.9C45.0448 135.957 45.1949 135.952 45.3474 135.834C45.3487 135.833 45.3501 135.832 45.3515 135.831C59.2778 140.5 73.4504 129.711 83.3388 121.026C83.9256 121.795 84.6332 122.487 85.4503 123.083C81.3771 129.281 75.9097 134.334 69.7265 138.399Z" fill="black"/>
<path d="M42.5118 146.89C42.5658 146.778 42.7228 146.783 42.7718 146.896C43.5059 148.62 44.3568 150.224 45.1596 151.912C45.4393 152.499 46.5062 152.328 47.034 152.361C47.7096 152.404 48.3792 152.518 49.047 152.633C49.4658 152.704 49.8841 152.776 50.3029 152.848C50.9579 152.96 49.7509 153.857 49.5569 154.049C48.9499 154.649 48.3435 155.25 47.7407 155.854C47.6308 155.964 46.6806 156.725 46.7062 156.881C46.9493 158.38 46.909 159.791 47.3539 161.253C47.3956 161.391 47.456 161.979 47.5324 162.36C47.5567 162.482 47.4336 162.576 47.326 162.52C45.9478 161.79 44.5106 161.164 43.2203 160.289C42.9736 160.122 42.747 159.95 42.4893 159.976C42.0115 160.025 41.3062 160.608 40.8846 160.833C40.1152 161.244 39.3458 161.655 38.5768 162.065C38.4944 162.109 38.0564 162.286 37.763 162.442C37.6573 162.498 37.5355 162.406 37.5561 162.286L38.4779 156.916C38.4862 156.869 38.4711 156.82 38.4372 156.786C37.162 155.495 35.8846 154.207 34.6094 152.916C34.5247 152.83 34.5723 152.682 34.6899 152.665C36.4627 152.408 38.2358 152.155 40.0081 151.898C40.0548 151.891 40.0951 151.861 40.1161 151.818L42.5118 146.89Z" fill="#99D1CA"/>
<path d="M50.1832 152.389L50.0972 152.368C48.984 152.086 47.7514 151.926 46.5344 151.903C45.824 151.891 45.5452 151.836 45.2107 151.277C44.9951 150.916 44.8088 150.509 44.6285 150.116C44.5355 149.912 44.4431 149.71 44.347 149.514C44.0577 148.925 43.7231 148.24 43.4114 147.557C43.3702 147.467 43.335 147.371 43.2993 147.274C43.1862 146.968 43.0581 146.622 42.7523 146.411C42.642 146.336 42.4896 146.333 42.3724 146.405L42.2909 146.455C42.2122 146.486 42.1463 146.548 42.106 146.631L40.2363 150.478C40.1946 150.564 40.1539 150.662 40.1122 150.764C40.0335 150.957 39.9516 151.157 39.8513 151.283C39.6806 151.495 39.4806 151.525 39.1121 151.564C39.0229 151.573 38.9295 151.583 38.8315 151.597L36.1722 151.98C36.0482 151.998 35.8985 152.008 35.7374 152.019C35.206 152.056 34.6032 152.097 34.2462 152.404C34.1464 152.489 34.1029 152.634 34.1359 152.773C34.2462 153.241 34.6956 153.628 35.0925 153.969C35.2225 154.081 35.3461 154.187 35.4449 154.287L37.5065 156.37C37.5815 156.446 37.647 156.509 37.7042 156.564C37.9642 156.814 37.9797 156.829 37.972 157.147C37.9669 157.362 37.9134 157.607 37.8612 157.845C37.8342 157.969 37.8072 158.092 37.787 158.208L37.3019 161.033C37.2854 161.128 37.2602 161.231 37.2341 161.339C37.1458 161.702 37.0451 162.114 37.1833 162.468C37.2405 162.615 37.3591 162.705 37.5069 162.717C37.9811 162.751 38.5455 162.415 38.9991 162.143C39.1171 162.072 39.2265 162.007 39.3213 161.956C39.877 161.659 40.4271 161.34 40.9594 161.032C41.2652 160.855 41.5714 160.677 41.8794 160.503C42.5363 160.133 43.3171 160.652 44.0723 161.156C44.3296 161.327 44.5731 161.489 44.8074 161.612C44.9603 161.692 45.1493 161.809 45.3581 161.938C45.981 162.323 46.7495 162.797 47.3271 162.797C47.3546 162.797 47.382 162.796 47.4086 162.794C47.5615 162.78 47.68 162.688 47.7336 162.541C47.9263 162.017 47.7208 161.311 47.5395 160.689C47.4754 160.469 47.415 160.262 47.3848 160.098C47.2813 159.545 47.2264 158.97 47.1733 158.415C47.1532 158.204 47.1331 157.993 47.1102 157.782L47.0827 157.553C47.0269 157.116 46.9994 156.897 47.2667 156.598C47.6704 156.145 48.1437 155.713 48.6019 155.296C48.8797 155.042 49.1566 154.79 49.4189 154.533C49.5012 154.452 49.6239 154.356 49.7594 154.249C50.1901 153.909 50.679 153.523 50.7426 153.091C50.8231 152.541 50.4377 152.45 50.1832 152.389ZM46.435 156.401C46.1064 156.981 46.2721 157.836 46.4181 158.59C46.4625 158.82 46.5046 159.035 46.5266 159.222C46.6016 159.857 46.6895 160.379 46.8044 160.864C46.8117 160.895 46.8305 160.96 46.8561 161.043C46.9893 161.486 47.0598 161.778 47.0781 161.892C46.6804 161.857 45.2271 161.102 43.6458 160.101L43.5739 160.056C43.1304 159.775 42.8086 159.57 42.4163 159.57C42.1651 159.57 41.8849 159.654 41.5256 159.855C41.1581 160.06 40.7956 160.274 40.4326 160.487C39.7506 160.887 39.0453 161.302 38.3244 161.651L38.274 161.675C38.1115 161.755 37.9871 161.814 37.8923 161.857C37.8983 161.831 37.9024 161.811 37.9042 161.802L38.6132 157.673C38.6247 157.606 38.6443 157.53 38.6645 157.451C38.7212 157.229 38.7848 156.978 38.7436 156.754C38.6823 156.418 38.4136 156.19 38.1976 156.006C38.1326 155.95 38.0694 155.897 38.0163 155.843L36.5439 154.355C36.4798 154.291 36.3457 154.177 36.1818 154.039C35.91 153.81 35.1881 153.202 35.1383 153.028C35.1355 152.733 36.3077 152.655 36.6931 152.63C36.8698 152.619 37.0213 152.608 37.1243 152.593L37.9312 152.479C38.4818 152.402 39.0325 152.325 39.5817 152.239C39.6499 152.228 39.7067 152.222 39.7561 152.216C39.9781 152.191 40.1136 152.167 40.3131 151.959C40.5429 151.718 40.6967 151.322 40.8327 150.972C40.8894 150.826 40.943 150.687 40.9974 150.575L42.5147 147.454C42.8585 148.138 43.5743 149.589 44.2312 150.929C44.293 151.055 44.3479 151.178 44.401 151.297C44.6706 151.902 44.9255 152.474 45.7585 152.616C46.0194 152.661 46.2813 152.655 46.5339 152.651C46.6689 152.648 46.8035 152.645 46.9371 152.651C47.5706 152.676 48.2187 152.793 48.8454 152.905L49.304 152.986C49.401 153.002 49.509 153.007 49.6152 153.011C49.7164 153.014 49.8857 153.02 49.9159 153.036C49.9159 153.036 49.9214 153.057 49.9256 153.07C49.9091 153.094 49.8418 153.15 49.8052 153.181C49.7544 153.223 49.7086 153.263 49.6816 153.293C49.4994 153.499 49.2783 153.694 49.0641 153.883C48.9085 154.021 48.7534 154.158 48.6096 154.301C48.4737 154.436 48.3382 154.573 48.2032 154.71C47.9061 155.01 47.5995 155.321 47.2855 155.606C47.2127 155.673 47.1253 155.739 47.0351 155.808C46.8177 155.972 46.571 156.161 46.435 156.401Z" fill="black"/>
</svg>
