<svg width="487" height="84" viewBox="0 0 487 84" fill="none" xmlns="http://www.w3.org/2000/svg">
<g clip-path="url(#clip0_125_2612)">
<path d="M164.735 42.3084V44.8322H159.658V36.7535H145.091V36.2061C146.624 34.0429 148.743 31.0785 149.009 30.9182C149.409 30.6912 152.341 28.7817 152.541 28.7817C152.741 28.7817 158.432 29.7432 158.698 30.0102C158.965 30.2773 164.522 35.3648 164.522 35.3648C164.522 35.3648 165.082 36.353 165.522 37.1942C164.216 37.3945 163.216 38.5162 163.216 39.8915C163.216 40.9331 163.842 41.8544 164.735 42.3084Z" fill="#2B2D91"/>
<path d="M174.091 52.6573V55.6884C174.091 56.6632 173.291 57.451 172.318 57.451H169.32L166.161 60.6157H173.078C175.277 60.6157 177.103 58.8798 177.223 56.6899C177.236 56.6098 177.236 56.5297 177.236 56.4362V52.6573H174.091ZM152.501 41.3071C153.394 41.7611 154.02 42.6825 154.02 43.7507C154.02 45.3264 152.701 46.5549 151.128 46.4614C149.742 46.3813 148.623 45.2062 148.583 43.8175C148.556 42.7225 149.182 41.7745 150.102 41.3071V38.77H145.078V54.4199C145.211 55.0074 145.744 55.4614 146.384 55.4614H148.983L157.579 46.8487V38.77H152.501V41.3071Z" fill="#2B2D91"/>
<path d="M152.048 54.0728H150.542V55.4615H152.048V54.0728Z" fill="#2B2D91"/>
<path d="M172.145 29.196V44.8459H167.134V42.3088C168.054 41.8548 168.667 40.9067 168.654 39.7984C168.614 38.4097 167.507 37.2479 166.108 37.1545C165.402 37.1144 164.735 37.3414 164.229 37.7554C164.216 37.742 164.202 37.7287 164.202 37.7287L152.341 29.4764L153.687 28.1411H170.839C171.492 28.1411 172.025 28.5951 172.145 29.196Z" fill="#5BA1DF"/>
<path d="M152.341 29.4764L153.687 28.1411L152.341 29.4898V29.4764Z" fill="#5BA1DF"/>
<path d="M173.984 23.0134L172.718 26.178H167.148V28.1543H164.749V26.1647H152.514V28.1409H153.674L145.078 36.7537V29.4896C145.078 28.7552 145.677 28.1409 146.424 28.1409H150.102V26.1647H144.918C143.945 26.1647 143.145 26.9659 143.145 27.9273V30.9585H140V27.1795C140 27.0861 140 27.0059 140.013 26.9258C140.147 24.7359 141.959 23 144.158 23H173.984V23.0134Z" fill="#A2D5E8"/>
<path d="M157.579 46.8618L148.983 55.4746H150.075V57.4508H144.438L143.172 60.6155H166.175L169.333 57.4508H167.121V55.4746H170.799C171.545 55.4746 172.145 54.8603 172.145 54.1259V46.8618H157.579ZM164.709 57.4508H152.474V55.4746H164.709V57.4508Z" fill="#A2D5E8"/>
<path d="M188.236 39.8448L191.928 33.8359L188.396 28.0674H191.382L193.7 31.9531L196.139 28.0674H199.045L195.406 33.876L199.138 39.8315H196.126L193.607 35.7054L191.168 39.8315H188.236V39.8448Z" fill="#2B2D91"/>
<path d="M209.56 29.8166C209.173 29.2425 208.654 28.8285 207.974 28.5214C207.308 28.2143 206.535 28.0674 205.682 28.0674H201.11V39.8315H203.589V35.652H205.615C206.575 35.652 207.374 35.5051 208.04 35.2247C208.72 34.9309 209.227 34.4902 209.586 33.9294C209.946 33.3686 210.12 32.6742 210.12 31.873C210.12 31.0718 209.933 30.3908 209.56 29.8166ZM207.094 33.1683C206.721 33.4353 206.215 33.5555 205.575 33.5555H203.616V30.2172H205.615C206.228 30.2172 206.721 30.3508 207.081 30.6445C207.454 30.9249 207.641 31.3522 207.641 31.9398C207.641 32.4873 207.454 32.9012 207.094 33.1683Z" fill="#2B2D91"/>
<path d="M238.187 39.8448V30.3241H235.001V28.0674H243.891V30.3374H240.706V39.8448H238.187Z" fill="#2B2D91"/>
<path d="M251.394 28.0674H248.568L244.117 39.8315H246.823L247.716 37.3077H252.18L253.1 39.8315H255.898L251.394 28.0674ZM248.315 35.2247L249.928 30.7914L251.594 35.2247H248.315Z" fill="#2B2D91"/>
<path d="M279.648 33.9962C279.261 33.422 278.741 32.9947 278.062 32.6876C277.395 32.3938 276.636 32.2336 275.783 32.2336H273.704V28.0674H271.211V39.8448H275.716C276.436 39.8448 277.062 39.7647 277.622 39.5911C278.168 39.4309 278.635 39.1905 279.021 38.8567C279.408 38.5229 279.701 38.1223 279.901 37.6549C280.101 37.1876 280.207 36.6534 280.207 36.0392C280.221 35.238 280.021 34.557 279.648 33.9962ZM277.195 37.3612C276.822 37.6282 276.316 37.7484 275.676 37.7484H273.717V34.3834H275.716C276.329 34.3834 276.822 34.5169 277.195 34.7974C277.555 35.0778 277.742 35.5051 277.742 36.0926C277.728 36.6668 277.569 37.0807 277.195 37.3612Z" fill="#2B2D91"/>
<path d="M282.18 39.8448V28.0674H284.659V32.5407H289.656V28.0674H292.135V39.8448H289.656V34.8241H284.659V39.8448H282.18Z" fill="#2B2D91"/>
<path d="M304.596 28.0674V39.8315H307.075V28.0674H304.596ZM302.437 33.9962C302.051 33.422 301.531 32.9947 300.864 32.6876C300.198 32.3938 299.438 32.2336 298.586 32.2336H296.586V28.0674H294.094V39.8448H298.519C299.239 39.8448 299.865 39.7647 300.411 39.5911C300.971 39.4309 301.438 39.1905 301.824 38.8567C302.211 38.5229 302.504 38.1223 302.704 37.6549C302.904 37.1876 302.997 36.6534 302.997 36.0392C303.023 35.238 302.824 34.557 302.437 33.9962ZM299.998 37.3612C299.625 37.6282 299.119 37.7484 298.479 37.7484H296.586V34.3834H298.492C299.119 34.3834 299.612 34.5169 299.972 34.7974C300.345 35.0778 300.531 35.5051 300.531 36.0926C300.545 36.6668 300.358 37.0807 299.998 37.3612Z" fill="#2B2D91"/>
<path d="M309.061 39.8448V28.0674H317.097V30.2439H311.54V32.7677H316.244V34.7573H311.54V37.6416H317.164V39.8448H309.061Z" fill="#2B2D91"/>
<path d="M188.236 55.3746V43.5972H198.192V55.3746H195.713V45.8806H190.715V55.388L188.236 55.3746Z" fill="#2B2D91"/>
<path d="M207.587 43.5972H204.762L200.311 55.3746H203.016L203.909 52.8375H208.387L209.307 55.3746H212.105L207.587 43.5972ZM204.509 50.7544L206.121 46.3346L207.774 50.7544H204.509Z" fill="#2B2D91"/>
<path d="M218.089 55.6285C217.156 55.6285 216.303 55.5083 215.544 55.2813C214.771 55.0543 214.104 54.7071 213.518 54.2664L214.611 52.3035C215.011 52.6507 215.49 52.9178 216.064 53.1181C216.637 53.3184 217.21 53.4252 217.823 53.4252C218.329 53.4252 218.756 53.3584 219.129 53.2249C219.489 53.0914 219.782 52.8911 219.982 52.6507C220.182 52.4104 220.288 52.1166 220.288 51.7961C220.288 51.2887 220.115 50.9282 219.755 50.6611C219.409 50.4074 218.862 50.2739 218.129 50.2739H215.784V48.3377H217.929C218.343 48.3377 218.702 48.2843 218.996 48.1774C219.302 48.0572 219.529 47.897 219.689 47.6834C219.848 47.4697 219.928 47.216 219.928 46.9089C219.928 46.6151 219.848 46.3614 219.689 46.1745C219.529 45.9742 219.302 45.8273 218.982 45.7205C218.662 45.6136 218.276 45.5736 217.823 45.5736C217.29 45.5736 216.77 45.667 216.277 45.8406C215.77 46.0142 215.344 46.2679 214.997 46.5884L213.865 44.759C214.384 44.305 215.024 43.9445 215.77 43.6908C216.517 43.4371 217.316 43.3169 218.169 43.3169C219.049 43.3169 219.809 43.4371 220.435 43.6908C221.061 43.9445 221.554 44.2917 221.901 44.759C222.247 45.2264 222.421 45.7872 222.421 46.4415C222.421 46.7887 222.341 47.1359 222.194 47.4697C222.047 47.8035 221.848 48.084 221.581 48.351C221.328 48.6181 221.035 48.8184 220.741 48.9653C221.394 49.1923 221.914 49.5528 222.301 50.0335C222.687 50.5276 222.887 51.1418 222.887 51.8762C222.887 52.584 222.687 53.2249 222.301 53.7857C221.901 54.3466 221.341 54.7872 220.621 55.1077C219.862 55.4682 219.036 55.6285 218.089 55.6285Z" fill="#2B2D91"/>
<path d="M248.062 43.5972V55.3746H250.554V43.5972H248.062ZM245.89 49.526C245.503 48.9518 244.983 48.5378 244.317 48.2307C243.651 47.9236 242.891 47.7767 242.038 47.7767H240.039V43.5972H237.547V55.388H241.972C242.691 55.388 243.318 55.2945 243.864 55.1343C244.424 54.9607 244.89 54.7337 245.277 54.3998C245.663 54.066 245.956 53.6654 246.156 53.1981C246.356 52.7307 246.449 52.1832 246.449 51.5823C246.476 50.7678 246.276 50.1001 245.89 49.526ZM243.451 52.8909C243.091 53.158 242.585 53.2782 241.945 53.2782H240.066V49.9132H241.958C242.585 49.9132 243.078 50.0467 243.438 50.3405C243.811 50.6209 243.997 51.0482 243.997 51.6357C243.997 52.2099 243.811 52.6239 243.451 52.8909Z" fill="#2B2D91"/>
<path d="M216.53 33.8225H216.69L219.022 28.1875H221.848L217.436 37.508C217.09 38.2557 216.677 38.8032 216.21 39.1638C215.77 39.5109 215.211 39.7112 214.598 39.7112C213.825 39.7112 213.132 39.5777 212.545 39.324L213.118 37.1875C213.265 37.2543 213.438 37.3077 213.625 37.3344C213.785 37.3744 213.971 37.3878 214.118 37.3878C214.678 37.3878 215.037 37.1875 215.184 36.7736L215.317 36.4264L210.706 28.1875H213.758L216.53 33.8225Z" fill="#2B2D91"/>
<path d="M230.031 30.6314C229.524 30.4311 228.964 30.3376 228.325 30.3376C227.765 30.3376 227.272 30.4311 226.819 30.5913C226.379 30.7782 226.006 31.0052 225.699 31.3391C225.379 31.6862 225.139 32.0468 224.98 32.4874C224.82 32.9281 224.726 33.3954 224.726 33.9162C224.726 34.4637 224.82 34.9444 224.98 35.3851C225.166 35.8257 225.393 36.1996 225.726 36.4934C226.046 36.8138 226.419 37.0542 226.845 37.2411C227.285 37.4014 227.765 37.4949 228.298 37.4949C228.938 37.4949 229.524 37.3747 230.097 37.1744C230.644 36.934 231.15 36.6269 231.576 36.213L233.003 37.9756C231.723 39.1907 230.111 39.7916 228.165 39.7916C227.298 39.7916 226.486 39.6581 225.766 39.391C225.046 39.0972 224.42 38.7233 223.887 38.2159C223.38 37.6951 222.967 37.0943 222.674 36.3598C222.381 35.6388 222.234 34.8376 222.234 33.9563C222.234 33.1417 222.367 32.394 222.674 31.6729C222.94 30.9518 223.367 30.3242 223.9 29.7901C224.446 29.2426 225.099 28.8287 225.846 28.5216C226.605 28.2011 227.472 28.0542 228.431 28.0542C229.298 28.0542 230.111 28.1877 230.83 28.4548C231.55 28.7085 232.203 29.0957 232.776 29.6032L231.377 31.4325C230.99 31.072 230.537 30.8049 230.031 30.6314Z" fill="#2B2D91"/>
<path d="M269.239 28.0007V39.8315H266.72C266.72 36.7069 266.707 33.3953 266.707 30.2707C265.574 30.2707 264.428 30.2707 263.295 30.284C263.295 31.2054 263.282 32.2336 263.255 33.3152C263.242 34.1297 263.242 34.7573 263.122 35.5719C263.015 36.2395 262.909 36.8538 262.722 37.3879C262.562 37.9087 262.322 38.3627 262.016 38.7499C261.723 39.0971 261.363 39.3909 260.95 39.5645C260.536 39.7247 260.03 39.8315 259.444 39.8315C259.097 39.8315 258.777 39.7915 258.484 39.738C258.218 39.6846 257.938 39.5912 257.671 39.471L258.244 37.2944C258.377 37.3478 258.511 37.4013 258.657 37.428C258.804 37.4413 258.951 37.468 259.057 37.468C259.27 37.468 259.47 37.428 259.644 37.3345C259.79 37.2677 259.95 37.1208 260.057 36.8938C260.203 36.6401 260.35 36.333 260.417 35.9858C260.51 35.6386 260.563 35.1846 260.63 34.6772C260.75 33.7559 260.723 33.0081 260.723 32.8745C260.736 31.3523 260.736 30.4443 260.736 30.4443C260.736 29.9369 260.736 29.0823 260.736 27.9873H269.239V28.0007Z" fill="#2B2D91"/>
<path d="M235.481 43.5837V55.4145H232.963C232.963 52.2899 232.949 48.9783 232.949 45.8537C231.816 45.8537 230.67 45.8537 229.537 45.867C229.537 46.7884 229.524 47.8166 229.497 48.8982C229.484 49.7127 229.484 50.3403 229.364 51.1549C229.258 51.8225 229.151 52.4368 228.964 52.9709C228.804 53.4917 228.565 53.9457 228.258 54.3329C227.965 54.6801 227.605 54.9739 227.192 55.1475C226.779 55.3077 226.272 55.4145 225.686 55.4145C225.339 55.4145 225.019 55.3745 224.726 55.3211C224.46 55.2676 224.18 55.1742 223.913 55.054L224.486 52.8774C224.62 52.9308 224.753 52.9843 224.9 53.011C225.046 53.0243 225.193 53.051 225.299 53.051C225.513 53.051 225.713 53.011 225.886 52.9175C226.032 52.8507 226.192 52.7038 226.299 52.4768C226.446 52.2231 226.592 51.916 226.659 51.5688C226.752 51.2216 226.805 50.7676 226.872 50.2602C226.992 49.3389 226.965 48.5911 226.965 48.4576C226.979 46.9353 226.979 46.0273 226.979 46.0273C226.979 45.5199 226.979 44.6653 226.979 43.5703L235.481 43.5837Z" fill="#2B2D91"/>
</g>
<defs>
<clipPath id="clip0_125_2612">
<rect width="177.164" height="43.6157" fill="white" transform="translate(140 20)"/>
</clipPath>
</defs>
</svg>
