<svg width="20" height="20" viewBox="0 0 20 20" fill="none" xmlns="http://www.w3.org/2000/svg">
<path d="M8.33398 7.50016C8.33398 7.01102 8.51643 6.69819 8.75595 6.49496C9.01358 6.27636 9.38679 6.146 9.79232 6.146C10.1979 6.146 10.5711 6.27636 10.8287 6.49496C11.0682 6.69819 11.2507 7.01102 11.2507 7.50016C11.2507 7.86447 11.1648 8.06672 11.0651 8.2163C10.9487 8.39081 10.7957 8.52842 10.5368 8.76114L10.4848 8.80784C10.2185 9.04754 9.86812 9.37158 9.60096 9.84357C9.32563 10.33 9.16732 10.9177 9.16732 11.6668C9.16732 12.1271 9.54041 12.5002 10.0007 12.5002C10.4609 12.5002 10.834 12.1271 10.834 11.6668C10.834 11.1659 10.9361 10.8683 11.0514 10.6646C11.1748 10.4465 11.3453 10.2757 11.5998 10.0467C11.6227 10.026 11.6469 10.0045 11.672 9.98207C11.8998 9.77908 12.2117 9.50103 12.4518 9.1408C12.7427 8.70444 12.9173 8.17752 12.9173 7.50016C12.9173 6.53097 12.5268 5.75005 11.907 5.22411C11.3052 4.71355 10.5326 4.47933 9.79232 4.47933C9.05202 4.47933 8.27939 4.71355 7.67765 5.22411C7.05779 5.75005 6.66732 6.53097 6.66732 7.50016C6.66732 7.9604 7.04041 8.3335 7.50065 8.3335C7.96089 8.3335 8.33398 7.9604 8.33398 7.50016Z" fill="#989898"/>
<path d="M10.6256 15.5599C10.9352 15.2194 10.9101 14.6923 10.5696 14.3827C10.229 14.0731 9.70198 14.0982 9.39238 14.4388L9.38405 14.4479C9.07445 14.7885 9.09953 15.3155 9.44007 15.6251C9.78061 15.9347 10.3077 15.9096 10.6173 15.5691L10.6256 15.5599Z" fill="#989898"/>
<path fill-rule="evenodd" clip-rule="evenodd" d="M10.0007 0.833496C4.93791 0.833496 0.833984 4.93743 0.833984 10.0002C0.833984 15.0629 4.93791 19.1668 10.0007 19.1668C15.0634 19.1668 19.1673 15.0629 19.1673 10.0002C19.1673 4.93743 15.0634 0.833496 10.0007 0.833496ZM2.50065 10.0002C2.50065 5.8579 5.85839 2.50016 10.0007 2.50016C14.1429 2.50016 17.5007 5.8579 17.5007 10.0002C17.5007 14.1424 14.1429 17.5002 10.0007 17.5002C5.85839 17.5002 2.50065 14.1424 2.50065 10.0002Z" fill="#989898"/>
</svg>
