<svg width="347" height="133" viewBox="0 0 347 133" fill="none" xmlns="http://www.w3.org/2000/svg">
<path d="M0 103.214C3.57118 104.396 12.2445 105.27 21.1608 95.8991C32.3062 84.1849 61.8088 43.1853 93.9338 66.6136C107.046 77.2307 132.833 74.8569 145.071 66.6136C152.497 61.6118 166.707 53.8024 177.852 59.4549C203.376 72.3998 227.023 31.471 242.758 13.8997C260.64 -6.07008 306.352 -6.72094 347 39.9312" stroke="#2B2D91" stroke-width="2" stroke-linecap="round"/>
<path d="M21.1608 95.8991C12.2445 105.27 3.57118 104.396 0 103.214V132.165H347V39.9312C306.352 -6.72094 260.64 -6.07008 242.758 13.8997C227.023 31.471 203.376 72.3998 177.852 59.4549C166.707 53.8024 152.497 61.6118 145.071 66.6136C132.833 74.8569 107.046 77.2307 93.9338 66.6136C61.8088 43.1853 32.3062 84.1849 21.1608 95.8991Z" fill="url(#paint0_linear_850_1334)" fill-opacity="0.5"/>
<path d="M172.703 57.7208C172.703 60.7043 170.265 63.1291 167.251 63.1291C164.236 63.1291 161.799 60.7043 161.799 57.7208C161.799 54.7374 164.236 52.3125 167.251 52.3125C170.265 52.3125 172.703 54.7374 172.703 57.7208Z" fill="#5BA1DF" stroke="white"/>
<defs>
<linearGradient id="paint0_linear_850_1334" x1="173.5" y1="1" x2="173.5" y2="132.165" gradientUnits="userSpaceOnUse">
<stop stop-color="#5BA1DF"/>
<stop offset="1" stop-color="#5BA1DF" stop-opacity="0"/>
</linearGradient>
</defs>
</svg>
