<svg width="56" height="56" viewBox="0 0 56 56" fill="none" xmlns="http://www.w3.org/2000/svg">
<rect x="0.5" y="0.5" width="55" height="55" rx="27.5" stroke="#0E1079"/>
<path d="M34.9999 29.1666H29.1666V34.9999C29.1666 35.6416 28.6416 36.1666 27.9999 36.1666C27.3583 36.1666 26.8333 35.6416 26.8333 34.9999V29.1666H20.9999C20.3583 29.1666 19.8333 28.6416 19.8333 27.9999C19.8333 27.3583 20.3583 26.8333 20.9999 26.8333H26.8333V20.9999C26.8333 20.3583 27.3583 19.8333 27.9999 19.8333C28.6416 19.8333 29.1666 20.3583 29.1666 20.9999V26.8333H34.9999C35.6416 26.8333 36.1666 27.3583 36.1666 27.9999C36.1666 28.6416 35.6416 29.1666 34.9999 29.1666Z" fill="#0E1079"/>
</svg>
