<svg width="140" height="206" viewBox="0 0 140 206" fill="none" xmlns="http://www.w3.org/2000/svg">
<path d="M73.636 206C72.9849 205.729 72.4263 205.622 72.0277 205.312C68.7329 202.739 65.4665 200.137 62.2036 197.525C61.8514 197.243 61.5987 196.844 61.1006 196.266C61.862 196.209 62.2997 196.177 62.7445 196.142C61.4884 191.761 62.4776 187.524 63.4134 183.336C64.1891 179.864 64.4702 176.446 64.1749 172.893C63.9827 170.587 64.246 168.181 64.6943 165.896C65.3135 162.756 65.2565 159.677 64.4559 156.644C63.6553 153.6 62.531 150.645 61.6663 147.616C60.9262 145.021 60.3391 142.384 59.7093 139.761C59.5706 139.18 59.535 138.577 59.4496 137.986C59.3073 137.957 59.1614 137.925 59.019 137.896C58.8233 138.314 58.5102 138.716 58.4462 139.155C58.0975 141.55 57.0407 143.628 55.7598 145.631C51.7639 151.875 50.3051 158.85 49.6433 166.124C49.3444 169.418 48.4086 172.65 47.7539 175.912C47.2664 178.342 46.7682 180.773 46.2772 183.204C46.2523 183.332 46.1883 183.489 46.2345 183.596C47.3838 186.433 46.327 189.113 45.6047 191.793C45.3806 192.627 44.8255 193.372 44.3273 194.342C44.2419 194.306 44.4981 194.47 44.7721 194.509C45.1564 194.566 45.619 194.409 45.9321 194.57C46.3448 194.78 46.6508 195.211 46.9995 195.546C46.6473 195.878 46.3342 196.437 45.9321 196.509C44.185 196.815 42.4166 196.997 40.6517 197.2C35.9763 197.731 31.3009 198.248 26.6219 198.772C26.1415 197.282 26.4724 196.797 28.3832 196.43C28.3049 195.978 28.2835 195.497 28.1376 195.062C27.4509 193.041 28.0522 191.287 29.8989 190.133C30.9522 189.473 32.0694 188.91 33.0906 188.204C35.0654 186.843 36.1613 184.929 36.9299 182.63C39.0363 176.339 39.4811 169.76 40.5806 163.298C41.189 159.716 41.5982 156.091 41.8793 152.47C42.0039 150.856 41.6694 149.191 41.4168 147.566C40.8866 144.155 41.125 140.873 42.4629 137.64C44.1138 133.659 45.683 129.642 47.149 125.59C48.0812 123.013 48.9423 120.379 49.508 117.702C49.9742 115.496 50.0169 113.19 50.1485 110.923C50.3905 106.789 50.4937 102.644 50.7925 98.5163C50.8922 97.1156 51.3512 95.7328 51.739 94.3677C52.2728 92.493 52.3546 90.6361 52.0699 88.6936C51.9098 87.6101 52.2514 86.4518 52.3688 85.3255C52.5076 84.0174 52.6499 82.7094 52.7922 81.4014C52.8741 80.6636 52.8278 79.8795 53.0662 79.1952C54.9236 73.8204 56.8165 68.46 58.7486 63.1102C59.3073 61.5669 59.9513 60.0451 60.7056 58.5945C61.0935 57.8424 61.83 57.2757 62.3744 56.6021C62.8299 56.039 63.3316 55.4901 63.6447 54.8485C64.278 53.5548 64.7797 52.1933 65.3633 50.8745C65.8045 49.8766 65.1035 48.7075 64.0325 48.8786C59.4354 49.6164 54.8524 50.4255 50.2624 51.206C47.4799 51.68 44.7579 52.2824 41.8402 51.7228C40.2853 51.4234 38.4635 51.9117 36.8943 52.4392C33.7987 53.487 30.6106 53.6938 27.4296 53.6866C24.5546 53.6795 21.9678 54.4387 19.5873 55.8715C17.6624 57.0298 15.6591 57.682 13.4424 57.8068C10.699 57.9636 7.95567 58.2309 5.20875 58.2666C4.48289 58.2772 3.75702 57.5894 3.01336 57.265C2.5508 57.0619 2.05621 56.9229 1.56874 56.7767C1.04569 56.6199 0.511962 56.4845 -0.0146484 56.3419C0.00670062 56.2029 0.0244915 56.0675 0.0458406 55.9285C0.412333 55.8322 0.817965 55.8037 1.1382 55.622C1.62211 55.3475 2.23056 55.0588 2.4654 54.6098C3.29446 53.0023 4.36547 51.8867 6.29756 51.762C8.02327 51.648 9.7561 51.4733 11.4534 51.1632C13.2716 50.8318 15.04 50.0156 16.8547 49.9372C21.5977 49.7376 25.7643 47.8486 30.0911 46.2162C32.9056 45.1541 36.0688 45.04 39.0577 44.4234C41.648 43.8888 44.2562 43.372 46.7825 42.5986C49.049 41.9 51.2124 40.8629 53.6035 39.9006C51.9454 38.7422 52.3261 37.2524 52.7033 35.7555C53.0413 34.4189 53.3936 33.0859 53.6533 31.7351C53.7814 31.0615 53.8633 30.3202 53.7209 29.6608C53.2762 27.6078 54.0198 26.0289 55.6174 24.8955C57.9694 23.224 60.3925 21.6486 62.8405 20.1196C63.5344 19.6883 64.4986 19.6848 65.1818 19.2428C65.7227 18.8935 66.0251 18.1736 66.4343 17.6176C65.9646 17.3716 65.4949 16.919 65.0217 16.9154C62.7018 16.8976 61.8015 15.2866 61.0935 13.501C60.7875 12.7311 60.5597 12.1894 59.5634 12.2286C59.2183 12.2429 58.5316 11.6013 58.5458 11.2877C58.6099 10.0224 58.7308 8.71435 59.1365 7.5275C59.5065 6.45469 60.4672 6.32282 61.4706 7.02139C62.104 6.05194 62.6377 5.07893 63.3138 4.21641C65.4522 1.48985 68.0995 -0.345683 71.7431 0.0535006C72.7536 0.163989 73.7962 0.609506 74.6572 1.16195C75.0878 1.43995 75.1625 2.30604 75.3546 2.91907C75.497 3.37171 75.4863 3.89564 75.6998 4.30552C77.0341 6.85744 76.9736 9.67311 76.9807 12.3854C76.9878 14.6772 75.714 16.6588 73.8068 18.3981C74.337 18.5371 74.6857 18.6975 75.038 18.7046C76.8562 18.7403 78.678 18.7046 80.4962 18.7617C81.279 18.7866 82.0831 18.8793 82.8268 19.1038C85.0756 19.7846 87.2674 19.7347 89.4735 18.9078C91.2561 18.2377 93.0779 17.6746 94.8712 17.0331C96.1949 16.559 97.4865 15.9888 98.8208 15.5504C99.4221 15.3508 100.123 15.4506 100.728 15.2581C101.404 15.0443 102.027 14.6522 102.945 14.2067C102.984 14.6736 103.229 15.3116 103.027 15.5397C101.995 16.6838 102.361 17.7102 103.062 18.7937C103.375 19.2785 103.678 19.781 103.888 20.3156C104.012 20.6328 103.948 21.0284 103.969 21.3849C103.56 21.3314 102.881 21.4062 102.785 21.2031C102.123 19.7846 100.632 19.7632 99.5325 19.0896C98.5611 18.4943 97.7783 18.6476 97.0061 19.364C96.0953 20.2123 95.1061 20.9999 94.3019 21.9409C93.0103 23.4556 91.3415 23.9439 89.4699 24.0793C87.0788 24.254 84.6948 24.532 82.3002 24.6389C81.0406 24.6959 80.4642 25.2306 80.3041 26.4281C80.1012 27.9251 79.8344 29.4149 79.6067 30.9082C79.5782 31.0829 79.5995 31.2646 79.6102 31.4393C79.8024 34.5116 84.4849 38.0793 87.9862 35.8196C88.2103 35.6735 88.4238 35.481 88.6693 35.4169C88.9398 35.3456 89.3454 35.2886 89.4984 35.4311C89.6443 35.5666 89.6336 36.0192 89.5197 36.2509C89.1853 36.9245 88.769 37.5554 88.3171 38.3145C89.2635 38.589 89.1924 39.1378 88.5057 39.8542H91.0925C90.4022 40.7274 89.9396 41.312 89.3561 42.0533C90.2171 42.5059 91.0355 43.012 91.9108 43.3827C95.0207 44.6943 98.1341 45.9952 101.276 47.2213C102.13 47.5528 103.091 47.7666 104.002 47.7702C110.339 47.7773 115.893 50.0334 120.97 53.6296C122.376 54.624 123.625 55.2798 125.482 54.5884C126.475 54.2177 127.791 54.7274 129.065 54.845C129.09 54.7987 129.197 54.6561 129.25 54.4993C129.389 54.093 129.507 53.6795 129.635 53.2696C130.022 53.5762 130.492 53.8221 130.787 54.2034C132.663 56.6235 134.534 59.0471 136.328 61.5242C136.865 62.2655 137.139 63.1958 137.544 64.0333C138.317 65.6229 139.096 67.2054 139.978 69.0089C139.448 68.9732 139.018 69.0552 138.925 68.9162C138.302 67.9788 137.509 68.3032 136.708 68.5206C135.086 68.959 133.727 68.5135 132.353 67.5333C130.09 65.9188 127.735 64.4289 125.34 63.0104C124.45 62.4829 123.344 62.3368 122.355 61.959C121.995 61.82 121.579 61.5955 121.383 61.2854C120.049 59.1505 117.775 58.7192 115.651 57.96C109.666 55.8251 103.422 55.5436 97.1734 55.0695C94.3517 54.8557 91.587 53.8043 88.8152 53.0522C87.061 52.5746 85.3602 51.9188 83.6132 51.4163C83.2004 51.2987 82.503 51.2808 82.2788 51.5303C80.5247 53.4657 78.2795 53.1306 76.0592 53.0487C73.2802 52.9453 71.1951 54.3068 69.5548 56.3954C69.2452 56.791 69.0246 57.6357 69.2346 57.9921C69.8039 58.9509 69.4836 59.792 69.2559 60.683C68.434 63.9371 67.6085 67.1947 66.783 70.4488C67.6939 70.2563 68.6546 70.0496 69.7185 69.8251C69.5014 69.376 69.3164 69.0017 69.0211 68.3923C69.875 68.5277 70.5369 68.6311 71.2948 68.7522C71.2022 68.3744 71.1311 68.0751 70.9852 67.4905C71.5438 67.7828 71.8641 67.9503 72.2306 68.1428C72.3551 67.2411 72.6469 66.4605 74.0417 66.5175C73.1521 67.5155 72.8959 68.4921 73.7214 69.4152C73.9598 69.6789 74.4829 69.6861 75.1625 69.9035C74.675 69.1372 74.4082 68.713 74.0595 68.1642C75.2123 68.3495 76.0485 68.4849 77.0199 68.6382C76.5075 69.4544 76.4256 70.1102 77.5607 70.2242C77.7244 69.9641 77.8881 69.7039 78.0624 69.4223C78.6922 70.5664 79.2722 71.6143 79.9055 72.7655C80.2044 72.6443 80.5247 72.5124 81.0086 72.3128C81.3893 73.7492 81.802 75.0964 82.0689 76.4686C82.1294 76.7858 81.7024 77.2064 81.4889 77.5735C80.9943 78.4289 80.4891 79.2771 79.9945 80.1325C79.8842 80.3214 79.8593 80.5994 79.7063 80.7171C78.6531 81.5154 78.8452 82.4991 79.3327 83.4614C79.7098 84.2099 79.5284 84.6661 79.0374 85.3433C78.2261 86.4624 77.6852 87.7812 77.0305 89.0179C80.5033 90.4008 83.9263 91.5271 87.1322 93.0917C93.6757 96.2816 100.835 97.0123 107.77 98.634C110.751 99.3325 113.772 99.8707 116.736 100.637C117.565 100.851 118.241 101.631 119.013 102.105C119.953 102.683 120.903 103.25 121.888 103.745C122.468 104.037 123.123 104.18 123.742 104.394C124.568 104.682 125.39 104.975 126.212 105.267C126.621 105.413 127.037 105.541 127.429 105.723C128.414 106.183 129.393 106.657 130.357 107.152C130.684 107.323 130.983 107.562 131.271 107.801C131.602 108.075 131.866 108.567 132.229 108.642C133.186 108.838 133.502 109.266 133.492 110.274C133.477 111.49 133.136 111.885 132.004 111.329C130.898 110.784 129.901 110.025 128.816 109.43C128.162 109.07 127.429 108.845 126.735 108.557C126.678 108.667 126.617 108.781 126.56 108.892C127.151 109.451 127.816 109.957 128.307 110.595C128.553 110.916 128.482 111.483 128.556 111.935C128.112 111.935 127.621 112.057 127.233 111.91C125.34 111.187 123.468 110.399 121.6 109.615C121.198 109.448 120.768 109.266 120.458 108.974C119.693 108.25 119.231 108.567 118.796 109.323C117.754 111.137 116.153 111.604 114.039 111.048C107.951 109.444 101.856 107.865 95.7288 106.432C93.5476 105.923 91.2668 105.762 89.018 105.623C86.4917 105.47 84.7696 106.874 83.4886 108.931C82.6204 110.324 81.8376 111.789 80.8271 113.076C78.8772 115.553 76.8775 118.005 74.7355 120.315C73.2446 121.922 72.8354 123.651 73.3016 125.689C74.0061 128.765 74.8138 131.82 75.4187 134.917C76.5004 140.448 76.3153 145.941 74.9846 151.451C74.2907 154.327 73.9136 157.31 73.693 160.265C73.1592 167.361 72.7892 174.472 72.3764 181.575C72.259 183.621 72.2341 185.67 72.1345 187.716C72.1025 188.368 72.0171 189.024 71.8747 189.662C71.4264 191.654 72.622 193.158 73.3621 194.787C73.7819 195.714 74.4188 196.541 74.8423 197.467C75.4934 198.882 75.3938 200.305 74.2801 201.434C73.234 202.496 73.1165 203.616 73.6005 204.927C73.6823 205.152 73.6111 205.437 73.6111 206H73.636ZM59.5314 33.0111C59.3678 33.0289 59.2041 33.0503 59.044 33.0681C58.5885 34.5294 58.0761 35.9764 57.7274 37.4591C57.6598 37.7407 58.2789 38.5034 58.528 38.4785C59.4994 38.3894 60.4494 38.0722 61.5703 37.8013C60.8195 36.037 60.179 34.5223 59.535 33.0075L59.5314 33.0111ZM40.0113 192.446C38.773 193.483 37.4565 194.584 36.14 195.689C38.1824 195.707 40.0611 195.489 41.9291 195.208C42.2031 195.165 42.4913 194.866 42.6586 194.609C42.7155 194.52 42.4664 194.142 42.2778 194.003C41.5804 193.49 40.851 193.019 40.0113 192.449V192.446ZM66.9111 199.756C67.0249 199.667 67.1352 199.577 67.2491 199.488C66.8862 198.615 66.5126 197.749 66.1674 196.872C65.8721 196.124 65.2743 196.085 64.8082 196.487C64.5485 196.708 64.4168 197.532 64.6054 197.738C65.2886 198.49 66.1318 199.096 66.9146 199.756H66.9111Z" fill="#0E1079"/>
</svg>
