<svg width="127" height="136" viewBox="0 0 127 136" fill="none" xmlns="http://www.w3.org/2000/svg">
<path d="M23.6423 108.789C24.9799 109.407 26.0186 110.832 27.7618 110.282C27.8792 110.247 28.0428 110.261 28.1531 110.315C30.2449 111.368 32.3793 110.972 34.5387 110.586C36.0114 110.322 37.3348 110.761 38.5052 111.736C39.2558 112.361 40.1345 112.829 40.8709 113.465C41.4045 113.929 41.867 114.515 42.2334 115.122C42.6745 115.851 43.2721 115.962 43.7631 115.215C44.2042 114.551 44.4354 113.726 44.9512 113.14C45.2714 112.776 45.9438 112.729 46.4596 112.54C46.5023 112.965 46.7193 113.465 46.5663 113.801C43.4678 120.652 40.38 127.51 37.1214 134.289C36.7407 135.079 35.3853 135.393 34.3608 136C33.9624 134.439 33.5746 133.375 31.9169 133.132C31.3156 133.043 30.7678 131.714 30.4583 130.853C30.252 130.278 30.4476 129.524 30.5757 128.874C31.1591 125.927 30.2769 123.17 28.7721 120.852C27.9076 119.519 25.919 118.894 24.3893 118.037C20.4797 115.855 15.9654 115.544 11.8459 114.033C9.06752 113.015 6.25004 111.915 3.7385 110.379C-0.295614 107.914 -0.896818 105.092 1.09534 101.074C1.56136 100.135 2.62503 99.3595 3.58553 98.8273C7.01845 96.9378 10.7644 96.0305 14.642 95.634C14.859 95.6126 15.076 95.5805 15.4069 95.5376C15.2112 94.216 16.2073 94.1231 17.0682 94.0374C19.1315 93.8338 20.8817 93.0158 22.479 91.6978C23.2225 91.0835 23.4111 90.5369 23.13 89.6404C22.0877 86.3293 21.1094 82.9967 20.0849 79.682C18.388 74.1955 18.7188 68.8019 20.6363 63.4227C21.6715 60.5223 22.5217 57.5683 24.7558 55.2752C25.1684 54.8537 25.421 54.2108 25.5846 53.625C26.4171 50.6353 27.2317 47.7028 27.061 44.4702C26.8653 40.7911 27.3633 37.0764 27.5412 33.3759C27.6622 30.8363 27.5483 28.2681 27.9112 25.7677C28.4092 22.3387 29.2915 18.9668 29.9532 15.5592C30.1879 14.3412 30.3338 13.0946 30.3872 11.8552C30.4548 10.2693 29.8749 9.60132 28.3843 8.99767C27.8187 8.76907 27.342 8.31544 26.8226 7.96539C26.8511 7.77965 26.8795 7.59749 26.9044 7.41175C27.6764 7.31531 28.4555 7.09742 29.2132 7.14743C30.4548 7.23315 31.3405 6.94383 32.2192 5.91512C33.8307 4.02559 35.6842 2.34323 37.4451 0.582281C37.6621 0.364396 37.9076 0.0929315 38.1815 0.0322093C38.4874 -0.0392287 38.9392 -0.00350969 39.1384 0.185801C39.2807 0.317961 39.2238 0.875177 39.0566 1.08949C38.1637 2.2575 37.2103 3.37551 36.2818 4.51494C36.1288 4.70425 35.9937 4.90785 35.9723 5.24718C36.9399 4.66853 37.9004 4.07203 38.8823 3.52195C39.4621 3.19691 40.0634 2.84686 40.6966 2.70756C41.1341 2.61112 41.6428 2.86472 42.1231 2.96117C41.8812 3.32907 41.714 3.80413 41.3832 4.04702C40.7108 4.53994 39.9495 4.90785 39.3625 5.60437C40.0171 5.29361 40.6503 4.91142 41.3334 4.69354C41.7247 4.56852 42.1978 4.70068 42.6354 4.71854C42.4255 5.12216 42.3188 5.67938 41.9879 5.90084C40.8104 6.68665 39.5582 7.35817 38.4056 8.29758C39.1562 8.05112 39.8961 7.74751 40.6646 7.57606C41.0381 7.4939 41.4614 7.65107 41.8634 7.6975C41.6677 8.05112 41.5575 8.55833 41.2586 8.73335C40.5009 9.17627 39.6614 9.47988 38.8467 9.82635C38.4412 9.9978 38.0143 10.1192 37.6123 10.3014C35.2893 11.348 34.4497 13.2018 34.5814 15.6807C34.7735 19.2883 34.9335 22.8995 34.9905 26.5143C35.0118 27.8752 34.7094 29.2432 34.5493 30.6755C36.4348 29.5468 38.4198 29.2182 40.4582 29.979C42.6887 30.8113 44.1366 32.3722 44.5884 34.8046C44.8943 36.462 45.7872 37.6371 47.5624 37.9193C48.0889 38.0015 48.6118 38.1086 49.1383 38.1836C50.8388 38.4194 51.9451 38.0943 53.0764 36.3477C56.8722 30.4898 59.9956 24.2961 62.7597 17.931C64.3997 14.1519 67.1353 11.9909 70.7853 10.6765C71.8525 10.2907 72.4786 9.55846 73.1332 8.65477C73.9549 7.52248 75.0862 6.61164 76.1285 5.6508C76.2957 5.49721 76.7795 5.45078 76.9289 5.57937C77.0961 5.72224 77.1886 6.19373 77.0748 6.39019C76.6835 7.07599 76.189 7.70822 75.6411 8.49046C75.9364 8.31901 76.1072 8.15828 76.3064 8.11184C76.6194 8.0404 76.9467 8.04755 77.2704 8.01897C77.274 8.39402 77.427 8.86908 77.2562 9.12626C76.8649 9.70491 76.317 10.1728 75.8119 10.705C76.9716 11.1087 77.1068 11.548 76.2815 12.3052C75.8261 12.7196 75.2889 13.0518 74.7589 13.3732C73.6703 14.0269 73.6383 14.4091 74.485 15.2842C74.7909 15.5985 74.8905 16.1165 75.0862 16.5451C74.6024 16.5665 74.0759 16.7165 73.6383 16.588C72.8414 16.3486 68.9852 16.9166 68.448 17.4988C68.2773 17.6845 68.199 17.9631 68.0994 18.2096C66.5519 22.0387 65.04 25.882 63.4463 29.6897C62.7811 31.2792 61.9415 32.7972 61.0628 34.5939C63.6704 32.6436 64.6594 28.9789 68.5939 28.6002C67.8504 29.1789 67.3452 29.5682 66.8436 29.9611C66.9112 30.0683 66.9788 30.1755 67.0464 30.2862C68.5192 29.4504 69.9884 28.6145 71.7849 27.5965C71.4896 28.1323 71.358 28.3752 71.0734 28.8931C72.0054 28.2609 72.6742 27.8109 73.3359 27.3644C73.3822 28.1002 73.4213 28.7824 73.4782 29.7361C73.9976 30.1719 74.7838 29.9719 75.7123 29.4432C76.2459 29.1396 77.0499 29.3182 77.8005 29.2789C77.3523 29.654 76.9325 30.0076 76.3953 30.4576C76.8186 30.6505 77.1246 30.7898 77.5195 30.9684C77.1993 31.347 76.9289 31.6649 76.3669 32.3257C78.0495 32.0328 79.38 31.8007 80.7105 31.5685C80.7887 31.7114 80.8634 31.8578 80.9417 32.0007C80.2943 32.4007 79.6468 32.8008 78.9709 33.2151C81.2868 34.1974 82.3753 31.865 84.339 31.5078C83.3074 32.5865 82.354 33.7581 81.2192 34.7118C80.1199 35.6333 78.9104 36.5156 77.6048 37.0764C76.2174 37.6764 74.6628 37.88 73.2434 38.5516C74.1114 38.8659 74.983 39.1802 75.851 39.491C75.8439 39.5553 75.8368 39.6231 75.8332 39.6874C75.5664 39.6874 75.2605 39.7731 75.0364 39.6731C73.528 39.0016 72.8023 40.3161 71.8454 40.9626C71.607 41.1233 71.7813 41.8913 71.5394 42.0663C70.739 42.6449 69.8354 43.0843 68.9923 43.5629C69.3054 43.7772 69.7892 44.1094 70.2694 44.438L70.209 44.7774C69.1168 44.7059 68.0247 44.6345 67.2919 44.5881C66.9966 44.9917 66.8863 45.3203 66.6907 45.381C64.8693 45.9632 63.0656 45.7096 61.2478 45.2703C60.9205 45.1917 59.8462 44.6738 60.33 46.049C59.2023 45.9704 58.103 45.8775 57.0038 45.8347C56.801 45.8275 56.5911 46.0382 56.3848 46.149C56.5058 46.3561 56.5911 46.7026 56.7583 46.7491C57.5054 46.9562 58.2738 47.0777 59.1774 47.2563C58.779 47.2991 58.4979 47.4027 58.256 47.3456C56.1144 46.8562 55.3069 48.1457 54.7377 49.8852C54.3393 51.1103 53.7879 52.2819 53.3254 53.4892C52.4823 55.6788 51.4044 57.6862 49.5297 59.2078C48.8964 59.7222 48.3593 60.458 48 61.201C46.3244 64.6836 44.6916 68.1912 43.1156 71.7238C42.6105 72.8561 42.2583 74.0669 41.9488 75.2707C41.5183 76.953 43.3077 80.6892 44.9014 81.6429C48.747 83.9361 52.8843 85.3005 57.356 85.5756C58.4197 85.6399 58.843 85.9221 58.3663 87.0436C58.0959 87.6759 57.9501 88.401 57.9394 89.0868C57.9323 89.4511 58.2702 90.0619 58.5691 90.1476C64.7412 91.93 70.5683 94.9054 77.0321 95.6733C79.5009 95.9662 82.0018 95.9591 84.4707 96.227C90.0558 96.8378 95.1785 99.0631 100.379 100.985C101.778 101.503 103.058 102.203 104.666 101.703C105.221 101.531 106 101.892 106.616 102.156C110.283 103.728 113.947 105.178 118.071 105.042C119.44 104.996 120.884 105.407 122.19 105.893C123.588 106.418 124.509 107.571 124.595 109.154C124.648 110.136 125.15 110.422 126.007 110.568C126.366 110.629 126.662 111.061 126.989 111.322C126.672 111.561 126.384 111.94 126.032 112.018C124.41 112.39 122.781 112.772 121.133 112.979C116.349 113.576 111.792 112.354 107.245 111.104C106.865 111 106.438 111.082 106.036 111.05C105.744 111.025 105.324 111.054 105.196 110.882C104.652 110.15 103.777 109.822 103.201 109.275C101.82 107.971 100.187 107.857 98.5687 107.689C93.4923 107.168 88.3803 106.975 83.4248 105.528C82.4394 105.242 81.3046 105.496 80.2409 105.446C73.898 105.15 67.5551 104.839 61.2122 104.532C58.5477 104.403 55.8868 104.267 53.2223 104.135C52.2155 104.085 51.4115 104.367 50.7676 105.253C50.3977 105.76 49.7609 106.153 49.1632 106.389C47.2565 107.146 45.5453 108.382 43.3362 108.407C42.084 108.421 40.8531 109.05 39.5902 109.2C37.6123 109.436 35.5952 109.375 33.6351 109.682C31.5326 110.011 29.7077 109.043 27.7404 108.804C26.3922 108.639 25.0048 108.771 23.6387 108.771L23.6423 108.789ZM45.3995 41.1948C45.1327 42.0127 45.0686 42.9593 44.5813 43.5522C43.2864 45.1274 42.7777 46.9705 42.2867 48.8743C41.9737 50.0816 42.3543 50.8174 43.4287 51.389C45.7374 49.0886 48.8609 47.5349 49.4798 43.9594C48.1209 43.0379 46.8118 42.152 45.403 41.1948H45.3995ZM38.3665 118.891C38.1744 119.816 37.9502 120.519 37.8933 121.237C37.7759 122.698 37.7297 124.166 37.6977 125.631C37.687 126.07 37.8257 126.513 37.8969 126.956C38.2953 126.674 38.8752 126.485 39.0637 126.099C40.2163 123.702 41.3049 121.277 42.3472 118.83C42.4788 118.516 42.212 118.03 42.1302 117.626C41.7851 117.812 41.2871 117.912 41.1199 118.205C40.5009 119.276 39.8641 120.084 38.37 118.898L38.3665 118.891ZM37.068 128.588C36.2569 130.221 35.581 131.589 34.8339 133.096C36.3316 132.65 37.4664 130.435 37.068 128.588Z" fill="#0E1079"/>
</svg>
