<svg width="99" height="206" viewBox="0 0 99 206" fill="none" xmlns="http://www.w3.org/2000/svg">
<path d="M74.4321 96.0844C76.9342 97.4928 79.4363 98.9048 81.942 100.313C82.3275 100.531 82.8772 100.623 83.0914 100.944C84.0408 102.349 85.3758 102.82 86.982 102.82C87.2354 102.82 87.5495 102.92 87.7208 103.091C87.9493 103.316 88.0671 103.654 88.2348 103.943C87.9386 104.071 87.6495 104.282 87.3461 104.303C86.9284 104.335 86.5037 104.221 86.0825 104.171L85.8077 104.578C87.5067 106.079 89.2057 107.58 90.9047 109.081C90.8262 109.235 90.7477 109.384 90.6691 109.538C90.1266 109.42 89.5162 109.424 89.0593 109.16C86.518 107.687 84.0765 106.04 81.4852 104.671C79.3007 103.515 76.9628 102.649 74.6891 101.654L74.7462 101.704C74.4107 101.522 74.093 101.301 73.7396 101.165C70.4487 99.8676 67.1613 98.5696 63.8596 97.3038C62.2177 96.6727 60.5472 96.1129 58.8911 95.5174L58.9375 95.5602C57.4347 94.5048 55.7215 94.2908 53.9974 94.6153C50.8814 95.2001 47.9367 95.004 45.0133 93.6276C44.328 93.3067 43.2251 93.8701 42.3185 94.027C42.6326 94.8079 42.7682 95.7563 43.3036 96.3304C44.2067 97.2931 45.3631 98.017 46.4018 98.8335C48.1294 97.7638 49.6964 98.3379 49.9783 100.345C50.1532 101.608 49.8748 102.98 49.55 104.243C49.4394 104.671 48.5791 104.906 48.0544 105.22C47.6939 105.434 47.1228 105.541 46.9836 105.847C45.7593 108.575 43.3 109.591 40.7301 110.443C40.3339 110.575 39.8056 110.565 39.4166 110.418C37.1572 109.584 35.2083 108.511 33.8698 106.232C32.8275 104.457 32.5777 102.642 32.3064 100.763C32.2386 100.292 32.6348 99.5894 33.0381 99.2507C33.8341 98.5803 34.5301 97.9243 34.2731 96.8046C33.9733 95.5103 33.6663 94.2017 33.1952 92.9644C32.7276 91.7378 31.4605 91.4704 30.2933 92.2263C28.8941 93.1355 27.37 93.2425 26.0314 92.3761C24.4681 91.3634 22.9154 91.3812 21.3306 91.9517C18.1646 93.0928 15.0128 94.2766 11.9039 95.5638C9.52311 96.5515 7.95616 98.2452 8.04896 101.048C7.94188 101.091 7.83123 101.133 7.72415 101.18C7.26013 100.156 6.79254 99.1295 6.27498 97.9884H3.81569C3.78713 97.8708 3.75858 97.7531 3.73002 97.6319C4.23687 97.3359 4.74016 97.04 5.35052 96.6834C3.58011 96.0808 1.7633 97.4001 0.0107422 96.4195C2.31655 95.9738 3.84068 94.4762 5.46117 93.0321C6.04655 92.5116 7.12092 92.4616 7.99185 92.3582C9.93359 92.13 11.7076 91.6237 13.2317 90.2901C16.6297 87.3128 20.9415 86.5747 25.1605 85.6904C26.0136 85.5121 26.5133 85.1948 26.5704 84.3996C26.6704 82.9413 26.7346 81.4722 26.6775 80.0138C26.6097 78.2916 27.0202 76.8297 28.0874 75.4213C28.8334 74.4336 29.3617 73.182 29.6544 71.9697C30.8537 66.9777 32.6633 62.296 35.9757 58.2917C36.172 58.0528 36.4219 57.8104 36.504 57.5251C37.739 53.1714 40.955 50.0479 43.5463 46.5927C45.331 44.2109 47.7189 42.1927 50.1211 40.3885C52.6447 38.4915 54.8719 36.3664 56.8815 33.9702C59.273 31.1213 61.9429 28.6538 65.3016 26.8817C69.0459 24.9063 71.6016 21.5688 74.0216 18.2099C74.4999 17.5467 74.2893 16.4093 74.482 15.5071C74.6141 14.8867 74.7283 14.1058 75.1495 13.7314C76.1454 12.8471 76.4702 11.781 76.5737 10.5401C76.7522 8.36508 76.977 6.19359 77.1555 4.01852C77.2376 3.05222 77.6231 2.43179 78.5476 1.94686C79.1829 1.61525 79.5577 0.791581 80.2002 0C81.4744 1.39418 81.2781 3.34461 81.8599 5.03474C83.4519 5.22729 83.7089 4.99552 83.3948 3.55142C84.3335 3.0237 85.2473 2.97734 86.0504 3.78675C89.0665 6.81401 92.0969 9.82701 95.0523 12.9149C96.4551 14.3804 97.7008 15.9956 99.0179 17.5431C98.9251 17.6965 98.8287 17.8498 98.7359 18.0031C98.2612 17.7927 97.7508 17.6359 97.3153 17.3649C96.4051 16.7979 95.7983 16.5661 95.0987 17.8213C94.1528 19.515 92.8821 21.0268 91.6971 22.5779C91.4151 22.9487 90.9368 23.1769 90.5299 23.4408C89.0843 24.3785 87.6316 25.3021 86.1789 26.2363C86.0682 26.3076 85.9647 26.4466 85.8505 26.4538C83.5233 26.5821 82.4275 28.4006 81.2103 29.9446C78.1692 33.7991 74.6748 36.9262 69.8169 38.3917C67.4254 39.1119 65.7085 40.7949 65.0089 43.3551C64.6449 44.6815 64.1951 46.0044 63.5848 47.231C63.1636 48.0796 63.3206 48.4754 64.1273 48.7143C65.5551 49.1422 65.7407 50.1263 65.7871 51.4955C65.8834 54.5549 66.1797 57.6107 66.5081 60.6558C66.8615 63.9291 67.3754 67.1881 67.7574 70.4578C67.8644 71.3742 68.1714 71.8021 69.153 71.7985C70.4879 71.7914 71.83 71.8627 73.1614 71.9875C74.8033 72.1408 75.1424 72.7755 74.7069 74.3159C74.5499 74.8757 74.6712 75.5425 74.7676 76.1451C74.8426 76.6193 75.253 77.09 75.2031 77.525C75.0317 79.0155 75.8741 80.0281 76.638 81.1192C77.6481 82.5633 77.6231 82.6025 76.1347 83.5118C76.1347 85.0914 76.1811 86.6781 76.0954 88.2577C76.0776 88.5822 75.6207 88.9887 75.2673 89.1562C74.8925 89.3345 74.4035 89.3096 73.9609 89.3203C72.1584 89.3666 72.1227 89.4058 72.9722 90.9783C73.9466 92.7825 74.9389 94.5725 75.9955 96.4944C75.4529 96.3233 74.9818 96.1735 74.507 96.0237C74.3357 95.8918 74.1822 95.7171 73.993 95.628C69.9811 93.8273 65.9762 92.0088 61.9393 90.2616C61.1326 89.9122 60.8185 89.4986 60.7578 88.6107C60.6293 86.7423 61.0434 84.7562 59.787 83.0732C59.6906 82.9448 59.712 82.7309 59.6727 82.5562C59.1373 80.0852 59.5906 77.796 60.8863 75.6388C61.1505 75.2002 61.4182 74.6475 61.3789 74.1697C60.9363 68.5359 60.4402 62.9093 59.9476 57.2791C59.9297 57.0723 59.8191 56.8726 59.687 56.4875C59.1552 56.9261 58.7233 57.2791 58.2878 57.6392C56.6209 59.0227 54.9719 60.4276 53.28 61.7825C52.484 62.4172 51.5881 62.9307 50.7814 63.5511C50.5423 63.7365 50.3674 64.0931 50.2996 64.3997C49.6107 67.5696 48.8397 70.7288 48.3079 73.9237C47.7618 77.2184 48.0473 80.4881 49.318 83.6259C50.321 86.1076 51.9201 87.6943 54.797 87.9653C56.2961 88.1079 57.7774 88.7961 59.1944 89.4023C64.2951 91.5916 69.3671 93.8487 74.4464 96.0808L74.4321 96.0844ZM94.4277 15.853C94.4384 15.607 94.6882 14.9224 94.4562 14.6407C92.9 12.7687 91.2474 10.9716 89.5912 9.18519C89.4591 9.04256 88.9737 9.05326 88.7881 9.18519C88.6453 9.2886 88.6096 9.7343 88.706 9.94825C89.352 11.3995 89.9981 12.8543 90.7548 14.252C90.9939 14.6942 91.5115 15.0793 91.9862 15.2789C92.6252 15.5499 93.3533 15.6141 94.4277 15.853ZM80.3287 21.2764C80.1573 21.148 79.9825 21.0161 79.8111 20.8878C77.8016 21.9539 77.5624 24.1753 76.5416 25.8868C76.6665 25.9724 76.795 26.058 76.9199 26.1436C78.055 24.5212 79.1936 22.8988 80.3287 21.2764ZM87.4496 8.04417C87.5424 8.02278 87.6352 8.00495 87.728 7.98356C87.6387 7.64125 87.6423 7.2205 87.4389 6.97447C86.8178 6.22211 86.1503 5.49828 85.4257 4.84576C85.2187 4.66034 84.7547 4.75662 84.4085 4.72453C84.512 5.0704 84.5084 5.5268 84.7333 5.74074C85.5971 6.55015 86.5394 7.28112 87.4496 8.04061V8.04417Z" fill="#0E1079"/>
<path d="M74.6929 101.651C75.1819 101.922 75.6424 102.31 76.1635 102.435C77.7911 102.824 78.0945 103.968 78.1802 105.416C78.455 110.087 77.734 114.583 75.7066 118.794C74.7393 120.805 74.4002 122.674 75.3997 124.735C75.7423 125.441 75.7494 126.307 76.0707 127.028C76.3598 127.673 76.856 128.229 77.2807 128.81C78.0838 129.912 79.0119 130.939 79.6865 132.112C81.0071 134.412 82.1886 136.794 83.4272 139.14C83.5093 139.297 83.6984 139.45 83.6913 139.597C83.5949 141.144 84.7407 142.157 85.376 143.358C86.7788 146.011 85.7223 149.056 84.2445 150.957C83.884 151.42 82.9382 151.428 82.0672 151.709C82.0494 151.296 81.9994 150.935 82.0244 150.579C82.0637 149.958 82.235 149.334 82.185 148.725C82.1565 148.347 81.903 147.812 81.6068 147.687C81.3569 147.58 80.8394 147.894 80.5467 148.14C80.1112 148.507 79.8185 149.049 79.3652 149.392C79.1225 149.577 78.6799 149.502 78.3265 149.545C78.4051 149.235 78.3801 148.803 78.58 148.636C79.9435 147.477 80.0041 146.075 79.5044 144.507C79.2831 143.822 78.9833 143.415 78.273 142.995C77.4199 142.488 76.9452 141.34 76.1813 140.299C75.5139 140.167 74.5359 139.975 73.5579 139.782C73.233 142.788 72.8511 145.783 72.6263 148.789C72.5656 149.584 72.9511 150.429 73.2152 151.224C73.9505 153.414 74.7179 155.592 75.4996 157.767C76.831 161.479 76.6382 165.212 75.6317 168.935C73.8969 175.364 72.7476 181.871 72.8333 188.561C72.8404 189.184 72.8154 189.808 72.8618 190.429C72.9939 192.208 73.4329 193.823 75.007 194.957C76.8452 196.284 78.6014 197.717 80.4289 199.058C82.2707 200.406 82.4956 201.39 81.4033 203.066C81.6211 203.797 82.0744 204.478 81.9173 204.966C81.6318 205.847 80.7466 206.061 79.8221 205.982C75.1605 205.579 70.4989 205.202 65.8409 204.802C64.5987 204.695 63.3388 204.645 62.1252 204.381C61.5398 204.253 61.0472 203.697 60.5154 203.333C60.9865 203.009 61.4399 202.663 61.9289 202.37C62.1466 202.238 62.4321 202.217 62.7177 202.135C62.6035 201.151 62.0038 201.008 61.1543 201.019C56.9639 201.087 52.7699 201.133 48.5794 201.13C47.5193 201.13 46.4449 200.987 45.3991 200.787C45.0565 200.719 44.7887 200.256 44.4854 199.974C44.7887 199.7 45.0672 199.393 45.4027 199.158C45.5704 199.04 45.8274 199.058 46.0487 199.019C47.8263 198.698 47.6942 198.68 47.3266 196.918C46.5913 193.406 45.9524 189.905 47.4729 186.343C48.583 183.74 49.3897 180.994 50.1428 178.263C50.489 177.004 50.3248 175.614 50.4997 174.298C51.1351 169.523 53.3231 165.344 55.5575 161.176C56.6498 159.137 57.7741 157.101 58.6593 154.972C59.7515 152.344 59.1947 149.659 58.5915 146.981C57.9633 144.193 56.3428 141.964 54.7045 139.753C52.8198 137.208 51.6205 134.455 51.6883 131.239C51.749 128.461 52.545 125.897 54.0513 123.562C55.1542 121.85 56.4891 120.246 57.3279 118.416C57.9918 116.969 58.3274 115.25 58.3452 113.646C58.3809 109.823 58.1703 105.994 58.0061 102.171C57.9097 99.907 57.7063 97.6499 57.5457 95.3037C58.0954 95.4 58.5201 95.4749 58.9449 95.5497L58.8985 95.507C61.7825 96.705 64.6451 97.953 67.5506 99.0905C69.9278 100.021 72.3514 100.831 74.7536 101.69L74.6965 101.64L74.6929 101.651ZM62.1966 191.566C62.3322 191.295 62.4536 191.11 62.5249 190.907C63.9634 186.681 63.2567 182.174 64.2275 177.885C64.2382 177.846 64.2204 177.796 64.2132 177.753C63.8028 174.765 64.0205 171.82 64.6559 168.874C64.8486 167.99 64.7736 167.024 64.6808 166.111C64.6451 165.758 64.2133 165.444 63.9634 165.109C63.7028 165.43 63.3245 165.712 63.1996 166.079C62.2751 168.814 61.2935 171.534 60.5439 174.316C59.5552 177.981 57.8883 181.461 57.9561 185.416C58.0204 189.006 58.5701 190.079 62.2001 191.563L62.1966 191.566ZM58.6236 198.969C56.3321 196.066 53.3267 195.763 51.0423 197.924C50.846 198.109 50.771 198.416 50.6354 198.669C50.8959 198.79 51.1529 198.997 51.4242 199.015C52.9305 199.118 54.4403 199.222 55.9502 199.236C56.7497 199.243 57.5528 199.083 58.6236 198.969ZM64.4524 203.108C66.9331 203.379 69.4138 203.65 71.8945 203.921C71.2592 203.137 70.606 202.57 69.8457 202.242C68.9462 201.853 67.4935 201.151 67.1009 201.504C66.2835 202.231 65.3483 202.274 64.5059 202.688C64.4631 202.709 64.481 202.852 64.456 203.108H64.4524Z" fill="#0E1079"/>
</svg>
