<svg width="153" height="119" viewBox="0 0 153 119" fill="none" xmlns="http://www.w3.org/2000/svg">
<path d="M69.1186 61.7C66.6095 62.8436 66.4498 62.4139 65.7684 60.0805C65.3177 60.4854 64.9202 60.8477 64.3417 61.3662C63.7455 60.3256 63.3268 59.2317 62.5992 58.4149C61.9001 57.63 60.8816 57.1292 59.8985 56.426C60.9206 55.7051 62.1166 55.3286 61.8753 53.7163C61.2719 53.8725 60.7219 54.0146 60.1789 54.1566C59.6856 52.5265 59.8879 52.1927 61.5026 51.9689C61.6304 51.9512 61.8043 51.9618 61.8788 51.8837C62.2018 51.5498 62.4999 51.1876 62.9328 50.6904C59.753 49.5255 59.1568 46.2617 57.2901 44.0242C54.4616 40.6396 51.4238 37.5143 47.5661 35.3017C47.0906 35.0283 46.4837 34.8933 45.9301 34.8614C40.0886 34.5275 34.2329 34.4068 28.4127 33.8634C24.5515 33.5011 20.7507 32.5209 16.9143 31.8852C15.257 31.6117 13.5748 31.4768 11.8997 31.3418C11.4951 31.3099 10.9805 31.4164 10.6753 31.6615C9.02155 32.9897 7.41391 34.3784 5.79206 35.7492C5.55428 35.9481 5.352 36.2287 5.08228 36.3388C4.83031 36.4382 4.40799 36.4666 4.24474 36.321C4.09214 36.1825 4.0673 35.7031 4.19151 35.5006C4.53575 34.9395 4.98291 34.4352 5.40168 33.9202C6.43796 32.6559 6.15405 31.4519 4.6919 30.7097C3.36107 30.0384 2.04797 29.3317 0.763274 28.5823C0.440325 28.3941 0.248685 27.9857 -0.00683594 27.6767C0.064142 27.5204 0.13512 27.3641 0.206098 27.2079C1.67889 27.4103 3.15523 27.6163 4.63512 27.8187C4.50736 27.5133 4.35831 27.1688 4.08504 26.5224C5.41943 26.8847 6.50894 27.183 7.87526 27.5524C7.45294 26.6432 7.15838 26.0146 6.86738 25.386C6.96674 25.2865 7.06966 25.1871 7.16903 25.0876C7.5807 25.3966 8.12014 25.6275 8.3792 26.0359C8.96477 26.9522 9.76327 27.1297 10.7605 27.1262C15.949 27.1049 21.1375 27.0516 26.326 27.1724C28.434 27.2221 30.5492 27.5701 32.6253 27.9715C35.6702 28.561 38.6229 28.0034 41.5791 27.4956C43.3607 27.1901 45.0996 26.6325 46.8741 26.2951C47.5306 26.1708 48.251 26.3094 48.936 26.3875C50.5649 26.5757 51.9454 25.972 53.365 25.1196C50.9411 22.4098 50.5046 19.1176 50.3733 15.7294C50.3236 14.5148 50.1107 13.2931 50.1816 12.0856C50.5081 6.63761 55.4695 2.95826 60.2889 3.71473C61.4813 3.90296 62.6773 4.83345 63.6142 5.69647C64.8812 6.86491 66.173 8.16121 66.9537 9.66704C67.6493 11.006 67.7877 12.6894 67.9048 14.2449C67.9403 14.7137 67.0283 15.2109 66.6592 15.7685C66.2865 16.3368 66.0807 17.0115 65.7436 17.6082C65.3177 18.3647 64.8031 19.075 64.395 19.8385C64.143 20.3073 64.0152 20.84 63.6816 21.7634C66.1765 21.1135 68.2775 22.2962 70.5843 21.1881C72.2913 20.3677 74.4632 20.5204 76.4222 20.2043C77.1462 20.0871 77.8914 19.9486 78.5657 19.6752C80.8548 18.7376 83.1544 17.8106 85.3761 16.7274C86.5862 16.1379 87.5941 15.1506 88.7794 14.5006C90.7881 13.4032 92.8145 12.3023 94.9297 11.4428C97.3855 10.4448 99.9691 9.76648 102.453 8.83599C104.519 8.06176 106.51 7.08865 108.554 6.2576C109.729 5.77815 110.3 4.91514 110.669 3.73959C111.045 2.53563 111.638 1.40271 112.238 0.00341797C113.597 1.42402 111.908 2.64573 112.543 4.05568C113.678 2.82331 114.782 1.62645 115.882 0.433149C116.374 0.899579 116.262 1.78035 115.545 3.07546C116.095 2.5747 116.709 2.12721 117.185 1.56252C117.827 0.802505 118.491 0.834468 119.616 1.43822C118.775 2.63863 118.008 3.83193 117.135 4.94355C116.482 5.7746 115.613 6.43873 114.981 7.28043C114.037 8.54477 114.271 9.08459 115.723 9.62087C116.464 9.89434 117.21 10.1998 117.88 10.6117C118.129 10.7645 118.171 11.2546 118.31 11.592C117.969 11.6381 117.572 11.8228 117.291 11.7092C114.374 10.5443 111.358 10.6757 108.384 11.1871C106.897 11.4428 105.441 12.146 104.096 12.8776C101.882 14.0851 99.7526 15.456 97.6233 16.8091C95.2278 18.3291 92.7932 19.6894 90.0748 20.6447C87.6331 21.5006 85.408 22.9603 83.0764 24.1358C80.9825 25.1942 78.9029 26.2845 76.7664 27.2469C75.6059 27.769 74.9494 28.4047 75.2439 29.7579C75.3646 30.3154 75.2865 30.9121 75.3682 31.4803C75.4498 32.0415 75.4427 32.7766 75.7905 33.1105C77.1994 34.4671 78.2286 36.0582 79.1761 37.7452C79.2897 37.9512 79.9711 37.9902 80.3224 37.8837C83.6832 36.8786 86.8559 37.8126 88.6765 40.7533C89.4573 42.0141 89.6099 43.662 90.0677 45.1891C98.1734 46.1906 105.52 49.5894 113.033 52.459C114.718 53.1018 116.34 53.2155 118.058 52.5585C120.936 51.454 123.892 51.4149 126.77 52.4626C128.917 53.2439 131.011 54.2064 133.034 55.2718C134.695 56.1455 136.356 56.4722 138.152 56.0283C142.297 55.0054 145.966 55.8187 149.093 58.7913C149.508 59.1856 149.913 59.6046 150.246 60.0663C150.974 61.0714 151.268 62.4494 152.741 62.8045C152.919 62.8471 152.997 63.2946 152.99 63.2804C152.273 63.7173 151.694 64.0937 151.094 64.4276C149.792 65.1521 148.443 65.3154 146.999 64.8395C144.025 63.8558 141.03 62.943 138.059 61.9451C136.81 61.526 135.646 60.7447 134.376 60.5138C132.605 60.1906 130.763 60.1018 128.956 60.1338C124.464 60.2119 119.932 60.0876 115.598 61.6325C115.354 61.7213 115.073 61.7675 114.814 61.7497C112.443 61.597 110.069 61.4905 107.709 61.2277C106.581 61.1034 105.498 60.5884 104.37 60.3966C102.499 60.0841 100.611 59.9101 98.7341 59.6508C95.4088 59.1891 92.0799 58.7274 88.7581 58.2302C87.2392 58.0029 86.1568 58.8269 86.0219 60.3256C85.9687 60.9222 85.8055 61.5438 85.5428 62.0836C84.1943 64.8715 82.8386 67.6594 81.3942 70.4012C80.8406 71.4524 80.0811 72.3971 79.3713 73.3596C77.8737 75.3839 78.0511 77.284 79.9036 79.01C81.5894 80.5833 83.2148 82.2277 84.9395 83.7513C86.5046 85.1328 87.5764 86.8127 88.5239 88.6452C89.7022 90.9217 90.9265 93.1982 92.3922 95.2936C93.1375 96.3626 94.4648 97.0161 95.5046 97.8898C96.115 98.4012 96.7822 98.8948 97.2294 99.5306C98.0385 100.685 98.5602 102.063 99.4616 103.128C100.878 104.805 101.506 106.697 101.705 108.818C101.8 109.83 102.084 110.831 102.123 111.844C102.148 112.494 101.996 113.207 101.726 113.804C101.321 114.699 101.701 115.764 102.677 115.935C103.33 116.049 104.029 115.963 104.65 116.152C105.03 116.269 105.307 116.734 105.63 117.043C105.317 117.267 105.016 117.661 104.689 117.686C98.5886 118.137 92.4809 118.496 86.3839 118.986C84.826 119.11 83.7648 118.496 82.7286 117.48C83.1296 116.578 83.1012 115.839 82.725 114.806C81.7384 112.089 81.9975 110.853 84.8047 110.228C87.2641 109.677 88.4671 107.912 89.3437 105.834C89.5176 105.422 89.3153 104.57 88.9746 104.272C88.0235 103.43 87.3705 102.652 87.1363 101.249C86.895 99.8076 86.1107 98.2769 85.1276 97.1759C82.5334 94.2708 79.5523 91.7031 77.0007 88.7589C74.0693 85.3814 71.2905 81.8512 68.7495 78.1754C67.8374 76.8543 67.628 74.9436 67.4257 73.2601C67.0921 70.5113 67.479 67.7837 68.281 65.1166C68.5969 64.0724 68.7992 62.9928 69.1079 61.6965L69.1186 61.7ZM99.5006 115.445C99.3871 115.281 99.2735 115.118 99.16 114.951C96.91 115.072 94.66 115.178 92.4135 115.338C92.126 115.36 91.8563 115.661 91.5795 115.835C91.7818 116.13 91.9238 116.528 92.2041 116.695C92.559 116.908 93.0452 117.064 93.4462 117.015C95.1603 116.809 96.8709 116.553 98.5637 116.226C98.9115 116.159 99.1883 115.715 99.4971 115.441L99.5006 115.445ZM85.1702 116.595C86.281 117.455 88.3607 117.721 89.1805 117.135C89.3969 116.979 89.4111 116.539 89.5389 116.166C88.0129 116.315 86.7104 116.443 85.1702 116.592V116.595Z" fill="#0E1079"/>
</svg>
