<svg width="100" height="135" viewBox="0 0 100 135" fill="none" xmlns="http://www.w3.org/2000/svg">
<path d="M65.6111 29.6229C65.2281 28.0943 65.0755 26.747 64.5542 25.5597C63.5859 23.3663 63.6178 21.0912 63.5114 18.7877C63.4334 17.1133 63.2454 15.4176 62.8517 13.7895C62.5184 12.4031 61.9792 11.1127 60.6279 10.1742C59.1312 9.13262 57.9147 7.68223 56.4605 6.29582C58.3084 5.2578 58.9929 7.27342 60.0888 7.46893C60.1988 5.01251 60.3087 2.58098 60.4258 -0.00341797C61.0429 0.442127 61.4803 1.80127 61.7381 4.07403C62.2807 2.73384 62.8234 1.39365 63.3625 0.0534601C63.5327 0.0605698 63.6994 0.0676796 63.8697 0.0747893C63.8945 0.62224 64.0222 1.18747 63.9229 1.71359C63.8165 2.27881 63.5008 2.80493 63.4299 3.40571L64.618 1.75269L65.033 1.95532L64.9479 3.31328C65.0507 3.2884 65.1536 3.25996 65.2564 3.23507C65.3983 3.54079 65.721 3.89273 65.6608 4.14868C65.0436 6.76862 65.6537 9.26059 66.4091 11.7277C67.5476 15.4567 68.9415 19.1254 69.8353 22.9113C70.3637 25.1438 70.1048 27.554 70.2538 29.8824C70.4701 33.2418 70.6545 36.6118 71.0376 39.9534C71.1511 40.9452 71.7647 41.9512 72.3712 42.7937C73.3004 44.0842 74.3715 45.2857 75.4675 46.4446C77.9395 49.0574 78.9255 52.168 79.1419 55.7299C79.3334 58.8725 78.7198 61.9154 78.6063 64.9939C78.4538 69.146 78.883 73.3195 79.0816 77.4787C79.0958 77.7737 79.227 78.1043 79.4079 78.3425C80.5145 79.8213 79.8902 81.2042 79.2837 82.6368C79.1206 83.0207 79.1844 83.5504 79.2731 83.9876C80.1633 88.3673 81.089 92.7433 81.9757 97.1229C82.0608 97.5424 82.114 98.0899 81.919 98.424C81.0287 99.9384 81.6104 101.143 82.4226 102.473C83.5966 104.4 84.4655 106.518 85.682 108.413C86.6432 109.917 87.8207 111.328 89.1153 112.551C89.9097 113.301 91.0943 113.465 92.1761 112.69C93.0415 112.075 93.9424 111.502 94.8681 110.983C96.3435 110.152 97.1663 110.283 98.4219 111.438C98.546 111.552 98.6737 111.691 98.8227 111.751C100.174 112.313 100.284 112.516 99.5497 113.863C97.1841 118.196 94.5808 122.37 91.0837 125.903C90.6936 126.298 90.2538 126.643 89.8353 127.012C89.7182 126.959 89.6012 126.909 89.4877 126.856C89.5621 126.444 89.7466 126.013 89.6827 125.626C89.5976 125.1 89.4664 124.346 89.1011 124.144C86.5262 122.693 84.7847 120.731 84.008 117.766C83.3093 115.107 81.7381 112.846 79.7306 110.927C76.7727 108.093 75.2582 104.588 75.0915 100.518C74.939 96.7817 72.8251 94.0124 70.5907 90.9268C70.4346 91.6164 70.2715 92.0537 70.2467 92.4945C70.1899 93.4259 70.2077 94.3608 70.1828 95.2922C70.1048 98.3209 69.7076 101.19 68.2002 103.98C65.7955 108.435 63.9973 113.177 63.5717 118.314C63.3093 121.502 64.4265 124.2 66.6893 126.394C67.6079 127.286 68.6755 128.025 69.7147 128.786C71.3958 130.016 71.5377 130.482 70.6723 132.476C71.1227 132.864 71.5873 133.258 72.4031 133.959C71.4455 134.353 70.7148 134.876 69.9523 134.929C65.1749 135.267 60.518 134.293 55.8611 133.415C55.4143 133.329 55.0525 132.778 54.6517 132.444C54.7297 132.33 54.8078 132.217 54.8858 132.099C55.2617 132.128 55.6377 132.16 56.3293 132.217C56.1981 130.187 56.0668 128.203 55.9214 125.935C55.2582 126.198 54.8716 126.337 54.4992 126.504C51.6725 127.759 48.8634 129.06 46.0048 130.24C45.4338 130.475 44.6712 130.247 43.9973 130.233C44.0151 129.622 44.047 129.01 44.0505 128.399C44.0505 128.118 44.0931 127.773 43.9583 127.563C43.2632 126.468 43.444 125.441 44.1534 124.474C45.909 122.085 47.2142 119.49 47.6646 116.54C47.764 115.9 47.5015 115.196 47.3667 114.528C46.7673 111.577 46.1715 108.627 45.5437 105.683C44.4691 100.66 43.4476 95.6192 42.2453 90.6282C41.692 88.3353 41.1422 86.0921 41.1529 83.6997C41.1635 81.5028 40.8585 79.3059 40.6847 77.0379C40.3655 77.1374 40.2591 77.141 40.2484 77.1765C37.7515 85.2852 33.8679 92.8322 30.6474 100.646C29.3103 103.884 26.9589 106.693 25.2103 109.778C23.5398 112.725 22.075 115.793 20.4648 118.776C20.0747 119.497 19.5746 120.251 18.9291 120.72C17.4997 121.762 15.9179 122.594 14.4637 123.607C14.2084 123.785 14.1552 124.449 14.2367 124.844C14.2899 125.121 14.7829 125.281 14.9815 125.562C15.244 125.932 15.4143 126.369 15.62 126.778C15.0915 126.735 14.3963 126.895 14.0559 126.618C11.4809 124.517 8.93083 122.38 6.46585 120.151C4.6251 118.488 2.91558 116.675 1.1635 114.915C-0.099139 113.65 -0.0884987 113.639 0.0675573 112.029C1.28409 111.396 2.32682 110.468 3.4405 110.368C4.69604 110.258 6.17502 110.624 7.27096 111.271C9.29969 112.466 11.2078 112.619 13.2614 111.573C13.7331 111.332 14.1764 111.022 14.6588 110.802C15.4533 110.439 16.2938 110.212 16.2726 109.032C16.2655 108.694 16.7053 108.193 17.0599 108.022C19.2873 106.959 19.8157 104.659 20.7521 102.757C22.0573 100.102 23.0787 97.2936 24.008 94.4817C24.43 93.2055 24.2775 91.7515 24.4974 90.3971C24.7883 88.609 25.2564 86.8493 25.526 85.0612C25.9906 82.0005 26.4517 78.9326 26.746 75.8505C27.0156 73.0066 27.764 70.3085 29.282 67.9445C31.9987 63.7106 32.6301 59.0466 32.6088 54.1871C32.6088 54.0982 32.584 54.0023 32.6088 53.9205C33.6586 50.0101 30.9241 47.5253 29.133 44.692C28.9911 44.4681 28.6577 44.2903 28.3846 44.2441C25.4231 43.7073 22.7276 42.5805 20.3194 40.7497C19.5036 40.1311 19.188 38.8158 19.9399 38.0871C21.3586 36.7113 22.8908 35.4458 24.3839 34.1447C24.5471 34.0025 24.7634 33.9172 24.9514 33.7999C27.5157 32.2251 30.2644 31.0804 32.208 28.4392C33.8785 26.1676 36.7053 25.1509 39.6349 25.1793C40.6528 25.19 41.6636 25.6912 42.685 25.9294C43.0291 26.0076 43.3979 25.9685 43.7562 25.9827C43.7278 25.6166 43.7916 25.2078 43.6533 24.8878C42.2985 21.724 41.5891 18.5282 42.9901 15.1795C43.0929 14.9342 43.2348 14.7031 43.3128 14.4507C43.9867 12.2929 45.7849 10.8176 48.0264 10.6221C50.651 10.391 53.1089 10.7607 54.2687 13.4873C54.7617 14.6498 54.595 16.0788 54.829 17.3693C55.2121 19.4809 54.5063 21.2085 53.6586 23.1495C52.7613 25.2007 52.811 27.6109 54.4283 29.7971C56.4854 32.5841 56.6485 35.8226 55.8292 39.1927C55.0844 42.2676 54.0842 45.1897 52.6762 48.0479C51.5625 50.3088 51.0482 52.8718 50.3282 55.3176C50.2147 55.7051 50.3531 56.2063 50.4879 56.6187C50.995 58.1401 51.5058 58.2397 52.7152 57.2301C53.8963 56.2454 55.1589 55.3531 56.3577 54.3862C56.6521 54.148 56.9961 53.7961 57.0493 53.4513C57.3047 51.7769 58.4503 50.6749 59.3263 49.3489C60.4506 47.6461 61.2202 45.691 62.0005 43.7856C62.3729 42.8755 61.0748 41.0021 59.8264 40.6146C58.4715 40.1951 58.0991 39.214 57.9963 37.9982C57.8438 36.1675 57.7196 34.3331 57.5813 32.5024C57.5742 32.4171 57.5707 32.2926 57.521 32.2571C56.5315 31.6101 56.6024 30.828 57.2656 30.014C58.092 29.0008 59.1702 28.297 60.4861 28.4818C62.1069 28.7093 63.6923 29.1857 65.6182 29.6265L65.6111 29.6229ZM55.1873 125.061C55.2724 125.011 55.5207 124.961 55.5951 124.819C56.4464 123.184 56.152 121.061 57.7693 119.736C57.9005 119.629 57.8189 119.227 57.7941 118.968C57.7374 118.349 57.6629 117.731 57.5884 117.116C57.067 112.757 56.8684 108.424 59.1844 104.439C60.7202 101.798 61.0074 98.9253 60.9117 95.9747C60.784 92.171 60.6031 88.3708 60.3903 84.5742C60.3655 84.1618 60.0002 83.7388 59.7164 83.3798C59.0461 82.5302 58.092 82.3666 57.0706 82.196C55.5632 81.9436 55.0312 81.126 55.5739 80.0098C57.1521 76.7464 58.7163 73.4688 60.4825 70.312C61.1777 69.0714 62.4935 68.1969 63.3554 67.0273C64.3236 65.7191 66.0899 64.5034 64.9018 62.5482C63.7952 60.7245 62.419 59.0715 61.1777 57.3652C58.6737 59.0537 56.3861 60.5575 54.1481 62.1394C53.8289 62.3633 53.6161 62.957 53.6161 63.38C53.6161 64.7807 53.8998 66.1991 53.7508 67.5748C53.5948 69.0074 52.9776 70.3831 52.7116 71.8122C52.2116 74.4677 51.8108 77.141 51.3852 79.8107C50.4914 85.4487 50.9028 90.9268 53.1337 96.252C53.7544 97.7379 54.1091 99.398 54.258 101.012C54.7404 106.227 55.1695 111.453 55.4249 116.682C55.5597 119.43 55.283 122.199 55.1908 125.061H55.1873ZM12.9174 122.675C12.6372 121.851 12.3038 121.367 12.3534 120.923C12.5095 119.465 12.2293 118.943 10.8744 118.495C9.71111 118.111 8.56906 117.656 7.40928 117.268C7.16101 117.183 6.86309 117.24 6.58644 117.229C6.66092 117.524 6.63964 117.926 6.82762 118.1C8.48394 119.622 10.1615 121.115 11.8746 122.569C12.0839 122.746 12.5343 122.643 12.9174 122.675ZM33.1443 37.4188C32.1229 37.7209 31.261 37.9733 30.2538 38.2719C31.9562 39.1998 32.9422 38.9331 33.1443 37.4188ZM4.75988 116.106C4.90529 115.967 5.05071 115.825 5.19613 115.686C4.39811 114.816 3.59655 113.941 2.79854 113.07C2.65667 113.209 2.5148 113.347 2.36938 113.486C3.1674 114.361 3.96541 115.235 4.75988 116.11V116.106ZM92.357 120.823L92.9918 121.197C93.3572 120.567 93.7225 119.935 94.0878 119.305C93.8785 119.184 93.6728 119.064 93.4635 118.939L92.357 120.823Z" fill="#0E1079"/>
</svg>
