<svg width="84" height="205" viewBox="0 0 84 205" fill="none" xmlns="http://www.w3.org/2000/svg">
<path d="M19.1968 26.0289C18.9758 26.3061 18.7584 26.5833 18.6907 26.6686C17.7319 26.5939 16.9051 26.5335 16.0782 26.466C14.6561 26.3487 15.1194 25.0764 14.845 24.3194C14.5278 23.4345 14.6097 22.411 14.3246 21.5119C14.1535 20.9681 13.6153 20.5345 13.2233 20.069C13.1235 19.9517 12.8384 19.909 12.8241 19.8095C12.4427 16.7638 11.3272 13.7217 12.6815 10.6511C12.7493 10.4948 12.9096 10.381 13.0023 10.2318C13.0629 10.1323 13.0807 10.0043 13.1271 9.86215C12.8847 9.82662 12.6851 9.80174 12.2752 9.74488C12.7136 9.23311 12.9952 8.68937 13.4407 8.42993C14.7488 7.66939 16.1495 7.06878 17.4575 6.30469C18.0456 5.95997 18.6159 5.46242 18.9865 4.89379C20.9005 1.95116 23.3776 0.909864 26.9168 1.46427C28.2426 1.67395 29.5507 1.37543 30.6199 0.383886C31.29 -0.238048 31.5787 -0.110107 31.7248 0.796139C32.042 0.739276 32.3557 0.682414 32.8226 0.600674C32.9794 2.26035 31.6357 2.82542 30.7625 3.75654C31.846 6.70984 34.3872 5.40911 36.4758 5.87823C36.0624 6.13766 35.6276 6.36511 35.2462 6.66364C34.8755 6.95506 34.5655 7.32111 34.2304 7.65518C34.6759 7.97148 35.1036 8.31265 35.567 8.59696C36.3725 9.09451 37.2065 9.55297 38.0156 10.047C38.0797 10.0861 38.0548 10.2744 38.0797 10.4841C36.8216 10.349 36.0553 8.64317 34.4229 9.54586C34.7757 9.95456 35.0787 10.2993 35.3745 10.6511C35.8307 11.1913 36.3618 11.6924 36.7253 12.2895C37.5807 13.6897 37.1495 14.4893 35.5563 14.6102C35.2961 14.6315 35.043 14.7097 34.6866 14.7808C36.2192 18.1534 35.82 21.6682 35.6454 25.311C37.5772 25.0231 39.3949 24.5611 41.2233 24.5185C44.7732 24.4367 48.4015 24.1808 51.8623 24.7779C54.5247 25.2364 57.0018 26.8498 59.5252 28.0226C60.4448 28.4491 61.2681 29.0852 62.1235 29.6432C66.6001 32.5681 70.1393 36.3921 72.8801 40.9482C75.0721 44.5909 74.2131 47.3239 70.3068 48.9978C66.4931 50.6326 62.5761 51.944 58.317 51.6454C58.1423 51.6348 57.9641 51.6845 57.7895 51.7094C57.5364 51.7449 57.2798 51.784 57.0054 51.8267C57.5543 55.2669 58.2029 58.6146 58.5985 61.9944C59.0405 65.7829 59.3328 69.5927 59.5145 73.4025C59.5858 74.8738 59.8959 76.1816 60.5802 77.4539C61.4 78.9785 62.07 80.5885 62.9718 82.0633C66.2936 87.4795 67.1561 93.5958 68.1647 99.68C68.5996 102.306 69.2269 104.911 69.4657 107.556C69.9326 112.67 70.2248 117.798 70.5171 122.923C70.7202 126.466 70.902 130.016 70.9198 133.563C70.9377 136.971 70.763 140.383 70.6062 143.788C70.3888 148.571 70.1108 153.351 69.8577 158.131C69.8435 158.398 69.8862 158.696 69.7793 158.92C68.6103 161.379 69.733 163.128 71.5186 164.699C75.1362 167.883 77.6062 171.974 80.3043 175.879C80.6428 176.37 80.6286 177.109 80.7783 177.731C80.8995 178.236 81.0242 178.737 81.2274 179.568C82.04 178.467 82.4784 177.304 83.9896 178.314C83.872 178.687 83.79 179.238 83.5334 179.693C80.7783 184.608 77.9876 189.509 75.2218 194.42C74.7477 195.262 74.3379 196.137 73.8674 197.057C72.9763 196.748 72.1459 196.46 71.3155 196.165C71.1907 196.122 70.9875 196.066 70.9697 195.984C70.5812 194.221 68.8063 193.77 67.7905 192.604C66.5395 191.175 66.5359 189.448 66.5359 187.65C66.4682 187.849 66.3755 188.044 66.3363 188.251C66.2936 188.467 66.3078 188.695 66.2829 188.915C65.8908 192.675 65.4096 196.424 63.4743 199.772C62.4443 201.556 60.7335 203.397 58.6912 203.795C58.6484 204.037 58.6556 204.318 58.5451 204.542C58.4453 204.741 58.2172 204.993 58.0425 204.997C57.8857 205 57.654 204.726 57.5649 204.527C55.0736 198.809 54.3786 192.903 55.6403 186.772C55.7472 186.253 55.6724 185.553 55.3908 185.127C53.7834 182.703 54.1398 180.172 54.7065 177.557C55.1556 175.478 55.4443 173.363 55.7045 171.252C55.7757 170.687 55.6082 170.023 55.3552 169.497C52.1617 162.854 48.8435 156.269 45.7533 149.58C44.6627 147.221 44.1637 144.591 43.2762 142.128C41.2696 136.573 39.0705 131.086 37.1708 125.492C35.3638 120.165 33.4855 114.82 32.2986 109.34C31.347 104.95 31.151 100.352 31.0298 95.8383C30.8088 87.5079 27.9219 79.963 24.6393 72.5069C24.1938 71.494 23.2386 70.6908 22.4794 69.8308C21.3674 68.5727 20.2197 67.3502 18.9473 65.957C18.6123 66.483 18.3521 66.8633 18.1169 67.2613C16.3455 70.2821 14.1179 72.9191 11.4626 75.1936C7.47431 78.6089 4.57665 77.9941 2.42747 73.1892C-1.0761 65.36 -0.773145 57.616 3.11891 49.9787C5.15405 45.9805 7.068 41.9042 10.1474 38.56C11.8618 36.6977 13.8256 35.0594 15.4937 33.1616C16.9086 31.5481 18.1062 29.732 19.293 27.9373C19.5996 27.4718 19.4998 26.7432 19.5853 26.1355C19.4534 26.1 19.3216 26.0644 19.1861 26.0289H19.1968ZM56.1393 131.114C56.2355 126.938 55.0772 120.506 53.8903 118.765C54.318 122.983 54.3358 127.155 56.1393 131.114ZM73.8745 192.97C74.958 191.812 76.0308 190.813 75.5354 189.089C74.9687 190.322 73.4468 191.111 73.8745 192.97ZM77.8521 185.013C76.3124 185.07 76.0273 185.802 76.3409 187.007C77.6525 186.943 77.51 185.891 77.8521 185.013ZM79.3491 183.609C79.4346 183.627 79.5237 183.645 79.6092 183.662C79.9051 183.012 80.2009 182.365 80.5395 181.63C80.0655 181.413 79.7304 181.256 79.3491 181.082V183.609ZM26.1754 1.96537C26.1469 1.83388 26.1148 1.70239 26.0863 1.57444C25.1917 1.75569 24.2971 1.93694 23.4025 2.11819C23.4489 2.31721 23.4952 2.51623 23.5415 2.71525C24.4219 2.46648 25.2986 2.21415 26.179 1.96537H26.1754Z" fill="#0E1079"/>
</svg>
