<svg width="118" height="135" viewBox="0 0 118 135" fill="none" xmlns="http://www.w3.org/2000/svg">
<path d="M80.1962 132.419C81.7598 132.877 83.5117 131.936 84.2438 134.258C83.43 134.503 82.6446 134.936 81.8522 134.947C76.081 135.007 70.3063 135.039 64.5351 134.94C63.2984 134.918 62.0262 134.428 60.8499 133.963C59.7767 133.537 59.6701 132.39 60.5194 131.517C60.9743 131.052 61.2479 130.686 60.9992 129.933C60.2564 127.675 60.9565 126.465 63.2948 125.765C64.1371 125.513 64.9899 125.456 65.2032 124.278C65.26 123.962 66.184 123.649 66.7313 123.603C68.7817 123.422 68.7497 123.461 69.0198 121.452C69.0945 120.908 69.4285 120.397 69.6773 119.886C69.8798 119.47 70.1286 119.076 70.3489 118.686C68.3837 117.283 68.3944 117.287 68.9345 114.93C68.9949 114.67 68.9203 114.273 68.7497 114.088C67.3531 112.597 67.1044 110.694 66.8059 108.812C66.5713 107.325 66.3865 105.83 66.1484 104.342C65.3418 99.3043 66.7597 94.7882 69.3965 90.5668C70.3027 89.1182 71.2693 87.7052 72.0014 86.0258C70.6367 86.4909 69.2544 86.9063 67.9146 87.4318C66.8912 87.8365 66.319 87.6768 65.8748 86.5761C64.3716 82.8376 62.7191 79.1558 61.2444 75.4031C60.7184 74.061 60.5976 72.5663 60.1605 71.1781C60.0112 70.7023 59.5386 70.081 59.1051 69.9745C55.3524 69.0656 51.9337 67.4182 48.6466 65.462C47.9323 65.0359 47.321 64.4288 46.5996 64.017C46.1021 63.7365 45.498 63.527 44.9294 63.5057C43.746 63.4631 42.5556 63.598 41.3722 63.5732C41.1447 63.5696 40.864 63.1933 40.7183 62.927C39.7908 61.2548 38.9308 59.5293 36.7559 59.1778C36.5818 59.1494 36.4077 59.1103 36.2336 59.0997C36.1589 59.0961 36.0772 59.1565 35.8355 59.2523C36.2549 60.5269 36.6636 61.8122 37.1007 63.0903C38.3196 66.6514 39.5669 70.2053 40.7645 73.7734C41.0737 74.6894 41.2478 75.6516 41.4681 76.596C41.5037 76.7558 41.5108 77.0433 41.4219 77.0966C40.2776 77.796 41.0204 78.6375 41.262 79.4008C42.1398 82.1879 43.0851 84.9536 43.945 87.7442C44.4994 89.5478 43.9735 91.0709 42.7546 92.5337C42.058 93.368 41.6565 94.5184 41.3509 95.5941C40.5442 98.4025 39.8619 101.246 39.1334 104.076C39.1014 104.204 39.0445 104.332 39.041 104.463C38.9201 107.523 38.7709 110.584 38.7211 113.644C38.714 114.017 39.144 114.535 39.51 114.752C41.525 115.949 43.5648 117.113 45.6366 118.21C47.8115 119.36 48.5862 122.321 47.1434 124.327C47.4845 124.81 47.8363 125.304 48.3765 126.067C47.3175 126.447 46.4504 126.98 45.5442 127.047C39.3182 127.516 33.1205 127.068 26.9584 126.17C26.4716 126.099 26.1162 125.14 25.7004 124.594C26.1766 124.317 26.6244 123.965 27.1361 123.791C27.4844 123.674 27.9144 123.816 28.0068 123.823C27.5661 122.811 26.8767 121.775 26.667 120.653C26.0807 117.539 26.4538 114.475 27.6159 111.514C28.0352 110.445 28.3764 109.348 28.7921 108.28C28.9343 107.914 29.1049 107.417 29.4034 107.282C30.9421 106.572 30.5015 105.347 30.4197 104.122C30.1603 100.256 30.9599 96.5811 33.0495 93.3219C34.3572 91.2768 34.1475 89.2531 33.4795 87.2188C32.9748 85.6779 32.1042 84.2542 31.4077 82.8056C29.9897 83.0115 28.6536 83.2068 27.0686 83.434C27.0686 85.7773 26.8767 88.2945 27.1219 90.7691C27.3742 93.3219 26.7914 95.6793 24.5135 96.6486C21.2512 98.0332 20.0536 100.906 18.5824 103.657C18.2484 104.278 17.9392 104.939 17.7793 105.62C17.6442 106.192 17.8397 106.838 17.7153 107.417C17.5696 108.099 17.4275 109.015 16.9477 109.352C15.1318 110.623 15.0643 112.597 14.7196 114.425C14.6058 115.025 14.9221 115.878 15.3308 116.378C17.2889 118.785 19.3038 121.143 21.3756 123.45C22.5945 124.807 22.7509 125.975 21.7914 127.494C21.5675 127.849 21.468 128.453 21.6066 128.836C22.1077 130.232 21.8092 130.644 20.5121 131.354C17.9285 132.774 15.2562 132.131 12.6975 131.712C8.8169 131.077 5.0038 130.033 1.18004 129.085C0.710953 128.968 0.0855047 128.403 0.0179847 127.97C-0.117055 127.097 0.682523 127.061 1.36838 126.926C2.1573 126.77 2.90713 126.429 3.67472 125.943C2.19995 125.517 2.12532 124.576 2.30656 123.472C2.37052 123.081 2.39895 122.669 2.3492 122.275C1.93697 119.002 3.07415 116.112 4.44943 113.24C5.30586 111.447 6.109 109.721 7.47716 108.173C8.59302 106.916 9.30731 105.138 9.74086 103.472C10.9136 98.9528 12.829 94.9231 16.1517 91.5644C16.77 90.9396 17.2924 89.7928 17.1929 88.962C16.699 84.7903 16.0024 80.6399 15.3344 76.4895C15.2597 76.0315 14.9328 75.6125 14.7231 75.1758C14.5419 75.3143 14.3571 75.4563 14.1759 75.5948C14.0266 76.0244 13.8809 76.4575 13.6854 77.0256C12.4239 76.3155 11.1979 75.7688 10.5618 74.3308C10.1851 73.4859 9.38549 72.8361 8.87731 72.0337C8.65698 71.6858 8.48641 71.0822 8.63922 70.7592C10.018 67.8478 11.3613 64.9046 12.9356 62.0998C14.8191 58.7446 16.9513 55.528 18.9058 52.2084C19.2612 51.6048 19.4495 50.7953 19.4246 50.0923C19.3003 46.5029 18.92 42.917 18.9342 39.3311C18.9484 35.3866 19.9648 31.6623 22.7544 28.6906C23.8063 27.5687 25.0679 26.6278 26.2975 25.687C28.0707 24.3307 27.8824 22.939 26.5036 21.9164C21.532 18.2311 20.6969 10.9351 25.9243 5.93969C25.6862 5.75152 25.4623 5.5669 25.2314 5.39293C24.2043 4.60829 24.048 3.57868 24.7943 2.49226C26.0274 0.695766 29.6308 -0.490064 31.7524 0.205812C33.5861 0.809378 33.9805 1.42005 33.746 3.46152C34.1404 3.56448 34.5633 3.64614 34.9649 3.7846C38.1135 4.88167 39.8405 7.16103 40.4838 10.367C40.729 11.5813 40.5619 12.8274 41.4788 13.9707C42.2748 14.9648 41.0843 18.1211 39.9543 18.8418C39.7304 18.9838 39.4496 19.1826 39.3821 19.4099C39.0481 20.5566 38.7531 21.7141 38.4937 22.8786C38.2876 23.8017 38.7353 24.3982 39.6522 24.384C42.7652 24.3414 44.7269 27.3237 44.3821 29.8516C43.9237 33.2031 42.9962 36.4979 42.186 39.7962C41.8697 41.0779 41.3153 42.3028 40.8711 43.5561C40.5797 44.3798 40.6366 45.1076 41.3864 45.697C44.2293 47.9302 45.3665 51.1468 46.358 54.4274C46.8804 56.1493 48.1597 57.3138 49.67 57.7789C51.6352 58.386 53.7745 58.4322 55.8392 58.702C56.0418 58.7269 56.2621 58.6239 56.5428 58.5671C56.4433 56.3304 56.3474 54.1256 56.2408 51.7362C55.4341 51.2711 54.2578 50.5929 53.0816 49.9113C52.1434 51.3421 51.0417 51.4344 50.2244 49.8971C49.5172 48.5657 49.1299 47.0532 48.675 45.5975C48.3481 44.5537 48.1419 43.4709 47.8932 42.4057C47.1434 39.2139 46.852 35.9973 48.2734 32.9333C49.471 30.3451 51.7027 28.8717 54.4533 28.3391C59.0908 27.4408 62.8755 29.035 65.7007 32.7309C66.8165 34.1937 67.577 35.9263 68.4903 37.5417C68.6858 37.8896 68.764 38.3334 69.0269 38.6033C71.1627 40.7655 69.4214 42.7217 68.7604 44.9088C70.7114 47.0035 72.6055 49.3894 74.8514 51.3705C78.9915 55.0238 81.9908 59.6003 85.3703 63.8607C87.6802 66.7721 89.5885 69.9958 91.7172 73.0527C92.3213 73.9225 92.563 74.693 91.6141 75.5131C93.8245 78.4031 94.4144 81.7086 94.29 85.2057C94.2332 86.8034 94.2012 88.401 94.1017 89.9916C94.0129 91.4508 94.0946 92.7503 95.3455 93.8402C96.241 94.6213 96.0882 95.9208 95.3171 96.961C96.106 97.98 96.8771 98.9883 97.6625 99.9824C97.7371 100.075 97.8864 100.16 98.0037 100.16C99.7485 100.174 100.456 101.577 101.337 102.695C103.235 105.095 105.015 107.594 106.97 109.945C107.759 110.896 108.896 111.557 109.859 112.366C110.246 112.693 110.761 113.002 110.932 113.431C112.293 116.882 113.608 120.347 114.862 123.837C115.029 124.299 114.873 124.963 114.67 125.453C114.347 126.23 114.61 126.933 115.491 127.086C116.55 127.271 117.599 127.413 118.011 129.067H100.015C100.314 128.581 100.527 128.229 100.701 127.942C100.193 127.32 99.4713 126.699 99.084 125.914C98.4123 124.565 98.7748 123.695 100.068 122.907C100.559 122.609 101.063 122.325 101.543 122.013C101.803 121.842 102.026 121.622 102.183 121.494C101.55 120.244 100.985 119.119 100.402 118.004C100.31 117.83 100.136 117.599 99.9759 117.575C98.5545 117.365 97.9432 116.272 97.2929 115.203C96.7385 114.294 96.2659 113.311 95.5765 112.515C94.6134 111.397 93.5615 110.328 92.4066 109.412C91.0349 108.322 89.816 107.207 89.0448 105.564C88.5402 104.484 87.666 103.551 86.8522 102.645C85.4911 101.136 84.059 99.6877 82.6198 98.2534C82.3675 98.0013 81.8415 97.7031 81.5999 97.8025C79.7804 98.5516 78.0035 99.393 76.646 100.011C76.8024 101.403 76.8273 102.354 77.0334 103.27C77.3425 104.641 77.7939 105.979 78.1599 107.339C79.0839 110.751 80.022 114.163 80.8785 117.592C81.0277 118.189 80.8003 118.881 80.7328 119.524C80.7008 119.811 80.4876 120.198 80.6048 120.365C82.1613 122.588 81.9517 125.137 82.0334 127.636C82.0547 128.258 82.1933 128.875 82.1827 129.493C82.1613 130.459 81.9659 131.35 80.8642 131.723C80.6546 131.794 80.516 132.078 80.2033 132.415L80.1962 132.419ZM75.8464 129.781C73.4726 130.399 71.2764 130.967 68.9594 131.57C68.7924 132.241 68.9416 132.728 69.9829 132.703C72.3781 132.642 74.7732 132.653 77.1684 132.618C77.4563 132.614 77.7406 132.479 78.0248 132.405C78.0675 132.284 78.1101 132.16 78.1563 132.039C76.5359 131.932 75.6545 131.19 75.8464 129.781ZM13.92 128.517C11.9868 127.64 10.0927 126.66 8.09906 125.954C7.48427 125.737 6.58163 126.223 5.86379 126.511C5.74652 126.557 5.78206 127.548 5.9171 127.594C8.48996 128.435 11.0522 129.44 13.9235 128.52L13.92 128.517ZM112.471 127.083C110.989 127.349 109.99 126.834 109.141 125.79C108.97 125.581 108.512 125.35 108.338 125.439C107.716 125.751 107.144 126.174 106.618 126.628C106.579 126.664 107.048 127.59 107.293 127.597C108.921 127.626 110.552 127.523 112.179 127.438C112.282 127.43 112.375 127.21 112.471 127.086V127.083ZM61.9089 130.928C62.179 132.525 63.3091 132.948 65.7824 132.614C66.7703 132.483 66.5713 131.908 66.4327 131.187C64.9615 131.102 63.5116 131.02 61.9089 130.928ZM30.5406 124.164C32.8114 124.352 35.1355 124.544 37.4596 124.739C37.4738 124.654 37.488 124.565 37.5022 124.48C35.9031 123.845 34.3075 123.209 33.1099 122.733C32.09 123.301 31.3472 123.717 30.5441 124.164H30.5406ZM19.4211 128.588C18.4012 128.783 17.495 128.957 16.5852 129.131C18.3514 130.029 18.9591 129.894 19.4211 128.588Z" fill="#0E1079"/>
</svg>
