<svg width="111" height="135" viewBox="0 0 111 135" fill="none" xmlns="http://www.w3.org/2000/svg">
<path d="M68.555 90.2954C71.6896 92.8045 73.1251 95.9898 74.1652 99.4598C74.525 100.663 75.1483 101.869 75.932 102.844C77.6489 104.983 79.551 106.976 81.3747 109.03C81.4032 109.062 81.446 109.09 81.4638 109.13C83.0026 112.286 85.5352 114.675 87.6938 117.362C88.481 118.34 88.5772 119.903 88.8906 121.223C89.1043 122.113 89.2682 123.045 89.2397 123.953C89.2005 125.166 88.9904 126.38 88.7517 127.576C88.7161 127.765 88.0785 127.775 87.8612 128.003C87.448 128.437 86.8852 128.964 86.871 129.466C86.8603 129.818 87.6225 130.423 88.107 130.501C89.058 130.654 90.0732 130.412 91.0278 130.555C91.4909 130.622 92.0858 131.11 92.2603 131.548C92.5631 132.309 92.0715 132.786 91.2629 132.875C86.3153 133.416 81.3783 134.114 76.4164 134.448C70.9131 134.822 65.3884 134.911 59.8708 134.996C58.9482 135.011 57.8048 134.605 57.1316 133.989C55.5215 132.516 55.6391 131.882 56.982 130.16C57.3168 129.729 57.2812 129.017 57.4308 128.437C57.6196 127.693 57.6659 126.85 58.0648 126.234C58.478 125.597 59.1833 125.092 59.8565 124.682C63.4221 122.508 67.0198 120.383 70.6032 118.234C71.9532 117.426 72.0387 116.984 71.1268 115.696C70.2897 114.511 69.4348 113.465 68.9611 111.934C68.3342 109.895 66.9521 107.969 65.5201 106.322C63.0695 103.506 60.3267 100.948 57.705 98.2854C57.5269 98.1039 57.3025 97.965 57.014 97.7373C56.4975 98.6911 56.0665 99.6058 55.5358 100.453C53.4164 103.841 50.4136 106.35 47.1721 108.582C44.2798 110.575 41.3126 112.454 38.3668 114.365C37.3374 115.034 36.6677 115.881 36.0906 117.02C34.9544 119.259 32.81 120.572 30.7155 121.857C30.3487 122.081 30.1314 122.54 29.768 122.775C29.2872 123.088 28.7422 123.497 28.215 123.508C26.0386 123.554 23.8551 123.44 21.6787 123.44C20.4462 123.44 19.1959 123.448 17.9848 123.633C14.291 124.202 10.7931 123.899 7.32368 122.284C5.79201 121.568 3.86851 121.693 2.12312 121.437C1.29317 121.312 0.110571 121.657 -0.00341369 120.461C-0.0319099 120.141 1.18274 119.522 1.89871 119.358C2.99225 119.113 3.69397 118.757 4.28527 117.65C5.30757 115.742 7.30944 114.924 9.33623 114.479C13.632 113.536 17.9777 112.803 22.2593 111.813C23.9584 111.418 25.5542 110.575 27.1891 109.92C28.6638 109.329 30.1029 108.628 31.6132 108.144C33.3621 107.585 34.8297 106.72 36.0123 105.293C39.2787 101.357 42.6804 97.5273 45.8399 93.5092C47.108 91.897 47.9273 89.9253 48.857 88.071C49.0066 87.7721 48.7964 87.0816 48.5221 86.8111C45.9183 84.2665 46.4668 81.4513 48.8748 78.9635C49.3663 78.4546 49.9184 77.9919 50.5026 77.5933C57.6766 72.7211 65.3314 68.8168 73.6059 66.1583C74.386 65.9091 75.1412 65.5746 76.0317 64.9268C75.8678 64.8592 75.7076 64.7453 75.5401 64.7347C72.4625 64.546 69.3101 64.0585 66.3643 65.1795C59.9099 67.6317 53.5303 66.9982 47.1222 65.1475C45.5336 64.6884 44.0625 64.8094 42.6733 65.7668C41.8469 66.3362 41.6545 66.9413 42.0891 67.9129C42.4952 68.8204 42.7303 69.8383 42.8371 70.8312C42.8834 71.2583 42.5308 71.9772 42.1639 72.1516C40.9208 72.7389 39.5886 73.1375 38.2279 73.6322C37.779 74.0806 37.1984 74.5824 36.714 75.1661C36.4575 75.4757 36.2296 75.9242 36.226 76.3085C36.2189 77.5364 35.5457 77.8389 34.4913 77.7357C34.1387 77.7001 33.7611 77.7072 33.4369 77.5862C32.1902 77.12 31.1465 77.5115 29.907 77.8994C28.1972 78.4368 26.2523 78.2695 24.4072 78.3336C23.303 78.3728 22.1916 78.3158 21.0874 78.2162C20.489 78.1628 19.8513 78.0418 19.3242 77.7677C17.2689 76.7036 16.0222 74.86 14.8324 72.956C12.852 69.792 11.7014 66.6103 14.3694 63.3217C12.6347 61.4212 12.6596 60.439 14.3979 58.7128C15.0925 58.0224 15.7942 57.3391 16.5458 56.7127C18.0205 55.4848 19.6768 55.2001 21.3652 56.1717C22.4766 56.8123 23.6556 56.944 24.6779 56.4386C27.1215 55.2321 28.9488 56.1148 30.6692 57.7875C31.3496 58.4495 31.9159 58.3391 32.4218 57.4387C29.0414 54.0933 29.223 50.0146 30.1634 45.7794C30.2952 45.1851 30.2738 44.548 30.2632 43.9323C30.224 41.1349 30.0138 38.3269 30.1599 35.5402C30.281 33.266 30.0031 31.248 29.0378 29.1162C26.9612 24.5144 25.3048 19.724 23.3813 15.051C22.3519 12.5526 21.1016 10.1432 19.9938 7.67321C19.0855 5.64458 19.7837 3.47715 21.6609 2.26709C22.5442 1.69765 23.4882 1.19583 24.2825 0.519621C25.1695 -0.231328 25.9175 -0.11744 26.7973 0.466236C27.1143 0.676217 27.6629 0.829254 27.9728 0.697571C29.0271 0.249137 29.2622 0.911111 29.4118 1.65494C29.7574 3.38462 30.0388 3.80458 31.6345 3.56968C34.6373 3.12837 36.3186 4.75127 37.6223 7.0575C38.2528 8.17503 38.7052 9.39577 39.3036 10.5346C41.0739 13.9157 42.7837 17.3323 44.6823 20.6387C47.2861 25.1693 48.4331 30.0914 49.0244 35.2021C49.3556 38.0706 49.7867 40.9285 50.1179 43.8006C50.2212 44.6904 50.581 44.9609 51.4822 44.9609C58.2465 44.968 65.0143 44.9502 71.7751 45.0961C78.9205 45.2491 85.9698 46.2172 92.0751 50.2282C97.0121 53.4704 101.7 57.1042 106.348 60.7557C107.734 61.8448 108.799 63.4712 109.679 65.0372C111.802 68.8168 111.314 72.6179 108.468 75.8886C106.045 78.6682 103 80.59 99.566 81.8179C94.7608 83.5333 89.9557 85.2986 85.0436 86.6581C80.1743 88.007 75.1732 88.8789 70.2256 89.9609C69.7518 90.0641 69.2745 90.1495 68.5479 90.2918L68.555 90.2954ZM39.1967 39.6615C39.3428 39.6508 39.4888 39.6402 39.6349 39.6295C41.6154 35.0989 42.0535 30.6572 38.9901 26.3224C37.2341 23.8382 35.9161 21.1298 35.2358 18.1367C34.9615 16.9266 34.8439 15.6347 34.3239 14.5385C33.3657 12.5135 32.1973 10.5809 31.0432 8.6555C30.7298 8.13232 28.3717 7.89743 28.0974 8.37434C27.8552 8.7943 27.8766 9.60575 28.1331 10.0364C29.8749 12.9761 31.7307 15.8447 33.4975 18.7737C33.9712 19.5603 34.2455 20.4643 34.6231 21.3077C35.0719 22.3007 35.3818 23.404 36.023 24.2546C37.2234 25.849 37.7363 27.5324 37.8823 29.5326C38.1317 32.9243 38.7372 36.2876 39.1932 39.6615H39.1967ZM81.1717 126.021C80.2171 126.352 79.4726 126.661 78.6961 126.861C77.9374 127.056 77.111 127.031 76.3808 127.291C74.5 127.95 72.6442 128.686 70.8026 129.452C70.3111 129.654 69.9086 130.071 69.4669 130.391C69.9299 130.882 70.336 131.452 70.8703 131.84C71.1945 132.075 71.7216 132.114 72.1526 132.092C75.1661 131.943 78.1796 131.8 81.186 131.544C81.8912 131.484 82.6179 131.082 83.2163 130.662C83.5369 130.437 83.804 129.804 83.7221 129.437C83.6438 129.089 83.0988 128.622 82.7283 128.597C81.6561 128.519 81.3997 127.928 81.3747 127.017C81.3676 126.686 81.2429 126.355 81.1681 126.021H81.1717ZM66.7312 130.334C64.5905 130.334 62.5316 130.284 60.4834 130.388C60.1807 130.402 59.796 131.092 59.6891 131.53C59.6428 131.715 60.2056 132.26 60.5191 132.285C61.9724 132.388 63.4399 132.473 64.8861 132.349C65.8265 132.267 66.546 131.633 66.7312 130.334Z" fill="#0E1079"/>
</svg>
