<svg width="94" height="205" viewBox="0 0 94 205" fill="none" xmlns="http://www.w3.org/2000/svg">
<path d="M44.1123 127.083C42.95 130.825 41.8937 134.241 40.8232 137.649C40.6395 138.238 40.5158 138.906 40.152 139.367C37.3044 142.995 36.7851 147.323 36.6579 151.676C36.4318 159.415 34.5452 166.824 32.6057 174.241C32.4396 174.876 32.4608 175.64 32.641 176.275C33.609 179.719 33.2804 183.23 33.3264 186.727C33.3476 188.41 33.2875 190.124 33.5878 191.765C33.7998 192.926 34.3757 194.129 35.107 195.059C36.5413 196.888 36.3011 199.547 34.2944 200.732C33.4536 201.23 33.6973 201.851 33.874 202.447C34.2061 203.576 33.8457 204.332 32.8282 204.819C32.6127 204.922 32.3124 205.053 32.1217 204.982C30.4365 204.361 28.6877 203.853 27.1155 203.015C24.3563 201.542 21.6855 199.888 19.0252 198.233C18.4105 197.85 17.9724 197.175 17.4566 196.632C17.5378 196.504 17.6155 196.376 17.6968 196.249C18.3186 196.33 18.9404 196.412 19.7565 196.518C19.9473 196.05 20.1663 195.507 20.4277 194.868C18.8874 194.402 19.1206 193.43 19.4209 192.24C20.1592 189.311 21.1944 186.539 22.5192 183.812C24.2397 180.269 24.1726 176.382 24.1691 172.487C24.1656 165.45 24.1373 158.414 25.4904 151.434C26.0239 148.686 25.7872 145.786 25.9285 142.956C26.3418 134.716 26.9177 126.48 27.1155 118.233C27.2039 114.601 26.4725 110.955 26.2394 107.309C26.0168 103.783 25.9108 100.244 25.8437 96.7112C25.8048 94.6699 26.038 92.6569 27.0378 90.7859C27.225 90.4345 27.0519 89.7564 26.84 89.3374C25.3102 86.3411 23.8935 83.2666 22.1271 80.4158C19.0358 75.4277 17.1563 69.971 15.411 64.4327C15.0507 63.2931 14.708 62.1464 14.3087 61.0209C13.5951 59.0151 13.588 57.0802 13.9413 54.9252C14.3299 52.5324 14.0402 49.9798 13.74 47.5372C12.9486 41.0758 12.0512 34.6216 10.1081 28.3732C9.85022 27.546 9.65591 26.8182 8.59251 26.6087C8.15796 26.5235 7.70928 25.8951 7.49378 25.4123C6.02762 22.1426 4.62152 18.848 3.20483 15.5569C3.01405 15.1131 2.70316 14.6125 2.76322 14.183C3.04585 12.1309 1.80227 10.6825 0.926106 9.07776C0.629342 8.53813 0.353775 7.97365 0.162998 7.39141C-0.123167 6.51806 -0.0843051 5.74411 1.0003 5.39974C1.59029 5.21158 2.10256 4.84236 1.63975 4.13232C0.795388 2.84004 1.0003 1.54421 1.62915 0.00341797C2.95399 0.230632 4.38835 0.383291 5.77325 0.738312C8.63137 1.46966 11.4718 2.272 14.2911 3.13826C14.7539 3.28027 15.0719 3.89445 15.4569 4.29208C14.9835 4.48024 14.5137 4.67195 13.8601 4.93466C13.8601 5.61276 13.3725 6.69202 14.9623 6.93344C15.1955 6.96894 15.5029 7.51212 15.5205 7.83519C15.7996 12.9191 16.0222 18.0066 16.2978 23.0905C16.3437 23.9425 16.432 24.8585 16.7712 25.6218C18.9757 30.5495 21.3604 35.3955 23.4766 40.3587C25.0735 44.1006 25.1936 48.123 24.8368 52.1312C24.6284 54.4708 24.9499 56.5264 26.3489 58.5358C29.3872 62.8919 32.1252 67.4575 35.1882 71.7923C36.9688 74.313 39.1239 76.5709 41.1694 78.8963C41.3708 79.1235 42.0456 79.1128 42.4165 78.9779C44.8578 78.1081 44.8472 78.0904 46.4087 80.1814C47.5463 81.708 48.691 83.2275 49.8462 84.7399C51.7434 87.2286 52.3617 90.1469 52.7432 93.1717C52.9269 94.6166 53.1954 96.0722 53.6547 97.4461C53.8208 97.9396 54.6157 98.426 55.1986 98.5432C58.0002 99.1041 59.5653 96.3243 59.6077 94.1089C59.7101 88.7446 59.8444 83.366 59.5971 78.0087C59.3392 72.5094 60.664 67.2729 61.6285 61.9689C62.3315 58.0991 62.9886 54.2081 64.5679 50.5478C64.854 49.8875 64.7021 48.9822 64.5891 48.2118C64.3841 46.8165 63.9567 45.4533 63.8012 44.0545C63.6387 42.5918 63.1547 41.3492 62.2573 40.1812C61.6497 39.3895 61.254 38.4167 60.8583 37.4866C60.7347 37.1919 60.9148 36.7694 60.9572 36.4038C61.3211 36.4961 61.7698 36.4854 62.0242 36.702C62.4516 37.0641 62.759 37.5753 63.1158 38.0227C63.4055 38.3848 63.6917 38.7469 64.2287 39.4143C64.0697 37.5931 63.9107 36.173 63.8401 34.7529C63.7941 33.8725 63.8401 32.9778 63.9425 32.1045C63.9743 31.8169 64.2676 31.4548 64.529 31.3412C64.7056 31.2666 65.1932 31.5045 65.2815 31.7139C65.5818 32.4311 65.8538 33.1802 65.9775 33.9435C66.2142 35.4062 66.3414 36.883 66.7689 38.328C66.7689 36.2689 66.7477 34.2133 66.7795 32.1542C66.7901 31.4335 66.6593 30.4856 67.7581 30.4394C68.8179 30.3968 69.0758 31.3234 69.1324 32.0867C69.249 33.7198 69.1889 35.3671 69.2101 37.0073C69.2172 37.4653 69.2631 37.9233 69.2914 38.3812C69.415 38.399 69.5387 38.4132 69.6588 38.4309C70.1357 37.1706 70.5879 35.8996 71.0967 34.65C71.45 33.7802 71.7397 32.4133 72.9408 32.889C73.9619 33.2938 73.5662 34.5505 73.2941 35.4985C72.7395 37.412 72.1813 39.322 71.6513 41.2427C71.5559 41.5942 71.5877 41.9811 71.5524 42.5172C73.6474 41.5658 75.1948 39.6416 77.5548 40.1634C77.7421 40.3942 77.9258 40.6285 78.113 40.8593C77.6113 41.1291 77.0178 41.2995 76.6221 41.6829C74.0749 44.1361 71.2662 46.4899 70.4289 50.1182C69.8602 52.5963 69.6093 55.195 69.5599 57.7441C69.4327 64.596 68.4753 71.3521 67.5496 78.1152C66.942 82.5636 67.4118 86.8487 69.097 91.0167C70.2629 93.903 71.2662 96.8213 70.4148 100.041C70.2947 100.489 70.7257 101.106 70.9553 101.621C71.3086 102.416 71.7079 103.194 72.0682 103.939C73.4955 103.322 75.0464 102.644 76.6751 101.937C75.965 100.272 76.7846 99.1999 77.9646 98.2591C79.3778 97.1302 80.9888 96.6296 82.7765 96.7609C83.8293 96.839 84.7125 97.1763 85.2495 98.252C85.4367 98.6319 86.0409 98.8733 86.5037 99.0295C90.5594 100.411 93.9334 104.713 94.0146 108.977C94.0358 110.131 93.6755 111.494 93.0183 112.417C91.5769 114.441 89.92 116.33 88.1853 118.115C86.1044 120.256 81.4481 120.81 78.5758 119.45C77.6749 119.024 76.0569 119.727 75.9544 120.725C75.5693 124.573 73.8947 128.276 74.7038 132.277C74.8663 133.076 74.6084 134.056 74.2869 134.848C72.3297 139.662 72.3862 144.65 73.0716 149.648C73.6898 154.164 74.566 158.648 75.3079 163.15C75.4881 164.254 76.0109 165.127 77.0673 165.44C78.8761 165.972 80.7344 166.331 82.5468 166.842C83.0979 166.998 83.5784 167.417 84.0907 167.716C83.5608 168.039 83.0697 168.489 82.4973 168.649C81.7872 168.848 81.0135 168.823 80.2646 168.866C78.2119 168.986 78.0141 169.047 78.2296 171.145C78.4522 173.286 78.9221 175.419 79.4697 177.507C79.7134 178.444 79.7487 179.303 78.9998 179.761C78.2861 180.198 77.2051 180.581 76.4949 180.347C75.163 179.907 74.1314 178.895 73.6616 177.422C71.2521 169.835 68.553 162.355 65.603 154.96C64.6279 152.517 64.2958 149.734 64.105 147.075C63.886 144.078 64.2428 141.043 64.158 138.032C64.1333 137.173 63.6564 136.115 63.031 135.522C60.8477 133.442 58.2899 132.114 55.1951 131.77C52.7892 131.503 50.5069 130.712 48.4437 129.267C47.1436 128.358 45.5962 127.811 44.1229 127.083H44.1123ZM21.8586 197.793C23.8829 198.897 25.0912 201.159 27.7197 201.159C28.1436 200.353 28.2425 199.621 27.278 199.302C25.8048 198.812 25.0452 197.665 24.3316 196.43C24.102 196.036 23.8617 195.649 23.5367 195.109C22.9255 196.089 22.4415 196.863 21.8621 197.793H21.8586ZM12.4716 6.96539C12.5988 6.79143 12.7225 6.61747 12.8497 6.43996C12.2632 5.61276 11.8498 4.40213 11.0549 4.04001C9.69831 3.42582 8.10144 3.34772 6.50456 3.02465V4.49089C8.7091 3.69564 9.95621 4.92046 11.1433 6.4009C11.4082 6.73107 12.0194 6.78078 12.4752 6.96184L12.4716 6.96539ZM28.9279 200.076C29.0339 200.946 28.8855 201.95 29.2388 202.177C29.9489 202.639 30.924 202.753 31.8072 202.845C32.0157 202.866 32.4608 202.241 32.482 201.897C32.4997 201.577 32.1641 201.056 31.8602 200.931C31.0265 200.59 30.1291 200.409 28.9279 200.076ZM2.49118 2.19745C2.81974 3.34772 2.79148 4.41988 3.98913 4.58319C5.17972 4.7465 5.55774 3.96901 5.51535 2.77969C4.57913 2.59862 3.66764 2.42111 2.49118 2.1939V2.19745Z" fill="#0E1079"/>
</svg>
