<svg width="114" height="135" viewBox="0 0 114 135" fill="none" xmlns="http://www.w3.org/2000/svg">
<path d="M40.4178 133.253C41.023 133.2 41.6105 133.21 42.1659 133.075C42.4579 133.004 42.8495 132.727 42.9101 132.478C42.967 132.236 42.6466 131.908 42.4971 131.617C42.2941 131.215 41.9844 130.827 41.9238 130.403C41.7779 129.361 41.8384 128.286 41.6532 127.255C41.2687 125.084 41.582 123.035 42.4045 121.014C42.6857 120.324 42.7961 119.563 43.056 118.862C43.6328 117.304 44.117 115.692 44.8968 114.237C45.5341 113.045 45.7904 111.882 45.8153 110.562C45.8581 108.214 45.8723 105.84 46.2105 103.528C46.4455 101.934 47.0864 100.361 47.7629 98.8743C49.5787 94.8825 50.1661 90.5954 50.6361 86.3367C51.1061 82.0674 51.074 77.7411 51.2663 73.3081H48.4465C47.9622 73.7137 48.2578 75.1546 47.1362 74.6636C46.5986 75.7345 46.1073 76.7094 45.4771 77.9688C45.032 77.1221 44.7721 76.6275 44.4802 76.0654C44.1669 76.3287 43.882 76.5706 43.4512 76.9335C42.7819 75.5531 42.8923 74.2189 43.0596 72.8812C43.4904 69.3981 43.9176 65.915 44.3627 62.432C45.0285 57.1949 44.5621 52.1002 42.8282 47.0837C41.671 43.7323 40.8415 40.2706 39.7912 36.88C39.3604 35.4854 39.0257 33.9021 38.1213 32.8597C37.1031 31.6856 35.6006 30.7073 34.1195 30.202C26.7281 27.6796 19.2228 25.4844 11.8706 22.8481C9.53144 22.0085 8.061 22.5599 6.53359 24.0684C6.28081 24.3175 6.04938 24.6519 5.74319 24.7693C5.20201 24.9792 4.60742 25.0539 4.0342 25.182C3.9986 24.7302 3.95231 24.2819 3.93451 23.8301C3.91671 23.3142 3.93095 22.7947 3.93095 22.069C2.98033 22.069 2.12227 22.1899 1.32119 22.0227C0.833415 21.9195 0.434652 21.3788 -0.00683594 21.0336C0.381246 20.7704 0.737285 20.4075 1.16453 20.2545C2.66345 19.7208 4.25495 19.4042 5.68978 18.7389C8.48112 17.4474 11.2831 17.1059 14.2311 18.038C18.9273 19.5251 23.5878 21.1439 28.3445 22.4105C30.9756 23.1114 33.7599 23.2964 36.4871 23.5526C39.2749 23.8123 42.0805 23.9012 44.879 24.0008C46.2105 24.0471 47.2751 23.0367 47.2288 21.7203C47.1932 20.7277 47.1398 19.6034 46.6698 18.7816C44.3841 14.7862 44.7615 10.8086 46.4242 6.77051C46.5238 6.52502 46.652 6.29021 46.766 6.06251C45.1887 4.14842 45.2848 2.80714 47.3961 1.39826C48.4571 0.690258 49.7816 0.149475 51.0349 0.0213951C53.2031 -0.202745 53.901 0.853916 53.3669 2.78579C54.8836 3.76418 56.29 4.81017 57.8174 5.63202C59.9892 6.80253 60.6621 8.77709 60.7405 10.958C60.801 12.6586 60.4521 14.377 60.2812 16.0848C60.2776 16.1239 60.21 16.1666 60.2171 16.1951C61.0467 19.4789 58.8179 21.8092 57.6358 24.4634C57.6038 24.5345 57.6323 24.6306 57.6323 24.748C61.3208 25.2994 64.7495 24.7693 68.1033 22.9477C72.5075 20.5533 76.5165 17.8174 79.2616 13.5054C80.1837 12.0574 81.1806 10.652 82.2452 9.30365C83.1317 8.18294 84.3708 7.98015 85.5955 8.68103C86.9378 9.44951 88.2445 10.3034 89.4763 11.2391C90.8791 12.3064 92.1787 13.5018 93.5245 14.6439C93.4711 14.7969 93.4212 14.9463 93.3678 15.0993C92.7911 15.0317 92.2143 14.9641 91.3989 14.8645C91.8689 15.697 92.2926 16.4548 92.8302 17.4047C90.7047 17.8672 90.516 15.9389 89.1452 14.9534C89.5013 16.4121 89.7754 17.5435 90.1315 19.0164C88.0486 18.4685 88.4972 16.4726 87.2831 15.2024C87.4113 16.373 87.5039 17.2268 87.6249 18.3333C85.3926 17.3727 86.5497 14.7613 84.7517 13.5445C85.0864 14.5122 85.3926 15.2345 85.5777 15.9887C85.6739 16.3801 85.5706 16.8177 85.5564 17.2375C85.1825 17.0916 84.7909 16.9813 84.442 16.7928C84.1821 16.654 83.972 16.4121 83.705 16.1844C82.2132 18.3048 80.7926 20.3968 79.283 22.4247C78.7097 23.1932 78.0368 23.9581 77.2464 24.4811C73.5472 26.9396 69.8266 29.3695 66.0348 31.6821C64.7459 32.4684 63.9341 33.3791 63.3894 34.8023C61.4703 39.833 61.2852 45.0344 61.6697 50.2893C61.8264 52.4382 62.2608 52.705 64.34 52.7228C65.4971 52.7335 66.6614 52.9007 67.8078 52.7975C69.556 52.641 71.2828 52.214 73.0345 52.0895C74.7328 51.9686 76.4774 51.901 78.1543 52.1429C81.5367 52.6339 84.8621 52.8331 88.1804 51.7907C88.9316 51.5559 89.7541 51.4562 90.5445 51.4456C92.1039 51.4278 93.2575 50.7198 94.4965 49.8161C95.6963 48.9444 97.2131 48.3076 98.6764 48.0479C100.62 47.7028 102.091 46.9841 103.027 45.2123C104.145 43.0954 105.309 41.0035 106.481 38.9151C106.694 38.5344 107.008 38.1928 107.332 37.894C108.197 37.0899 109.112 36.6381 110.087 37.805C110.913 37.3176 111.302 35.9479 112.551 36.5064C112.936 36.6772 113.42 37.186 113.431 37.5489C113.655 45.3689 113.822 53.1924 113.993 61.016C113.993 61.1441 113.954 61.2721 113.908 61.5354C113.416 61.5568 112.907 61.5817 112.256 61.6101C112.206 60.557 112.16 59.6 112.12 58.86C109.991 59.0628 107.916 59.2407 105.84 59.4648C104.11 59.6498 102.458 59.4257 100.962 58.5113C99.3635 57.5329 97.6439 57.5472 95.9527 57.9883C94.0657 58.4793 92.1431 58.9987 90.4056 59.849C87.8457 61.0978 85.1647 61.4785 82.4019 61.5852C81.0703 61.6386 79.7173 61.7347 78.4 61.5852C74.626 61.1583 71.4216 62.9443 68.0037 63.9832C68.4131 65.2426 68.8582 66.3918 69.1465 67.5801C69.3139 68.2739 69.7447 69.2273 68.4273 69.4266C68.3526 69.4373 68.2849 69.6258 68.2529 69.7432C67.8114 71.2909 66.8928 72.1376 65.2088 72.4222C64.632 72.5219 63.9697 73.6176 63.806 74.3612C63.0013 78.0151 61.8798 81.5408 60.4592 85.0061C59.797 86.6213 59.4765 88.4536 59.384 90.204C59.2095 93.438 57.8494 96.2843 56.8347 99.2515C55.2539 103.862 53.6589 108.47 52.2027 113.123C51.8858 114.134 52.1172 115.318 52.1386 116.421C52.1528 117.087 52.3842 117.77 52.281 118.407C51.5974 122.63 54.1075 125.191 56.9949 127.536C58.3942 128.674 58.7751 129.838 58.1271 131.488C57.9812 131.855 57.9954 132.339 58.0844 132.737C58.4049 134.168 57.853 134.986 56.4395 134.986C51.4621 134.982 46.4847 134.932 41.5037 134.95C40.2576 134.954 39.8695 134.513 40.4107 133.239L40.4178 133.253ZM44.3449 133.363C46.4669 133.477 48.4892 133.605 50.5115 133.673C50.8248 133.684 51.1488 133.395 51.4657 133.246C51.2307 132.947 51.0527 132.542 50.7465 132.364C48.6992 131.186 46.6129 130.357 44.3449 132.204V133.363ZM111.985 47.0232C111.828 46.9877 111.668 46.9485 111.512 46.9129C111.091 48.4713 110.639 50.0189 110.28 51.5914C110.201 51.9294 110.376 52.3777 110.554 52.7121C111.034 53.6122 111.579 54.4803 111.985 55.1741V47.0232ZM52.8364 133.154C53.8155 134.274 54.8338 133.808 55.7025 133.851C55.9126 133.862 56.1476 133.367 56.6211 132.816C55.1756 132.944 54.1858 133.033 52.8364 133.154Z" fill="#0E1079"/>
</svg>
