<svg width="14" height="18" viewBox="0 0 14 18" fill="none" xmlns="http://www.w3.org/2000/svg">
<path d="M2.83398 0.666504C2.17094 0.666504 1.53506 0.929896 1.06622 1.39874C0.597376 1.86758 0.333984 2.50346 0.333984 3.1665V14.8332C0.333984 15.4962 0.597376 16.1321 1.06622 16.6009C1.53506 17.0698 2.17094 17.3332 2.83398 17.3332H11.1673C11.8304 17.3332 12.4662 17.0698 12.9351 16.6009C13.4039 16.1321 13.6673 15.4962 13.6673 14.8332V13.9998C13.6673 13.5396 13.2942 13.1665 12.834 13.1665C12.3737 13.1665 12.0007 13.5396 12.0007 13.9998V14.8332C12.0007 15.0542 11.9129 15.2661 11.7566 15.4224C11.6003 15.5787 11.3883 15.6665 11.1673 15.6665H2.83398C2.61297 15.6665 2.40101 15.5787 2.24473 15.4224C2.08845 15.2661 2.00065 15.0542 2.00065 14.8332V3.1665C2.00065 2.94549 2.08845 2.73353 2.24473 2.57725C2.40101 2.42097 2.61297 2.33317 2.83398 2.33317H11.1673C11.3883 2.33317 11.6003 2.42097 11.7566 2.57725C11.9129 2.73353 12.0007 2.94549 12.0007 3.1665V3.99984C12.0007 4.46007 12.3737 4.83317 12.834 4.83317C13.2942 4.83317 13.6673 4.46007 13.6673 3.99984V3.1665C13.6673 2.50346 13.4039 1.86758 12.9351 1.39874C12.4662 0.929896 11.8304 0.666504 11.1673 0.666504H2.83398Z" fill="#2B2D91"/>
<path d="M10.9232 5.91058C10.5978 5.58514 10.0702 5.58514 9.74473 5.91058C9.41929 6.23602 9.41929 6.76366 9.74473 7.08909L10.8221 8.1665H7.00065C6.54041 8.1665 6.16732 8.5396 6.16732 8.99984C6.16732 9.46007 6.54041 9.83317 7.00065 9.83317H10.8221L9.74473 10.9106C9.41929 11.236 9.41929 11.7637 9.74473 12.0891C10.0702 12.4145 10.5978 12.4145 10.9232 12.0891L13.4232 9.58909C13.7487 9.26366 13.7487 8.73602 13.4232 8.41058L10.9232 5.91058Z" fill="#2B2D91"/>
</svg>
