<svg width="20" height="20" viewBox="0 0 20 20" fill="none" xmlns="http://www.w3.org/2000/svg">
<path d="M11.6668 1.66699H5.00016C4.55814 1.66699 4.13421 1.84259 3.82165 2.15515C3.50909 2.46771 3.3335 2.89163 3.3335 3.33366V16.667C3.3335 17.109 3.50909 17.5329 3.82165 17.8455C4.13421 18.1581 4.55814 18.3337 5.00016 18.3337H15.0002C15.4422 18.3337 15.8661 18.1581 16.1787 17.8455C16.4912 17.5329 16.6668 17.109 16.6668 16.667V6.66699L11.6668 1.66699Z" stroke="#252525" stroke-linecap="round" stroke-linejoin="round"/>
<path d="M11.6665 1.66699V6.66699H16.6665" stroke="#252525" stroke-linecap="round" stroke-linejoin="round"/>
<path d="M13.3332 10.833H6.6665" stroke="#252525" stroke-linecap="round" stroke-linejoin="round"/>
<path d="M13.3332 14.167H6.6665" stroke="#252525" stroke-linecap="round" stroke-linejoin="round"/>
<path d="M8.33341 7.5H7.50008H6.66675" stroke="#252525" stroke-linecap="round" stroke-linejoin="round"/>
</svg>
