<svg width="66" height="65" viewBox="0 0 66 65" fill="none" xmlns="http://www.w3.org/2000/svg">
<path d="M29.2775 0.65142C50.6505 -1.65319 59.4787 13.3415 61.6307 17.5776C64.9869 24.1824 66.076 31.3149 64.5164 38.5213C62.6704 47.0493 57.8533 53.7166 49.772 57.4299C37.6221 63.0139 25.5165 62.8544 13.9309 55.8453C7.26286 51.8114 3.33575 45.6077 1.6165 38.0544C-0.137299 30.35 0.897525 22.8822 4.55978 15.9733C13.824 0.644839 26.836 0.914427 29.2792 0.649775L29.2775 0.65142Z" fill="#F9DA08"/>
<path d="M25.8426 9.44079C23.9884 7.26769 21.3594 6.02663 18.5888 5.42335C17.8205 5.18829 17.9044 4.03105 18.6859 3.89955C21.8102 3.20915 25.3276 4.49953 27.1373 7.18057C27.6408 7.93343 28.4354 9.3619 27.1456 9.8649C26.6389 10.0523 26.1716 9.79914 25.8426 9.44079Z" fill="#4C4940"/>
<path d="M35.5015 8.49532C36.6696 5.3721 40.0917 3.5656 43.3113 3.72176C44.0484 3.80888 45.3958 3.74805 45.2461 4.82145C45.1836 5.15843 44.9187 5.38197 44.6094 5.45758C43.8822 5.67292 43.16 5.81264 42.4657 6.07401C40.5095 6.7003 38.8199 7.95122 37.4642 9.44051C36.6515 10.4383 35.1379 9.74625 35.5032 8.49532H35.5015Z" fill="#4C4940"/>
<path d="M31.0853 32.5852C30.1739 30.0209 31.008 19.9839 32.7075 19.3477C34.7361 18.5883 35.4402 25.461 35.4303 28.5366C35.4254 29.9798 35.33 31.3245 35.0964 32.0559C34.4646 34.0433 34.3247 33.6209 33.7473 34.2126C33.1698 34.8044 31.5262 33.828 31.0853 32.5869V32.5852Z" fill="#51492E"/>
<path d="M49.2139 13.7457C49.2353 22.6123 49.2517 45.8442 49.2912 54.7092C49.2945 55.5146 49.4541 56.3184 49.5396 57.1239C49.4267 58.7732 50.1917 59.7085 51.8347 59.9299C55.0084 60.349 58.1885 60.7205 61.3523 61.2005C61.8853 61.2811 62.3526 61.8021 62.8494 62.1194C62.3378 62.4218 61.8541 62.9117 61.3095 62.9955C58.2609 63.469 55.2041 64.1314 52.1374 64.2038C41.3415 64.4602 30.5374 64.687 19.7398 64.5424C14.5837 64.4733 9.43752 63.5627 4.29293 62.9725C3.73355 62.9084 3.22024 62.4367 2.68555 62.1556C3.23669 61.8087 3.75656 61.235 4.34719 61.1512C7.40071 60.714 10.4691 60.3671 13.539 60.0564C16.4774 59.7589 16.4823 59.7951 16.1055 56.7968C16.1516 53.8297 16.2224 50.8627 16.2388 47.8956C16.2767 41.3171 16.2865 20.3258 16.3096 13.7473C22.2323 12.2186 24.1457 12.6 26.0969 13.7818C26.1183 15.7018 26.1545 26.4901 26.1611 28.41C26.1891 36.5238 26.2385 50.1805 26.2039 58.2943C26.1973 59.7655 26.4836 60.6301 28.1617 60.6186C31.3024 60.5972 34.4431 60.6827 37.5838 60.6844C39.0497 60.6844 39.5236 59.897 39.517 58.4439C39.4676 48.8112 39.4923 33.6373 39.4956 24.0046C39.4956 23.5394 39.5417 11.6038 39.5417 12.9829C43.2763 12.3682 45.9975 15.0344 49.2172 13.7473L49.2139 13.7457Z" fill="#64A1EE"/>
<path d="M9.5165 14.8684C14.6891 12.0624 20.9951 10.3085 26.7945 12.0295C27.2058 12.1676 27.4263 12.6115 27.2881 13.0224C27.1696 13.3775 26.8208 13.5879 26.4655 13.5533C22.3491 13.3249 18.3233 14.3523 14.4094 15.5506C13.0767 15.9648 11.7161 16.4136 10.4148 16.8442C9.18581 17.2453 8.40762 15.5259 9.51485 14.87L9.5165 14.8684Z" fill="#4C4940"/>
<path d="M52.5589 16.8293C47.3945 15.1444 42.0607 13.2639 36.5526 13.5532C35.6329 13.6403 35.3499 12.3253 36.2235 12.0294C39.1207 11.0661 42.2532 11.2404 45.1949 11.8026C48.1217 12.4124 50.8972 13.3658 53.5016 14.8699C54.0215 15.1773 54.1926 15.8463 53.8866 16.3641C53.6118 16.8293 53.0459 17.0134 52.5605 16.8309L52.5589 16.8293Z" fill="#4C4940"/>
</svg>
