<svg width="65" height="65" viewBox="0 0 65 65" fill="none" xmlns="http://www.w3.org/2000/svg">
<path d="M29.0869 0.650767C50.3169 -1.64755 59.0861 13.3062 61.2236 17.5307C64.5574 24.1175 65.6393 31.2305 64.09 38.4172C62.2564 46.9219 57.4715 53.571 49.4443 57.2742C37.3756 62.8429 25.3511 62.6839 13.843 55.6939C7.21952 51.671 3.31868 45.4842 1.61093 37.9516C-0.131134 30.2682 0.896766 22.8208 4.53452 15.9308C13.7368 0.644203 26.6617 0.913055 29.0885 0.649126L29.0869 0.650767Z" fill="#F9DA08"/>
<path d="M25.6748 9.41637C23.833 7.2492 21.2215 6.01153 18.4695 5.4099C17.7063 5.17548 17.7897 4.0214 18.5659 3.89026C21.6693 3.20175 25.1632 4.4886 26.9609 7.16231C27.4609 7.91312 28.2503 9.33769 26.969 9.83932C26.4657 10.0262 26.0016 9.77373 25.6748 9.41637Z" fill="#4C4940"/>
<path d="M35.2692 8.47347C36.4295 5.35878 39.8287 3.55721 43.0268 3.71295C43.7589 3.79983 45.0974 3.73917 44.9486 4.80964C44.8865 5.14569 44.6234 5.36862 44.3162 5.44403C43.5939 5.65878 42.8764 5.79812 42.1868 6.05877C40.2437 6.68335 38.5654 7.93086 37.2188 9.41607C36.4115 10.4111 34.9081 9.72098 35.2709 8.47347H35.2692Z" fill="#4C4940"/>
<path d="M30.8826 32.4972C29.9773 29.9398 30.8058 19.9302 32.494 19.2958C34.5089 18.5384 35.2084 25.3924 35.1986 28.4596C35.1937 29.8989 35.0989 31.2398 34.8668 31.9693C34.2393 33.9512 34.1004 33.53 33.5268 34.1201C32.9532 34.7103 31.3206 33.7365 30.8826 32.4988V32.4972Z" fill="#51492E"/>
<path d="M48.8899 13.7093C48.9112 22.5517 48.9275 45.7201 48.9667 54.5608C48.97 55.3641 49.1285 56.1657 49.2135 56.969C49.1013 58.6138 49.8612 59.5465 51.4932 59.7673C54.6456 60.1853 57.8045 60.5558 60.9471 61.0345C61.4766 61.1148 61.9407 61.6344 62.4343 61.9508C61.926 62.2525 61.4455 62.741 60.9046 62.8246C57.8764 63.2967 54.8401 63.9574 51.7939 64.0295C41.0702 64.2852 30.3384 64.5115 19.6131 64.3672C14.4914 64.2984 9.37965 63.3902 4.26948 62.8017C3.71385 62.7377 3.20397 62.2673 2.67285 61.9869C3.22031 61.641 3.7367 61.0689 4.32338 60.9853C7.35647 60.5492 10.4043 60.2034 13.4537 59.8935C16.3724 59.5968 16.3773 59.6329 16.0031 56.6428C16.0488 53.6838 16.1191 50.7249 16.1355 47.7659C16.173 41.2054 16.1828 20.2714 16.2057 13.7109C22.0889 12.1863 23.9895 12.5667 25.9276 13.7453C25.9489 15.66 25.9848 26.4188 25.9914 28.3335C26.0192 36.4252 26.0682 50.0446 26.0339 58.1362C26.0273 59.6034 26.3117 60.4656 27.9786 60.4542C31.0983 60.4328 34.218 60.5181 37.3377 60.5197C38.7938 60.5197 39.2644 59.7345 39.2579 58.2854C39.2089 48.679 39.2334 33.5465 39.2367 23.9402C39.2367 23.4763 39.2824 11.5732 39.2824 12.9486C42.9921 12.3355 45.695 14.9945 48.8932 13.7109L48.8899 13.7093Z" fill="#64A1EE"/>
<path d="M9.45824 14.829C14.5962 12.0307 20.8601 10.2815 26.6207 11.9979C27.0292 12.1356 27.2482 12.5782 27.1109 12.988C26.9933 13.3421 26.6468 13.552 26.2938 13.5175C22.205 13.2897 18.2062 14.3143 14.3184 15.5093C12.9947 15.9224 11.6432 16.3699 10.3505 16.7994C9.12976 17.1994 8.35678 15.4847 9.45661 14.8306L9.45824 14.829Z" fill="#4C4940"/>
<path d="M52.2127 16.7845C47.0829 15.1042 41.7848 13.2288 36.3134 13.5174C35.3999 13.6042 35.1188 12.2928 35.9866 11.9977C38.8644 11.0371 41.976 11.2109 44.8979 11.7715C47.8052 12.3797 50.5621 13.3305 53.1491 14.8304C53.6655 15.137 53.8355 15.8042 53.5315 16.3206C53.2586 16.7845 52.6964 16.9681 52.2143 16.7862L52.2127 16.7845Z" fill="#4C4940"/>
</svg>
