<svg width="65" height="65" viewBox="0 0 65 65" fill="none" xmlns="http://www.w3.org/2000/svg">
<path d="M28.6182 0.563701C49.8482 -1.85541 58.6173 13.8843 60.7549 18.3309C64.0886 25.2638 65.1705 32.7507 63.6213 40.3152C61.7877 49.2669 57.0027 56.2655 48.9755 60.1633C36.9069 66.0247 24.8823 65.8573 13.3742 58.4999C6.7508 54.2656 2.84992 47.7537 1.14217 39.8251C-0.599893 31.7378 0.428047 23.899 4.0658 16.6468C13.268 0.556793 26.193 0.839775 28.6198 0.561974L28.6182 0.563701Z" fill="#F9DA08"/>
<path d="M46.5585 43.0042C41.1639 43.3907 36.1763 38.2833 36.3332 32.0043C36.4999 25.2594 41.8814 20.9077 47.2595 21.2166C52.8355 21.5375 57.0566 26.3344 57.0877 32.5426C57.1138 37.7846 52.3223 43.6771 46.5585 43.0042Z" fill="#F9F8EC"/>
<path d="M34.0373 32.2089C34.3184 37.5751 29.9893 43.333 23.0096 43.1208C18.0335 42.9707 13.2175 37.8028 13.2452 32.3573C13.2763 26.237 17.8929 21.4419 23.5604 21.2004C28.633 20.9829 34.3282 25.8557 34.0373 32.2072V32.2089Z" fill="#F9F8EC"/>
<path d="M45.1762 39.0381C48.8238 39.1313 51.7898 36.1428 51.8388 32.3261C51.8879 28.4731 49.0509 25.35 45.4491 25.2948C41.7868 25.2378 38.9253 28.1539 38.824 32.0465C38.7227 35.9357 41.4551 38.9432 45.1762 39.0381Z" fill="#4C4940"/>
<path d="M31.6185 32.156C31.6022 28.2651 28.7407 25.2403 25.1209 25.2852C21.4423 25.33 18.6674 28.3013 18.6543 32.2095C18.6413 36.1401 21.5387 39.1079 25.3431 39.0596C28.8747 39.0148 31.6348 35.9779 31.6185 32.156Z" fill="#4C4940"/>
<path d="M41.8719 29.0893C41.0842 29.0685 40.5057 28.4336 40.5269 27.6105C40.5482 26.7875 41.1545 26.1697 41.9291 26.1818C42.6906 26.1939 43.292 26.8548 43.2806 27.6692C43.2708 28.4767 42.6432 29.1082 41.8702 29.0893H41.8719Z" fill="white"/>
<path d="M22.3693 27.7694C22.3726 28.5786 21.7892 29.2205 21.0407 29.2308C20.235 29.2412 19.6222 28.6131 19.6255 27.7814C19.6288 26.9549 20.2154 26.3251 20.9933 26.3165C21.7598 26.3079 22.3644 26.948 22.3677 27.7711L22.3693 27.7694Z" fill="white"/>
<path d="M53.2538 15.2303C49.9805 15.7841 46.7399 13.5997 45.2969 10.5836C45.0109 9.86751 44.2967 8.67003 45.2969 8.25074C45.6188 8.13341 45.9423 8.25763 46.1597 8.50092C46.7039 9.05135 47.1778 9.63801 47.7433 10.1367C49.317 11.6965 51.3516 12.5196 53.3927 13.051C54.4386 13.3875 54.3177 15.0543 53.2522 15.232L53.2538 15.2303Z" fill="#4C4940"/>
<path d="M18.1363 11.1634C20.934 10.6578 23.3298 8.953 25.2516 6.7789C25.5785 6.47867 26.0736 6.51317 26.358 6.85827C26.8515 7.51913 26.2224 8.30597 25.9919 8.9582C24.7172 11.505 22.1744 13.3788 19.411 13.5445C18.5121 13.5945 16.8894 13.5445 17.1133 12.1124C17.2097 11.555 17.664 11.2703 18.1363 11.165V11.1634Z" fill="#4C4940"/>
<path d="M42.463 52.0454C37.1142 50.1905 30.9091 49.226 25.8758 52.5199C25.0619 53.091 24.1615 51.9229 24.8642 51.2068C29.7374 46.1011 37.7565 46.6136 43.4386 49.9213C44.6414 50.6598 43.7491 52.5786 42.4614 52.0454H42.463Z" fill="#4C4940"/>
</svg>
