<svg width="69" height="65" viewBox="0 0 69 65" fill="none" xmlns="http://www.w3.org/2000/svg">
<path d="M30.5698 0.565174C53.1362 -1.86812 62.4574 13.9639 64.7295 18.4365C68.2731 25.4101 69.4231 32.9409 67.7763 40.5497C65.8273 49.5539 60.7412 56.5935 52.2086 60.5141C39.3803 66.4099 26.5988 66.2416 14.3662 58.841C7.32583 54.5819 3.17939 48.0318 1.36414 40.0568C-0.487591 31.9221 0.605058 24.0373 4.47181 16.7426C14.2533 0.558225 27.9919 0.842866 30.5715 0.563437L30.5698 0.565174Z" fill="#F9DA08"/>
<path d="M49.6394 43.254C43.9053 43.6428 38.6037 38.5055 38.7704 32.1897C38.9476 25.4053 44.6679 21.0281 50.3846 21.3388C56.3115 21.6616 60.7984 26.4865 60.8314 32.7312C60.8592 38.0039 55.7661 43.9309 49.6394 43.254Z" fill="#F9F8EC"/>
<path d="M36.33 32.396C36.6288 37.7937 32.0273 43.5854 24.6082 43.3719C19.3188 43.2209 14.1996 38.0228 14.2291 32.5453C14.2621 26.3891 19.1694 21.5659 25.1936 21.323C30.5855 21.1043 36.6392 26.0056 36.33 32.3943V32.396Z" fill="#F9F8EC"/>
<path d="M48.17 39.2657C52.0472 39.3594 55.1999 36.3534 55.2521 32.5143C55.3042 28.6387 52.2886 25.4973 48.4601 25.4417C44.5673 25.3845 41.5256 28.3176 41.4179 32.2331C41.3102 36.1451 44.2147 39.1702 48.17 39.2657Z" fill="#4C4940"/>
<path d="M33.7588 32.3423C33.7414 28.4285 30.6998 25.386 26.8522 25.4312C22.942 25.4763 19.9925 28.465 19.9786 32.3961C19.9647 36.3498 23.0445 39.335 27.0884 39.2864C30.8423 39.2412 33.7762 36.1866 33.7588 32.3423Z" fill="#4C4940"/>
<path d="M44.6578 29.2577C43.8205 29.2368 43.2056 28.5981 43.2281 27.7703C43.2507 26.9424 43.8952 26.321 44.7186 26.3332C45.5281 26.3453 46.1673 27.0101 46.1551 27.8293C46.1447 28.6415 45.4777 29.2768 44.656 29.2577H44.6578Z" fill="white"/>
<path d="M23.9273 27.9302C23.9308 28.7442 23.3106 29.3899 22.5151 29.4003C21.6587 29.4107 21.0073 28.7789 21.0108 27.9423C21.0142 27.111 21.6378 26.4775 22.4647 26.4688C23.2794 26.4602 23.9221 27.1041 23.9256 27.932L23.9273 27.9302Z" fill="white"/>
<path d="M56.7564 15.3178C53.277 15.875 49.8324 13.6777 48.2985 10.6439C47.9945 9.92364 47.2354 8.71914 48.2985 8.29739C48.6407 8.17937 48.9846 8.30432 49.2157 8.54904C49.7941 9.10269 50.2979 9.69279 50.8989 10.1944C52.5717 11.7633 54.7344 12.5912 56.904 13.1258C58.0157 13.4642 57.8872 15.1408 56.7546 15.3196L56.7564 15.3178Z" fill="#4C4940"/>
<path d="M19.4281 11.2274C22.402 10.7188 24.9485 9.00405 26.9913 6.81721C27.3388 6.51522 27.8651 6.54992 28.1673 6.89704C28.6919 7.56177 28.0232 8.35323 27.7782 9.00928C26.4233 11.571 23.7204 13.4558 20.783 13.6224C19.8276 13.6728 18.1027 13.6225 18.3406 12.1819C18.4431 11.6213 18.926 11.3349 19.4281 11.2291V11.2274Z" fill="#4C4940"/>
<path d="M45.286 52.3485C39.6005 50.4827 33.0048 49.5125 27.6546 52.8258C26.7895 53.4003 25.8324 52.2252 26.5793 51.505C31.7593 46.3694 40.2832 46.8849 46.323 50.212C47.6015 50.9548 46.6531 52.8848 45.2842 52.3485H45.286Z" fill="#4C4940"/>
</svg>
