<svg width="70" height="65" viewBox="0 0 70 65" fill="none" xmlns="http://www.w3.org/2000/svg">
<path d="M31.0697 0.565174C53.6362 -1.86812 62.9574 13.9639 65.2295 18.4365C68.7731 25.4101 69.9231 32.9408 68.2763 40.5497C66.3273 49.5539 61.2411 56.5935 52.7086 60.5141C39.8802 66.4099 27.0987 66.2416 14.8662 58.841C7.8258 54.5819 3.6794 48.0318 1.86415 40.0568C0.0124187 31.9221 1.10503 24.0373 4.97177 16.7426C14.7533 0.558246 28.4919 0.842887 31.0715 0.563458L31.0697 0.565174Z" fill="#F9DA08"/>
<path d="M47.0227 32.2848C41.2886 32.6736 35.987 27.5362 36.1537 21.2204C36.3309 14.436 42.0512 10.0589 47.7679 10.3695C53.6948 10.6923 58.1817 15.5173 58.2147 21.7619C58.2425 27.0346 53.1494 32.9617 47.0227 32.2848Z" fill="#F9F8EC"/>
<path d="M33.7133 21.4273C34.0121 26.8249 29.4106 32.6166 21.9915 32.4031C16.7021 32.2521 11.5829 27.054 11.6124 21.5765C11.6454 15.4204 16.5527 10.5972 22.5769 10.3542C27.9688 10.1355 34.0225 15.0368 33.7133 21.4255V21.4273Z" fill="#F9F8EC"/>
<path d="M44.5494 28.297C48.4266 28.3907 51.5794 25.3846 51.6315 21.5455C51.6836 17.6699 48.668 14.5285 44.8395 14.473C40.9467 14.4157 37.905 17.3489 37.7973 21.2643C37.6896 25.1764 40.5941 28.2015 44.5494 28.297Z" fill="#4C4940"/>
<path d="M31.1421 21.373C31.1247 17.4593 28.0831 14.4168 24.2355 14.4619C20.3253 14.507 17.3758 17.4957 17.3619 21.4268C17.348 25.3805 20.4278 28.3657 24.4717 28.3171C28.2256 28.272 31.1595 25.2174 31.1421 21.373Z" fill="#4C4940"/>
<path d="M39.5708 20.9725C38.7336 20.9517 38.1186 20.313 38.1412 19.4851C38.1638 18.6572 38.8083 18.0359 39.6317 18.048C40.4411 18.0602 41.0804 18.7249 41.0682 19.5441C41.0578 20.3564 40.3907 20.9916 39.5691 20.9725H39.5708Z" fill="white"/>
<path d="M21.8023 19.773C21.8058 20.587 21.1856 21.2326 20.3901 21.243C19.5337 21.2534 18.8823 20.6217 18.8858 19.7851C18.8892 18.9538 19.5128 18.3203 20.3397 18.3116C21.1544 18.3029 21.7971 18.9468 21.8005 19.7747L21.8023 19.773Z" fill="white"/>
<path d="M45.4177 39.0084C38.2992 39.8502 31.1459 39.9596 24.0012 39.274C22.9989 39.1577 22.9989 37.6842 24.0012 37.5714C31.0868 36.8268 38.188 36.3947 45.3135 36.6359C46.7501 36.7088 46.8404 38.8141 45.4177 39.0084Z" fill="#4C4940"/>
</svg>
