<svg width="64" height="65" viewBox="0 0 64 65" fill="none" xmlns="http://www.w3.org/2000/svg">
<path d="M28.3027 0.751201C49.5327 -1.66791 58.3019 14.0719 60.4394 18.5184C63.7732 25.4514 64.8551 32.9382 63.3058 40.5027C61.4723 49.4544 56.6873 56.453 48.6601 60.3508C36.5914 66.2122 24.5669 66.0448 13.0588 58.6874C6.43534 54.4531 2.5345 47.9412 0.826754 40.0126C-0.915314 31.9253 0.112587 24.0865 3.75034 16.8344C12.9526 0.744314 25.8775 1.0273 28.3043 0.749495L28.3027 0.751201Z" fill="#F9DA08"/>
<path d="M43.3109 32.2859C37.9164 32.6724 32.9288 27.565 33.0856 21.286C33.2523 14.5411 38.6338 10.1895 44.012 10.4983C49.5879 10.8193 53.8091 15.6161 53.8401 21.8243C53.8663 27.0663 49.0748 32.9588 43.3109 32.2859Z" fill="#F9F8EC"/>
<path d="M30.7897 21.4916C31.0708 26.8578 26.7418 32.6157 19.7621 32.4035C14.7859 32.2534 9.9699 27.0856 9.99768 21.64C10.0287 15.5197 14.6454 10.7246 20.3128 10.4831C25.3854 10.2657 31.0806 15.1384 30.7897 21.4899V21.4916Z" fill="#F9F8EC"/>
<path d="M40.9843 28.3214C44.6319 28.4145 47.598 25.426 47.647 21.6093C47.696 17.7563 44.859 14.6332 41.2572 14.578C37.595 14.521 34.7334 17.4371 34.6321 21.3297C34.5308 25.219 37.2632 28.2265 40.9843 28.3214Z" fill="#4C4940"/>
<path d="M28.3709 21.4377C28.3546 17.5468 25.4931 14.522 21.8733 14.5669C18.1947 14.6118 15.4199 17.583 15.4068 21.4912C15.3937 25.4219 18.2912 28.3897 22.0956 28.3413C25.6271 28.2965 28.3873 25.2596 28.3709 21.4377Z" fill="#4C4940"/>
<path d="M36.3006 21.0394C35.5129 21.0187 34.9344 20.3837 34.9556 19.5607C34.9769 18.7376 35.5832 18.1199 36.3578 18.132C37.1194 18.1441 37.7207 18.8049 37.7093 19.6194C37.6995 20.4269 37.0719 21.0584 36.299 21.0394H36.3006Z" fill="white"/>
<path d="M19.5842 19.847C19.5874 20.6562 19.004 21.2981 18.2556 21.3085C17.4499 21.3188 16.8371 20.6908 16.8403 19.8591C16.8436 19.0326 17.4303 18.4028 18.2082 18.3941C18.9746 18.3855 19.5792 19.0257 19.5825 19.8487L19.5842 19.847Z" fill="white"/>
<path d="M41.8012 38.9703C35.1042 39.8072 28.3745 39.9159 21.653 39.2343C20.7101 39.1187 20.7101 37.6538 21.653 37.5416C28.3189 36.8014 34.9996 36.3717 41.7031 36.6116C43.0546 36.6841 43.1396 38.777 41.8012 38.9703Z" fill="#4C4940"/>
</svg>
