<svg width="70" height="65" viewBox="0 0 70 65" fill="none" xmlns="http://www.w3.org/2000/svg">
<path d="M31.0697 0.565174C53.6362 -1.86812 62.9574 13.9639 65.2295 18.4365C68.7731 25.4101 69.9231 32.9408 68.2763 40.5496C66.3273 49.5539 61.2411 56.5934 52.7086 60.5141C39.8802 66.4099 27.0988 66.2416 14.8662 58.841C7.82582 54.5819 3.6794 48.0318 1.86415 40.0567C0.0124142 31.922 1.10504 24.0373 4.97179 16.7426C14.7516 0.558232 28.4902 0.842868 31.0697 0.565174Z" fill="#F9DA08"/>
<path d="M47.0251 30.7418C41.291 31.1306 35.9894 25.9933 36.1562 19.6775C36.3334 12.893 42.0536 8.51589 47.7703 8.82656C53.6972 9.14938 58.1841 13.9743 58.2171 20.219C58.2449 25.4917 53.1518 31.4187 47.0251 30.7418Z" fill="#F9F8EC"/>
<path d="M33.7153 19.8843C34.0141 25.282 29.4125 31.0736 21.9935 30.8601C16.704 30.7092 11.5849 25.5111 11.6144 20.0336C11.6474 13.8774 16.5547 9.05422 22.5789 8.81124C27.9708 8.59256 34.0245 13.4939 33.7153 19.8826V19.8843Z" fill="#F9F8EC"/>
<path d="M45.5552 26.7535C49.4324 26.8472 52.5852 23.8412 52.6373 20.0021C52.6894 16.1265 49.6739 12.9851 45.8453 12.9295C41.9525 12.8723 38.9109 15.8054 38.8032 19.7209C38.6955 23.6329 41.5999 26.658 45.5552 26.7535Z" fill="#4C4940"/>
<path d="M31.1426 19.8306C31.1253 15.9168 28.0836 12.8743 24.236 12.9194C20.3258 12.9646 17.3762 15.9532 17.3624 19.8844C17.3485 23.838 20.4283 26.8232 24.4722 26.7746C28.2261 26.7295 31.16 23.6749 31.1426 19.8306Z" fill="#4C4940"/>
<path d="M42.0411 16.7464C41.2038 16.7256 40.5889 16.0869 40.6114 15.259C40.634 14.4311 41.2785 13.8098 42.1019 13.822C42.9113 13.8341 43.5506 14.4988 43.5384 15.318C43.528 16.1303 42.861 16.7655 42.0393 16.7464H42.0411Z" fill="white"/>
<path d="M21.3126 15.4185C21.316 16.2325 20.6959 16.8781 19.9003 16.8885C19.0439 16.8989 18.3925 16.2672 18.396 15.4306C18.3995 14.5993 19.0231 13.9658 19.8499 13.9571C20.6646 13.9484 21.3074 14.5923 21.3108 15.4202L21.3126 15.4185Z" fill="white"/>
<path d="M13.9177 9.53283C14.6299 6.08595 17.9061 3.64398 21.2899 3.28645C22.0716 3.25694 23.4682 2.97578 23.4856 4.11953C23.4752 4.48227 23.2354 4.75649 22.9245 4.88666C22.2001 5.2303 21.4706 5.49238 20.7879 5.87768C18.8493 6.84787 17.2894 8.42899 16.1169 10.2028C15.4307 11.376 13.7405 10.8987 13.9177 9.53456V9.53283Z" fill="#4C4940"/>
<path d="M54.9369 47.7371C47.1027 56.3491 33.8487 60.0077 24.4112 51.7966C23.6104 51.1267 24.5345 49.858 25.4169 50.422C34.9639 56.6059 45.3256 52.9404 53.2832 46.0379C54.4002 45.0886 55.9201 46.6419 54.9369 47.7353V47.7371Z" fill="#4C4940"/>
<path d="M54.8437 10.1997C53.263 7.63105 50.7217 5.90935 47.9302 4.83155C47.1676 4.46187 47.442 3.26778 48.2793 3.25737C51.651 3.04389 55.1095 4.96172 56.5635 8.05106C56.9647 8.91712 57.5623 10.5364 56.1344 10.8523C55.5751 10.9669 55.1286 10.6249 54.8437 10.198V10.1997Z" fill="#4C4940"/>
</svg>
