<svg width="64" height="65" viewBox="0 0 64 65" fill="none" xmlns="http://www.w3.org/2000/svg">
<path d="M28.3027 0.751201C49.5327 -1.66791 58.3019 14.0719 60.4394 18.5184C63.7732 25.4514 64.8551 32.9382 63.3058 40.5027C61.4723 49.4544 56.6873 56.4529 48.6601 60.3508C36.5914 66.2122 24.5669 66.0449 13.0588 58.6874C6.43536 54.4531 2.5345 47.9412 0.82675 40.0126C-0.915318 31.9253 0.1126 24.0865 3.75035 16.8343C12.9509 0.7443 25.8759 1.02728 28.3027 0.751201Z" fill="#F9DA08"/>
<path d="M43.3133 30.7522C37.9188 31.1387 32.9312 26.0313 33.0881 19.7523C33.2548 13.0074 38.6362 8.65579 44.0144 8.96465C49.5903 9.28559 53.8115 14.0824 53.8425 20.2907C53.8687 25.5327 49.0772 31.4251 43.3133 30.7522Z" fill="#F9F8EC"/>
<path d="M30.7917 19.9579C31.0728 25.3241 26.7437 31.082 19.764 30.8698C14.7879 30.7197 9.97185 25.5519 9.99963 20.1063C10.0307 13.986 14.6473 9.19095 20.3148 8.94938C25.3873 8.73197 31.0826 13.6047 30.7917 19.9562V19.9579Z" fill="#F9F8EC"/>
<path d="M41.9306 26.7867C45.5781 26.8799 48.5442 23.8914 48.5933 20.0746C48.6423 16.2216 45.8053 13.0985 42.2035 13.0433C38.5412 12.9864 35.6797 15.9024 35.5784 19.7951C35.4771 23.6843 38.2095 26.6918 41.9306 26.7867Z" fill="#4C4940"/>
<path d="M28.3715 19.9045C28.3551 16.0136 25.4936 12.9888 21.8738 13.0337C18.1952 13.0786 15.4203 16.0498 15.4073 19.958C15.3942 23.8887 18.2917 26.8565 22.0961 26.8082C25.6276 26.7633 28.3878 23.7265 28.3715 19.9045Z" fill="#4C4940"/>
<path d="M38.6243 16.8383C37.8366 16.8176 37.2581 16.1826 37.2794 15.3595C37.3006 14.5365 37.9069 13.9188 38.6815 13.9308C39.4431 13.9429 40.0445 14.6038 40.033 15.4182C40.0232 16.2257 39.3957 16.8572 38.6227 16.8383H38.6243Z" fill="white"/>
<path d="M19.1232 15.5179C19.1265 16.3271 18.5431 16.969 17.7946 16.9794C16.989 16.9897 16.3761 16.3616 16.3794 15.53C16.3827 14.7035 16.9694 14.0737 17.7472 14.065C18.5137 14.0564 19.1183 14.6966 19.1216 15.5196L19.1232 15.5179Z" fill="white"/>
<path d="M12.1665 9.66653C12.8365 6.23974 15.9186 3.812 19.102 3.45656C19.8374 3.42722 21.1513 3.1477 21.1677 4.28478C21.1579 4.64541 20.9324 4.91803 20.6398 5.04744C19.9584 5.38909 19.272 5.64963 18.6298 6.03269C16.806 6.99723 15.3385 8.56913 14.2354 10.3326C13.5899 11.499 11.9998 11.0245 12.1665 9.66826V9.66653Z" fill="#4C4940"/>
<path d="M50.7565 47.6483C43.3862 56.2101 30.9172 59.8474 22.0385 51.6842C21.2852 51.0181 22.1546 49.7568 22.9847 50.3176C31.9664 56.4655 41.7144 52.8213 49.2007 45.9591C50.2515 45.0152 51.6815 46.5595 50.7565 47.6466V47.6483Z" fill="#4C4940"/>
<path d="M50.6685 10.3296C49.1814 7.77588 46.7906 6.06421 44.1644 4.99269C43.447 4.62517 43.7052 3.43804 44.4929 3.42769C47.6649 3.21545 50.9186 5.1221 52.2864 8.19345C52.6639 9.05446 53.2261 10.6643 51.8828 10.9784C51.3565 11.0922 50.9365 10.7523 50.6685 10.3279V10.3296Z" fill="#4C4940"/>
</svg>
