<svg width="65" height="65" viewBox="0 0 65 65" fill="none" xmlns="http://www.w3.org/2000/svg">
<path d="M28.6133 0.751201C49.8433 -1.66791 58.6124 14.0719 60.75 18.5184C64.0838 25.4514 65.1656 32.9382 63.6164 40.5027C61.7828 49.4544 56.9978 56.453 48.9706 60.3508C36.902 66.2122 24.8775 66.0448 13.3694 58.6874C6.74591 54.4531 2.84504 47.9412 1.1373 40.0126C-0.604771 31.9253 0.423149 24.0865 4.0609 16.8344C13.2631 0.744314 26.1881 1.0273 28.6149 0.749495L28.6133 0.751201Z" fill="#F9DA08"/>
<path d="M43.6219 27.2053C38.2274 27.5918 33.2398 22.4844 33.3967 16.2054C33.5634 9.46057 38.9448 5.10892 44.323 5.41778C49.8989 5.73872 54.1201 10.5355 54.1511 16.7438C54.1773 21.9858 49.3858 27.8783 43.6219 27.2053Z" fill="#F9F8EC"/>
<path d="M31.1008 16.4105C31.3819 21.7767 27.0528 27.5347 20.0731 27.3224C15.0969 27.1723 10.2809 22.0045 10.3087 16.5589C10.3398 10.4387 14.9564 5.64359 20.6238 5.40202C25.6964 5.18461 31.3917 10.0574 31.1008 16.4088V16.4105Z" fill="#F9F8EC"/>
<path d="M41.2939 23.2413C44.9414 23.3345 47.9075 20.3459 47.9565 16.5292C48.0056 12.6762 45.1686 9.55311 41.5668 9.49789C37.9045 9.44095 35.043 12.357 34.9417 16.2497C34.8404 20.1389 37.5728 23.1464 41.2939 23.2413Z" fill="#4C4940"/>
<path d="M28.6805 16.3567C28.6642 12.4657 25.8027 9.44098 22.1829 9.48584C18.5043 9.53071 15.7294 12.502 15.7164 16.4101C15.7033 20.3408 18.6007 23.3086 22.4052 23.2603C25.9367 23.2154 28.6969 20.1786 28.6805 16.3567Z" fill="#4C4940"/>
<path d="M46.2108 17.7054C45.4231 17.6847 44.8446 17.0498 44.8658 16.2267C44.887 15.4037 45.4933 14.7859 46.268 14.798C47.0295 14.8101 47.6309 15.471 47.6194 16.2854C47.6096 17.0929 46.9821 17.7244 46.2091 17.7054H46.2108Z" fill="white"/>
<path d="M28.344 16.7864C28.3472 17.5957 27.7638 18.2376 27.0153 18.2479C26.2097 18.2583 25.5968 17.6302 25.6001 16.7985C25.6034 15.972 26.1901 15.3422 26.9679 15.3336C27.7344 15.325 28.3391 15.9651 28.3423 16.7882L28.344 16.7864Z" fill="white"/>
<path d="M50.2471 34.9368C41.5318 34.9316 32.815 34.9264 24.0997 34.9402C20.4407 34.9454 16.7834 34.9955 13.1244 35.0248C13.1581 35.1065 13.1581 35.1065 13.1244 35.0248C10.7368 34.5089 10.5815 34.6452 10.6747 37.0643C10.8561 41.7662 11.1911 53.4943 28.9206 55.3889C44.8574 57.0902 53.7622 44.5097 54.5042 37.3093C54.6888 35.5235 54.612 34.8522 53.7279 34.7901C53.3275 34.7625 50.8239 34.9368 50.2454 34.9368H50.2471Z" fill="#47423C"/>
<path d="M51.9814 35.0349C51.9438 37.1193 50.6839 38.3754 49.2212 39.4383C48.226 40.163 47.136 37.963 46.0623 38.4548C43.5914 39.5867 47.855 42.5649 38.2867 43.2965C37.5252 43.3897 36.7637 43.469 36.0054 43.5329C30.1386 44.0246 24.342 43.5605 18.8037 41.0689C17.1924 40.3442 15.6971 39.1743 14.3881 37.9268C13.7001 37.2729 13.5301 36.0115 13.1265 35.0245C16.7855 34.9952 20.4428 34.9452 24.1018 34.94C32.8171 34.9262 41.5339 34.9314 50.2492 34.9366C50.8277 34.9366 51.4062 35.0004 51.9831 35.0349H51.9814Z" fill="#FAFAF7"/>
</svg>
