<svg width="69" height="65" viewBox="0 0 69 65" fill="none" xmlns="http://www.w3.org/2000/svg">
<path d="M30.5697 0.565174C53.1362 -1.86812 62.4574 13.9639 64.7295 18.4365C68.2731 25.4101 69.4231 32.9408 67.7763 40.5497C65.8273 49.5539 60.7411 56.5935 52.2086 60.5141C39.3802 66.4099 26.5988 66.2416 14.3662 58.841C7.32582 54.5819 3.1794 48.0318 1.36414 40.0568C-0.487586 31.9221 0.605042 24.0373 4.47179 16.7426C14.2533 0.558246 27.9919 0.842887 30.5715 0.563458L30.5697 0.565174Z" fill="#F9DA08"/>
<path d="M46.5232 27.174C40.789 27.5627 35.4875 22.4254 35.6542 16.1096C35.8314 9.32518 41.5516 4.94802 47.2684 5.25869C53.1953 5.58151 57.6822 10.4064 57.7152 16.6511C57.743 21.9238 52.6499 27.8508 46.5232 27.174Z" fill="#F9F8EC"/>
<path d="M33.2138 16.3159C33.5126 21.7136 28.9111 27.5053 21.492 27.2918C16.2026 27.1408 11.0834 21.9427 11.1129 16.4652C11.1459 10.3091 16.0532 5.48586 22.0774 5.24288C27.4693 5.0242 33.523 9.9255 33.2138 16.3142V16.3159Z" fill="#F9F8EC"/>
<path d="M44.0484 23.1871C47.9256 23.2808 51.0784 20.2748 51.1305 16.4357C51.1826 12.5601 48.167 9.41867 44.3385 9.36313C40.4457 9.30585 37.4041 12.239 37.2964 16.1545C37.1887 20.0665 40.0931 23.0916 44.0484 23.1871Z" fill="#4C4940"/>
<path d="M30.6412 16.2622C30.6238 12.3484 27.5822 9.30596 23.7345 9.35108C19.8244 9.39621 16.8748 12.3849 16.8609 16.316C16.847 20.2696 19.9268 23.2549 23.9708 23.2063C27.7246 23.1611 30.6585 20.1065 30.6412 16.2622Z" fill="#4C4940"/>
<path d="M49.2749 17.619C48.4377 17.5981 47.8227 16.9595 47.8453 16.1316C47.8679 15.3037 48.5124 14.6824 49.3357 14.6945C50.1452 14.7067 50.7845 15.3714 50.7723 16.1906C50.7619 17.0028 50.0949 17.6381 49.2732 17.619H49.2749Z" fill="white"/>
<path d="M30.2833 16.6944C30.2868 17.5084 29.6666 18.154 28.871 18.1644C28.0147 18.1748 27.3632 17.5431 27.3667 16.7065C27.3702 15.8752 27.9938 15.2417 28.8207 15.233C29.6353 15.2243 30.2781 15.8682 30.2815 16.6961L30.2833 16.6944Z" fill="white"/>
<path d="M53.5656 34.9509C44.3017 34.9457 35.0361 34.9405 25.7722 34.9544C21.8829 34.9596 17.9953 35.0099 14.106 35.0394C14.1419 35.1216 14.1419 35.1216 14.106 35.0394C11.5681 34.5205 11.4031 34.6576 11.5021 37.0909C11.6949 41.8204 12.051 53.6172 30.8966 55.5228C47.8367 57.2341 57.302 44.58 58.0907 37.3373C58.2869 35.541 58.2053 34.8659 57.2655 34.8034C56.84 34.7756 54.1787 34.9509 53.5638 34.9509H53.5656Z" fill="#47423C"/>
<path d="M55.4088 35.0497C55.3689 37.1463 54.0296 38.4098 52.4749 39.4789C51.417 40.2079 50.2584 37.995 49.1171 38.4896C46.4906 39.6282 51.0227 42.6238 40.852 43.3597C40.0426 43.4534 39.2331 43.5332 38.4271 43.5975C32.191 44.0921 26.0295 43.6252 20.1425 41.119C18.4298 40.3901 16.8403 39.2134 15.4489 37.9585C14.7176 37.3007 14.537 36.032 14.1079 35.0393C17.9972 35.0098 21.8848 34.9594 25.7742 34.9542C35.038 34.9403 44.3036 34.9456 53.5675 34.9508C54.1824 34.9508 54.7974 35.015 55.4105 35.0497H55.4088Z" fill="#FAFAF7"/>
</svg>
