<svg width="64" height="65" viewBox="0 0 64 65" fill="none" xmlns="http://www.w3.org/2000/svg">
<path d="M29.0939 3.42232C49.8535 1.10457 58.4283 16.1848 60.5185 20.445C63.7784 27.0874 64.8362 34.2605 63.3213 41.508C61.5284 50.0847 56.8495 56.7899 49.0001 60.5244C37.199 66.1403 25.4409 65.9799 14.1879 58.9308C7.71119 54.8739 3.89679 48.6348 2.22688 41.0385C0.523424 33.2901 1.52856 25.7798 5.0857 18.8315C14.084 3.4157 26.7225 3.68682 29.0955 3.42066L29.0939 3.42232Z" fill="#F9DA08"/>
<path d="M43.7717 27.4792C38.4967 27.8495 33.6196 22.9561 33.7731 16.9402C33.9361 10.478 39.1983 6.30869 44.4573 6.60626C49.9096 6.91375 54.0372 11.5096 54.0676 17.4577C54.0931 22.48 49.4078 28.1256 43.7717 27.4808V27.4792Z" fill="#F9F8EC"/>
<path d="M31.5277 17.1369C31.8025 22.2783 27.5694 27.7949 20.7444 27.5916C15.8785 27.4478 11.1692 22.4965 11.1964 17.2791C11.2268 11.4153 15.7411 6.82116 21.2829 6.58971C26.2431 6.38142 31.8121 11.05 31.5277 17.1353V17.1369Z" fill="#F9F8EC"/>
<path d="M42.4196 20.2054C45.9864 20.2946 48.8867 17.4314 48.9346 13.7746C48.9826 10.083 46.2085 7.0908 42.6865 7.03789C39.1054 6.98334 36.3073 9.77722 36.2082 13.5068C36.1092 17.233 38.781 20.1145 42.4196 20.2054Z" fill="#4C4940"/>
<path d="M29.1613 13.6093C29.1453 9.88139 26.3472 6.98337 22.8077 7.02635C19.2106 7.06933 16.4972 9.91611 16.4844 13.6605C16.4716 17.4265 19.3049 20.2699 23.025 20.2236C26.4783 20.1806 29.1773 17.2711 29.1613 13.6093Z" fill="#4C4940"/>
<path d="M39.1863 10.672C38.4161 10.6521 37.8504 10.0437 37.8712 9.25519C37.8919 8.46662 38.4848 7.87483 39.2423 7.8864C39.9869 7.89797 40.575 8.53111 40.5638 9.31141C40.5542 10.0851 39.9406 10.6901 39.1847 10.672H39.1863Z" fill="white"/>
<path d="M20.1176 9.40868C20.1208 10.184 19.5503 10.799 18.8185 10.8089C18.0306 10.8188 17.4314 10.2171 17.4346 9.42022C17.4378 8.62836 18.0115 8.02495 18.7721 8.01668C19.5216 8.00842 20.1128 8.62177 20.116 9.41034L20.1176 9.40868Z" fill="white"/>
<path d="M12.6452 5.42271C13.7351 2.26515 17.0301 0.395417 20.159 0.504527C20.8749 0.580572 22.1836 0.499569 22.0542 1.58074C21.9983 1.92129 21.7458 2.14942 21.4454 2.23043C20.7423 2.45856 20.0423 2.60903 19.3728 2.88181C17.4823 3.54142 15.8588 4.82592 14.5644 6.34353C13.7894 7.36023 12.3096 6.68573 12.6468 5.42271H12.6452Z" fill="#4C4940"/>
<path d="M15.0602 27.8798C19.4435 31.3267 24.8847 34.2511 30.5336 32.9303C31.4588 32.6823 31.9382 34.0379 31.0705 34.4545C25.0221 37.4682 17.7672 34.3536 13.5149 29.4817C12.6281 28.4154 14.0327 26.9739 15.0602 27.8798Z" fill="#4C4940"/>
<path d="M52.4438 8.11737C51.0056 5.71531 48.722 4.05386 46.1812 3.05534C45.7514 2.88341 45.5324 2.36927 45.7482 1.9378C46.1365 1.23851 47.0425 1.54765 47.6865 1.53112C50.3408 1.81877 52.8768 3.53806 54.0258 6.07072C54.3949 6.89565 54.9446 8.43808 53.6311 8.73896C53.1165 8.84807 52.7058 8.52239 52.4438 8.11571V8.11737Z" fill="#4C4940"/>
<path d="M9.59253 44.5014C11.1522 42.7986 17.2773 40.294 20.5132 40.9106C25.2624 41.8182 32.1945 47.8556 28.1724 53.8682C25.63 57.6705 22.8175 58.5153 19.0798 58.9963C10.9205 60.0461 5.25238 50.8512 3.73908 47.7961C1.30534 42.8829 1.37861 39.4045 2.8184 38.659C3.86988 38.1151 6.94785 38.907 7.90824 40.5222C8.86863 42.1373 9.01246 45.1345 9.59413 44.4997L9.59253 44.5014Z" fill="white"/>
<path d="M17.7789 60.1408C8.96916 60.1408 3.45449 49.5489 2.82648 48.2809C0.953633 44.5018 -0.339675 41.2242 0.0789989 39.9C0.398597 38.8899 0.606963 37.9192 1.42514 37.4943C2.93364 36.714 6.02579 35.7793 8.77581 39.9688C9.29515 40.8433 9.58759 41.9642 9.8209 42.8651C9.82729 42.8883 9.83368 42.9131 9.84008 42.9362C12.3713 41.1706 17.6287 39.2844 20.6968 39.8696C23.9455 40.4912 28.2489 43.2801 29.8246 47.2279C30.8105 49.6977 30.5293 52.2022 29.0128 54.4704C26.0965 58.8314 22.7103 59.5969 19.2043 60.0465C18.7201 60.1093 18.2439 60.1374 17.7773 60.1374L17.7789 60.1408ZM5.37259 39.1584C4.73605 38.9875 3.60527 39.3596 3.33361 39.5001C3.00282 39.6721 2.59098 40.2344 2.44077 40.7088C2.19627 41.4792 3.01505 44.0207 4.6466 47.3155C5.24105 48.5157 10.6982 59.0067 18.9518 57.947C22.7598 57.4577 25.1009 56.5997 27.3301 53.2669C28.4487 51.5955 28.6516 49.8349 27.9341 48.0362C26.6989 44.9399 23.0235 42.4684 20.3261 41.9526C17.3634 41.3872 11.6043 43.8422 10.3339 45.2292C10.0143 45.578 9.5748 45.7202 9.15613 45.6094C8.36193 45.4011 8.15737 44.6109 7.84576 43.414C7.64601 42.6453 7.39673 41.6881 7.03399 41.0764C6.66166 40.4515 6.02937 39.1584 5.37259 39.1584Z" fill="#4C4940"/>
<path d="M15.9404 46.0371L24.5554 42.3698" stroke="#4C4940" stroke-width="1.05838" stroke-linecap="round"/>
<path d="M18.7432 48.4146L27.3581 44.7473" stroke="#4C4940" stroke-width="1.05838" stroke-linecap="round"/>
<path d="M20.6963 51.3896L29.3112 47.7224" stroke="#4C4940" stroke-width="1.05838" stroke-linecap="round"/>
<path d="M22.6489 54.3643L29.3131 51.51" stroke="#4C4940" stroke-width="1.05838" stroke-linecap="round"/>
</svg>
