<svg width="84" height="69" viewBox="0 0 84 69" fill="none" xmlns="http://www.w3.org/2000/svg">
<path d="M45.1181 3.97289C67.6845 1.53959 77.0057 17.3716 79.2778 21.8442C82.8215 28.8178 83.9714 36.3485 82.3247 43.9573C80.3757 52.9616 75.2895 60.0011 66.7569 63.9218C53.9286 69.8176 41.1471 69.6492 28.9146 62.2487C21.8742 57.9896 17.7277 51.4395 15.9125 43.4644C14.0608 35.3297 15.1534 27.445 19.0201 20.1503C28.8016 3.96594 42.5402 4.25058 45.1198 3.97115L45.1181 3.97289Z" fill="#F9DA08"/>
<path d="M61.074 29.229C55.3398 29.6178 50.0382 24.4805 50.205 18.1647C50.3822 11.3802 56.1024 7.00309 61.8192 7.3155C67.7461 7.63832 72.233 12.4633 72.266 18.7079C72.2938 23.9806 67.2006 29.9077 61.074 29.2308V29.229Z" fill="#F9F8EC"/>
<path d="M47.7641 18.3711C48.0629 23.7688 43.4614 29.5605 36.0423 29.347C30.7529 29.196 25.6337 23.9979 25.6632 18.5204C25.6962 12.3642 30.6035 7.54104 36.6277 7.29806C42.0196 7.07937 48.0733 11.9807 47.7641 18.3694V18.3711Z" fill="#F9F8EC"/>
<path d="M59.6041 21.5923C63.4812 21.6861 66.634 18.68 66.6861 14.8409C66.7383 10.9654 63.7227 7.82394 59.8941 7.7684C56.0013 7.71113 52.9597 10.6443 52.852 14.5598C52.7443 18.4718 55.6487 21.4969 59.6041 21.5923Z" fill="#4C4940"/>
<path d="M45.1915 14.6675C45.1741 10.7537 42.1325 7.71123 38.2848 7.75635C34.3746 7.80148 31.4251 10.7902 31.4112 14.7213C31.3973 18.675 34.4771 21.6602 38.5211 21.6116C42.2749 21.5664 45.2088 18.5118 45.1915 14.6675Z" fill="#4C4940"/>
<path d="M56.0894 11.5838C55.2521 11.563 54.6372 10.9243 54.6598 10.0964C54.6824 9.26851 55.3268 8.64721 56.1502 8.65935C56.9597 8.6715 57.5989 9.33621 57.5868 10.1554C57.5763 10.9677 56.9093 11.6029 56.0877 11.5838H56.0894Z" fill="white"/>
<path d="M35.3609 10.2574C35.3644 11.0714 34.7443 11.717 33.9487 11.7274C33.0923 11.7378 32.4409 11.1061 32.4443 10.2695C32.4478 9.43815 33.0714 8.80466 33.8983 8.79599C34.713 8.78731 35.3557 9.43124 35.3592 10.2591L35.3609 10.2574Z" fill="white"/>
<path d="M27.2382 6.07291C28.4229 2.75794 32.0048 0.794989 35.406 0.909537C36.1842 0.989375 37.6069 0.904332 37.4662 2.03941C37.4054 2.39694 37.1309 2.63644 36.8044 2.72148C36.04 2.96099 35.2792 3.11896 34.5514 3.40534C32.4964 4.09784 30.7315 5.44638 29.3245 7.03965C28.482 8.10703 26.8734 7.3989 27.24 6.07291H27.2382Z" fill="#4C4940"/>
<path d="M29.8632 29.6494C34.628 33.2681 40.5428 36.3384 46.6834 34.9517C47.6892 34.6913 48.2103 36.1145 47.2671 36.5519C40.6922 39.7159 32.8058 36.446 28.1835 31.3312C27.2194 30.2118 28.7463 28.6983 29.8632 29.6494Z" fill="#4C4940"/>
<path d="M70.5007 8.90203C68.9373 6.38022 66.455 4.63593 63.693 3.58764C63.2257 3.40714 62.9878 2.86737 63.2223 2.41438C63.6444 1.68023 64.6293 2.00479 65.3294 1.98743C68.2147 2.28942 70.9714 4.09443 72.2204 6.75335C72.6216 7.61941 73.2192 9.23874 71.7913 9.55461C71.232 9.66916 70.7855 9.32725 70.5007 8.90029V8.90203Z" fill="#4C4940"/>
<path d="M18.7909 41.2435C21.1979 40.718 28.1827 42.286 30.7281 44.7987C34.4623 48.4888 37.1317 57.9668 29.9673 60.7298C25.4377 62.4777 22.4106 61.4927 18.7663 59.6265C10.8112 55.5523 11.1416 44.105 11.584 40.5276C12.2954 34.7744 14.414 31.799 16.1484 32.0314C17.4147 32.2016 19.7146 34.77 19.6249 36.7593C19.5352 38.7485 17.8957 41.4389 18.7933 41.2431L18.7909 41.2435Z" fill="white"/>
<path d="M16.9215 59.8255C9.00109 54.4424 10.2938 41.8759 10.4775 40.3911C11.0239 35.9653 11.7954 32.3292 12.9533 31.4352C13.8367 30.7534 14.5969 30.0379 15.5832 30.1689C17.3999 30.4132 20.7315 31.491 20.7315 36.8091C20.6824 37.8857 20.2838 39.0377 19.9619 39.9625C19.954 39.9865 19.9451 40.012 19.9372 40.036C23.2548 40.0496 29.0946 41.6243 31.5076 44.0072C34.0615 46.532 36.2847 51.5832 35.3715 55.9737C34.8004 58.7208 33.0695 60.7236 30.3676 61.7663C25.172 63.771 21.676 62.3665 18.2586 60.6146C17.7862 60.3733 17.3415 60.1068 16.922 59.8216L16.9215 59.8255ZM18.1501 34.026C17.6787 33.4885 16.4425 33.1207 16.1153 33.0767C15.7164 33.0239 15.0143 33.2605 14.5993 33.5807C13.9249 34.1002 13.1611 36.8073 12.6836 40.665C12.5098 42.0704 11.2248 54.5142 19.2706 58.6374C22.9829 60.5393 25.594 61.2249 29.565 59.6932C31.557 58.9255 32.7785 57.5207 33.1948 55.5205C33.9116 52.0772 32.0658 47.6854 29.9451 45.5893C27.6151 43.2881 20.9886 41.9006 19.0279 42.3287C18.5347 42.4362 18.0557 42.2912 17.7447 41.9392C17.1536 41.273 17.436 40.4619 17.8622 39.2322C18.1363 38.4427 18.4771 37.4592 18.5119 36.7065C18.5459 35.9364 18.7406 34.4273 18.1501 34.026Z" fill="#4C4940"/>
<path d="M23.5918 46.4565L33.5012 48.5364" stroke="#4C4940" stroke-width="1.05838" stroke-linecap="round"/>
<path d="M24.7085 50.2329L34.6179 52.3127" stroke="#4C4940" stroke-width="1.05838" stroke-linecap="round"/>
<path d="M24.7085 54.0098L34.6179 56.0896" stroke="#4C4940" stroke-width="1.05838" stroke-linecap="round"/>
<path d="M24.7085 57.7856L32.3844 59.3794" stroke="#4C4940" stroke-width="1.05838" stroke-linecap="round"/>
</svg>
