<svg width="20" height="21" viewBox="0 0 20 21" fill="none" xmlns="http://www.w3.org/2000/svg">
<path d="M11.6668 2.16699H5.00016C4.55814 2.16699 4.13421 2.34259 3.82165 2.65515C3.50909 2.96771 3.3335 3.39163 3.3335 3.83366V17.167C3.3335 17.609 3.50909 18.0329 3.82165 18.3455C4.13421 18.6581 4.55814 18.8337 5.00016 18.8337H15.0002C15.4422 18.8337 15.8661 18.6581 16.1787 18.3455C16.4912 18.0329 16.6668 17.609 16.6668 17.167V7.16699L11.6668 2.16699Z" stroke="#252525" stroke-linecap="round" stroke-linejoin="round"/>
<path d="M11.6665 2.16699V7.16699H16.6665" stroke="#252525" stroke-linecap="round" stroke-linejoin="round"/>
<path d="M13.3332 11.333H6.6665" stroke="#252525" stroke-linecap="round" stroke-linejoin="round"/>
<path d="M13.3332 14.667H6.6665" stroke="#252525" stroke-linecap="round" stroke-linejoin="round"/>
<path d="M8.33317 8H7.49984H6.6665" stroke="#252525" stroke-linecap="round" stroke-linejoin="round"/>
</svg>
