<svg width="20" height="21" viewBox="0 0 20 21" fill="none" xmlns="http://www.w3.org/2000/svg">
<path d="M9.1665 3.83301H3.33317C2.89114 3.83301 2.46722 4.0086 2.15466 4.32116C1.8421 4.63372 1.6665 5.05765 1.6665 5.49967V17.1663C1.6665 17.6084 1.8421 18.0323 2.15466 18.3449C2.46722 18.6574 2.89114 18.833 3.33317 18.833H14.9998C15.4419 18.833 15.8658 18.6574 16.1783 18.3449C16.4909 18.0323 16.6665 17.6084 16.6665 17.1663V11.333" stroke="#252525" stroke-linecap="round" stroke-linejoin="round"/>
<path d="M15.4165 2.5832C15.748 2.25168 16.1977 2.06543 16.6665 2.06543C17.1353 2.06543 17.585 2.25168 17.9165 2.5832C18.248 2.91472 18.4343 3.36436 18.4343 3.8332C18.4343 4.30204 18.248 4.75168 17.9165 5.0832L9.99984 12.9999L6.6665 13.8332L7.49984 10.4999L15.4165 2.5832Z" stroke="#252525" stroke-linecap="round" stroke-linejoin="round"/>
</svg>
