<svg width="22" height="21" viewBox="0 0 22 21" fill="none" xmlns="http://www.w3.org/2000/svg">
<path d="M11 9.5C13.2091 9.5 15 7.70914 15 5.5C15 3.29086 13.2091 1.5 11 1.5C8.79086 1.5 7 3.29086 7 5.5C7 7.70914 8.79086 9.5 11 9.5Z" stroke="#252525" stroke-linecap="round" stroke-linejoin="round"/>
<path d="M9.28571 11.5H12.7143C15.08 11.5 17 13.74 17 16.5V17.5C17 18.6 16.2286 19.5 15.2857 19.5H6.71429C5.77143 19.5 5 18.6 5 17.5V16.5C5 13.74 6.92 11.5 9.28571 11.5Z" stroke="#252525" stroke-linecap="round" stroke-linejoin="round"/>
<path d="M15.4206 2.54C15.5638 2.52 15.7159 2.5 15.868 2.5C17.5951 2.5 19 4.07 19 6C19 7.93 17.5951 9.5 15.868 9.5C15.5638 9.5 15.2774 9.45 15 9.36" stroke="#252525" stroke-linecap="round" stroke-linejoin="round"/>
<path d="M17 11.5H17.4444C19.4089 11.5 21 13.29 21 15.5V16.5C21 17.05 20.6 17.5 20.1111 17.5H19.2222" stroke="#252525" stroke-linecap="round" stroke-linejoin="round"/>
<path d="M6.57942 2.54C6.43624 2.52 6.28412 2.5 6.13199 2.5C4.40492 2.5 3 4.07 3 6C3 7.93 4.40492 9.5 6.13199 9.5C6.43624 9.5 6.7226 9.45 7 9.36" stroke="#252525" stroke-linecap="round" stroke-linejoin="round"/>
<path d="M5 11.5H4.55556C2.59111 11.5 1 13.29 1 15.5V16.5C1 17.05 1.4 17.5 1.88889 17.5H2.77778" stroke="#252525" stroke-linecap="round" stroke-linejoin="round"/>
</svg>
