<svg width="20" height="21" viewBox="0 0 20 21" fill="none" xmlns="http://www.w3.org/2000/svg">
<path d="M8 9.5C10.2091 9.5 12 7.70914 12 5.5C12 3.29086 10.2091 1.5 8 1.5C5.79086 1.5 4 3.29086 4 5.5C4 7.70914 5.79086 9.5 8 9.5Z" stroke="#252525" stroke-linecap="round" stroke-linejoin="round"/>
<path d="M6.28571 11.5H9.71429C12.08 11.5 14 13.74 14 16.5V17.5C14 18.6 13.2286 19.5 12.2857 19.5H3.71429C2.77143 19.5 2 18.6 2 17.5V16.5C2 13.74 3.92 11.5 6.28571 11.5Z" stroke="#252525" stroke-linecap="round" stroke-linejoin="round"/>
<path d="M12.4206 2.54C12.5638 2.52 12.7159 2.5 12.868 2.5C14.5951 2.5 16 4.07 16 6C16 7.93 14.5951 9.5 12.868 9.5C12.5638 9.5 12.2774 9.45 12 9.36" stroke="#252525" stroke-linecap="round" stroke-linejoin="round"/>
<path d="M14 11.5H14.4444C16.4089 11.5 18 13.29 18 15.5V16.5C18 17.05 17.6 17.5 17.1111 17.5H16.2222" stroke="#252525" stroke-linecap="round" stroke-linejoin="round"/>
</svg>
