<svg width="323" height="184" viewBox="0 0 323 184" fill="none" xmlns="http://www.w3.org/2000/svg">
<path fill-rule="evenodd" clip-rule="evenodd" d="M263.776 181.98V6.33416C263.776 2.8359 266.612 0 270.11 0C273.609 0 276.444 2.83591 276.444 6.33417V181.98H263.776Z" fill="#A2D5E8"/>
<path fill-rule="evenodd" clip-rule="evenodd" d="M243.871 182V63.8806C243.871 60.6328 246.504 58 249.751 58C252.999 58 255.632 60.6328 255.632 63.8806V182H243.871Z" fill="#0E1079"/>
<path fill-rule="evenodd" clip-rule="evenodd" d="M192.758 182V31.3507C192.758 27.291 196.049 24 200.108 24C204.168 24 207.459 27.291 207.459 31.3507V182H192.758Z" fill="#A2D5E8"/>
<path fill-rule="evenodd" clip-rule="evenodd" d="M168.521 182.272V99.2832C168.521 95.1765 171.85 91.8474 175.957 91.8474C180.064 91.8474 183.393 95.1765 183.393 99.2832V182.272H168.521Z" fill="#0E1079"/>
<path fill-rule="evenodd" clip-rule="evenodd" d="M129.16 181.976V52.732C129.16 48.9539 132.223 45.8911 136.001 45.8911C139.779 45.8911 142.842 48.9539 142.842 52.732V181.976H129.16Z" fill="#A2D5E8"/>
<path fill-rule="evenodd" clip-rule="evenodd" d="M107.501 182V86.8607C107.501 83.0716 110.572 80 114.361 80C118.15 80 121.222 83.0716 121.222 86.8607V182H107.501Z" fill="#0E1079"/>
<path fill-rule="evenodd" clip-rule="evenodd" d="M67.3322 181.977V19.24C67.3322 15.3044 70.5226 12.114 74.4582 12.114C78.3937 12.114 81.5841 15.3044 81.5841 19.24V181.977H67.3322Z" fill="#A2D5E8"/>
<path fill-rule="evenodd" clip-rule="evenodd" d="M44.3299 182V42.3507C44.3299 38.291 47.6209 35 51.6806 35C55.7403 35 59.0313 38.291 59.0313 42.3507V182H44.3299Z" fill="#0E1079"/>
<path fill-rule="evenodd" clip-rule="evenodd" d="M303.907 182L303.907 99.0202C303.907 95.1431 307.051 92 310.928 92C314.805 92 317.948 95.1431 317.948 99.0202V182H303.907Z" fill="#0E1079"/>
<path fill-rule="evenodd" clip-rule="evenodd" d="M7.21155 182V29.8607C7.21155 26.0716 10.2832 23 14.0722 23C17.8613 23 20.9329 26.0716 20.9329 29.8607V182H7.21155Z" fill="#A2D5E8"/>
</svg>
