<svg width="323" height="314" viewBox="0 0 323 314" fill="none" xmlns="http://www.w3.org/2000/svg">
<path fill-rule="evenodd" clip-rule="evenodd" d="M263.567 311.208V176.352C263.567 172.844 266.411 170 269.92 170C273.428 170 276.272 172.844 276.272 176.352V311.208H263.567Z" fill="#A2D5E8"/>
<path fill-rule="evenodd" clip-rule="evenodd" d="M243.139 311.208V221.083C243.139 217.575 245.983 214.73 249.491 214.73C253 214.73 255.844 217.575 255.844 221.083V311.208H243.139Z" fill="#0E1079"/>
<path fill-rule="evenodd" clip-rule="evenodd" d="M192.018 310.594V100.008C192.018 95.8898 195.357 92.551 199.475 92.551C203.594 92.551 206.932 95.8898 206.932 100.008V310.594H192.018Z" fill="#A2D5E8"/>
<path fill-rule="evenodd" clip-rule="evenodd" d="M168.037 311.596V194.457C168.037 190.339 171.376 187 175.494 187C179.613 187 182.951 190.339 182.951 194.457V311.596H168.037Z" fill="#0E1079"/>
<path fill-rule="evenodd" clip-rule="evenodd" d="M129.565 311.209V212.956C129.565 209.167 132.637 206.095 136.426 206.095C140.215 206.095 143.286 209.167 143.286 212.956V311.209H129.565Z" fill="#A2D5E8"/>
<path fill-rule="evenodd" clip-rule="evenodd" d="M107.5 311.209V239.234C107.5 235.445 110.572 232.374 114.361 232.374C118.15 232.374 121.222 235.445 121.222 239.234V311.209H107.5Z" fill="#0E1079"/>
<g clip-path="url(#clip0_85_6370)">
<path fill-rule="evenodd" clip-rule="evenodd" d="M67.5585 310.552V77.1402C67.5585 73.1933 70.7581 69.9937 74.7051 69.9937C78.652 69.9937 81.8516 73.1933 81.8516 77.1402V310.552H67.5585Z" fill="#A2D5E8"/>
<path fill-rule="evenodd" clip-rule="evenodd" d="M44.5757 312.484V111.147C44.5757 107.2 47.7754 104 51.7223 104C55.6692 104 58.8688 107.2 58.8688 111.147V312.484H44.5757Z" fill="#0E1079"/>
</g>
<path fill-rule="evenodd" clip-rule="evenodd" d="M303.649 312.249L303.649 164.271C303.649 160.307 306.863 157.094 310.827 157.094C314.791 157.094 318.004 160.307 318.004 164.271V312.249H303.649Z" fill="#0E1079"/>
<path fill-rule="evenodd" clip-rule="evenodd" d="M7.60691 311.297V217.011C7.60691 213.225 10.6756 210.157 14.4611 210.157C18.2465 210.157 21.3152 213.225 21.3152 217.011V311.297H7.60691Z" fill="#A2D5E8"/>
<defs>
<clipPath id="clip0_85_6370">
<rect x="38.1416" y="67" width="50.1445" height="245" fill="white"/>
</clipPath>
</defs>
</svg>
