<svg width="347" height="192" viewBox="0 0 347 192" fill="none" xmlns="http://www.w3.org/2000/svg">
<path d="M-76.5933 149.191C-71.4455 150.905 -58.9433 152.173 -46.0908 138.586C-30.0251 121.603 12.5016 62.1609 58.8085 96.1277C77.7093 111.521 114.881 108.079 132.521 96.1277C143.225 88.876 163.708 77.5537 179.773 85.7489C216.565 104.517 250.651 45.1774 273.332 19.7022C299.109 -9.25031 365.001 -10.1939 423.593 57.4431" stroke="#0E1079" stroke-width="2" stroke-linecap="round"/>
<path d="M-46.0908 138.586C-58.9433 152.173 -71.4455 150.905 -76.5933 149.191V191.165H423.593V57.4431C365.001 -10.1939 299.109 -9.25031 273.332 19.7022C250.651 45.1774 216.565 104.517 179.773 85.7489C163.708 77.5537 143.225 88.876 132.521 96.1277C114.881 108.079 77.7093 111.521 58.8085 96.1277C12.5016 62.1609 -30.0251 121.603 -46.0908 138.586Z" fill="url(#paint0_linear_85_6469)" fill-opacity="0.5"/>
<path d="M172.571 83.2347C172.571 87.6887 168.954 91.3007 164.491 91.3007C160.028 91.3007 156.412 87.6887 156.412 83.2347C156.412 78.7807 160.028 75.1687 164.491 75.1687C168.954 75.1687 172.571 78.7807 172.571 83.2347Z" fill="#A2D5E8" stroke="white"/>
<defs>
<linearGradient id="paint0_linear_85_6469" x1="173.5" y1="1" x2="173.5" y2="191.165" gradientUnits="userSpaceOnUse">
<stop stop-color="#5BA1DF"/>
<stop offset="1" stop-color="#5BA1DF" stop-opacity="0"/>
</linearGradient>
</defs>
</svg>
