<svg width="48" height="48" viewBox="0 0 48 48" fill="none" xmlns="http://www.w3.org/2000/svg">
	<g clip-path="url(#clip0_1375_5578)">
		<rect x="0.5" y="0.5" width="47" height="47" rx="23.5" fill="#DAE8F0" stroke="#0E1079" />
		<mask id="path-2-inside-1_1375_5578" fill="white">
			<path fill-rule="evenodd" clip-rule="evenodd"
				d="M29.3356 35.8843C31.0131 36.6182 31.6422 35.0805 31.6422 35.0805L36.0806 12.7836C36.0456 11.2808 34.0186 12.1895 34.0186 12.1895L9.17051 21.94C9.17051 21.94 7.98227 22.3594 8.08712 23.0933C8.19196 23.8272 9.13556 24.1767 9.13556 24.1767L15.3913 26.2736C15.3913 26.2736 17.2785 32.4594 17.6629 33.6476C18.0124 34.8009 18.3269 34.8359 18.3269 34.8359C18.6764 34.9757 18.9909 34.731 18.9909 34.731L23.0449 31.0615L29.3356 35.8843ZM30.419 16.7327C30.419 16.7327 31.2927 16.2085 31.2577 16.7327C31.2577 16.7327 31.3975 16.8026 30.9432 17.2919C30.5238 17.7112 20.6335 26.5881 19.3055 27.7763C19.2006 27.8462 19.1307 27.951 19.1307 28.0908L18.7463 31.376C18.6764 31.7254 18.2221 31.7604 18.1172 31.4459L16.4747 26.0638C16.4048 25.8542 16.4747 25.6095 16.6844 25.4697L30.419 16.7327Z" />
		</mask>
		<path fill-rule="evenodd" clip-rule="evenodd"
			d="M29.3356 35.8843C31.0131 36.6182 31.6422 35.0805 31.6422 35.0805L36.0806 12.7836C36.0456 11.2808 34.0186 12.1895 34.0186 12.1895L9.17051 21.94C9.17051 21.94 7.98227 22.3594 8.08712 23.0933C8.19196 23.8272 9.13556 24.1767 9.13556 24.1767L15.3913 26.2736C15.3913 26.2736 17.2785 32.4594 17.6629 33.6476C18.0124 34.8009 18.3269 34.8359 18.3269 34.8359C18.6764 34.9757 18.9909 34.731 18.9909 34.731L23.0449 31.0615L29.3356 35.8843ZM30.419 16.7327C30.419 16.7327 31.2927 16.2085 31.2577 16.7327C31.2577 16.7327 31.3975 16.8026 30.9432 17.2919C30.5238 17.7112 20.6335 26.5881 19.3055 27.7763C19.2006 27.8462 19.1307 27.951 19.1307 28.0908L18.7463 31.376C18.6764 31.7254 18.2221 31.7604 18.1172 31.4459L16.4747 26.0638C16.4048 25.8542 16.4747 25.6095 16.6844 25.4697L30.419 16.7327Z"
			fill="#0E1079" />
		<path
			d="M31.6422 35.0805L32.5677 35.4591L32.6041 35.3701L32.6229 35.2757L31.6422 35.0805ZM29.3356 35.8843L28.7271 36.6779L28.8235 36.7518L28.9348 36.8005L29.3356 35.8843ZM36.0806 12.7836L37.0613 12.9788L37.0829 12.8706L37.0803 12.7603L36.0806 12.7836ZM34.0186 12.1895L34.3839 13.1204L34.406 13.1117L34.4277 13.102L34.0186 12.1895ZM9.17051 21.94L9.50333 22.883L9.51967 22.8772L9.5358 22.8709L9.17051 21.94ZM8.08712 23.0933L7.09717 23.2347L8.08712 23.0933ZM9.13556 24.1767L8.78825 25.1144L8.80291 25.1199L8.81775 25.1248L9.13556 24.1767ZM15.3913 26.2736L16.3478 25.9818L16.1975 25.4891L15.7091 25.3254L15.3913 26.2736ZM17.6629 33.6476L18.6199 33.3576L18.6172 33.3487L18.6143 33.3398L17.6629 33.6476ZM18.3269 34.8359L18.6983 33.9074L18.5723 33.857L18.4374 33.842L18.3269 34.8359ZM18.9909 34.731L19.6049 35.5204L19.6343 35.4975L19.662 35.4724L18.9909 34.731ZM23.0449 31.0615L23.6533 30.2679L22.9918 29.7607L22.3738 30.3201L23.0449 31.0615ZM31.2577 16.7327L30.2599 16.6662L30.2157 17.3297L30.8105 17.6271L31.2577 16.7327ZM30.419 16.7327L29.9045 15.8752L29.8933 15.8819L29.8822 15.8889L30.419 16.7327ZM30.9432 17.2919L31.6503 17.999L31.6634 17.9859L31.676 17.9723L30.9432 17.2919ZM19.3055 27.7763L19.8602 28.6084L19.9193 28.5689L19.9723 28.5215L19.3055 27.7763ZM19.1307 28.0908L20.124 28.2071L20.1307 28.1491V28.0908H19.1307ZM18.7463 31.376L19.7269 31.5721L19.7348 31.5324L19.7395 31.4922L18.7463 31.376ZM18.1172 31.4459L17.1608 31.7378L17.1645 31.75L17.1686 31.7621L18.1172 31.4459ZM16.4747 26.0638L17.4311 25.7719L17.4274 25.7597L17.4234 25.7476L16.4747 26.0638ZM16.6844 25.4697L16.1476 24.626L16.1386 24.6317L16.1297 24.6377L16.6844 25.4697ZM31.6422 35.0805C30.7166 34.7019 30.7168 34.7014 30.717 34.7009C30.7171 34.7007 30.7173 34.7003 30.7174 34.6999C30.7177 34.6993 30.7179 34.6987 30.7181 34.6981C30.7186 34.697 30.7191 34.6959 30.7195 34.6949C30.7203 34.6929 30.721 34.6912 30.7216 34.6899C30.7228 34.6871 30.7235 34.6856 30.7237 34.6852C30.724 34.6844 30.7225 34.6879 30.7189 34.6949C30.7117 34.7092 30.6975 34.7358 30.6761 34.7691C30.631 34.8394 30.5688 34.9165 30.4944 34.9758C30.4254 35.0309 30.3531 35.0658 30.2661 35.0778C30.1807 35.0897 30.013 35.0892 29.7364 34.9682L28.9348 36.8005C29.4969 37.0464 30.0369 37.1289 30.5412 37.0588C31.044 36.989 31.4435 36.7771 31.7415 36.5394C32.034 36.3061 32.2339 36.0446 32.3592 35.8495C32.423 35.7501 32.471 35.6623 32.5048 35.5954C32.5217 35.5617 32.5353 35.5329 32.5457 35.51C32.5509 35.4985 32.5553 35.4884 32.559 35.4799C32.5608 35.4757 32.5624 35.4718 32.5639 35.4683C32.5646 35.4666 32.5653 35.465 32.5659 35.4634C32.5662 35.4627 32.5666 35.4619 32.5669 35.4612C32.567 35.4608 32.5672 35.4603 32.5673 35.4601C32.5675 35.4596 32.5677 35.4591 31.6422 35.0805ZM35.0998 12.5884L30.6614 34.8853L32.6229 35.2757L37.0613 12.9788L35.0998 12.5884ZM34.0186 12.1895C34.4277 13.102 34.4274 13.1021 34.4271 13.1022C34.4271 13.1023 34.4268 13.1024 34.4267 13.1024C34.4263 13.1026 34.4261 13.1027 34.4258 13.1028C34.4253 13.1031 34.4249 13.1032 34.4246 13.1034C34.4241 13.1036 34.4239 13.1037 34.4243 13.1035C34.4249 13.1032 34.4273 13.1022 34.4312 13.1005C34.4392 13.0972 34.4534 13.0912 34.473 13.0835C34.5126 13.0679 34.5719 13.0457 34.6439 13.0224C34.7964 12.973 34.9673 12.9313 35.1132 12.9201C35.2813 12.9071 35.2753 12.9448 35.2004 12.8964C35.1498 12.8636 35.1082 12.8157 35.0854 12.7695C35.066 12.7304 35.0791 12.7308 35.0808 12.8068L37.0803 12.7603C37.0657 12.1344 36.8212 11.563 36.2869 11.2172C35.8221 10.9164 35.3028 10.8996 34.9598 10.9259C34.5945 10.954 34.2565 11.0456 34.0279 11.1196C33.9093 11.158 33.81 11.195 33.7385 11.2232C33.7027 11.2374 33.6733 11.2495 33.6516 11.2588C33.6407 11.2634 33.6317 11.2673 33.6246 11.2703C33.6211 11.2719 33.6181 11.2732 33.6156 11.2743C33.6143 11.2749 33.6132 11.2754 33.6122 11.2758C33.6117 11.276 33.6112 11.2762 33.6108 11.2764C33.6106 11.2765 33.6103 11.2767 33.6101 11.2767C33.6099 11.2768 33.6096 11.277 34.0186 12.1895ZM9.5358 22.8709L34.3839 13.1204L33.6533 11.2586L8.80522 21.0091L9.5358 22.8709ZM9.07707 22.9519C9.09392 23.0699 9.04795 23.1527 9.0398 23.1647C9.03823 23.1671 9.04509 23.1567 9.06739 23.1358C9.08929 23.1153 9.11958 23.0907 9.15871 23.0636C9.23894 23.0081 9.32981 22.96 9.4064 22.9246C9.44302 22.9076 9.47252 22.8953 9.49071 22.8881C9.49971 22.8845 9.50567 22.8822 9.50801 22.8813C9.50918 22.8809 9.50942 22.8808 9.50867 22.8811C9.50829 22.8812 9.50767 22.8815 9.50678 22.8818C9.50634 22.8819 9.50583 22.8821 9.50525 22.8823C9.50497 22.8824 9.50466 22.8825 9.50434 22.8826C9.50418 22.8827 9.50393 22.8828 9.50385 22.8828C9.50359 22.8829 9.50333 22.883 9.17051 21.94C8.83769 20.997 8.83742 20.9971 8.83714 20.9972C8.83705 20.9972 8.83677 20.9973 8.83657 20.9974C8.83618 20.9976 8.83576 20.9977 8.83533 20.9979C8.83447 20.9982 8.83353 20.9985 8.83252 20.9989C8.83049 20.9996 8.82816 21.0004 8.82554 21.0014C8.8203 21.0033 8.81388 21.0056 8.80637 21.0085C8.79136 21.0141 8.77189 21.0215 8.74861 21.0308C8.70223 21.0494 8.63972 21.0756 8.56657 21.1094C8.42364 21.1756 8.22401 21.2782 8.02029 21.4192C7.6963 21.6435 6.95664 22.251 7.09717 23.2347L9.07707 22.9519ZM9.13556 24.1767C9.48288 23.2389 9.48317 23.239 9.48346 23.2392C9.48355 23.2392 9.48384 23.2393 9.48402 23.2394C9.48439 23.2395 9.48475 23.2396 9.48509 23.2398C9.48578 23.24 9.48641 23.2403 9.48699 23.2405C9.48816 23.2409 9.48912 23.2413 9.48989 23.2416C9.49142 23.2422 9.49217 23.2425 9.49218 23.2425C9.4922 23.2425 9.48937 23.2413 9.48406 23.2391C9.47331 23.2346 9.45336 23.2258 9.42716 23.2129C9.37275 23.1862 9.30245 23.1472 9.23459 23.0984C9.06843 22.9789 9.07222 22.9179 9.07707 22.9519L7.09717 23.2347C7.20686 24.0026 7.73487 24.4833 8.06673 24.722C8.24787 24.8523 8.42002 24.9465 8.54581 25.0083C8.60972 25.0397 8.6643 25.0639 8.70557 25.0814C8.72626 25.0901 8.7438 25.0972 8.75769 25.1027C8.76465 25.1055 8.77071 25.1078 8.77581 25.1098C8.77837 25.1107 8.78069 25.1116 8.78276 25.1124C8.7838 25.1128 8.78477 25.1131 8.78569 25.1135C8.78615 25.1137 8.78659 25.1138 8.78701 25.114C8.78723 25.1141 8.78754 25.1142 8.78764 25.1142C8.78795 25.1143 8.78825 25.1144 9.13556 24.1767ZM15.7091 25.3254L9.45338 23.2285L8.81775 25.1248L15.0735 27.2217L15.7091 25.3254ZM18.6143 33.3398C18.4251 32.755 17.8602 30.9211 17.339 29.2218C17.0792 28.3747 16.8314 27.5647 16.6485 26.9664C16.557 26.6672 16.4819 26.4211 16.4295 26.2497C16.4034 26.164 16.3829 26.097 16.369 26.0514C16.3621 26.0286 16.3567 26.0112 16.3532 25.9995C16.3514 25.9936 16.35 25.9892 16.3491 25.9862C16.3487 25.9847 16.3483 25.9836 16.3481 25.9829C16.348 25.9825 16.3479 25.9822 16.3478 25.982C16.3478 25.982 16.3478 25.9819 16.3478 25.9818C16.3478 25.9818 16.3478 25.9818 15.3913 26.2736C14.4348 26.5654 14.4348 26.5654 14.4348 26.5655C14.4348 26.5655 14.4349 26.5656 14.4349 26.5657C14.4349 26.5659 14.435 26.5661 14.4351 26.5665C14.4354 26.5673 14.4357 26.5684 14.4362 26.5699C14.4371 26.5729 14.4384 26.5773 14.4402 26.5832C14.4438 26.595 14.4492 26.6124 14.4561 26.6352C14.47 26.6809 14.4905 26.7479 14.5167 26.8337C14.5691 27.0053 14.6443 27.2516 14.7358 27.551C14.9188 28.1497 15.1668 28.9603 15.4269 29.8082C15.9454 31.4989 16.5162 33.3521 16.7115 33.9555L18.6143 33.3398ZM18.3269 34.8359C18.4374 33.842 18.439 33.8422 18.4407 33.8424C18.4413 33.8424 18.443 33.8426 18.4441 33.8428C18.4464 33.843 18.4486 33.8433 18.4509 33.8436C18.4554 33.8441 18.4599 33.8447 18.4644 33.8454C18.4733 33.8466 18.4822 33.848 18.491 33.8494C18.5086 33.8524 18.5259 33.8558 18.5428 33.8596C18.5768 33.8672 18.609 33.8765 18.6394 33.887C18.7005 33.9081 18.7516 33.9334 18.7927 33.9584C18.8746 34.0084 18.9091 34.0523 18.9068 34.0495C18.8949 34.0347 18.7756 33.8712 18.6199 33.3576L16.7059 33.9376C16.8997 34.5774 17.1123 35.008 17.3451 35.2989C17.4652 35.449 17.6001 35.5738 17.7519 35.6663C17.828 35.7127 17.9064 35.7497 17.9861 35.7773C18.0257 35.791 18.0651 35.8021 18.1038 35.8108C18.1231 35.8152 18.1422 35.8189 18.161 35.822C18.1705 35.8236 18.1798 35.825 18.189 35.8263C18.1936 35.827 18.1982 35.8276 18.2028 35.8281C18.2051 35.8284 18.2074 35.8287 18.2097 35.829C18.2108 35.8291 18.2125 35.8293 18.2131 35.8294C18.2148 35.8296 18.2165 35.8297 18.3269 34.8359ZM18.9909 34.731C18.377 33.9417 18.3773 33.9414 18.3776 33.9412C18.3777 33.9411 18.378 33.9409 18.3782 33.9407C18.3787 33.9404 18.3791 33.9401 18.3795 33.9397C18.3803 33.9391 18.3811 33.9385 18.3819 33.9379C18.3834 33.9367 18.385 33.9355 18.3864 33.9344C18.3894 33.9322 18.3921 33.9301 18.3947 33.9282C18.3998 33.9245 18.4043 33.9213 18.4082 33.9186C18.4157 33.9134 18.4215 33.9098 18.4258 33.9072C18.433 33.9029 18.4414 33.8985 18.4536 33.8941C18.4735 33.887 18.5731 33.8573 18.6983 33.9074L17.9555 35.7643C18.4302 35.9542 18.8618 35.8721 19.1263 35.7776C19.2609 35.7295 19.3698 35.6727 19.4469 35.6269C19.4861 35.6036 19.5192 35.582 19.5453 35.5639C19.5585 35.5548 19.57 35.5465 19.5799 35.5392C19.5849 35.5356 19.5895 35.5322 19.5936 35.529C19.5957 35.5274 19.5977 35.5259 19.5995 35.5245C19.6005 35.5238 19.6014 35.5231 19.6023 35.5224C19.6027 35.522 19.6032 35.5217 19.6036 35.5214C19.6038 35.5212 19.6041 35.5209 19.6042 35.5209C19.6046 35.5206 19.6049 35.5204 18.9909 34.731ZM22.3738 30.3201L18.3199 33.9896L19.662 35.4724L23.716 31.8029L22.3738 30.3201ZM29.944 35.0907L23.6533 30.2679L22.4365 31.8551L28.7271 36.6779L29.944 35.0907ZM32.2555 16.7992C32.2681 16.6112 32.2493 16.3465 32.0993 16.0848C31.9367 15.8013 31.686 15.6356 31.4455 15.5589C31.055 15.4343 30.6897 15.5398 30.5587 15.5799C30.3749 15.6362 30.21 15.7131 30.1053 15.7658C30.0496 15.7938 30.0027 15.8192 29.9687 15.8382C29.9516 15.8478 29.9374 15.8559 29.9266 15.8622C29.9212 15.8653 29.9166 15.868 29.9129 15.8702C29.911 15.8713 29.9094 15.8723 29.908 15.8731C29.9073 15.8735 29.9067 15.8739 29.9061 15.8742C29.9058 15.8744 29.9055 15.8746 29.9052 15.8748C29.9051 15.8748 29.9049 15.8749 29.9049 15.875C29.9047 15.8751 29.9045 15.8752 30.419 16.7327C30.9335 17.5902 30.9333 17.5903 30.9331 17.5904C30.9331 17.5904 30.9329 17.5905 30.9328 17.5906C30.9326 17.5907 30.9324 17.5908 30.9322 17.5909C30.9318 17.5912 30.9315 17.5914 30.9312 17.5915C30.9307 17.5919 30.9303 17.5921 30.9301 17.5922C30.9297 17.5924 30.93 17.5922 30.931 17.5917C30.933 17.5905 30.9375 17.5879 30.9442 17.5842C30.9578 17.5766 30.979 17.5651 31.0046 17.5522C31.0305 17.5392 31.058 17.5262 31.0848 17.5148C31.1124 17.503 31.1325 17.4959 31.1442 17.4923C31.1586 17.4879 31.1455 17.4934 31.1106 17.497C31.0917 17.499 31.0591 17.5011 31.016 17.4984C30.9732 17.4958 30.911 17.4877 30.8374 17.4642C30.7623 17.4402 30.6734 17.3995 30.585 17.3317C30.4948 17.2626 30.4197 17.1764 30.3642 17.0796C30.2553 16.8896 30.2562 16.7231 30.2599 16.6662L32.2555 16.7992ZM31.676 17.9723C31.9209 17.7086 32.1444 17.4204 32.2344 17.0964C32.2861 16.9101 32.3123 16.6425 32.1934 16.3616C32.1354 16.2245 32.0533 16.1108 31.9616 16.0213C31.9168 15.9775 31.8714 15.9412 31.828 15.9111C31.8063 15.8961 31.785 15.8827 31.7645 15.8706C31.7542 15.8646 31.7441 15.8589 31.7342 15.8535C31.7292 15.8508 31.7243 15.8482 31.7194 15.8456C31.717 15.8444 31.7146 15.8431 31.7121 15.8419C31.7109 15.8413 31.7091 15.8404 31.7085 15.8401C31.7067 15.8392 31.7049 15.8383 31.2577 16.7327C30.8105 17.6271 30.8087 17.6262 30.8069 17.6253C30.8063 17.625 30.8045 17.6241 30.8033 17.6235C30.8009 17.6223 30.7985 17.621 30.7961 17.6198C30.7913 17.6172 30.7864 17.6147 30.7815 17.612C30.7717 17.6067 30.7618 17.6011 30.7517 17.5952C30.7317 17.5835 30.7112 17.5704 30.6904 17.5561C30.6488 17.5273 30.606 17.4929 30.5641 17.452C30.4783 17.3682 30.4035 17.2638 30.3515 17.1409C30.2447 16.8884 30.2774 16.6689 30.3073 16.5612C30.3355 16.4596 30.3716 16.4142 30.3547 16.4392C30.3414 16.459 30.3009 16.514 30.2104 16.6114L31.676 17.9723ZM19.9723 28.5215C21.2777 27.3535 31.2049 18.4444 31.6503 17.999L30.2361 16.5848C30.2372 16.5837 30.2344 16.5864 30.2256 16.5949C30.2175 16.6026 30.2066 16.613 30.1925 16.6262C30.1644 16.6526 30.1269 16.6873 30.0801 16.7305C29.9865 16.8168 29.8599 16.9326 29.7039 17.0747C29.3922 17.3585 28.9674 17.7433 28.4643 18.1979C27.4582 19.1069 26.1417 20.2923 24.7964 21.5022C22.1056 23.9222 19.3018 26.4378 18.6387 27.0311L19.9723 28.5215ZM20.1307 28.0908C20.1307 28.1948 20.1028 28.308 20.0426 28.4112C19.985 28.51 19.914 28.5725 19.8602 28.6084L18.7508 26.9442C18.4155 27.1678 18.1307 27.5631 18.1307 28.0908H20.1307ZM19.7395 31.4922L20.124 28.2071L18.1375 27.9746L17.7531 31.2597L19.7395 31.4922ZM17.1686 31.7621C17.3845 32.4099 17.9943 32.7082 18.5412 32.6553C19.092 32.602 19.601 32.2015 19.7269 31.5721L17.7657 31.1798C17.8217 30.8999 18.0686 30.6917 18.3486 30.6646C18.6246 30.6378 18.9548 30.7964 19.0659 31.1296L17.1686 31.7621ZM15.5182 26.3557L17.1608 31.7378L19.0737 31.154L17.4311 25.7719L15.5182 26.3557ZM16.1297 24.6377C15.5326 25.0357 15.3182 25.7566 15.526 26.3801L17.4234 25.7476C17.4914 25.9517 17.4168 26.1833 17.2391 26.3018L16.1297 24.6377ZM29.8822 15.8889L16.1476 24.626L17.2211 26.3135L30.9557 17.5764L29.8822 15.8889Z"
			fill="#0E1079" mask="url(#path-2-inside-1_1375_5578)" />
	</g>
	<defs>
		<clipPath id="clip0_1375_5578">
			<rect width="48" height="48" fill="white" />
		</clipPath>
	</defs>
</svg>