<svg width="38" height="44" viewBox="0 0 38 44" fill="none" xmlns="http://www.w3.org/2000/svg">
<g clip-path="url(#clip0_1278_5282)">
<path d="M24.7351 22.3089V24.8327H19.6575V16.754H5.09082V16.2066C6.62345 14.0434 8.74247 11.079 9.00902 10.9187C9.40883 10.6917 12.3408 8.78223 12.5407 8.78223C12.7406 8.78223 18.4314 9.74365 18.6979 10.0107C18.9644 10.2778 24.5219 15.3653 24.5219 15.3653C24.5219 15.3653 25.0816 16.3534 25.5214 17.1947C24.2154 17.395 23.2158 18.5166 23.2158 19.892C23.2158 20.9336 23.8422 21.8549 24.7351 22.3089Z" fill="#0E1079"/>
<path d="M34.091 32.6577V35.6889C34.091 36.6637 33.2913 37.4515 32.3184 37.4515H29.3198L26.1613 40.6162H33.0781C35.2771 40.6162 37.1029 38.8803 37.2229 36.6904C37.2362 36.6103 37.2362 36.5302 37.2362 36.4367V32.6577H34.091ZM12.5009 21.3076C13.3938 21.7616 14.0202 22.683 14.0202 23.7512C14.0202 25.3269 12.7008 26.5554 11.1282 26.4619C9.74216 26.3818 8.62267 25.2067 8.58269 23.818C8.55604 22.723 9.18242 21.775 10.102 21.3076V18.7705H5.07764V34.4204C5.21091 35.0079 5.744 35.4619 6.3837 35.4619H8.98251L17.5786 26.8491V18.7705H12.5009V21.3076Z" fill="#0E1079"/>
<path d="M12.048 34.0723H10.542V35.461H12.048V34.0723Z" fill="#0E1079"/>
<path d="M32.1451 9.19552V24.8454H27.134V22.3083C28.0536 21.8543 28.6666 20.9062 28.6533 19.7979C28.6133 18.4092 27.5072 17.2474 26.1078 17.154C25.4015 17.1139 24.7351 17.3409 24.2287 17.7549C24.2154 17.7415 24.202 17.7282 24.202 17.7282L12.3408 9.47594L13.6869 8.14062H30.839C31.492 8.14062 32.0251 8.59463 32.1451 9.19552Z" fill="#5BA1DF"/>
<path d="M12.3408 9.47594L13.6869 8.14062L12.3408 9.48929V9.47594Z" fill="#5BA1DF"/>
<path d="M33.9844 3.01335L32.7183 6.17804H27.1475V8.1543H24.7486V6.16469H12.5142V8.14095H13.6737L5.07766 16.7537V9.48961C5.07766 8.75519 5.67739 8.14095 6.42371 8.14095H10.102V6.16469H4.91774C3.94485 6.16469 3.14522 6.96587 3.14522 7.9273V10.9585H0V7.17952C0 7.08605 -2.03556e-07 7.00593 0.013327 6.92582C0.146599 4.7359 1.9591 3 4.15809 3H33.9844V3.01335Z" fill="#A2D5E8"/>
<path d="M17.5786 26.8623L8.98254 35.4751H10.0754V37.4513H4.43796L3.17188 40.616H26.1746L29.3332 37.4513H27.1209V35.4751H30.7992C31.5455 35.4751 32.1452 34.8608 32.1452 34.1264V26.8623H17.5786ZM24.7086 37.4513H12.4743V35.4751H24.7086V37.4513Z" fill="#A2D5E8"/>
</g>
<defs>
<clipPath id="clip0_1278_5282">
<rect width="37.2362" height="43.6157" fill="white"/>
</clipPath>
</defs>
</svg>
