<svg width="130" height="35" viewBox="0 0 130 29" fill="none" xmlns="http://www.w3.org/2000/svg">
	<path
		d="M0.236328 12.8448L3.92797 6.83593L0.396256 1.06738H3.38155L5.70048 4.95314L8.13936 1.06738H11.0447L7.40637 6.87599L11.138 12.8315H8.12604L5.60719 8.70537L3.16831 12.8315H0.236328V12.8448Z"
		fill="#0E1079" />
	<path
		d="M21.5598 2.81664C21.1733 2.24246 20.6536 1.82851 19.9739 1.52139C19.3075 1.21427 18.5345 1.06738 17.6816 1.06738H13.1104V12.8315H15.5892V8.65195H17.6149C18.5745 8.65195 19.3741 8.50507 20.0405 8.22465C20.7202 7.93088 21.2266 7.49023 21.5865 6.9294C21.9463 6.36857 22.1195 5.67421 22.1195 4.87302C22.1195 4.07183 21.933 3.39082 21.5598 2.81664ZM19.0943 6.16827C18.7211 6.43534 18.2147 6.55551 17.575 6.55551H15.6159V3.21723H17.6149C18.228 3.21723 18.7211 3.35077 19.0809 3.64453C19.4541 3.92495 19.6407 4.35225 19.6407 4.93979C19.6407 5.48726 19.4541 5.90121 19.0943 6.16827Z"
		fill="#0E1079" />
	<path d="M50.1867 12.8448V3.32406H47.0015V1.06738H55.8907V3.33741H52.7055V12.8448H50.1867Z" fill="#0E1079" />
	<path
		d="M63.3938 1.06738H60.5685L56.1172 12.8315H58.8226L59.7155 10.3077H64.1801L65.0997 12.8315H67.8984L63.3938 1.06738ZM60.3153 8.22465L61.9279 3.79142L63.5938 8.22465H60.3153Z"
		fill="#0E1079" />
	<path
		d="M91.6475 6.99617C91.261 6.42198 90.7413 5.99468 90.0616 5.68756C89.3953 5.39379 88.6356 5.23356 87.7826 5.23356H85.7036V1.06738H83.2114V12.8448H87.716C88.4357 12.8448 89.0621 12.7647 89.6218 12.5911C90.1682 12.4309 90.6347 12.1905 91.0212 11.8567C91.4077 11.5229 91.7008 11.1223 91.9008 10.6549C92.1007 10.1876 92.2073 9.65344 92.2073 9.03919C92.2206 8.23801 92.0207 7.557 91.6475 6.99617ZM89.1953 10.3612C88.8222 10.6282 88.3157 10.7484 87.676 10.7484H85.7169V7.38341H87.716C88.3291 7.38341 88.8222 7.51694 89.1953 7.79735C89.5552 8.07777 89.7418 8.50507 89.7418 9.0926C89.7284 9.66679 89.5685 10.0807 89.1953 10.3612Z"
		fill="#0E1079" />
	<path
		d="M94.1797 12.8448V1.06738H96.6586V5.54068H101.656V1.06738H104.135V12.8448H101.656V7.82406H96.6586V12.8448H94.1797Z"
		fill="#0E1079" />
	<path
		d="M116.596 1.06738V12.8315H119.075V1.06738H116.596ZM114.437 6.99617C114.051 6.42198 113.531 5.99468 112.864 5.68756C112.198 5.39379 111.438 5.23356 110.586 5.23356H108.586V1.06738H106.094V12.8448H110.519C111.239 12.8448 111.865 12.7647 112.411 12.5911C112.971 12.4309 113.438 12.1905 113.824 11.8567C114.211 11.5229 114.504 11.1223 114.704 10.6549C114.904 10.1876 114.997 9.65344 114.997 9.03919C115.023 8.23801 114.824 7.557 114.437 6.99617ZM111.998 10.3612C111.625 10.6282 111.119 10.7484 110.479 10.7484H108.586V7.38341H110.492C111.119 7.38341 111.612 7.51694 111.972 7.79735C112.345 8.07777 112.531 8.50507 112.531 9.0926C112.545 9.66679 112.358 10.0807 111.998 10.3612Z"
		fill="#0E1079" />
	<path
		d="M121.061 12.8448V1.06738H129.097V3.24394H123.54V5.76768H128.244V7.75729H123.54V10.6416H129.164V12.8448H121.061Z"
		fill="#0E1079" />
	<path d="M0.236328 28.3746V16.5972H10.1918V28.3746H7.71289V18.8806H2.71519V28.388L0.236328 28.3746Z" fill="#0E1079" />
	<path
		d="M19.5874 16.5972H16.7621L12.3108 28.3746H15.0162L15.9091 25.8375H20.3871L21.3067 28.3746H24.1054L19.5874 16.5972ZM16.5089 23.7544L18.1214 19.3346L19.774 23.7544H16.5089Z"
		fill="#0E1079" />
	<path
		d="M30.0893 28.6285C29.1564 28.6285 28.3035 28.5083 27.5438 28.2813C26.7708 28.0543 26.1045 27.7071 25.5181 27.2664L26.6109 25.3035C27.0107 25.6507 27.4905 25.9178 28.0636 26.1181C28.6366 26.3184 29.2097 26.4252 29.8228 26.4252C30.3292 26.4252 30.7557 26.3584 31.1288 26.2249C31.4887 26.0914 31.7819 25.8911 31.9818 25.6507C32.1817 25.4104 32.2883 25.1166 32.2883 24.7961C32.2883 24.2887 32.115 23.9282 31.7552 23.6611C31.4087 23.4074 30.8623 23.2739 30.1293 23.2739H27.7837V21.3377H29.9294C30.3425 21.3377 30.7023 21.2843 30.9955 21.1774C31.3021 21.0572 31.5286 20.897 31.6886 20.6834C31.8485 20.4697 31.9284 20.216 31.9284 19.9089C31.9284 19.6151 31.8485 19.3614 31.6886 19.1745C31.5286 18.9742 31.3021 18.8273 30.9822 18.7205C30.6624 18.6136 30.2759 18.5736 29.8228 18.5736C29.2897 18.5736 28.7699 18.667 28.2768 18.8406C27.7704 19.0142 27.3439 19.2679 26.9974 19.5884L25.8646 17.759C26.3843 17.305 27.024 16.9445 27.7704 16.6908C28.5167 16.4371 29.3163 16.3169 30.1693 16.3169C31.0489 16.3169 31.8085 16.4371 32.4349 16.6908C33.0613 16.9445 33.5544 17.2917 33.9009 17.759C34.2474 18.2264 34.4206 18.7872 34.4206 19.4415C34.4206 19.7887 34.3407 20.1359 34.1941 20.4697C34.0475 20.8035 33.8476 21.084 33.581 21.351C33.3278 21.6181 33.0346 21.8184 32.7414 21.9653C33.3944 22.1923 33.9142 22.5528 34.3007 23.0335C34.6872 23.5276 34.8871 24.1418 34.8871 24.8762C34.8871 25.584 34.6872 26.2249 34.3007 26.7857C33.9009 27.3466 33.3411 27.7872 32.6215 28.1077C31.8618 28.4682 31.0355 28.6285 30.0893 28.6285Z"
		fill="#0E1079" />
	<path
		d="M60.062 16.5972V28.3746H62.5542V16.5972H60.062ZM57.8897 22.526C57.5032 21.9518 56.9835 21.5378 56.3171 21.2307C55.6507 20.9236 54.8911 20.7767 54.0381 20.7767H52.0391V16.5972H49.5469V28.388H53.9715C54.6912 28.388 55.3176 28.2945 55.864 28.1343C56.4237 27.9607 56.8902 27.7337 57.2767 27.3998C57.6631 27.066 57.9563 26.6654 58.1563 26.1981C58.3562 25.7307 58.4494 25.1832 58.4494 24.5823C58.4761 23.7678 58.2762 23.1001 57.8897 22.526ZM55.4508 25.8909C55.091 26.158 54.5846 26.2782 53.9449 26.2782H52.0657V22.9132H53.9582C54.5846 22.9132 55.0777 23.0467 55.4375 23.3405C55.8107 23.6209 55.9972 24.0482 55.9972 24.6357C55.9972 25.2099 55.8107 25.6239 55.4508 25.8909Z"
		fill="#0E1079" />
	<path
		d="M28.53 6.82251H28.69L31.0222 1.1875H33.8476L29.4363 10.508C29.0898 11.2557 28.6766 11.8032 28.2102 12.1638C27.7704 12.5109 27.2106 12.7112 26.5976 12.7112C25.8246 12.7112 25.1316 12.5777 24.5452 12.324L25.1183 10.1875C25.2649 10.2543 25.4381 10.3077 25.6247 10.3344C25.7846 10.3744 25.9712 10.3878 26.1178 10.3878C26.6776 10.3878 27.0374 10.1875 27.184 9.77355L27.3173 9.42637L22.7061 1.1875H25.758L28.53 6.82251Z"
		fill="#0E1079" />
	<path
		d="M42.0305 3.63135C41.5241 3.43105 40.9644 3.33758 40.3247 3.33758C39.7649 3.33758 39.2718 3.43105 38.8187 3.59129C38.3789 3.77823 38.0057 4.00524 37.6992 4.33907C37.3794 4.68625 37.1395 5.04678 36.9795 5.48743C36.8196 5.92809 36.7263 6.39545 36.7263 6.91622C36.7263 7.46369 36.8196 7.94441 36.9795 8.38506C37.1661 8.82571 37.3927 9.1996 37.7259 9.49337C38.0457 9.81384 38.4189 10.0542 38.8453 10.2411C39.2851 10.4014 39.7649 10.4949 40.298 10.4949C40.9377 10.4949 41.5241 10.3747 42.0972 10.1744C42.6436 9.93402 43.15 9.6269 43.5765 9.21295L45.0025 10.9756C43.7231 12.1907 42.1105 12.7916 40.1647 12.7916C39.2985 12.7916 38.4855 12.6581 37.7658 12.391C37.0462 12.0972 36.4198 11.7233 35.8867 11.2159C35.3803 10.6951 34.9671 10.0943 34.6739 9.35984C34.3807 8.63877 34.2341 7.83758 34.2341 6.95628C34.2341 6.14174 34.3674 5.39396 34.6739 4.67289C34.9405 3.95183 35.3669 3.32423 35.9 2.7901C36.4464 2.24263 37.0995 1.82868 37.8458 1.52156C38.6055 1.20108 39.4717 1.0542 40.4313 1.0542C41.2976 1.0542 42.1105 1.18773 42.8302 1.45479C43.5498 1.7085 44.2029 2.09574 44.7759 2.60316L43.3766 4.43254C42.9901 4.072 42.537 3.80494 42.0305 3.63135Z"
		fill="#0E1079" />
	<path
		d="M81.2392 1.00066V12.8315H78.7203C78.7203 9.70689 78.707 6.39532 78.707 3.27069C77.5742 3.27069 76.428 3.27069 75.2952 3.28404C75.2952 4.2054 75.2819 5.2336 75.2552 6.3152C75.2419 7.12974 75.2419 7.75733 75.122 8.57187C75.0154 9.23953 74.9087 9.85377 74.7222 10.3879C74.5622 10.9087 74.3223 11.3627 74.0158 11.7499C73.7226 12.0971 73.3628 12.3909 72.9496 12.5645C72.5365 12.7247 72.0301 12.8315 71.4437 12.8315C71.0972 12.8315 70.7773 12.7915 70.4841 12.738C70.2176 12.6846 69.9377 12.5912 69.6711 12.471L70.2442 10.2944C70.3775 10.3478 70.5108 10.4013 70.6574 10.428C70.804 10.4413 70.9506 10.468 71.0572 10.468C71.2704 10.468 71.4703 10.428 71.6436 10.3345C71.7902 10.2677 71.9501 10.1208 72.0567 9.89383C72.2033 9.64012 72.3499 9.333 72.4166 8.98582C72.5098 8.63864 72.5631 8.18463 72.6298 7.67722C72.7497 6.75585 72.7231 6.00808 72.7231 5.87454C72.7364 4.35229 72.7364 3.44428 72.7364 3.44428C72.7364 2.93686 72.7364 2.08226 72.7364 0.987305H81.2392V1.00066Z"
		fill="#0E1079" />
	<path
		d="M47.4813 16.5837V28.4145H44.9625C44.9625 25.2899 44.9492 21.9783 44.9492 18.8537C43.8164 18.8537 42.6702 18.8537 41.5374 18.867C41.5374 19.7884 41.5241 20.8166 41.4974 21.8982C41.4841 22.7127 41.4841 23.3403 41.3642 24.1549C41.2575 24.8225 41.1509 25.4368 40.9643 25.9709C40.8044 26.4917 40.5645 26.9457 40.258 27.3329C39.9648 27.6801 39.605 27.9739 39.1918 28.1475C38.7787 28.3077 38.2722 28.4145 37.6858 28.4145C37.3393 28.4145 37.0195 28.3745 36.7263 28.3211C36.4597 28.2676 36.1799 28.1742 35.9133 28.054L36.4864 25.8774C36.6197 25.9308 36.7529 25.9843 36.8995 26.011C37.0461 26.0243 37.1927 26.051 37.2994 26.051C37.5126 26.051 37.7125 26.011 37.8858 25.9175C38.0324 25.8507 38.1923 25.7038 38.2989 25.4768C38.4455 25.2231 38.5921 24.916 38.6587 24.5688C38.752 24.2216 38.8053 23.7676 38.872 23.2602C38.9919 22.3389 38.9653 21.5911 38.9653 21.4576C38.9786 19.9353 38.9786 19.0273 38.9786 19.0273C38.9786 18.5199 38.9786 17.6653 38.9786 16.5703L47.4813 16.5837Z"
		fill="#0E1079" />
</svg>