<svg width="48" height="48" viewBox="0 0 48 48" fill="none" xmlns="http://www.w3.org/2000/svg">
	<rect x="0.5" y="0.5" width="47" height="47" rx="23.5" fill="#DAE8F0" stroke="#0E1079" />
	<path
		d="M38.7869 16.3909L38.7658 16.4612V16.4778C38.6591 16.9133 38.3489 17.594 37.9028 18.4141C37.4483 19.2498 36.8804 20.1811 36.3224 21.055C35.7651 21.9278 35.2211 22.7381 34.8163 23.3304C34.6139 23.6264 34.4465 23.8677 34.3299 24.0348C34.2715 24.1184 34.2259 24.1834 34.1949 24.2273L34.1597 24.2772L34.1508 24.2898L34.1486 24.2929L34.1481 24.2936L34.148 24.2938L34.5557 24.5832L34.148 24.2938L34.1395 24.3057L34.1318 24.318L34.1256 24.3281C33.9558 24.5993 33.753 24.9234 33.7234 25.2941C33.6903 25.7074 33.8695 26.0709 34.155 26.4398C34.3659 26.7319 34.7769 27.1343 35.1906 27.5394L35.2441 27.5918C35.7018 28.0402 36.1944 28.5244 36.5845 28.9856L36.5844 28.9857L36.5926 28.9949C37.3413 29.8372 37.9888 30.6037 38.4861 31.2766C38.9875 31.9552 39.3079 32.5017 39.4409 32.9117C39.5571 33.3138 39.4775 33.4829 39.4175 33.5525C39.3418 33.6405 39.1445 33.7522 38.7072 33.7522H35.2064C34.9466 33.7522 34.7524 33.7023 34.5681 33.6058C34.373 33.5036 34.1669 33.3378 33.8998 33.0699C33.6828 32.8523 33.4458 32.5887 33.1532 32.2632C33.0828 32.1848 33.0091 32.1029 32.9318 32.0172C32.5378 31.5807 32.0619 31.0621 31.4599 30.4601L31.46 30.4601L31.4534 30.4537C29.3672 28.4423 28.3511 28.0514 27.6196 28.0514C27.2586 28.0514 26.807 28.0915 26.5083 28.4628C26.3687 28.6362 26.297 28.8416 26.2574 29.047C26.2178 29.2518 26.2044 29.4882 26.2044 29.7512V32.8907C26.2044 33.2779 26.1408 33.3916 26.0101 33.4793C25.8008 33.6196 25.3164 33.7522 24.2038 33.7522C20.6939 33.7522 16.7585 31.6122 13.9366 27.561L13.9366 27.5609L13.9333 27.5564C11.7856 24.5459 10.4225 21.9087 9.59786 19.9179C9.18543 18.9221 8.9086 18.0902 8.73565 17.4562C8.55879 16.8077 8.5 16.3999 8.5 16.238C8.5 16.0296 8.54241 15.9396 8.58603 15.8941C8.62782 15.8505 8.76745 15.7478 9.20028 15.7478H12.7011C13.072 15.7478 13.2405 15.8267 13.3555 15.9326C13.4959 16.0619 13.6314 16.2985 13.7953 16.7719C14.6637 19.3009 15.83 21.6726 16.9355 23.4197C17.4874 24.2919 18.0329 25.0224 18.5282 25.5414C18.7753 25.8005 19.0212 26.0189 19.2598 26.1759C19.4891 26.3268 19.7627 26.4553 20.0538 26.4553C20.197 26.4553 20.3743 26.44 20.5487 26.3613C20.737 26.2763 20.8818 26.1359 20.9827 25.9538C21.1588 25.6359 21.203 25.1806 21.203 24.62V19.4645V19.4509L21.2022 19.4372C21.1314 18.1443 20.7451 17.4103 20.3616 16.8887C20.2763 16.7727 20.1923 16.6687 20.1206 16.58L20.107 16.563C20.0291 16.4667 19.9704 16.3929 19.9225 16.3237C19.8324 16.1932 19.8121 16.1223 19.8121 16.0525C19.8121 15.9399 19.92 15.7478 20.2028 15.7478H25.7041C25.9871 15.7478 26.0542 15.8195 26.082 15.8568C26.1379 15.9315 26.2044 16.1131 26.2044 16.5346V23.4702C26.2044 24.3007 26.5945 24.9712 27.249 24.9712C27.9335 24.9712 28.447 24.5369 29.2344 23.7495L29.2442 23.7397L29.2535 23.7294C30.5542 22.2757 31.652 20.4451 32.4199 18.9938C32.8054 18.2652 33.111 17.6259 33.3204 17.1681C33.4252 16.9392 33.5061 16.7554 33.561 16.6282C33.5884 16.5646 33.6094 16.5152 33.6237 16.4813L33.64 16.4423L33.6443 16.432L33.6443 16.4319C33.7341 16.2232 33.8467 16.0598 33.9959 15.947C34.1396 15.8385 34.3551 15.7478 34.7062 15.7478H38.2071C38.6733 15.7478 38.7861 15.8695 38.8072 15.8996C38.8352 15.9396 38.8829 16.071 38.7869 16.3909Z"
		fill="#0E1079" stroke="#0E1079" />
</svg>